<svg xmlns="http://www.w3.org/2000/svg" width="831.64" height="420.75" viewBox="0 0 831.64 420.75">
  <g id="Group_347" data-name="Group 347" transform="translate(-2875.326 -530.18)">
    <path id="Path_491" data-name="Path 491" d="M4218.027,808.37c-1.1.061-2.205.175-3.307.175q-94.5.013-189-.042c-1.216,0-3.252,1.078-3.417-1.347-.018-.263,2.211-.979,3.4-.98q96.164-.063,192.329-.024Z" transform="translate(-511.061 -122.963)" fill="#fff"/>
    <path id="Path_492" data-name="Path 492" d="M4262.076,771.215q-60.656.022-121.312.045c-5.8,0-11.608.068-17.413,0-.733-.008-1.461-.641-2.191-.985.722-.5,1.437-1.424,2.168-1.439,5.075-.1,10.153.019,15.229.02q59.826.011,119.651.009c1.289,0,2.578.084,3.868.128Z" transform="translate(-555.11 -106.323)" fill="#fff"/>
    <path id="Path_493" data-name="Path 493" d="M2875.326,1106.063c.735-.047,1.47-.135,2.205-.135q63.322-.009,126.646-.005h2.161c.405,2.177.406,2.246-1.6,2.262-5.265.043-10.531.024-15.8.024q-55.564,0-111.127-.005c-.831,0-1.661.051-2.491.077Z" transform="translate(0 -256.536)" fill="#fff"/>
    <path id="Path_494" data-name="Path 494" d="M2875.326,1145.179H2979.9c.866,2.22-.167,2.563-1.875,2.552-6.092-.042-12.184-.008-18.276-.008q-40.705,0-81.411.012c-1.006,0-2.011.141-3.017.216Z" transform="translate(0 -274.027)" fill="#fff"/>
    <path id="Path_495" data-name="Path 495" d="M3495.867,742.331l4.761,1.822,16.458-44.8c-24.966-2.875-45.223,4.8-60.651,24.142-10.6,13.287-14.9,28.77-13.087,45.54,2.135,19.8,11.8,35.524,28.391,46.6,3.42,2.284,4.907,4.4,4.619,8.5-.393,5.609-.05,11.268-.155,16.9-.014.771-.79,1.529-1.213,2.292-.429-.754-1.216-1.5-1.229-2.263-.1-6.1-.1-12.2-.038-18.3a4.243,4.243,0,0,0-2.237-4.2,67.625,67.625,0,0,1-26.265-31.336c-.872-2.049-.463-4.956-3.5-5.744a1.077,1.077,0,0,1-.265-.961c1.766-2.454.052-4.88-.034-7.3-.243-6.873-.6-13.741-.925-20.929-.441-.023-1.525-.129-2.609-.13q-14.276-.021-28.552-.01c-3.846,0-3.846-.009-3.848-3.741,0-.918,0-1.835,0-3.172h8.423v-9.176c-.977-.045-1.946-.128-2.916-.128q-19.682-.013-39.363-.006c-3.856,0-4.947-1.075-4.947-4.907q-.009-35.761,0-71.523c0-3.723,1.213-4.907,5.008-4.913,6.1-.01,12.2,0,18.3-.01.992,0,1.984-.093,3.005-.143-1.606-12.222-3.2-24.194-4.731-36.175-.267-2.089-1.759-1.439-2.922-1.553-1.839-.18-4.29.843-4.413-2.515-.011-.3-1.351-.746-2.1-.8-1.732-.119-3.477-.038-5.487-.038v-5.424l-3.447-.208c2.825,10.635.616,20.387-4.293,29.864V610.345c-3.133-.9-5.766-1.352-8.112-2.434-1.31-.6-2.913-2.208-2.971-3.428-.057-1.2,1.5-3.365,2.642-3.589,4.92-.964,4.907-3.955,4.56-7.994-.672-7.823,2.009-15.026,5.24-22.012.1-.207.446-.3,1.027-.659v30.811h5.132v-6.393h7.7c.258-1.223.46-2.183.694-3.295,6.079.948,7.834-4.812,11.655-7.4a25.673,25.673,0,0,0,2.228-1.942c.381,3.251.712,6.078,1.06,9.046l3.107.434.4,2.956h7.618c.322.408.542.56.527.687-.511,4.529.95,7.569,4.816,10.685,8.454,6.814,9.891,22.352,2.806,32.293-2.126,2.982-4.433,5.836-6.637,8.763-1.076,1.429-.943,6.177.323,7.259a3.441,3.441,0,0,0,2.065.435c18.48.022,36.961.046,55.44-.064a3.9,3.9,0,0,0,2.793-1.873c6.166-12.042,12.2-24.15,18.277-36.238a9.44,9.44,0,0,1,.828-.96v82.449c6.665-.622,12.872-1.338,19.1-1.717,2.64-.16,5.321.46,7.99.571a3.045,3.045,0,0,0,2.252-.777c4.152-5.331,8.165-10.77,12.286-16.126,1.557-2.024,3.434-3.812,4.893-5.9.779-1.112.978-2.628,1.641-3.568a51.078,51.078,0,0,0,4.549-3.988c2.895-3.181,5.621-6.515,9.011-10.482-.184,2.8-.309,4.931-.465,7.056-.725,9.851-1.342,19.712-2.237,29.548-.448,4.918-1.458,9.782-2.082,14.688a3.031,3.031,0,0,0,.915,2.189c1.712,1.637,3.64,3.047,5.365,4.671,2.059,1.94,3.936,3.915,7.272,3.021.858-.23,2.047.778,3.084,1.217-.993.363-1.974.762-2.984,1.071a10.462,10.462,0,0,1-1.94.11c5.97,7.57,10.493,15.532,12.831,23.844l2.929.647c-.3.745-.631,1.477-.881,2.237a5.868,5.868,0,0,0-.657,2.55,67.42,67.42,0,0,1-1.74,33.881c-4.936,15.446-14.472,27.274-27.875,36.2a4.919,4.919,0,0,0-1.9,3.453c-.17,7.482-.1,14.968-.08,22.453.018,6.8-2.35,12.286-8.837,15.207a16.219,16.219,0,0,1-6.137,1.316c-6.834.16-13.674.064-20.512.056-1.29,0-2.8.228-2.271-2.345h2.574q9.425,0,18.85,0c8.563,0,13.906-5.357,13.923-13.979.015-8.039.042-16.079-.032-24.118a3.74,3.74,0,0,1,2.067-3.744,62.279,62.279,0,0,0,27.712-34.653,63.719,63.719,0,0,0-22.607-71.277,3.2,3.2,0,0,0-.791-.226c-1.433,3.085-2.953,6.185-4.27,9.37-.2.492.339,1.605.862,2.035a52.094,52.094,0,0,1,16.527,24.22,51.363,51.363,0,0,1,1.278,28.637c-3.7,15.564-12.735,27.187-26.813,34.84-1.669.908-3.382,1.735-5.058,2.591,3.291,7.861,1.24,15.715-4.281,20.315-5.032,4.191-13,5.057-18.634,1.966a17.362,17.362,0,0,1-8.219-19.791c-2.2-.728-4.471-1.378-6.665-2.217-17.026-6.51-28.128-18.581-32.932-36.111a52.707,52.707,0,0,1,24.392-59.315,53.95,53.95,0,0,1,22.437-7.083c1.37-.125,3.195-.663,2.721,2.13-13.968,1-26,6.205-35.938,16.865,8.858,3.714,12.1,10.494,9.995,19.206-1.482,6.143-6.183,9.768-12.619,10.856-1.249,2-.233,3.259,1.359,4.56,8.993,7.345,8.491,20.225-1.052,26.8-1.148.791-1.43,1.415-.671,2.577.749,1.145,1.529,1.843,2.869.806.726-.562,1.49-1.072,2.233-1.6,1.85,1.356,1.85,1.356-1.632,4.48l4.641,5.414,7.173-10.284-2.85-1.8Zm12.667,64.082A13.914,13.914,0,0,0,3497.325,821a14.254,14.254,0,0,0,28.391.612,14.023,14.023,0,0,0-11.066-15.2Zm-44.794-141.8H3369.39c-.065.9-.164,1.621-.165,2.343-.008,18.107.024,36.214-.044,54.321-.008,2.211.5,3.178,2.928,3,3.033-.216,6.109.132,9.134-.14a5.258,5.258,0,0,0,3.51-1.9c3.781-5.617,7.271-11.43,11-17.086,1-1.51.974-2.429-.252-3.8a11.813,11.813,0,0,1-.435-15.438,11.215,11.215,0,0,1,12.1-3.835c1.865.546,3.887,1.706,4.975-1.26.1-.262,1.526-.034,2.981-.034-2.009,2.515-2.4,4-.911,6.168,2.318,3.374,3.177,7.214,1.1,11.241a2.461,2.461,0,0,0,.529,2.245,28.694,28.694,0,0,0,4.826,3.612,2.407,2.407,0,0,0,2.306-.5c4.571-7.292,9.006-14.669,13.5-22.009,2.024-3.3,4.108-6.571,6.213-9.93l13.088,9.063Zm83.712.005-.814-.191q-11.441,13.648-22.893,27.288c-1.12,1.331-1.175,2.02.712,2.718,4.364,1.616,8.635,3.485,13.128,5.326l-.913,2.272c-3.219-1.315-6.277-2.514-9.294-3.807-6-2.571-5.989-2.593-8.417,3.251-.282.679-.583,1.352-.835,2.043-4.788,13.1-9.594,26.187-14.3,39.312-.366,1.022-.048,2.289-.048,3.442-3.313,11.291-7.3,22.539-11.195,33.817-.228.659.237,1.558.379,2.345.582-.533,1.429-.955,1.7-1.616,1.838-4.4,3.471-8.9,5.372-13.272.427-.985,1.646-1.627,2.5-2.426l.714.615a13.063,13.063,0,0,1-.5,2.354c-2.957,7.215-5.914,14.432-8.962,21.609-1.645,3.874-1.724,3.84,2.426,5.171a28.439,28.439,0,0,0,1.372-2.642q3.611-9.073,7.152-18.174c.608-1.555,1.332-2.845,3.709-1.979-1.572,3.83-3.167,7.516-4.572,11.274a11.578,11.578,0,0,0-.219,3.34c.833-.808,1.675-1.61,2.493-2.435.116-.116.105-.35.182-.516q6.815-14.846,13.665-29.677c.264-.568.957-.939,1.455-1.4.582-.533,1.417-.947,1.718-1.607,6.007-13.181,12.054-26.345,17.843-39.623,1.509-3.461,3.55-6.7,3.729-10.813.385-8.846,1.311-17.668,2.006-26.5C3547,670.951,3547.219,667.783,3547.452,664.615Zm-18.109,91.538c-2.866,6.251-5.642,12.328-8.438,18.4q-4.245,9.209-8.521,18.4l.466.868c1.184-.364,2.581-.443,3.517-1.141,4.022-3,8.379-4.578,13.409-3.668a2.735,2.735,0,0,0,3.156-1.444c4.478-6.566,10.942-9.588,18.718-9.848,4.045-.135,4.106,0,4.61-4.091a12.632,12.632,0,0,1,.325-1.906c.388-1.365.041-1.959-1.387-2.677a7.592,7.592,0,0,1-.521-13.163c.752-.48,1.638-1.705,1.5-2.392a3.6,3.6,0,0,0-2.063-2.341,17.513,17.513,0,0,1-11.95-19.883c.664-3.734-.128-5.28-4.061-7.129l-13.291,29.7ZM3397.881,654.217c-.757-6.492-1.506-12.811-2.224-19.134-.354-3.116-.75-6.234-.883-9.362-.028-.654.924-1.516,1.629-1.944.239-.145,1.5.659,1.628,1.191.724,2.947,1.218,5.95,1.839,8.923,1.318,6.307,2.692,12.6,3.984,18.914.336,1.643,1.06,2.174,2.666,1.434a11.8,11.8,0,0,0-.1-1.728c-1.8-8.652-3.6-17.3-5.447-25.945-2.062-9.639-4.525-19.221-3.729-29.226.085-1.074.011-2.161.011-3.405-5.228.434-2.381-4.343-4.489-6.1a15.463,15.463,0,0,1-1.512,1.572c-1.9,1.491-3.66,3.4-5.826,4.23-1.528.586-2.056.965-2.035,2.5.063,4.619.033,9.239.022,13.858-.012,4.911-.123,4.554,4.279,4.36,2.08-.092,2.727.739,2.934,2.626.5,4.583,1.161,9.149,1.736,13.724.9,7.136,1.76,14.276,2.681,21.41C3395.239,653.6,3395.47,655.25,3397.881,654.217Zm52.732,72.694h-81.392c0,1.592.037,2.962-.009,4.329-.057,1.688.767,2.234,2.38,2.232,24.571-.03,49.141-.014,73.711-.077a3.506,3.506,0,0,0,2.555-1.144A44.991,44.991,0,0,0,3450.613,726.911Zm16.458-69.759h-3.25l-59.542,0q-16.062,0-32.125,0c-1.4,0-2.768-.16-2.964,1.939-.222,2.385.726,2.915,2.973,2.91q44.588-.1,89.175-.043C3465.671,661.96,3465.671,661.955,3467.071,657.151Zm19.08,42.136V626.524c-1.416,1.952-2.234,4.1-3.455,6-1.887,2.924-2.3,6.035-2.285,9.429.086,18.647.04,37.294.051,55.94,0,1.055.1,2.111.182,3.583ZM3518.5,794.7a22.864,22.864,0,0,1,13.015,12.65,50.375,50.375,0,0,0,22.708-26.79c-10.082-.818-16.825,3.344-21.21,11.535C3526.353,790.46,3522.316,791.137,3518.5,794.7Zm-40.469-151.42-.616-.126a47.936,47.936,0,0,0-2.243,4.375c-1.461,3.7-4.332,6.791-4.307,11.137.085,14.856.03,29.713.044,44.57,0,.937.124,1.875.213,3.145,1.677-.878,2.855-1.563,4.089-2.125a4.378,4.378,0,0,0,2.893-4.608c-.132-17.624-.072-35.249-.072-52.875Zm-70.744,1.531c8.022-8.623,13.172-17.565,9.124-29.207-1.44-4.142-3.551-7.937-8.212-10.185v7.741l-7.372.428C3403.023,624.2,3405.114,634.307,3407.287,644.809Zm52.775,99.912c-5.654,14.881-4.581,28.9,2.539,42.534,1.443,2.762,1.686,2.751,4.176.734a14,14,0,0,0-1.262-22.784c-1.893-1.22-2.439-2.039-1.853-4.423C3465.057,755.108,3463.882,749.76,3460.062,744.72Zm-17.109-69.864a43.273,43.273,0,0,0-.5,4.354q-.045,20.347-.02,40.693c0,5.183-.087,4.153,4.286,4.363,2.126.1,2.944-.483,2.93-2.746-.086-13.379-.019-26.759-.1-40.139a4.174,4.174,0,0,0-1.284-2.74A57.832,57.832,0,0,0,3442.952,674.856Zm25.347-11.89-.738-.146c-.776,1.524-1.5,3.08-2.34,4.565a26.684,26.684,0,0,0-3.912,14.824c.423,9.582.114,19.2.123,28.8,0,.778.083,1.555.155,2.831a31.291,31.291,0,0,1,3.529-2.86c2.586-1.507,3.3-3.584,3.262-6.569-.181-12.829-.078-25.662-.079-38.493Zm-16.055,18.548v43.005c1.878-2.284,3.209-4.156,4.8-5.769a6.969,6.969,0,0,0,1.992-5.451c-.1-9.694-.041-19.389-.052-29.084,0-1-.088-2.009-.166-3.691l-2.273,3.812Zm60.259,114.38c-9.121.024-16.872,5.694-19.267,13.119-.736,2.282.37,3.823,2.616,3.386a3.883,3.883,0,0,0,1.938-1.656,16.464,16.464,0,0,1,17.328-6.832,15.706,15.706,0,0,1,9.044,5.291c1.575,1.8,2.641.014,3.885-.225a3.728,3.728,0,0,0,.049-2.432C3524.717,799.448,3518.678,796.478,3512.5,795.894Zm-45.9-39.4a4.1,4.1,0,0,0,1.226.21c5.2-1.014,9.742-6.563,9.966-12.135.207-5.158-3.917-11.123-8.79-12.43a2.876,2.876,0,0,0-2.471.914,84.264,84.264,0,0,0-4.567,7.464,2.5,2.5,0,0,0-.091,2.171A22.261,22.261,0,0,1,3466.6,756.5Zm-26.9-74.385-.456-.182c-1.406,2.221-2.717,4.509-4.243,6.644a11.85,11.85,0,0,0-2.022,7.485c.125,8.385.041,16.772.055,25.159,0,.967.111,1.934.17,2.884h6.5Zm-30.474,3.735c-3.315-2.937-9.144-2.05-12.159,1.634a9.382,9.382,0,0,0,1.455,13.47,9.48,9.48,0,0,0,13.926-2.691c2.186-3.446,1.6-8.951-1.268-10.61L3404.5,699.78c-1.622-2.887-3.02-5.251-4.258-7.7-.22-.434.231-1.206.372-1.822.6.2,1.445.209,1.768.624a32.9,32.9,0,0,1,2.176,3.634Zm29.721,50.3h-22.278v8.8h22.278Zm46.968,54.948c5.226-14.838,10.3-29.249,15.363-43.626-3.8-2.292-3.748-2.275-5.076,1.639-1.178,3.474-2.507,6.895-3.733,10.353-3.46,9.76-6.9,19.527-10.435,29.527Zm-8.8,12.365c2.992,3.17,3.128,3.158,5.194-.273a6.523,6.523,0,0,0,.6-.916c.884-2.3,1.79-1.508,2.786-.078l-2.935,5.373,6.7,3.13,7.219-12.619a40.7,40.7,0,0,0-5.23-2.166c-2.158-.6-2.264-1.779-1.557-3.478.812-1.949,1.734-3.859,2.4-5.855.212-.634-.237-1.49-.383-2.244l-.944.123-3.256,8.884c-1.9.369-3.7.175-4.3.929C3481.112,797.184,3479.177,800.4,3477.126,803.462Zm27.26-9.388c3.015.291,4.977-.234,6.213-3.111,2.815-6.554,5.973-12.962,8.96-19.443,2.141-4.646,4.233-9.314,6.325-13.927-3.458-2.353-3.584-2.366-5.131.925q-6.312,13.436-12.53,26.917C3506.928,788.231,3505.718,791.068,3504.385,794.074Zm-73.924-96.457-.766-.164c-2.952,5.289-7.736,9.818-6.43,16.853a27.732,27.732,0,0,1,.044,4.981c0,5.366.006,5.422,5.305,4.868.668-.07,1.76-1.1,1.768-1.7C3430.5,714.176,3430.461,705.9,3430.461,697.616Zm-16.257,4.8v21.816a32.22,32.22,0,0,1,3.857.027c2.306.3,3.089-.612,3-2.9-.144-3.855.008-7.721-.079-11.58a4.184,4.184,0,0,0-.8-2.748C3418.419,705.406,3416.4,704.067,3414.2,702.414Zm-2.9,21.71V703.633l-6.516,2.059v18.431Zm-9.359-.01c0-6.027.068-11.905-.045-17.78-.03-1.532-2.2-2.508-2.967-1.447-1.489,2.058-3.481,4.206-3.834,6.533-.623,4.111-.175,8.385-.175,12.694Zm-2.078-126.823c0,4-.115,7.842.1,11.67.042.739,1.262,1.7,2.138,2.026.953.353,2.137.08,3.449.08V597.291Zm145.081,132.887c-1.5,9.288,2.695,16.725,10.041,18.269A45.868,45.868,0,0,0,3544.949,730.178ZM3375.6,597.287c0,3.915.08,7.662-.033,11.4-.061,2.013.8,2.465,2.635,2.428,1.755-.036,3.078-.1,3-2.394-.093-2.937-.114-5.885.019-8.819.1-2.155-.654-3.1-2.853-2.786C3377.578,597.233,3376.766,597.22,3375.6,597.287Zm66.561,151.286-.3-.8h-33.574l-.368.771c.635.332,1.267.949,1.9.953q15.093.085,30.188-.01A6.327,6.327,0,0,0,3442.159,748.573Zm-85.573-144.906v1.44c2.44.7,4.865,1.458,7.337,2.017.393.089,1.373-.69,1.427-1.144a50.955,50.955,0,0,0,.07-5.448Zm35.668,112.521-.535-.191-5.058,8.108h5.593ZM3557.1,757.326c-4.6,3.526-4.469,7.558,0,9.474Zm-115.369-21.218v8.75l.816.234,3.336-8.984Zm-76.353-138.365V584.576A17.988,17.988,0,0,0,3365.379,597.743ZM3498.35,797.317c3.411-1.588,3.876-4.9,4.6-8.066C3499.547,790.8,3499.989,794.674,3498.35,797.317ZM3373.131,604.734c0-.21-.009-.421-.014-.632h-4.835l.013.632Z" transform="translate(-213.517 -17.844)" fill="#fff"/>
    <path id="Path_496" data-name="Path 496" d="M3361.537,1057.251c-.17-6.269-.183-12.547-.553-18.8-.424-7.169,6.182-13.916,13.748-13.811,4.432.062,8.867.064,13.3-.024,3.112-.062,4.432-1.424,4.737-4.54a6.5,6.5,0,0,1,6.205-5.907c1.374-.133,2.8.105,4.142-.14.856-.157,2.056-.725,2.311-1.4.509-1.357-.187-2.421-1.754-2.841a23.616,23.616,0,0,1-11.691-7.322,24.5,24.5,0,0,1-2.088-29.432,24.244,24.244,0,1,1,30.623,35.324,61.7,61.7,0,0,1-6.044,2.192v3.568c1.914,0,3.739-.058,5.559.012,4.113.159,6.233,2.045,6.954,6.089.608,3.408,1.689,4.377,5.186,4.422,4.064.052,8.127.01,12.191.019,8.441.017,14.662,5.788,14.722,14.2q.209,29.231-.009,58.464c-.067,8.379-6.328,14.211-14.754,14.221-23,.028-45.993-.053-68.989.047-7.655.033-14.834-6.157-14.364-14.474.4-6.992.368-14.01.423-21.017.022-2.851-.365-5.705-.328-8.554.045-3.457.341-6.911.534-10.373.573,1.423,1.6,2.842,1.631,4.285.172,7.2.085,14.4.088,21.6,0,4.8-.074,9.606.021,14.406.125,6.364,4.422,10.982,10.753,11.408,3.586.242,7.2.035,10.8.107,1.71.035,1.931-.923,1.921-2.3-.035-4.8.1-9.608-.058-14.4-.077-2.324.684-2.961,2.973-2.944,13.389.1,26.78.051,40.169.052h2.939c0,5.99.021,11.611-.015,17.232-.009,1.35.131,2.4,1.853,2.36,4.15-.1,8.318.038,12.446-.309,4.472-.377,8.628-4.261,8.9-8.737.459-7.542.475-15.116.52-22.678.073-12.19-.139-24.383.069-36.569.153-8.957-5.813-14.279-13.584-13.641-3.853.316-7.753.082-11.631.045a6.754,6.754,0,0,1-6.935-6.1c-.445-3.188-1.321-4.185-4.578-4.241-6.721-.114-13.446-.048-20.17,0-2.694.018-4.169,1.347-4.541,4.142-.575,4.318-2.887,6.192-7.281,6.211-4.155.018-8.311,0-12.466.007-7.245.017-12.031,4.792-12.1,12.109-.039,4.34.154,8.69-.092,13.017C3363.135,1053.922,3362.129,1055.575,3361.537,1057.251Zm52.834-49.847c9.81-1.126,18.623-11.627,17.3-23.211-1.357-11.919-11.986-20.593-23.6-19.374a21.8,21.8,0,0,0-19.608,23.659c.874,10.826,11.171,19.213,16.939,18.524.047-.865.04-1.776.154-2.671.357-2.8-.507-4.5-3.2-6.118-8.977-5.387-8.423-19.408.836-24.182a3.737,3.737,0,0,0,2.441-3.464c.231-2.681,1.942-4.173,4.275-4.142a4.719,4.719,0,0,1,4.468,4.4c.109.818.666,1.57.818,2.39a6.337,6.337,0,0,1-.044,2.306c-.106.548-.746,1.036-.749,1.553C3414.36,987.121,3414.372,997.167,3414.372,1007.4Zm-24.84,101.2a3.593,3.593,0,0,0,.905.291c12.743.027,25.485.025,38.228.074,1.751.007,1.906-1.007,1.9-2.337-.016-3.971-.131-7.948.054-11.911.112-2.412-.842-2.89-3.043-2.872-11.819.1-23.64.045-35.459.046h-2.586Zm22.074-94.722a11.327,11.327,0,0,0,.154-1.246q.017-20.32.018-40.641c0-.368.115-.845-.07-1.084-.553-.72-.191-1.971-1.854-2.011-1.938-.448-1.45,1.252-1.918,2.033-.287.48-.086,1.259-.086,1.9q0,19.077,0,38.153v2.894Zm-6.4-16.789V975.98C3396.483,979.889,3396.091,992.68,3405.21,997.1Z" transform="translate(-216.379 -192.532)" fill="#fff"/>
    <path id="Path_497" data-name="Path 497" d="M3801.651,1000.847c.645-1.742,1.13-3.31,1.823-4.78a2.211,2.211,0,0,1,1.524-1.118c2.1-.129,4.218-.053,6.368-.053.529,1.859.053,4.627,3.689,3.019,0-2.631,0-5.457,0-8.282q0-6.791,0-13.583c0-1.258.046-2.519-1.775-2.426-4.5.228-9,.458-13.775.7v20.249l-1.046.308c-.44-1.178-1.213-2.344-1.26-3.537-.159-4.06-.052-8.128-.067-12.194,0-.994-.09-1.987-.15-3.217H3739.84c-.336-2.477-.336-2.513,2.1-2.514q25.778-.016,51.555-.019c1.479,0,3.159.534,4.106-1.384.167-.338,1.178-.344,1.8-.359,6.166-.148,12.346-.07,18.493-.487,2.4-.163,4.683-1.572,7.083-2.142,3.753-.89,7.542-1.677,11.358-2.208a3.33,3.33,0,0,1,2.714,1.608c1.494,3.739,4.039,4.84,7.95,4.524,4.478-.363,9.007-.084,13.893-.084,0,2.856.122,5.416-.1,7.946-.044.5-1.4,1.237-2.177,1.269-3.413.14-6.84.171-10.251.024-2.174-.094-3.359.364-3.632,2.841-.5,4.577-1.445,9.1-2,13.677-.2,1.659-.77,2.215-2.4,2.151-6.723-.265-13.449-.594-20.175-.6-5.08-.008-10.161.442-15.242.666C3803.742,1000.891,3802.574,1000.847,3801.651,1000.847Zm56.288-21.288c.8-3.879.656-4.093-2.684-4.1-6.646-.012-13.294.058-19.938-.068-1.124-.021-2.233-.849-3.349-1.3a20.725,20.725,0,0,1,3.211-1.184,16.222,16.222,0,0,1,3.13-.043l.4-1.023c-1.175-.841-2.462-2.523-3.506-2.384-6.073.813-12.087,2.062-17.444,5.024v23.381c6.851.135,13.547.226,20.241.424,2.283.067,2.886-1.048,2.663-3.5a37.7,37.7,0,0,1-4.63-.063c-.593-.074-1.1-.854-1.641-1.313.524-.349,1.024-.949,1.574-1,1.55-.137,3.12-.048,4.914-.048.252-1.188.48-2.265.8-3.765-2.3,0-4.135.072-5.954-.05-.464-.03-.887-.675-1.329-1.038.437-.482.815-1.287,1.323-1.381a12.6,12.6,0,0,1,3.585-.06c2.82.307,3.681-.975,3.044-3.939-2.03,0-4.138.1-6.227-.061-.606-.046-1.155-.826-1.73-1.27.6-.414,1.182-1.141,1.811-1.186,2.113-.15,4.242-.056,6.366-.056Z" transform="translate(-385.134 -194.552)" fill="#fff"/>
    <path id="Path_498" data-name="Path 498" d="M3846.929,904.459c4.007-2.325,7.688-4.524,11.445-6.583a5.35,5.35,0,0,1,2.668-.365c10.049.425,20.094.948,30.145,1.327,4.518.171,9.045.117,13.567.07a4.534,4.534,0,0,0,2.26-.787,36.037,36.037,0,0,0,6.041-4.258c2.535-2.524,4.876-2.813,8.22-1.458,9.683,3.925,19.527,7.45,29.3,11.143.571.216,1.1.534,2.106,1.027-5.706,2.161-11,4.167-16.294,6.171-5.137,1.945-10.3,3.813-15.4,5.855-3.9,1.563-4.189,1.6-7.742-1.7.658-.383,1.441-1.136,1.755-.975,3.6,1.85,6.529-.512,9.582-1.539a126.138,126.138,0,0,0,16.169-6.653c-3.779,0-7.558-.023-11.336.008-2.311.019-4.562-.336-6.536,1.765-1.656,1.763-3.6.709-4.962-.975-1.469-1.812-.861-3.489.639-4.894,1.6-1.5,3.23-1.127,4.991-.039a9.085,9.085,0,0,0,4.071,1.556,79.556,79.556,0,0,0,13.438-.493c-7.34-2.795-14.658-5.649-22.047-8.309a4.27,4.27,0,0,0-3.255.68,54.686,54.686,0,0,0-7.158,5.516,11.8,11.8,0,0,0-2.921,4.67c-.531,1.576-.306,3.084,2.222,3.449,1.669.241,3.148,1.8,4.712,2.769q-.208.589-.417,1.177c-1.254-.287-2.525-.513-3.757-.874-1.7-.5-3.388-1.61-5.063-1.577q-20.2.4-40.394,1.194a11.711,11.711,0,0,1-7.261-1.795C3852.976,907.769,3850.051,906.253,3846.929,904.459Zm5.428.187c3.89,2.168,7.382,5.055,12.547,4.367,5.38-.716,10.868-.6,16.308-.888,4.024-.214,8.045-.495,12.183-.752.052-.9.11-1.529.122-2.159.08-4.046.078-4.089-4.049-4.239-7.2-.26-14.42-.155-21.583-.78C3862.108,899.692,3856.9,900.251,3852.357,904.646Zm51.475,2.832c.837-5.84.837-5.84-4.416-6.063a7.94,7.94,0,0,1-.829-.061c-2.194-.324-2.815.659-2.923,2.8-.135,2.682.715,3.7,3.411,3.357A38.5,38.5,0,0,1,3903.833,907.478Z" transform="translate(-432.921 -161.041)" fill="#fff"/>
    <path id="Path_499" data-name="Path 499" d="M3616.625,579.328c0-1.916-.009-3.441,0-4.966.043-6.374.408-12.766.054-19.118-.386-6.928,1.371-13.3,3.674-19.653a34.562,34.562,0,0,1,1.288-3.916,3.051,3.051,0,0,1,1.968-1.491,2.27,2.27,0,0,1,1.729,1.33c2.029,6.832,5.249,13.282,5.061,20.777-.309,12.279.889,24.66-.264,36.835-.908,9.593-.8,19.13-1.318,28.684a20.764,20.764,0,0,1-2.269,7.5c-.478,1-2.493,2.173-3.354,1.888a5.875,5.875,0,0,1-3.167-3.223c-3.08-8.313-1.52-17.027-1.967-25.579-.167-3.181-1.05-6.318-1.4-9.5-.284-2.58-.447-5.266,2.912-6.608,0,2.171.063,4.414-.021,6.652-.058,1.549.535,2.056,2.083,2.137,6.273.325,6.269.375,6.278-5.735.018-11.273-.01-22.546.1-33.817.021-2.153-.567-2.969-2.814-2.884-6.542.248-5.588-1.023-5.618,5.478q-.047,10.256.082,20.511C3619.681,576.679,3618.924,578.1,3616.625,579.328Zm9.812,27.161c0-3.505-.1-7.014.038-10.513.077-1.988-.882-2.366-2.515-2.222-1.473.13-3.346-.47-3.339,2.084.021,7.009-.04,14.019.04,21.027.02,1.8.786,3.236,2.995,3.157,2.16-.077,2.8-1.371,2.79-3.3C3626.421,613.314,3626.439,609.9,3626.437,606.489Zm-2.5-71.56-.685,0-3.653,11.108h7.913Z" transform="translate(-330.257)" fill="#fff"/>
    <path id="Path_500" data-name="Path 500" d="M3843.326,1102.389c0,4.877,0,9.395-.005,13.913,0,.634-.073,1.267-.143,2.415-5.127-1.63-7.748,1.946-10.744,4.925a2.276,2.276,0,0,1-2.183-.029c-3.3-4.984-8.107-5.2-13.476-5.132-17.908.238-35.821.088-53.732.087h-3.031c0-5.068-.062-9.921.03-14.771.037-1.969,1.707-1.557,2.926-1.559q16.9-.031,33.791-.017,21.6,0,43.208.017C3840.963,1102.239,3841.96,1102.325,3843.326,1102.389Zm-2.674,2.143h-66.606c-3.231,0-6.468-.107-9.688.079-.792.046-2.143,1-2.186,1.614-.221,3.187-.1,6.4-.1,9.856h3.384c17.539,0,35.078.105,52.615-.061,5.172-.049,10.148-.347,12.952,5.338,3.175-2.51,5-6.557,9.633-5.224Z" transform="translate(-394.183 -254.879)" fill="#fff"/>
    <path id="Path_501" data-name="Path 501" d="M3620.159,1152.225c0,1.419.028,2.875,0,4.329a8.486,8.486,0,0,1-8.783,8.636q-3.88.012-7.759,0c-5.555-.012-9.057-3.554-9.094-9.2-.008-1.184,0-2.367,0-3.822-4.971-.171-9.34-1.524-12.334-5.627-2.541-3.482-2.088-7.473-1.907-11.665.981-.064,1.864-.17,2.747-.17,16.257-.011,32.514.026,48.771-.054,2.1-.01,2.893.447,2.9,2.728C3634.7,1146.826,3630.874,1150.9,3620.159,1152.225Zm11.549-14.894h-48.842c-1.109,6.828,3,11.9,9.946,12.023q14.547.249,29.1,0C3628.854,1149.229,3632.877,1144.142,3631.708,1137.331Zm-34.753,14.757c0,1.5-.02,2.683,0,3.863q.13,6.576,6.7,6.634c2.582.023,5.166.03,7.748-.007,3.514-.05,5.606-1.674,6.1-5.026a38.261,38.261,0,0,0,.046-5.464Z" transform="translate(-314.04 -269.337)" fill="#fff"/>
    <path id="Path_502" data-name="Path 502" d="M3857.75,1212.784c-.83-8.1,2.642-14.912,4.24-22.164h26.845c1.314,6.6,2.663,13.226,3.922,19.865.236,1.244-.163,2.943-1.75,2.2-2.653-1.238-5.016.1-7.5.1q-6.648-.013-13.3,0Zm33.165-2.5c-1.462-5.739-2.782-11.042-4.216-16.313-.11-.405-1-.806-1.556-.843a31.105,31.105,0,0,0-4.978.017,2.106,2.106,0,0,0-1.522,1.169c-1.406,5.328-.65,10.64.094,15.827h6.125c-.108-1.66-.219-3.113-.293-4.569-.14-2.781-.132-2.781,2.213-2.436.145,2.346.29,4.71.44,7.148Zm-19.294-.06c.194-4,.668-7.769.487-11.5-.251-5.161-1.046-5.633-5.726-5.685-1.882-.021-2.921.43-3.113,2.462a24.708,24.708,0,0,1-.969,3.151c-.894,3.76-1.731,7.534-2.634,11.5h3.961c0-1.917-.119-3.664.057-5.379.073-.711.781-1.357,1.2-2.031.428.737,1.14,1.442,1.225,2.217a48.98,48.98,0,0,1,.058,5.268Zm3.476-9.865-.463-.047c-.164,2.747-.38,5.493-.448,8.243-.015.571.519,1.155.8,1.733.294-.562.867-1.14.836-1.684C3875.667,1205.847,3875.354,1203.1,3875.1,1200.356Z" transform="translate(-437.686 -294.275)" fill="#fff"/>
    <path id="Path_503" data-name="Path 503" d="M3360.638,903.18h-3.758c-1.561,1.934.838,5.073-2.554,6.753-.136-2.449-.246-4.431-.369-6.658h-11.209c-.606,1.155.651,3.891-2.558,2.857-.121-.9-.242-1.8-.39-2.906h-11.4a24.724,24.724,0,0,1-.058,4,1.413,1.413,0,1,1-2.3.133,28.879,28.879,0,0,1-.047-3.83c-3.7-1.876-8.5,1.524-11.706-2.071l.129-.941c15.377,0,30.756.035,46.133-.042,2.094-.011,2.727.658,2.665,2.705-.132,4.306-.04,8.617-.04,13.042h-61.891l-.54-2.35h59.891Z" transform="translate(-189.556 -164.993)" fill="#fff"/>
    <path id="Path_504" data-name="Path 504" d="M3737.558,1173.988c-1.055.071-2.044.194-3.032.2-9.681.014-19.363-.075-29.042.066-2.5.036-3.456-.807-3.014-3.159.795-4.226,1.655-8.44,2.549-12.646.324-1.523.827-3.008,1.245-4.511.074-.265.094-.751.2-.77a55.587,55.587,0,0,1,6.811-.966,5.26,5.26,0,0,1,2.919,1.24c1.3.952,2.348,2.859,3.654,3,1.072.119,2.335-1.775,3.565-2.708.8-.6,1.656-1.489,2.536-1.551,6.9-.484,6.968-.45,8.846,6.074C3736.234,1163.251,3738.464,1168.119,3737.558,1173.988Zm-33.2-2.536,3.812.176c.157-2.025.181-3.853.5-5.628.119-.672.907-1.225,1.391-1.833.368.614,1,1.206,1.052,1.845.145,1.8.051,3.613.051,5.491h7.689c-1.025-5.175,2.247-10.775-3.605-15.116-1.993-1.479-3.639-1.9-5.464-1.494-.863.191-1.418,2.141-1.948,3.365a23.931,23.931,0,0,0-1.181,3.666C3705.879,1164.977,3705.172,1168.047,3704.358,1171.452Zm31.39.043c-1.256-4.846-2.312-9.266-3.593-13.621-.333-1.133-1.209-2.726-2.114-2.942-1.918-.457-4.207-.927-5.473,1.675-.4.831-1.442,1.344-2.157,2.036-.432.417-1.137.891-1.149,1.352-.093,3.836-.053,7.674-.053,11.39h8.4V1164.2c.613.036,1.415-.021,1.442.1.526,2.341.962,4.7,1.444,7.2Z" transform="translate(-368.507 -277.068)" fill="#fff"/>
    <path id="Path_505" data-name="Path 505" d="M3810.229,1271.565H3775.57c-1.209-4.768.763-8.984,1.714-13.323.452-2.06,1.1-4.077,1.627-6.121.414-1.6,1.175-2.527,3.066-2.305a49.031,49.031,0,0,0,4.977.044c1.5.021,2.875-.272,3.771,1.759.775,1.76,3.1,1.434,4.365-.207.444-.574,1.019-1.439,1.572-1.469,2.759-.152,5.534-.137,8.3-.016a2.089,2.089,0,0,1,1.571,1.184c1.257,6.366,4.49,12.34,3.836,19.084C3810.331,1270.559,3810.293,1270.923,3810.229,1271.565Zm-32.645-2.646c2.6.872,3.807.4,3.721-2.135a14.674,14.674,0,0,1,.336-3.57c.121-.562.706-1.025,1.081-1.532.358.6.976,1.179,1.024,1.8.139,1.809.049,3.635.049,5.638h18.726c-.137-2.064-.356-3.883-.321-5.7.012-.589.689-1.166,1.063-1.748.5.507,1.34.956,1.438,1.532.336,1.962.413,3.969.584,5.922,3.148.648,3.108-1.2,2.677-3.047-.836-3.574-1.924-7.089-2.763-10.663-.778-3.312-1.25-3.674-5.153-2.824,1.394,3.949-1.718,4.809-4.346,6.06-.412.2-.752.679-1.158.722a8.158,8.158,0,0,1-3.283.014,11.623,11.623,0,0,1-3.782-2.146,11.764,11.764,0,0,1-1.737-2.766c-.508-.8-.922-2-1.642-2.248-1.437-.488-2.625.079-3.046,1.85-.763,3.212-1.728,6.377-2.512,9.585C3778.119,1265.4,3777.9,1267.177,3777.584,1268.92Zm10.987-15.465c.558,2.079,3.08,3.972,4.591,3.756,1.935-.275,4.134-2.422,4.017-3.923C3793.564,1255.709,3791.815,1255.787,3788.572,1253.455Z" transform="translate(-400.955 -320.636)" fill="#fff"/>
    <path id="Path_506" data-name="Path 506" d="M3821.761,1166.4c-6.352,0-12.251.152-18.136-.067-2.792-.1-4.96.51-6.719,2.707-.894,1.116-2,2.063-3.444,3.529-3.5-7.07-9.864-6.66-16.48-5.979,0-5.764,0-11,0-16.237,0-7.9,0-7.9,7.962-7.9q17.036,0,34.072.006c1.229,0,2.752-.411,2.749,1.683C3821.754,1151.426,3821.761,1158.706,3821.761,1166.4Zm-28.131,3.134c3.079-6.032,7.8-5.994,12.651-5.612.826.065,1.66.009,2.491.009h10.367v-18.4c-.247-.2-.318-.307-.388-.308-12.546-.065-25.092-.139-37.637-.121-.549,0-1.563.858-1.572,1.331-.11,5.771-.072,11.545-.072,17.536C3784.9,1163.839,3790.34,1162.732,3793.63,1169.532Z" transform="translate(-401.754 -272.802)" fill="#fff"/>
    <path id="Path_507" data-name="Path 507" d="M3773.4,797.578c-4.433,0-8.867.071-13.3-.068-.853-.027-1.68-.884-2.52-1.358.813-.4,1.622-1.127,2.438-1.134,8.771-.084,17.545-.126,26.316-.031,7.142.078,11.626,4.932,11.575,12.276-.051,7.208-4.782,12.053-11.834,12.089-4.616.024-9.234-.028-13.85.03-3.026.038-4.8,1.754-4.833,4.484-.028,2.569,1.889,4.43,4.726,4.716a29.972,29.972,0,0,1,5.945.868,9.148,9.148,0,0,1,5.807,8.579c-.044.625-.75,1.2-1.151,1.8-.449-.552-1.173-1.046-1.3-1.665-1.152-5.426-3.093-7.057-8.669-7.1-4.651-.034-7.777-2.86-7.83-7.081-.054-4.276,2.941-7.118,7.641-7.163,4.432-.042,8.865.026,13.3-.02,4.942-.052,8.079-2.4,9.413-6.937a9.683,9.683,0,0,0-4.387-11.192,10.639,10.639,0,0,0-4.742-1.046C3781.9,797.49,3777.651,797.581,3773.4,797.578Z" transform="translate(-393.113 -117.967)" fill="#fff"/>
    <path id="Path_508" data-name="Path 508" d="M3721.383,1073.043c3.562-7.132,9.558-5.34,15.365-4.9-.959.661-2.011,1.994-2.862,1.876-5.444-.76-9.344,1.562-12.91,6.789a11.5,11.5,0,0,0-1.081-2.274c-2.606-3-5.514-5.315-9.911-4.382-1.841.39-2.365-.663-2.348-2.4.063-6.557.109-13.115-.023-19.67-.045-2.208.659-2.835,2.833-2.82,12.928.088,25.857.043,38.786.044,3.51,0,7.022-.082,10.526.054a11.542,11.542,0,0,1,3.131,1.063q-.126.525-.254,1.051H3710.4v19.9c2.05.15,4.38-.241,6.106.6C3718.26,1068.844,3719.424,1070.919,3721.383,1073.043Z" transform="translate(-370.845 -229.508)" fill="#fff"/>
    <path id="Path_509" data-name="Path 509" d="M3826.234,1069.94c-.929.1-1.648.241-2.368.242q-22.991.02-45.982.017c-1.552,0-2.977-.126-3.425-2.529,1.338,0,2.565,0,3.791,0,14.219-.021,28.438-.1,42.656-.011,2.368.014,2.984-.768,2.916-3.005-.145-4.8-.114-9.6-.021-14.4.039-2.015-.613-2.74-2.709-2.7-6,.115-12,.089-18-.048a17.552,17.552,0,0,1-4.125-1.117l.348-1.079,3.463,1a8.061,8.061,0,0,1,2.566-.931c6.555-.077,13.11-.034,19.666-.01a5.871,5.871,0,0,1,1.227.315Z" transform="translate(-400.63 -229.527)" fill="#fff"/>
    <path id="Path_510" data-name="Path 510" d="M3258.453,914.979c1.716-1.748,2.163-1.668,3.928,1.055h-29.233V907.29c0-6.738,0-6.745,6.61-6.748q16.619-.009,33.238-.007c1.63,0,3.2-.007,3.326,2.487h-5.089l-2.67,3.644-.614-.256-.319-3.207h-10.639l-1.882,3.209-1.717-3.134h-10.859a24.241,24.241,0,0,1-.059,3.981,7.754,7.754,0,0,1-1.3,2.3,7.223,7.223,0,0,1-1.142-2.157,30.973,30.973,0,0,1-.053-4.2h-4.04v10.679c6.094,0,12.066-.058,18.036.044A23.2,23.2,0,0,1,3258.453,914.979Z" transform="translate(-159.436 -165.02)" fill="#fff"/>
    <path id="Path_511" data-name="Path 511" d="M3809.185,1217.482c-.154,1.665-.208,2.68-.35,3.682-.214,1.515-.785,2.4-2.659,2.407a5.289,5.289,0,0,0-3.4,1.591c-3.263,3.415-7.17,3.62-10.2.064a4.477,4.477,0,0,0-3.974-1.825,2.749,2.749,0,0,1-2.179-.983c-2.738-5.271,1.219-15.638,6.711-18.1,5.964-2.671,12.246.361,14.9,7.58A33.119,33.119,0,0,1,3809.185,1217.482Zm-19.386-4.69a25.768,25.768,0,0,0,15.644-.12c-2.048-6.667-8.009-7.942-11.492-5.967-4.031,2.287-6.8,8.854-5.708,13.336.146.6.2,1.219.295,1.829l1.262-1.021Zm1.614,3.4a42.27,42.27,0,0,0,2.055,6.159c1.576,3.069,4.424,3.86,6.525,1.843,2.217-2.129,3.58-4.763,3.009-8Z" transform="translate(-405.566 -299.953)" fill="#fff"/>
    <path id="Path_512" data-name="Path 512" d="M3725.039,776.243c-4.644-1.678-6.138-4.617-5.282-8.546.677-3.111,3.691-5.288,7.442-5.306,5.357-.027,10.716.036,16.072-.034,2.249-.029,4.4-.917,4.942-3.175.4-1.68.348-4.09-.61-5.3-.991-1.25-3.3-1.963-5.061-2.006-8.216-.2-16.44-.09-24.661-.09a5.947,5.947,0,0,1-1.925-.047,10.416,10.416,0,0,1-1.994-1.257c.644-.43,1.28-1.219,1.933-1.232,4.894-.1,9.79-.057,14.686-.057,4.157,0,8.314-.032,12.47.005,4.885.043,8.25,3.183,8.3,7.673.049,4.6-3.084,7.724-8.084,7.826-5.078.1-10.161.069-15.241.01-2.518-.029-4.627.691-5.592,3.126s-.053,4.438,1.926,6.128C3724.865,774.4,3724.827,775.466,3725.039,776.243Z" transform="translate(-373.674 -97.582)" fill="#fff"/>
    <path id="Path_513" data-name="Path 513" d="M3745.554,632.268c-.725-8.847-5.359-13.7-14.577-14.385,3.971-1.93,7.918-2.857,10.332-5.3,2.459-2.488,3.408-6.468,5.15-10.068.822,8.321,5.21,13.687,14.61,14.246-4,1.977-7.92,2.932-10.328,5.377C3748.3,624.621,3747.347,628.573,3745.554,632.268Zm-4.581-15.25,5.959,5.747-1.984-.2,6.336-6.118-.324,2.069-6-6.717,2,.3Z" transform="translate(-381.255 -32.231)" fill="#fff"/>
    <path id="Path_514" data-name="Path 514" d="M3840.4,778.46c-1.255-8.695-5.651-13.888-15.129-14.4,4.063-1.977,8.056-2.92,10.5-5.393s3.351-6.479,4.632-9.18c1.357,2.811,2.322,6.867,4.824,9.4,2.378,2.413,6.365,3.24,10.508,5.166C3846.075,764.561,3841.756,769.826,3840.4,778.46Zm-4.045-15.163,3.935,4.7,5.175-5.393q.206.844.414,1.688l-6.39-6.023,1.713-.36Z" transform="translate(-423.268 -97.717)" fill="#fff"/>
    <path id="Path_515" data-name="Path 515" d="M3724.279,1113.374c-5.051,1.241-7.055,3.757-6.741,8.932,3.3-5.123,8.432-5.776,13.513-6.823,2.595,1.87,2.487,4.811,2.1,7.62-.455,3.312-1.579,6.487-4.417,8.6a5.722,5.722,0,0,1-7.782-.741,44.451,44.451,0,0,1-2.9-3.607l-1,2.833c-3.752-5.672-2.762-14.084,1.907-17.413C3721.343,1111.069,3722.788,1111.193,3724.279,1113.374Zm5.49,5.271a10.372,10.372,0,0,0-2.4.028c-2.9.7-6.1,1.719-7.016,4.593-.488,1.54,1.111,4.057,2.32,5.735,1.392,1.933,3.455,1.751,5.192.085A9.563,9.563,0,0,0,3729.769,1118.645Z" transform="translate(-374.026 -259.067)" fill="#fff"/>
    <path id="Path_516" data-name="Path 516" d="M3287.927,1031.257c3.232,0,6.466-.048,9.7.05.52.016,1.021.689,1.53,1.057-.487.42-.979,1.211-1.459,1.2-7.366-.118-14.747-.109-22.088-.636-3.532-.253-7.243-4.361-7.388-7.9-.26-6.342-.314-12.717.04-19.051.228-4.1,5.106-8.051,9.135-8.1a4.717,4.717,0,0,1,1.584.613c-.375.521-.662,1.388-1.14,1.511-6.284,1.625-8.027,6.044-7.714,11.95.175,3.315-.024,6.649.042,9.972a9.1,9.1,0,0,0,9.451,9.326C3282.385,1031.279,3285.156,1031.255,3287.927,1031.257Z" transform="translate(-174.968 -208.394)" fill="#fff"/>
    <path id="Path_517" data-name="Path 517" d="M3874.182,1160.4c-.448-4.9,3.163-10.207,9.1-9.484a7.492,7.492,0,0,1,5.728,3.793c2.629,4.312,1.405,11.434-2.32,15.027-2.851,2.75-6.456,2.641-9.2-.28A13.122,13.122,0,0,1,3874.182,1160.4Zm5.538-2.476c-4.378,3.342-3.215,6.172-.532,9.562,1.982,2.5,4.3,2.522,6.215.01a15.763,15.763,0,0,0,2.161-4.938c.64-2.088-.089-3.208-2.523-3.339A28.359,28.359,0,0,1,3879.719,1157.924Zm7.527-.88c-2.462-4.134-5.1-4.71-8.781-1.925Z" transform="translate(-445.047 -276.553)" fill="#fff"/>
    <path id="Path_518" data-name="Path 518" d="M3863.608,860.276c.237-3.563,4.639-2.71,6.249-5.235-.747-.048-1.4-.124-2.045-.125-7.386-.017-14.772,0-22.159-.058-1.03-.008-2.772.651-2.586-1.34.045-.481,1.63-1.156,2.514-1.168,7.385-.1,14.773-.057,22.159-.058h2.3c-1.6-2.625-6.3-1.672-6.449-6.5l15.681,7.816L3864.4,861.12Z" transform="translate(-431.194 -140.627)" fill="#fff"/>
    <path id="Path_519" data-name="Path 519" d="M3171.861,1020.471l-7.215-3.729c1.063-.616,2.006-1.543,2.428-1.347,4.541,2.106,9,4.389,14.094,6.93-3.578,1.89-6.583,3.5-9.613,5.068a23.124,23.124,0,0,1-3.982,1.78,6.246,6.246,0,0,1-2.428-.324l.021-.946,6.725-3.679-.11-.587h-3.389c-7.01,0-14.019.033-21.028-.068-.745-.01-1.479-.82-2.218-1.258.75-.426,1.489-1.2,2.252-1.221,4.054-.124,8.114-.06,12.172-.06H3171.7Q3171.779,1020.751,3171.861,1020.471Z" transform="translate(-120.224 -216.187)" fill="#fff"/>
    <path id="Path_520" data-name="Path 520" d="M3319.967,1059.433c7.388-1.576,14.4,6.631,11.039,15.842a10.932,10.932,0,0,1-10.5,7.46c-1.753.047-3.509-.029-5.261.032-3.24.112-5.424,1.958-5.794,4.821-.348,2.694,1.233,4.918,4.087,6.059.566.226.884,1.075,1.316,1.637-.677.248-1.455.847-2.016.686a7.67,7.67,0,0,1-5.775-8.792,7.888,7.888,0,0,1,7.07-6.867c1.842-.083,3.691-.016,5.537-.028,6.042-.037,9.8-3.955,9.566-9.96-.2-5.065-2.5-7.871-7.4-9.283C3321.119,1060.833,3320.585,1059.985,3319.967,1059.433Z" transform="translate(-192.339 -235.734)" fill="#fff"/>
    <path id="Path_521" data-name="Path 521" d="M3695.091,671.862A10.5,10.5,0,0,1,3684.5,661.19a10.842,10.842,0,0,1,10.594-10.834,10.954,10.954,0,0,1,10.76,10.962A10.64,10.64,0,0,1,3695.091,671.862Zm8.212-10.644a8.143,8.143,0,0,0-8.1-8.279,8.718,8.718,0,0,0-8.423,8.214c-.026,4.25,3.986,8.208,8.361,8.25A8.089,8.089,0,0,0,3703.3,661.218Z" transform="translate(-360.548 -53.548)" fill="#fff"/>
    <path id="Path_522" data-name="Path 522" d="M3399.426,1010.173c-17.493-15.506-13.178-41.97,1.429-51.807,1.992,1.1.944,2.03-.134,3.04a30.811,30.811,0,0,0-10.14,26.019,30.312,30.312,0,0,0,8.889,19.378C3400.655,1008.008,3401.124,1008.969,3399.426,1010.173Z" transform="translate(-228.437 -190.788)" fill="#fff"/>
    <path id="Path_523" data-name="Path 523" d="M3608.019,1115.221c-7.76,0-15.521.042-23.281-.055-.873-.011-1.736-.8-2.6-1.227.864-.441,1.726-1.261,2.591-1.266q23.558-.116,47.117,0c.837,0,1.671.808,2.506,1.239-.831.436-1.657,1.241-2.493,1.251C3623.91,1115.259,3615.965,1115.22,3608.019,1115.221Z" transform="translate(-314.934 -259.518)" fill="#fff"/>
    <path id="Path_524" data-name="Path 524" d="M4009.486,771.049c-.131-2.158-.131-2.182,2.362-2.184q21.336-.012,42.671-.009c4.156,0,8.312-.118,12.465-.031.7.014,1.377.8,2.065,1.231-.664.416-1.327,1.195-1.991,1.2q-28.4.063-56.8-.025A3.457,3.457,0,0,1,4009.486,771.049Z" transform="translate(-505.332 -106.319)" fill="#fff"/>
    <path id="Path_525" data-name="Path 525" d="M3226.189,960.746c-4.362.544-7.55,1.385-9.259,4.927-1.635,3.391-1.326,6.4,1.141,9.181a8.811,8.811,0,0,0,9.091,2.285,8.381,8.381,0,0,0,5.174-7.745c.042-1.337-1.072-3.251,1.357-3.781,2.77,3.315.6,10.967-4.714,13.371-5.78,2.616-12.529.408-14.616-5.26-1.787-4.852-1.23-10.768,5.271-13.975a12.748,12.748,0,0,1,4.81-.832C3224.862,958.892,3225.335,959.815,3226.189,960.746Z" transform="translate(-150.675 -191.033)" fill="#fff"/>
    <path id="Path_526" data-name="Path 526" d="M3331.974,742.475a8.817,8.817,0,0,1-8.967,8.817,8.961,8.961,0,0,1,.042-17.922A8.718,8.718,0,0,1,3331.974,742.475Zm-9.029,6.293a6.361,6.361,0,0,0,6.584-6.3,6.853,6.853,0,0,0-6.308-6.8c-3.316-.129-6.418,2.972-6.5,6.5A6.343,6.343,0,0,0,3322.945,748.768Z" transform="translate(-195.501 -90.536)" fill="#fff"/>
    <path id="Path_527" data-name="Path 527" d="M3832.727,891.428a8.579,8.579,0,1,1-.064-17.156,8.578,8.578,0,0,1,.064,17.156Zm5.939-8.661a6.042,6.042,0,1,0-12.075.13,6.039,6.039,0,1,0,12.075-.13Z" transform="translate(-422.691 -153.319)" fill="#fff"/>
    <path id="Path_528" data-name="Path 528" d="M3955.852,1147.2c-4.164,2.157-7.862,4.15-11.656,5.941-.465.219-1.441-.646-2.747-1.287l5.889-3.153c-1.206-.143-1.854-.284-2.5-.286-5.724-.018-11.449.029-17.172-.064-.669-.011-1.327-.754-1.989-1.157.682-.409,1.356-1.16,2.044-1.172,5.354-.1,10.709-.059,16.064-.062a5.69,5.69,0,0,0,2.818-.518l-4.35-2.412c.191-1.8,1-2.258,2.73-1.345C3948.379,1143.483,3951.835,1145.174,3955.852,1147.2Z" transform="translate(-468.007 -272.268)" fill="#fff"/>
    <path id="Path_529" data-name="Path 529" d="M3923.626,1067.513c-1.568-6.208-4.854-9.684-10.418-11.026,5.4-1.65,8.925-4.877,10.408-10.4,1.5,5.457,4.945,8.788,10.341,10.38C3928.431,1057.891,3925.114,1061.35,3923.626,1067.513Zm3.644-11.026-3.484-3.8-3.677,3.384,3.171,3.948Z" transform="translate(-462.453 -229.872)" fill="#fff"/>
    <path id="Path_530" data-name="Path 530" d="M3629.775,593.9c-5.634.732-5.6.732-5.56-4.3.042-4.7.1-9.4-.021-14.1-.057-2.223,1-2.558,2.874-2.563,1.9-.005,2.814.369,2.759,2.587C3629.677,581.591,3629.775,587.664,3629.775,593.9Zm-3.16-3.619.3.008V576.762l-.3,0v13.512Z" transform="translate(-333.675 -19.052)" fill="#fff"/>
    <path id="Path_531" data-name="Path 531" d="M3991.237,999.433a8.125,8.125,0,0,1,7.98,7.827,8.493,8.493,0,0,1-7.965,7.969,7.927,7.927,0,0,1-7.793-7.912A7.637,7.637,0,0,1,3991.237,999.433Zm.095,2.555a4.9,4.9,0,0,0-5.305,5.047,5.167,5.167,0,0,0,5.109,5.6,5.389,5.389,0,0,0,5.414-5.388A5.185,5.185,0,0,0,3991.332,1001.988Z" transform="translate(-493.755 -209.087)" fill="#fff"/>
    <path id="Path_532" data-name="Path 532" d="M3535.013,1053.16a7.965,7.965,0,0,1-7.856-7.907,8.256,8.256,0,0,1,7.931-7.918c3.972.014,7.92,4.009,7.917,8.01A8.1,8.1,0,0,1,3535.013,1053.16Zm5.25-7.885a5.193,5.193,0,0,0-5.385-5.314,5.089,5.089,0,0,0-5.013,5.36,4.915,4.915,0,0,0,5.34,5.284A5,5,0,0,0,3540.263,1045.275Z" transform="translate(-290.438 -225.975)" fill="#fff"/>
    <path id="Path_533" data-name="Path 533" d="M3555.342,582.3h-7.322c-3.233,0-6.471.091-9.7-.067-.868-.042-1.7-.847-2.547-1.3a7.27,7.27,0,0,1,2.422-1.023c5.71-.09,11.422-.048,17.38-.559a11.481,11.481,0,0,1-2.5-1.552,8.624,8.624,0,0,1-1.18-2.375l.754-.619L3564.76,581c-3.766,1.942-6.879,3.63-10.079,5.131-.694.326-1.7-.019-2.565-.055a15.463,15.463,0,0,1,1.529-2.143,7.608,7.608,0,0,1,1.756-1.026Q3555.372,582.607,3555.342,582.3Z" transform="translate(-294.279 -19.885)" fill="#fff"/>
    <path id="Path_534" data-name="Path 534" d="M3327.445,947.536c.843,2.118-.422,2.189-1.814,2.531-5.784,1.42-7.751,7.469-3.574,11.333a9.347,9.347,0,0,0,4.977,1.871c2.452.311,4.98-.014,7.46.146.681.044,1.312.854,1.966,1.313-.656.324-1.3.9-1.969.927-2.672.106-5.365-.135-8.024.08-4.533.368-9.242-4.073-9.023-9.391A9.085,9.085,0,0,1,3327.445,947.536Z" transform="translate(-196.993 -185.954)" fill="#fff"/>
    <path id="Path_535" data-name="Path 535" d="M3161.53,940.8a12.626,12.626,0,0,0-8.713,8.605,12.357,12.357,0,0,0-9.4-8.529c4.9-1.627,8.1-4.066,9.286-8.869C3154.307,936.467,3156.95,939.488,3161.53,940.8Zm-9.168,2.668,3.647-2.723-3.4-3.228c-.992,1.26-1.87,2.376-2.573,3.268Z" transform="translate(-119.454 -179.045)" fill="#fff"/>
    <path id="Path_536" data-name="Path 536" d="M3221.859,1132.76c3.97-.053,6.686,2.561,6.681,6.432a6.559,6.559,0,1,1-13.115.217A6.114,6.114,0,0,1,3221.859,1132.76Zm.1,10.489a4.5,4.5,0,0,0,4.308-4.12,4.866,4.866,0,0,0-4.2-4.132,4.257,4.257,0,0,0-4.084,4.282A3.793,3.793,0,0,0,3221.959,1143.249Z" transform="translate(-151.538 -268.494)" fill="#fff"/>
    <path id="Path_537" data-name="Path 537" d="M3740.043,1232.384c-4.1,1.56-6.847,4.081-7.942,9.036-1.473-4.622-3.914-7.57-8.228-8.932,4.281-1.315,6.724-4.1,8.048-8.778C3733.447,1228.205,3735.544,1231.308,3740.043,1232.384Zm-10.4.071,2.259,2.605c2.576-2.757,2.576-2.757-.143-4.862Z" transform="translate(-378.091 -309.019)" fill="#fff"/>
    <path id="Path_538" data-name="Path 538" d="M3673.97,1203.737l-5.191,5.292-5.208-5.437,5.294-5.371Zm-5.177,2.953,3.03-2.553-2.552-3.381-3.546,2.95Z" transform="translate(-351.221 -297.661)" fill="#fff"/>
    <path id="Path_539" data-name="Path 539" d="M3546.741,625.006l5.375-5.08,5.377,5.136-5.558,5.542Zm8.427.147-3.192-2.966-2.459,2.666,2.417,3.46Z" transform="translate(-299.165 -39.989)" fill="#fff"/>
    <path id="Path_540" data-name="Path 540" d="M3271.958,831.579l5.466-5.417,5,5.764-6.591,5.779,2.11.425Zm8.338.227-3.2-2.911L3274,832.159l3.258,2.482Z" transform="translate(-176.728 -131.882)" fill="#fff"/>
    <path id="Path_541" data-name="Path 541" d="M3819.705,1019.183c-1.6,3.271-2.117,3.476-5.233,2.326a3.213,3.213,0,0,0-1.829-.3c-7.319,2.235-14.807.483-22.2.956-.49.032-1.033-.762-1.55-1.171.455-.45.915-1.294,1.366-1.29,8.636.081,17.271.3,25.908.381A14.842,14.842,0,0,0,3819.705,1019.183Z" transform="translate(-407.063 -217.887)" fill="#fff"/>
    <path id="Path_542" data-name="Path 542" d="M3409.558,877.784v-2.509c8.071,0,16-.02,23.924.048.519,0,1.033.7,1.55,1.072-.519.463-1.033,1.324-1.558,1.329C3425.55,877.81,3417.623,877.784,3409.558,877.784Z" transform="translate(-238.039 -153.764)" fill="#fff"/>
    <path id="Path_543" data-name="Path 543" d="M3778.819,916.708c-.659-1.766-.341-2.517,1.418-2.506,7.021.044,14.044-.01,21.065.069.6.007,1.2.731,1.8,1.121-.47.439-.937,1.254-1.412,1.259C3794.04,916.731,3786.386,916.708,3778.819,916.708Z" transform="translate(-402.431 -171.11)" fill="#fff"/>
    <path id="Path_544" data-name="Path 544" d="M3436.3,914.4h23.448c.724,1.66.384,2.438-1.515,2.426-6.812-.043-13.625.025-20.435-.086-.727-.012-1.438-.925-2.158-1.42Z" transform="translate(-249.66 -171.197)" fill="#fff"/>
    <path id="Path_545" data-name="Path 545" d="M3360.6,978.116c.511-1.058.636-1.924,1.092-2.165,3.112-1.647,9.479.519,11.206,3.583a6.867,6.867,0,0,1-.579,7.785c-1.782,2.558-4.6,2.789-7.44,2.485-.392-.042-1.01-.613-1.013-.944a1.508,1.508,0,0,1,.895-1.1,14.936,14.936,0,0,1,2.188-.2c2.827-.441,4.329-2.177,4.247-4.848a4.779,4.779,0,0,0-4.606-4.569c-.916-.072-1.843-.021-2.765-.023C3363.008,978.115,3362.19,978.116,3360.6,978.116Z" transform="translate(-216.226 -198.371)" fill="#fff"/>
    <path id="Path_546" data-name="Path 546" d="M3117.077,1071.621c1.064-.539,2.12-1.53,3.191-1.547,8.179-.131,16.362-.072,24.532-.072.8,1.818.325,2.55-1.5,2.548-4.787,0-9.644.542-14.332-.121-2.391-.338-4.357-.959-6.753.1-1.361.6-3.2.109-4.828.109Z" transform="translate(-107.718 -240.525)" fill="#fff"/>
    <path id="Path_547" data-name="Path 547" d="M3199.758,853.971l4.972-4.6,4.464,4.479-4.936,4.582Zm6.531.8c-.833-1.41-1.251-2.116-1.668-2.823l-.981.266q-.1,1.424-.209,2.848Z" transform="translate(-144.558 -142.225)" fill="#fff"/>
    <path id="Path_548" data-name="Path 548" d="M3522.917,682.5h3.843a16.676,16.676,0,0,1,.252-3.016c.151-.572.765-1.021,1.172-1.526.416.486,1.065.917,1.2,1.47a14.9,14.9,0,0,1,.054,3.075,17.6,17.6,0,0,1,3.093.049c.568.107,1.046.693,1.565,1.063-.524.475-.979,1.2-1.589,1.367a12.8,12.8,0,0,1-3.07.059,20.1,20.1,0,0,1-.048,3.148c-.079.474-.664.864-1.02,1.292-.465-.42-1.362-.882-1.326-1.253.242-2.5-.673-3.536-3.256-3.293-.47.044-1.051-1.083-1.581-1.67Z" transform="translate(-288.231 -65.846)" fill="#fff"/>
    <path id="Path_549" data-name="Path 549" d="M3987.152,806.871c-.586.554-1.165,1.58-1.76,1.59-7.015.114-14.033.105-21.049.019-.547-.007-1.085-.836-1.627-1.283.515-.356,1.027-1.017,1.544-1.022,7.458-.067,14.918-.045,22.377-.045Z" transform="translate(-484.512 -122.954)" fill="#fff"/>
    <path id="Path_550" data-name="Path 550" d="M3628.51,747.852c-.525-.64-1.5-1.273-1.508-1.921-.112-6.994-.1-13.989-.021-20.984.007-.6.77-1.184,1.182-1.776.412.562,1.177,1.12,1.183,1.687.08,7.443.053,14.886.053,22.33Z" transform="translate(-334.89 -85.992)" fill="#fff"/>
    <path id="Path_551" data-name="Path 551" d="M3753.3,707.085c-1.467,1.421.732,4.417-2.879,4.277-.113-1.293-.222-2.538-.359-4.11a18.271,18.271,0,0,1-3.1-.3c-.572-.147-1.019-.788-1.522-1.206.458-.445.968-1.318,1.363-1.268,3.427.43,3.93-1.494,3.3-4.213,2.059-.81,2.608.094,2.512,1.667-.105,1.714.429,2.544,2.322,2.529.7-.005,1.408.863,2.112,1.332a12.636,12.636,0,0,1-2.054,1.17A5.6,5.6,0,0,1,3753.3,707.085Z" transform="translate(-387.699 -75.65)" fill="#fff"/>
    <path id="Path_552" data-name="Path 552" d="M3576.32,929.682c3.538,6.819,2.2,13-.854,19.01-.186.368-1.022.406-1.555.6-.18-.6-.7-1.391-.49-1.78,2.732-5.022,2.884-10.326,2.054-15.8C3575.382,931.087,3576.021,930.359,3576.32,929.682Z" transform="translate(-311.03 -178.008)" fill="#fff"/>
    <path id="Path_554" data-name="Path 554" d="M3230.665,975.017l-1.883,3.689-2.321-3.718-2.761-.27c-.681-1.766-.069-2.341,1.658-2.474a3.68,3.68,0,0,0,2.018-1.478,14.405,14.405,0,0,0,1.358-2.455c.409.945.829,1.884,1.22,2.836a3.9,3.9,0,0,1,.155.773c3.371.786,3.371.786,3.089,2.952-.508,0-1.047-.03-1.581.009A6.893,6.893,0,0,0,3230.665,975.017Z" transform="translate(-155.105 -195.22)" fill="#fff"/>
    <path id="Path_555" data-name="Path 555" d="M3268.4,1164.259a4.35,4.35,0,0,1,3.978-3.84,3.986,3.986,0,0,1,3.594,4.138,3.931,3.931,0,0,1-3.788,3.67A4.094,4.094,0,0,1,3268.4,1164.259Z" transform="translate(-175.141 -280.817)" fill="#fff"/>
    <path id="Path_556" data-name="Path 556" d="M3562.325,1209.469a3.791,3.791,0,0,1-3.652,3.734,3.83,3.83,0,0,1-3.839-3.876,4.084,4.084,0,0,1,3.689-3.831A4.179,4.179,0,0,1,3562.325,1209.469Z" transform="translate(-302.77 -300.903)" fill="#fff"/>
    <path id="Path_557" data-name="Path 557" d="M3587.778,1209.49a3.759,3.759,0,0,1-3.955,3.681c-2.113-.253-3.562-1.335-3.546-3.729a3.757,3.757,0,1,1,7.5.048Z" transform="translate(-314.107 -300.899)" fill="#fff"/>
    <path id="Path_558" data-name="Path 558" d="M3364.294,1037.575l2.387-3.357,1.66,2.839,3.024,1.883-3.315,2.177a2.038,2.038,0,0,1-.208,1.088,10.188,10.188,0,0,1-1.4,1.719c-.381-.552-.747-1.116-1.147-1.654a13.165,13.165,0,0,0-1.616-2.026,12.084,12.084,0,0,0-2.063-1.242c.755-.449,1.494-.927,2.271-1.331C3364.191,1037.512,3364.582,1037.52,3364.294,1037.575Z" transform="translate(-216.677 -224.586)" fill="#fff"/>
    <path id="Path_559" data-name="Path 559" d="M3301.451,1164.423c0,2.006-1.9,3.992-3.815,3.767a3.781,3.781,0,0,1-3.643-3.778,4.158,4.158,0,0,1,3.776-3.994A4.112,4.112,0,0,1,3301.451,1164.423Z" transform="translate(-186.544 -280.817)" fill="#fff"/>
    <path id="Path_560" data-name="Path 560" d="M3605.623,1209.474a4.093,4.093,0,0,1,3.818-4.009,4.292,4.292,0,0,1,3.649,3.908,4.415,4.415,0,0,1-3.734,3.826A3.869,3.869,0,0,1,3605.623,1209.474Z" transform="translate(-325.401 -300.889)" fill="#fff"/>
    <path id="Path_561" data-name="Path 561" d="M3812.245,1068.336a3.975,3.975,0,1,1,.151-7.948,3.978,3.978,0,1,1-.151,7.948Zm1.954-3.949c-.847-.712-1.368-1.457-1.99-1.555-.367-.058-1.323.989-1.249,1.4a2.381,2.381,0,0,0,1.449,1.484C3812.746,1065.828,3813.384,1065.023,3814.2,1064.387Z" transform="translate(-415.717 -236.246)" fill="#fff"/>
    <path id="Path_562" data-name="Path 562" d="M3325.161,1195.354c1.766-1.044,2.75-.523,3.091,1.218a6.427,6.427,0,0,1-9.186,7.151c-.9-.44-1.3-1.9-1.862-2.793,2.441.181,4.77.981,6.592.341C3326.439,1200.342,3326.124,1197.721,3325.161,1195.354Z" transform="translate(-196.889 -296.145)" fill="#fff"/>
    <path id="Path_563" data-name="Path 563" d="M3760.871,1064.222a4.015,4.015,0,0,1-8.024.278,4.028,4.028,0,0,1,3.869-4.123A3.927,3.927,0,0,1,3760.871,1064.222Zm-4.079,2.294c.795-1.053,1.667-1.729,1.567-2.194a2.7,2.7,0,0,0-1.624-1.514c-.245-.093-1.249.881-1.275,1.4C3755.431,1064.795,3756.113,1065.416,3756.791,1066.516Z" transform="translate(-390.998 -236.24)" fill="#fff"/>
    <path id="Path_564" data-name="Path 564" d="M3687.331,1248.191c-.127.945-.249,1.851-.384,2.851-3.037,1.047-1.727-1.885-2.685-2.984a4.43,4.43,0,0,1-1.411-.235,9.39,9.39,0,0,1-1.548-1.182c.455-.448.907-1.274,1.365-1.276,1.6-.01,2.05-.748,2.133-2.211.031-.556.733-1.074,1.129-1.61.4.6.782,1.2,1.194,1.784a13.549,13.549,0,0,0,1.45,1.936,17,17,0,0,0,2.015,1.5c-.72.368-1.432.754-2.163,1.1A8.262,8.262,0,0,1,3687.331,1248.191Z" transform="translate(-359.122 -316.965)" fill="#fff"/>
    <path id="Path_565" data-name="Path 565" d="M3559.471,1169.532l-2.66-1.714,2.605-1.728,2.128-2.867,2.034,3.163,1.931.307c.484,2.072.484,2.072-2.088,2.539l-1.946,3.1Z" transform="translate(-303.651 -282.067)" fill="#fff"/>
    <path id="Path_566" data-name="Path 566" d="M3502.987,632.976c-2.991-.38-4.028-1.543-3.966-3.618.063-2.11,1.192-3.224,3.31-3.164a2.964,2.964,0,0,1,3.112,3.392C3505.245,630.937,3503.679,632.084,3502.987,632.976Z" transform="translate(-277.901 -42.781)" fill="#fff"/>
    <path id="Path_567" data-name="Path 567" d="M3502.166,611.958c-2.143-.058-3.163-1.22-3.138-3.3s1.3-3.62,3.169-3.2a5.058,5.058,0,0,1,3.215,3.3C3505.689,610.425,3504.387,612.015,3502.166,611.958Z" transform="translate(-277.905 -33.51)" fill="#fff"/>
    <path id="Path_568" data-name="Path 568" d="M3499,650.157c.105-2.116,1.2-3.155,3.338-3.111a3.01,3.01,0,0,1,3.152,3.379,3.176,3.176,0,0,1-3.429,3.221C3500.024,653.538,3499.008,652.21,3499,650.157Z" transform="translate(-277.891 -52.072)" fill="#fff"/>
    <path id="Path_571" data-name="Path 571" d="M3325.979,1164.563a11.715,11.715,0,0,0-2.5-1.19c-.452-.1-1.055.457-1.59.718.277.488.562.972.829,1.466.443.818.875,1.643,1.311,2.464a7.665,7.665,0,0,1-2.635-.7c-2.417-1.774-2.9-3.626-1.263-5.106.927-.837,2.713-1.829,3.5-1.457,1.224.581,1.926,2.262,2.849,3.476Z" transform="translate(-197.767 -280.934)" fill="#fff"/>
    <path id="Path_573" data-name="Path 573" d="M3709.644,1022.567a30.176,30.176,0,0,1-4.125-.055c-.659-.091-1.234-.778-1.848-1.2.573-.449,1.127-1.259,1.719-1.286,2.84-.133,5.694-.114,8.537,0,.509.021.99.758,1.483,1.165-.544.456-1.043,1.218-1.641,1.306A28.718,28.718,0,0,1,3709.644,1022.567Z" transform="translate(-369.088 -218.223)" fill="#fff"/>
    <path id="Path_574" data-name="Path 574" d="M3147.067,1146.131c-.638.564-1.23,1.538-1.921,1.614a27.8,27.8,0,0,1-6.058,0c-.69-.076-1.28-1.062-1.916-1.631l.594-.675h8.745Z" transform="translate(-116.671 -274.144)" fill="#fff"/>
    <path id="Path_575" data-name="Path 575" d="M3734.762,1018.9c1.588,1.836,3.25,3.615,4.718,5.542.418.549.278,1.525.395,2.3-.695-.153-1.564-.1-2.052-.5-1.464-1.212-2.778-2.605-4.154-3.925C3732.389,1021.1,3732.613,1020.154,3734.762,1018.9Z" transform="translate(-382.104 -217.763)" fill="#fff"/>
    <path id="Path_576" data-name="Path 576" d="M3740.7,800.945c-.291.345-.5.628-.741.875-1.541,1.562-3.04,3.17-4.673,4.629-.368.329-1.211.127-1.835.169-.026-.578-.31-1.39-.034-1.695,1.6-1.771,3.307-3.455,5.057-5.081a1.67,1.67,0,0,1,1.437-.029C3740.242,799.955,3740.407,800.5,3740.7,800.945Z" transform="translate(-382.289 -120.077)" fill="#fff"/>
    <path id="Path_577" data-name="Path 577" d="M3209.792,1071.063c-.648.541-1.254,1.474-1.952,1.549a29.015,29.015,0,0,1-6.051.006c-.731-.077-1.374-.984-2.056-1.512l.511-.771h8.988Z" transform="translate(-144.547 -240.678)" fill="#fff"/>
    <path id="Path_578" data-name="Path 578" d="M3782.433,1064.594c-1.434.758-1.529-.075-1.4-1.177a2.938,2.938,0,0,1,3.415-2.8c1.456.256,2.819,1.556,3.99,2.646.391.364.062,1.5.062,2.226a50.686,50.686,0,0,0-4.619-2.724c-.165-.079-1,1.237-1.521,1.907Z" transform="translate(-403.541 -236.328)" fill="#fff"/>
    <path id="Path_579" data-name="Path 579" d="M3096.728,1144.278l3.294,1.846c-1.242.4-2.48.815-3.734,1.175a1.646,1.646,0,0,1-1.083-.009c-.752-.377-1.444-.874-2.16-1.323a16.888,16.888,0,0,1,2.036-1.119,3.945,3.945,0,0,1,1.363-.028Z" transform="translate(-97.01 -273.626)" fill="#fff"/>
    <path id="Path_580" data-name="Path 580" d="M3889.624,806.117c2.181,0,4.366-.069,6.54.054.47.027.9.743,1.35,1.142-.465.4-.906,1.113-1.4,1.15a29.308,29.308,0,0,1-5.465-.023c-.618-.07-1.142-.968-1.709-1.488Z" transform="translate(-451.641 -122.942)" fill="#fff"/>
    <path id="Path_581" data-name="Path 581" d="M3239.266,958.74c1.816,1.5,3.326,2.673,4.727,3.964a1.545,1.545,0,0,1,.024,1.411c-.14.275-.791.441-1.188.4C3241.486,964.385,3239.246,961.154,3239.266,958.74Z" transform="translate(-162.161 -190.955)" fill="#fff"/>
    <path id="Path_582" data-name="Path 582" d="M3314.965,1196.266a30.479,30.479,0,0,1,2.087-4.6c.272-.421,1.615-.15,2.466-.2a6.351,6.351,0,0,1-.829,1.943c-.962,1.047-2.1,1.934-3.164,2.886Z" transform="translate(-195.891 -294.636)" fill="#fff"/>
    <path id="Path_583" data-name="Path 583" d="M3575.25,921.775c-2.388,2.066-2.679-.14-3.5-1.081-1.072-1.231-1.034-2.3.849-3.206Z" transform="translate(-309.993 -172.574)" fill="#fff"/>
    <path id="Path_584" data-name="Path 584" d="M3783.464,1067.908c1.078.411,2.19.754,3.218,1.264a6.228,6.228,0,0,1,1.327,1.241c-.536.4-1.027,1.058-1.616,1.165-2.062.375-3.087-1.03-2.861-3.744C3783.534,1067.83,3783.464,1067.908,3783.464,1067.908Z" transform="translate(-404.642 -239.565)" fill="#fff"/>
    <path id="Path_585" data-name="Path 585" d="M3289.292,924.058l4.878,1.675-.435,1.391-5-1.319Q3289.013,924.931,3289.292,924.058Z" transform="translate(-184.204 -175.502)" fill="#fff"/>
    <path id="Path_586" data-name="Path 586" d="M3520.863,1019.452l1.9,1.973c-2.323.225-2.521,4.567-5.707,1.321Z" transform="translate(-285.937 -218.007)" fill="#fff"/>
    <path id="Path_587" data-name="Path 587" d="M3322.508,907.14c-4.37,1.725-1.418-3.63-4.332-3.019q.183-.469.368-.939c.872.186,2.1.083,2.537.621A12.349,12.349,0,0,1,3322.508,907.14Z" transform="translate(-197.322 -166.2)" fill="#fff"/>
    <path id="Path_588" data-name="Path 588" d="M3331.358,1121.8c-.594.6-1.162,1.643-1.789,1.68-.818.049-1.684-.7-2.529-1.107l3.223-1.844Z" transform="translate(-201.272 -263.046)" fill="#fff"/>
    <path id="Path_589" data-name="Path 589" d="M3940.076,806.465c.654,2.186-.573,2.253-2.009,2.247s-2.615-.125-2.064-2.247Z" transform="translate(-472.548 -123.105)" fill="#fff"/>
    <path id="Path_590" data-name="Path 590" d="M3811.723,679.527l3.191,1.471c-.7.468-1.426,1.339-2.088,1.292s-1.28-1-1.916-1.56Z" transform="translate(-416.871 -66.545)" fill="#fff"/>
    <path id="Path_591" data-name="Path 591" d="M3284.034,873.818l-1.921-2.005c.556-.414,1.126-1.177,1.664-1.154.715.03,1.4.673,2.1,1.053Z" transform="translate(-181.253 -151.708)" fill="#fff"/>
    <path id="Path_592" data-name="Path 592" d="M3838.691,680.466c.231,2.5.231,2.5-2.937,1.987C3835.536,680.09,3835.536,680.09,3838.691,680.466Z" transform="translate(-427.905 -66.882)" fill="#fff"/>
    <path id="Path_593" data-name="Path 593" d="M3877.392,1258.366c-1.424.7-2.116,1.34-2.677,1.24-.67-.118-1.228-.869-1.834-1.346.6-.385,1.184-1.031,1.813-1.079C3875.305,1257.135,3875.965,1257.7,3877.392,1258.366Z" transform="translate(-444.484 -323.931)" fill="#fff"/>
    <path id="Path_594" data-name="Path 594" d="M3329.8,872.725c.239-.715.279-1.771.768-2.056a3.308,3.308,0,0,1,2.31.117c.259.08.48,1.279.394,1.322a30.993,30.993,0,0,1-2.89,1.179Z" transform="translate(-202.501 -151.637)" fill="#fff"/>
    <path id="Path_595" data-name="Path 595" d="M3418.905,946.468c-.374,1.438-.36,2.508-.771,2.71a3.581,3.581,0,0,1-2.324-.092c-.216-.062-.391-1.308-.256-1.378A27.987,27.987,0,0,1,3418.905,946.468Z" transform="translate(-240.69 -185.487)" fill="#fff"/>
    <path id="Path_596" data-name="Path 596" d="M3307.757,873.89l-1.75-2.2c.593-.371,1.19-1.038,1.777-1.031.609.008,1.209.671,1.813,1.047Z" transform="translate(-191.9 -151.707)" fill="#fff"/>
    <path id="Path_597" data-name="Path 597" d="M3664.686,749.405c-.307.951-.333,1.9-.8,2.226a2.155,2.155,0,0,1-2.05.005c-.446-.361-.394-1.339-.6-2.231Z" transform="translate(-350.181 -97.681)" fill="#fff"/>
    <path id="Path_598" data-name="Path 598" d="M3640.537,748.631l2.6,1.4c-.572.5-1.27,1.49-1.687,1.384-.7-.178-1.217-1.058-1.812-1.643Z" transform="translate(-340.558 -97.336)" fill="#fff"/>
    <path id="Path_599" data-name="Path 599" d="M3829.474,727.667l2.7,1.323c-.594.481-1.315,1.446-1.753,1.331-.658-.172-1.117-1.1-1.661-1.709Z" transform="translate(-424.822 -87.995)" fill="#fff"/>
    <path id="Path_600" data-name="Path 600" d="M3509.243,1005.761l-.126,2.361-.7.491-1.665-1.846,1.916-1.586Z" transform="translate(-281.346 -211.648)" fill="#fff"/>
    <path id="Path_601" data-name="Path 601" d="M3790.821,727.452l2.432,1.66c-.584.406-1.313,1.255-1.72,1.121-.7-.229-1.192-1.072-1.771-1.657Z" transform="translate(-407.448 -87.899)" fill="#fff"/>
    <path id="Path_602" data-name="Path 602" d="M3440,947.5c-.494.644-.883,1.625-1.516,1.823-.48.151-1.273-.694-1.928-1.1l2.507-1.712Z" transform="translate(-250.07 -185.51)" fill="#fff"/>
    <path id="Path_604" data-name="Path 604" d="M3394.74,946.652l2.54,1.45c-.584.469-1.27,1.4-1.73,1.3-.67-.146-1.179-1.033-1.757-1.6Z" transform="translate(-231.015 -185.569)" fill="#fff"/>
    <path id="Path_605" data-name="Path 605" d="M3809.2,729.572a7.481,7.481,0,0,1,2.053-1.232c.3-.072.831.807,1.257,1.254L3809.985,731Z" transform="translate(-416.111 -88.293)" fill="#fff"/>
    <path id="Path_606" data-name="Path 606" d="M3445.868,948.763c1.2-.783,1.745-1.424,2.2-1.366.6.078,1.135.7,1.7,1.094-.423.444-.81,1.2-1.278,1.254C3447.894,949.814,3447.234,949.314,3445.868,948.763Z" transform="translate(-254.218 -185.899)" fill="#fff"/>
    <path id="Path_608" data-name="Path 608" d="M3491.627,1042.823l2.227,1.858a18.164,18.164,0,0,1-2.385,1.683c-.177.089-1.108-.683-1.053-.879A17.9,17.9,0,0,1,3491.627,1042.823Z" transform="translate(-274.067 -228.42)" fill="#fff"/>
    <path id="Path_609" data-name="Path 609" d="M3385.269,950.5c-.617-.921-1.279-1.479-1.2-1.91.083-.48.934-1.25,1.277-1.168.592.143,1.049.845,1.564,1.312Z" transform="translate(-226.678 -185.908)" fill="#fff"/>
    <path id="Path_610" data-name="Path 610" d="M3779.794,1023.262c-.644-.827-1.337-1.331-1.31-1.792.028-.477.849-1.346,1.158-1.279.651.141,1.194.781,1.781,1.216Z" transform="translate(-402.423 -218.335)" fill="#fff"/>
    <path id="Path_611" data-name="Path 611" d="M3373.812,946.625l2.34,1.532c-.55.443-1.28,1.359-1.611,1.232-.687-.263-1.164-1.079-1.728-1.668Z" transform="translate(-221.667 -185.557)" fill="#fff"/>
    <path id="Path_612" data-name="Path 612" d="M3651.248,748.631l2.433,1.485-1.787,1.417-1.517-1.986Z" transform="translate(-345.342 -97.336)" fill="#fff"/>
    <path id="Path_613" data-name="Path 613" d="M3571.719,1071.073c-.688-.449-1.574-.771-1.973-1.4-.179-.282.619-1.183.974-1.8l1.838,2.269Z" transform="translate(-309.404 -239.58)" fill="#fff"/>
    <path id="Path_614" data-name="Path 614" d="M3461.212,947.567c-.5.647-.887,1.579-1.539,1.832-.38.147-1.182-.795-1.793-1.246l2.5-1.478Z" transform="translate(-259.571 -185.58)" fill="#fff"/>
    <path id="Path_615" data-name="Path 615" d="M3503.774,947.7l-1.6,1.835-1.494-1.424,2.277-1.381Z" transform="translate(-278.639 -185.604)" fill="#fff"/>
    <path id="Path_617" data-name="Path 617" d="M3072.378,1070.328h3.194c-.217.847-.208,1.711-.635,2.174a1.762,1.762,0,0,1-1.759.059C3072.72,1072.1,3072.67,1071.235,3072.378,1070.328Z" transform="translate(-87.801 -240.676)" fill="#fff"/>
    <path id="Path_618" data-name="Path 618" d="M3508.1,1016.35q-.328,1.371-.656,2.743l-.924.235c-.346-.773-1.02-1.588-.929-2.307.066-.531,1.128-.938,1.746-1.4Z" transform="translate(-280.825 -216.3)" fill="#fff"/>
    <path id="Path_619" data-name="Path 619" d="M3668.479,702.868c.735,1.259,1.387,1.88,1.281,2.317-.144.591-.869,1.041-1.345,1.552-.35-.505-.93-.987-.986-1.523C3667.377,704.707,3667.874,704.143,3668.479,702.868Z" transform="translate(-352.938 -76.945)" fill="#fff"/>
    <path id="Path_620" data-name="Path 620" d="M3490.023,1251.607l-2.376-1.656c.573-.406,1.3-1.255,1.689-1.123.682.229,1.159,1.065,1.723,1.646Z" transform="translate(-272.834 -320.205)" fill="#fff"/>
    <path id="Path_621" data-name="Path 621" d="M3731.888,1277.789a9.1,9.1,0,0,1-1.789,1.562c-.175.092-.846-.765-1.29-1.186l2.08-1.561Z" transform="translate(-380.289 -332.587)" fill="#fff"/>
    <path id="Path_622" data-name="Path 622" d="M2926.257,1072.964l-2.445-1.6c.581-.4,1.332-1.239,1.706-1.1.662.253,1.1,1.106,1.625,1.707Z" transform="translate(-21.604 -240.64)" fill="#fff"/>
    <path id="Path_623" data-name="Path 623" d="M2990.959,1070.706a9.361,9.361,0,0,1-1.884,1.535c-.183.089-.839-.8-1.278-1.245l2.167-1.485Z" transform="translate(-50.114 -240.312)" fill="#fff"/>
    <path id="Path_624" data-name="Path 624" d="M3487.592,958.151l2.5,2.212c-1.473.237-2.661.732-2.959.409-.5-.548-.446-1.614-.624-2.461Z" transform="translate(-272.325 -190.693)" fill="#fff"/>
    <path id="Path_625" data-name="Path 625" d="M3468.8,1250.26a7.316,7.316,0,0,1,1.936-1.456c.3-.1.931.75,1.411,1.168l-2.412,1.571Z" transform="translate(-264.435 -320.196)" fill="#fff"/>
    <path id="Path_627" data-name="Path 627" d="M3060.971,1070.223l3.527-.185c-.105.86.048,1.807-.349,2.2a2.088,2.088,0,0,1-1.982.132C3061.652,1072.077,3061.474,1071.193,3060.971,1070.223Z" transform="translate(-82.718 -240.546)" fill="#fff"/>
    <path id="Path_628" data-name="Path 628" d="M2902.6,1070.175l3.428-.16c-.829,1.177-1.308,2.4-1.767,2.388-.768-.012-1.522-.808-2.283-1.274Z" transform="translate(-11.874 -240.536)" fill="#fff"/>
    <path id="Path_630" data-name="Path 630" d="M4263.793,845.444c.616-.538,1.167-1.312,1.878-1.514.351-.1,1,.857,1.517,1.336l-2.533,1.328Z" transform="translate(-618.664 -139.796)" fill="#fff"/>
    <path id="Path_631" data-name="Path 631" d="M3572.819,1081.5l-2.085-2.7,3.322.222-.223,2.544Z" transform="translate(-309.855 -244.454)" fill="#fff"/>
    <path id="Path_632" data-name="Path 632" d="M3676.13,750.675c-1.452.625-2.1,1.139-2.686,1.083-.494-.047-.923-.761-1.381-1.18.516-.439.994-1.159,1.559-1.235C3674.14,749.274,3674.751,749.9,3676.13,750.675Z" transform="translate(-355.005 -97.651)" fill="#fff"/>
    <path id="Path_633" data-name="Path 633" d="M3365.781,947.642a10.231,10.231,0,0,1-1.654,1.764c-.14.1-.906-.7-1.385-1.09l1.906-1.72Z" transform="translate(-217.18 -185.544)" fill="#fff"/>
    <path id="Path_634" data-name="Path 634" d="M4192.22,846.655l-2.448-1.581c.568-.41,1.271-1.257,1.676-1.133.686.21,1.186,1.033,1.763,1.6Z" transform="translate(-585.682 -139.798)" fill="#fff"/>
    <path id="Path_635" data-name="Path 635" d="M3496,1037.1l2.679-1.251c.166.594.6,1.615.451,1.709a13.941,13.941,0,0,1-2.542,1.054Z" transform="translate(-276.554 -225.314)" fill="#fff"/>
    <path id="Path_636" data-name="Path 636" d="M3506.3,997.876c-.285-.812-.569-1.625-1.2-3.411,1.508.605,2.711.732,2.957,1.285.255.573-.418,1.559-.685,2.365Z" transform="translate(-280.612 -206.873)" fill="#fff"/>
    <path id="Path_638" data-name="Path 638" d="M3505.276,1027.263l-1.925,1.792c-.4-.47-1.2-1.023-1.126-1.392.137-.655.806-1.2,1.253-1.788Z" transform="translate(-279.327 -220.869)" fill="#fff"/>
    <path id="Path_639" data-name="Path 639" d="M3581.3,1085.2q.439,1.406.878,2.812c-.644.059-1.758.336-1.848.14a11.647,11.647,0,0,1-.61-2.652Z" transform="translate(-313.86 -247.304)" fill="#fff"/>
    <path id="Path_640" data-name="Path 640" d="M4183.481,845.37c-1.495.481-2.164.916-2.738.815-.481-.085-.851-.8-1.27-1.233.584-.375,1.142-.977,1.762-1.049C4181.683,843.85,4182.212,844.5,4183.481,845.37Z" transform="translate(-581.093 -139.785)" fill="#fff"/>
    <path id="Path_641" data-name="Path 641" d="M4128.8,846.153h-3.62c.906-1.056,1.442-2.177,1.971-2.174.71,0,1.417.878,2.124,1.378Z" transform="translate(-556.903 -139.821)" fill="#fff"/>
    <path id="Path_642" data-name="Path 642" d="M4044.025,846.486l-2.284-1.31,1.445-1.407,1.639,1.774Z" transform="translate(-519.723 -139.727)" fill="#fff"/>
    <path id="Path_643" data-name="Path 643" d="M2997.078,1070.365h3.592l.5.762c-.683.523-1.353,1.422-2.052,1.446C2998.6,1072.591,2998.046,1071.469,2997.078,1070.365Z" transform="translate(-54.249 -240.692)" fill="#fff"/>
    <path id="Path_644" data-name="Path 644" d="M3613.94,973.338c1.638-2.644,1.2-6.518,4.6-8.066C3617.816,968.442,3617.35,971.75,3613.94,973.338Z" transform="translate(-329.107 -193.866)" fill="#fff"/>
    <path id="Path_645" data-name="Path 645" d="M3632.287,996.168l6.117.007.031-.08-3.031,2.136-3.144-2.135Z" transform="translate(-337.27 -207.599)" fill="#fff"/>
    <path id="Path_646" data-name="Path 646" d="M3799.327,1256.272c3.243,2.332,4.992,2.254,8.608-.166.117,1.5-2.082,3.647-4.017,3.922C3802.406,1260.244,3799.885,1258.351,3799.327,1256.272Z" transform="translate(-411.71 -323.453)" fill="#fff"/>
    <path id="Path_647" data-name="Path 647" d="M3628.564,593.351V579.838l.3,0v13.522Z" transform="translate(-335.623 -22.125)" fill="#fff"/>
    <path id="Path_648" data-name="Path 648" d="M3734.286,1237.67l2.116-2.257c2.719,2.1,2.719,2.1.143,4.862Z" transform="translate(-382.73 -314.233)" fill="#fff"/>
    <path id="Path_649" data-name="Path 649" d="M3557.4,626.97l-3.234,3.16-2.417-3.46,2.459-2.666Z" transform="translate(-301.396 -41.806)" fill="#fff"/>
    <path id="Path_650" data-name="Path 650" d="M3816.318,1066.351c-.815.636-1.453,1.441-1.79,1.33a2.381,2.381,0,0,1-1.449-1.484c-.074-.412.882-1.459,1.249-1.4C3814.949,1064.894,3815.47,1065.639,3816.318,1066.351Z" transform="translate(-417.836 -238.21)" fill="#fff"/>
    <path id="Path_651" data-name="Path 651" d="M3758.895,1068.468c-.678-1.1-1.361-1.721-1.332-2.307.026-.519,1.029-1.493,1.275-1.4a2.7,2.7,0,0,1,1.624,1.514C3760.562,1066.739,3759.689,1067.415,3758.895,1068.468Z" transform="translate(-393.101 -238.192)" fill="#fff"/>
    <path id="Path_652" data-name="Path 652" d="M3441.642,753.489c.637-1.439.789-2.51,1.259-2.676a4.484,4.484,0,0,1,2.543.242c.182.054.26,1.358.134,1.405A39.383,39.383,0,0,1,3441.642,753.489Z" transform="translate(-252.335 -98.26)" fill="#fff"/>
    <path id="Path_653" data-name="Path 653" d="M3420.509,753.883l-1.974-1.99c.644-.422,1.264-1.127,1.937-1.181.567-.046,1.194.665,1.8,1.041Z" transform="translate(-242.039 -98.263)" fill="#fff"/>
    <path id="Path_654" data-name="Path 654" d="M3466.749,750.877c3.159-.562,3.2-.535,3.044,1.94C3466.615,753.275,3466.615,753.275,3466.749,750.877Z" transform="translate(-263.504 -98.204)" fill="#fff"/>
    <path id="Path_655" data-name="Path 655" d="M3628.416,889.641l8.251,3.439c-.654,3.6-4.083,13.281-7.27,19.591-2,3.97-3.957,6.41-4.622,3.655,2.235-5.636,6.619-16.019,8.875-21.71l-3.341-1.5c-2.762,2.136-1.418,7.124-6.335,7.393Z" transform="translate(-333.578 -160.166)" fill="#fff"/>
    <path id="Path_659" data-name="Path 659" d="M3677.275,916.38l4.958-4.718,4.782,4.912-4.882,4.4Zm5.985-1.613-1.235-.171-1.912,1.843q.034.456.068.912l3.136.416Q3683.288,916.266,3683.26,914.766Z" transform="translate(-357.327 -169.978)" fill="#fff"/>
    <path id="Path_660" data-name="Path 660" d="M3680.2,887.714c-1.085-1.461-2.545-2.572-2.5-3.618.042-.953,1.876-2.688,2.633-2.546a4.091,4.091,0,0,1,2.771,2.775C3683.18,885.246,3681.474,886.317,3680.2,887.714Z" transform="translate(-357.515 -156.558)" fill="#fff"/>
    <path id="Path_661" data-name="Path 661" d="M3630.007,996.1l3.144,2.135,3.031-2.136a7.438,7.438,0,0,0,1.736,6.008c.537.633.279,1.939.384,2.937-.756-.529-1.479-1.115-2.277-1.573-1.124-.647-2.385-1.781-3.436-1.633a4.058,4.058,0,0,0-2.811,2.5c-.219.972.748,2.516,1.63,3.338.792.738,2.168.875,3.306,1.209a5.734,5.734,0,0,1,3.463,8.381c-.976,1.82-1.841,3.7-3.062,6.175l-2.224-2.861a7.257,7.257,0,0,1-.4.738c-.456.665-.933,1.313-1.4,1.968-.4-.707-.835-1.4-1.21-2.125a30.536,30.536,0,0,1-1.855-3.81,10.729,10.729,0,0,1-.231-2.763c.759.423,1.5.886,2.281,1.26,1.3.623,2.633,1.629,3.939,1.611.771-.011,1.893-1.575,2.2-2.631.555-1.927-.778-3.026-2.489-3.632-.69-.244-1.4-.423-2.112-.613a5.975,5.975,0,0,1-3.469-9.036C3629.089,999.923,3629.4,997.924,3630.007,996.1Z" transform="translate(-335.016 -207.599)" fill="#fff"/>
    <path id="Path_662" data-name="Path 662" d="M3618.393,1005.869c.114.864.62,1.953.277,2.556-2.24,3.934-2.347,7.728.006,11.66.357.6-.089,1.673-.218,3.142-4.956-5.032-5.089-11.786-1.005-17.279Z" transform="translate(-329.38 -211.954)" fill="#fff"/>
    <path id="Path_663" data-name="Path 663" d="M3657.481,1019.384a12.69,12.69,0,0,1-3.605,9.769c-.458-1.188-1.125-2.03-.936-2.576.848-2.444,1.915-4.814,2.989-7.172C3656.007,1019.236,3656.781,1019.384,3657.481,1019.384Z" transform="translate(-346.469 -217.95)" fill="#fff"/>
    <path id="Path_664" data-name="Path 664" d="M3656.961,1011.219c-1.279,0-2.365.288-2.627-.054a21.52,21.52,0,0,1-1.86-3.492c.777-.157,2-.7,2.25-.4A23.315,23.315,0,0,1,3656.961,1011.219Z" transform="translate(-346.276 -212.541)" fill="#fff"/>
    <path id="Path_665" data-name="Path 665" d="M3393.669,1140.521c-3.7-3.37-4.394-7.1-.156-11.689-4.423.921-9.113-2.2-12.031,3.227-1.59-2.225-.566-4.012.361-5.608,3.877-6.678,12.087-9.97,18.931-7.723,8.216,2.7,12.92,9.625,12.128,17.859-.663,6.886-6.523,13.212-13.546,14.621-6.557,1.316-14.227-2.024-17.315-8.115-1.229-2.424-1.3-5.445-1.816-8.209a.882.882,0,0,1,1.722-.351,6.086,6.086,0,0,1,.2,2.716c-.645,2.431.427,3.269,2.647,3.271C3387.539,1140.524,3390.287,1140.521,3393.669,1140.521Zm5.348,0c3.226,0,5.983.156,8.714-.04,3.2-.23,2.388-3.131,2.559-4.907.221-2.291.712-5.582-2.017-6.41-2.69-.817-5.822-.178-9.2-.178C3403.177,1133.654,3403.142,1135.881,3399.018,1140.52Zm-13.775-14.1h22.026C3402.358,1118.848,3390.418,1118.8,3385.242,1126.418Zm-.193,16.789c3.211,3.934,6.886,5.652,11.291,5.617a12.825,12.825,0,0,0,10.99-5.617Zm14.629-8.576a3.249,3.249,0,0,0-3.6-3.232,3.349,3.349,0,0,0,.2,6.689A3.27,3.27,0,0,0,3399.679,1134.631Z" transform="translate(-224.967 -261.928)" fill="#fff"/>
    <path id="Path_666" data-name="Path 666" d="M3451.764,1101.908c-10.016,0-19.965,0-29.914,0-1.444,0-2.645-.031-3.757,1.478-1.268,1.722-4.264,1.4-5.687-.131a4.408,4.408,0,0,1,.164-5.576c1.36-1.364,4.192-1.146,5.811.11a6.386,6.386,0,0,0,3.521,1.406c9.312.118,18.625.093,27.938.06C3451.53,1099.248,3452.645,1099.516,3451.764,1101.908Z" transform="translate(-238.901 -252.447)" fill="#fff"/>
    <path id="Path_667" data-name="Path 667" d="M3443.473,1087.393a22.338,22.338,0,0,1-3.043-.023,4.166,4.166,0,0,1-3.876-3.989c-.2-1.984,1.792-4.019,4-4.143a41.735,41.735,0,0,1,6.087.023,4.005,4.005,0,0,1,3.831,3.987,4.065,4.065,0,0,1-3.955,4.133C3445.508,1087.45,3444.488,1087.393,3443.473,1087.393Zm2.044-5.994-.7.692v3.41l3.2-2.093Z" transform="translate(-250.062 -244.601)" fill="#fff"/>
    <path id="Path_668" data-name="Path 668" d="M3455.372,1131.013a7.032,7.032,0,0,1,.237,2.646c-2.366,7.206-1.523,13.743,3.8,19.408,1.068,1.136,2.211,2.168-.038,3.212-7.3-5.232-10.16-17.35-5.035-25.1Z" transform="translate(-256.834 -267.715)" fill="#fff"/>
    <path id="Path_669" data-name="Path 669" d="M3505.762,1088.7c2.13-.084,2.13-.084,2.74,4.491a14.25,14.25,0,0,1,2.612.168,5.585,5.585,0,0,1,1.569,1.018c-.477.426-.892,1.066-1.446,1.227a13.574,13.574,0,0,1-2.83.224c-.1,1.4-.189,2.65-.279,3.9l-.648.6c-.593-.609-1.724-1.254-1.685-1.821.162-2.421-.927-3.009-3.1-2.923-.58.023-1.2-.913-1.8-1.937C3505.309,1094.25,3506.346,1092.1,3505.762,1088.7Z" transform="translate(-278.738 -248.854)" fill="#fff"/>
    <path id="Path_670" data-name="Path 670" d="M3518.25,1142.8a18.738,18.738,0,0,0-2.816-16.189c-.393-.57-.213-1.535-.3-2.316.8.328,1.9.427,2.353,1.02,3.675,4.831,4.466,10.4,3.709,16.25C3520.956,1143.433,3520.4,1143.615,3518.25,1142.8Z" transform="translate(-285.083 -264.72)" fill="#fff"/>
    <path id="Path_671" data-name="Path 671" d="M3511.529,1164.308c-.878,1.446-1.306,2.261-1.835,3a20.856,20.856,0,0,1-9.708,7.27c-.63.246-1.535-.209-2.312-.34.409-.666.671-1.713,1.251-1.936a18.6,18.6,0,0,0,9.76-8.038,1.608,1.608,0,0,1,1.246-.708A5.164,5.164,0,0,1,3511.529,1164.308Z" transform="translate(-277.301 -282.215)" fill="#fff"/>
    <path id="Path_672" data-name="Path 672" d="M3377.579,1163.617c3.37,2.885,6.193,5.249,8.938,7.7a5.869,5.869,0,0,1,.941,1.862c-.687.087-1.5.456-2.041.217a18.344,18.344,0,0,1-8.272-7.684C3376.836,1165.2,3377.46,1164.125,3377.579,1163.617Z" transform="translate(-223.559 -282.243)" fill="#fff"/>
    <path id="Path_673" data-name="Path 673" d="M3414.793,1180.045c.451-.647.76-1.553,1.38-1.891a38.95,38.95,0,0,1,5.469-2.441c.558-.2,1.345.229,2.026.369-.236.582-.314,1.484-.735,1.692-2.391,1.181-4.865,2.2-7.309,3.267Z" transform="translate(-240.372 -287.609)" fill="#fff"/>
    <path id="Path_674" data-name="Path 674" d="M3379.694,1124.634c-.2-.469-.594-.956-.562-1.413.1-1.513,3.95-5.974,5.326-6.214a1.348,1.348,0,0,1,1.156.406c.238.425.421,1.255.187,1.511-1.686,1.842-3.48,3.584-5.251,5.347A3.793,3.793,0,0,1,3379.694,1124.634Z" transform="translate(-224.482 -261.47)" fill="#fff"/>
    <path id="Path_675" data-name="Path 675" d="M3460.488,1121.491c3.121-4.1,4.74-4.853,6.278-2.921C3462.523,1123.333,3462.338,1123.419,3460.488,1121.491Z" transform="translate(-260.732 -261.719)" fill="#fff"/>
    <path id="Path_676" data-name="Path 676" d="M3375.318,1134.106q-.334,1.95-.668,3.9l-1.014-.119a3.047,3.047,0,0,1,.729-3.974Z" transform="translate(-221.838 -269.007)" fill="#fff"/>
    <path id="Path_677" data-name="Path 677" d="M3400.686,1180.187l2.535.793q.127.407.255.813c-.747.3-1.573.941-2.218.794-.58-.132-.961-1.132-1.43-1.749Z" transform="translate(-233.704 -289.626)" fill="#fff"/>
    <path id="Path_678" data-name="Path 678" d="M3501.207,1210.34l2.763-1.8a6.668,6.668,0,0,1,1.031,1.882c.055.292-.73,1.076-1.066,1.038A12.027,12.027,0,0,1,3501.207,1210.34Z" transform="translate(-278.876 -302.26)" fill="#fff"/>
    <path id="Path_679" data-name="Path 679" d="M3469.779,1017.512l-2.223,2.783c-.331-1.439-.937-2.6-.609-3.01.461-.574,1.619-.588,2.478-.841C3469.543,1016.8,3469.662,1017.156,3469.779,1017.512Z" transform="translate(-263.569 -216.666)" fill="#fff"/>
    <path id="Path_680" data-name="Path 680" d="M3471.484,995.3c.274.9.546,1.807,1.086,3.591-1.432-.592-2.678-.761-2.814-1.245-.206-.726.365-1.672.6-2.525Z" transform="translate(-264.842 -207.166)" fill="#fff"/>
    <path id="Path_681" data-name="Path 681" d="M3451.927,1217.479c.737,1.711.543,2.575-1.274,2.572-9.768-.017-19.537.016-29.3-.056-.609,0-1.212-.747-1.818-1.146.635-.457,1.268-1.306,1.907-1.311C3431.572,1217.454,3441.706,1217.479,3451.927,1217.479Z" transform="translate(-242.483 -306.241)" fill="#fff"/>
    <path id="Path_682" data-name="Path 682" d="M3437.98,1212.678c-3.867,0-7.735.048-11.6-.049-.607-.015-1.2-.685-1.8-1.053.617-.384,1.232-1.1,1.854-1.1q11.739-.113,23.478,0c.6.006,1.2.753,1.8,1.156-.618.348-1.229.984-1.855,1C3445.9,1212.723,3441.939,1212.677,3437.98,1212.678Z" transform="translate(-244.734 -303.095)" fill="#fff"/>
    <path id="Path_683" data-name="Path 683" d="M3902.419,997.386l1.863-2.04a6.388,6.388,0,0,1,.926,2.142c.021.608-.589,1.239-.92,1.861Z" transform="translate(-457.645 -207.266)" fill="#fff"/>
    <path id="Path_684" data-name="Path 684" d="M3904.778,1014.089c-.393-.736-1.091-1.473-1.09-2.208s.711-1.449,1.111-2.173l.851.36v3.654Z" transform="translate(-458.211 -213.665)" fill="#fff"/>
    <path id="Path_685" data-name="Path 685" d="M3817.378,1114.953c7.808,0,15.615-.02,23.421.047.508,0,1.009.675,1.514,1.035-.5.4-.99,1.144-1.49,1.149q-11.172.106-22.346-.02c-.6-.008-1.18-.871-1.771-1.336Z" transform="translate(-419.454 -260.558)" fill="#fff"/>
    <path id="Path_686" data-name="Path 686" d="M3772.541,1114.968c5.315,0,10.631-.024,15.945.048.4.005.8.689,1.2,1.058-.42.382-.834,1.09-1.259,1.1-4.876.077-9.754.1-14.628-.02-.551-.013-1.08-.939-1.62-1.443Z" transform="translate(-399.614 -260.564)" fill="#fff"/>
    <path id="Path_687" data-name="Path 687" d="M3887.88,1114.97c-.31,1-.418,1.764-.567,1.772q-4.177.223-8.361.235c-.187,0-.621-.839-.507-1.1a1.611,1.611,0,0,1,1.12-.872C3882.2,1114.933,3884.83,1114.97,3887.88,1114.97Z" transform="translate(-446.955 -260.563)" fill="#fff"/>
    <path id="Path_688" data-name="Path 688" d="M3827.725,1157.135a3.942,3.942,0,0,1,3.985,3.984,4.538,4.538,0,0,1-3.982,4.172,4.667,4.667,0,0,1-4.212-4.286A4.373,4.373,0,0,1,3827.725,1157.135Z" transform="translate(-422.487 -279.354)" fill="#fff"/>
    <path id="Path_689" data-name="Path 689" d="M3800.152,1157.134a3.919,3.919,0,0,1,3.977,4.02,4.315,4.315,0,0,1-4.031,4.139,4.368,4.368,0,0,1-3.865-4.215A3.677,3.677,0,0,1,3800.152,1157.134Z" transform="translate(-410.331 -279.354)" fill="#fff"/>
    <path id="Path_690" data-name="Path 690" d="M3700.644,660.335c.155,1.975.233,2.967.32,4.075l3.305.282c-.059,1.966-.059,1.966-3.254,2.479a4.706,4.706,0,0,1-.237,1.239c-.375.782-.855,1.515-1.292,2.268a13.02,13.02,0,0,0-1.275-2.025,14.8,14.8,0,0,0-2.128-1.786,6.923,6.923,0,0,1-1.916-1.763c2.4-.414,4.653-.4,4.207-3.638C3698.34,661.226,3699.693,660.794,3700.644,660.335Z" transform="translate(-364.853 -57.994)" fill="#fff"/>
    <path id="Path_691" data-name="Path 691" d="M3325.539,748.33l-2.981-2.1,3.043-2.3.368-1.879c.407-.047.9-.255,1.084-.1,1.367,1.132,1.592,3.438,3.817,3.705l-1.742,2.46-.309-.138-2.114,2.278Z" transform="translate(-199.275 -94.335)" fill="#fff"/>
    <path id="Path_692" data-name="Path 692" d="M3685.541,917.123q.029,1.5.057,3l-3.136-.416c-.023-.3-.045-.608-.068-.911l1.912-1.843Z" transform="translate(-359.608 -172.335)" fill="#fff"/>
    <path id="Path_693" data-name="Path 693" d="M3452.164,1083.217l2.491,2.009-3.2,2.093v-3.41Z" transform="translate(-256.71 -246.419)" fill="#fff"/>
    <g id="Ellipse_492" data-name="Ellipse 492" transform="translate(3388.326 750.348)" fill="#fff" stroke="#fff" stroke-width="1">
      <circle cx="1.5" cy="1.5" r="1.5" stroke="none"/>
      <circle cx="1.5" cy="1.5" r="1" fill="none"/>
    </g>
    <g id="Ellipse_493" data-name="Ellipse 493" transform="translate(3388.326 756.348)" fill="#fff" stroke="#fff" stroke-width="1">
      <circle cx="1.5" cy="1.5" r="1.5" stroke="none"/>
      <circle cx="1.5" cy="1.5" r="1" fill="none"/>
    </g>
    <g id="Ellipse_494" data-name="Ellipse 494" transform="translate(3386.326 761.348)" fill="#fff" stroke="#fff" stroke-width="1">
      <circle cx="1.5" cy="1.5" r="1.5" stroke="none"/>
      <circle cx="1.5" cy="1.5" r="1" fill="none"/>
    </g>
    <g id="Ellipse_495" data-name="Ellipse 495" transform="translate(3375.326 766.348)" fill="#fff" stroke="#fff" stroke-width="1">
      <circle cx="1.5" cy="1.5" r="1.5" stroke="none"/>
      <circle cx="1.5" cy="1.5" r="1" fill="none"/>
    </g>
    <text id="_" data-name="+" transform="translate(3399.326 770.348)" fill="#fff" font-size="20" font-family="SegoeUI-Bold, Segoe UI" font-weight="700"><tspan x="0" y="0">+</tspan></text>
    <g id="Ellipse_496" data-name="Ellipse 496" transform="translate(3359.326 708.348)" fill="#fff" stroke="#fff" stroke-width="1">
      <circle cx="1.5" cy="1.5" r="1.5" stroke="none"/>
      <circle cx="1.5" cy="1.5" r="1" fill="none"/>
    </g>
    <g id="Ellipse_497" data-name="Ellipse 497" transform="translate(3359.326 720.348)" fill="#fff" stroke="#fff" stroke-width="1">
      <circle cx="1.5" cy="1.5" r="1.5" stroke="none"/>
      <circle cx="1.5" cy="1.5" r="1" fill="none"/>
    </g>
    <g id="Ellipse_501" data-name="Ellipse 501" transform="translate(3301.712 716.793) rotate(-69)" fill="#fff" stroke="#fff" stroke-width="1">
      <circle cx="3.5" cy="3.5" r="3.5" stroke="none"/>
      <circle cx="3.5" cy="3.5" r="3" fill="none"/>
    </g>
    <g id="Ellipse_502" data-name="Ellipse 502" transform="translate(3305.654 706.524) rotate(-69)" fill="#fff" stroke="#fff" stroke-width="1">
      <circle cx="3.5" cy="3.5" r="3.5" stroke="none"/>
      <circle cx="3.5" cy="3.5" r="3" fill="none"/>
    </g>
    <g id="Ellipse_503" data-name="Ellipse 503" transform="translate(3309.596 696.255) rotate(-69)" fill="#fff" stroke="#fff" stroke-width="1">
      <circle cx="3.5" cy="3.5" r="3.5" stroke="none"/>
      <circle cx="3.5" cy="3.5" r="3" fill="none"/>
    </g>
  </g>
</svg>
