<svg xmlns="http://www.w3.org/2000/svg" width="831.64" height="420.75" viewBox="0 0 495.585 497.871">
  <g id="Group_348" data-name="Group 348" transform="translate(-3867.304 -2643.038)">
    <path id="Path_694" data-name="Path 694" d="M4035.178,2722.541a27.933,27.933,0,0,1,4.5,2.688c.42-1.408,1.156-1.655,2.5-.969a3.707,3.707,0,0,0,2.811.1,4.3,4.3,0,0,1,5.458,1.117c2.435,2.617,4.967,5.142,7.179,7.417l7.862-5.079a6.879,6.879,0,0,0-2.358-6.89c-2.827-2.447-5.1-5.526-7.763-8.173-4.1-4.069-8.27-8.074-12.542-11.961-1.638-1.491-2.549-3.029-2.243-5.263a1.9,1.9,0,0,0-1.608-2.474c-2.224-.651-3.539-3.549-3.116-5.788a5.449,5.449,0,0,1,4.782-4.52,5.307,5.307,0,0,1,5.531,3.207,5.393,5.393,0,0,1-1.673,6.543c-.745.6-2.082.57-2,2.141.085,1.706.132,3.191,1.531,4.557q11.283,11.008,22.362,22.226a4.421,4.421,0,0,1,1.041,2.478,40.682,40.682,0,0,1,.046,4.542c3.01.822,5.515,2.184,7.138,4.911a9.3,9.3,0,0,1-5.5,13.608,1.85,1.85,0,0,0-1.619,2.123c.044,6.3,0,12.6.047,18.9a3.137,3.137,0,0,0,.67,2.022q9.954,10.044,20.012,19.984c.078.077.231.08.5.168v-20.2a42.618,42.618,0,0,1-6.468-1.026c-5.183-1.636-7.936-6.729-6.81-12.607a10.787,10.787,0,0,1,10.156-8.293c4.781-.024,8.274,2.033,10.237,6.185,2.013,4.261,1.288,8.4-1.8,12.088a3.906,3.906,0,0,0-.909,2.276c-.059,10.025-.017,20.052-.06,30.077a4.6,4.6,0,0,0,1.526,3.729c3.122,2.932,6.1,6.021,9.388,9.3.053-.9.124-1.54.127-2.183q.126-30.38.274-60.761a5.269,5.269,0,0,0-1.714-4.1c-6.9-6.862-13.786-13.744-20.57-20.722a6.061,6.061,0,0,1-1.471-3.516c-.217-2.761.028-5.556-.129-8.324a4.7,4.7,0,0,0-1.174-2.806q-9.046-9.237-18.271-18.3a4.55,4.55,0,0,1-1.586-3.88c.13-1.82-.143-3.676.067-5.481.4-3.465-.417-6.262-3.418-8.345a27.236,27.236,0,0,1-2.932-3.007,2.735,2.735,0,0,0-4.59.7,5.561,5.561,0,0,1-6.216,2.707,5.56,5.56,0,0,1,.359-10.74,5.446,5.446,0,0,1,5.79,2.77,2.754,2.754,0,0,0,2.6,1.73,7.385,7.385,0,0,1,3.5,1.52,64.5,64.5,0,0,1,4.758,4.662v-15.071c-1.409-1.336-2.894-2.285-3.73-3.635-1.642-2.65-.6-5.675,2.148-7.253a5.385,5.385,0,0,1,5.409,9.311,3.135,3.135,0,0,0-1.759,3.206q.11,13,.007,26.012c-.012,1.778.356,3.189,2.278,4.163.05-.793.132-1.495.132-2.2.01-6.436.082-12.873-.041-19.306a5.465,5.465,0,0,1,1.9-4.613c.708-.616,1.371-1.281,2.061-1.916,1.33-1.224,2.29-2.292,1.532-4.52a4.789,4.789,0,0,1,2.491-5.992,5.409,5.409,0,0,1,7.255,7.511,5.038,5.038,0,0,1-5.846,2.459c-1.213-.348-1.86.078-2.831.793-3.793,2.793-4.955,6.342-4.632,10.992.4,5.8.042,11.646.153,17.47a4.865,4.865,0,0,0,1.181,3.02c4.02,4.194,8.171,8.263,12.289,12.362a7.01,7.01,0,0,0,1.17.688v-6.06c0-4.2-.025-8.4.012-12.6a2.266,2.266,0,0,0-1.625-2.588c-3.313-1.3-5.171-5.43-4.27-8.883a7.942,7.942,0,0,1,8.168-6.149,7.731,7.731,0,0,1,7.325,7.061,7.976,7.976,0,0,1-4.259,8.07,2.524,2.524,0,0,0-1.191,1.751q-.11,15.953-.027,31.906a2.861,2.861,0,0,0,.669,1.821c3.194,3.317,6.455,6.571,9.71,9.83.164.164.466.19.955.376,0-5.9.035-11.624-.059-17.343-.008-.512-.76-1.183-1.324-1.484-2.189-1.168-3.579-3.65-3.1-5.79a5.576,5.576,0,0,1,5.391-4.573,5.638,5.638,0,0,1,5.228,3.756c.66,2.7-.409,5.515-2.783,6.5a2.055,2.055,0,0,0-1.418,2.308c.016,6.029,0,12.059.007,18.087,0,.392-.041.931.184,1.154,1.933,1.924,3.922,3.792,5.925,5.706.107-.129.276-.246.261-.326-.814-4.108,1.9-6.361,4.467-8.785,2.827-2.671,5.533-5.475,8.207-8.3a3.708,3.708,0,0,0,.97-2.242q.145-5.891,0-11.786a3.645,3.645,0,0,0-.976-2.225q-5.782-5.971-11.712-11.8a4.835,4.835,0,0,1-1.589-3.737c.046-9.009-.023-18.02.063-27.028a2.748,2.748,0,0,0-1.794-2.929,9.36,9.36,0,0,1,.2-16.843,9.253,9.253,0,0,1,12.12,3.722c2.564,4.4,1.273,10.6-3.059,12.5-3.22,1.413-3.521,3.386-3.462,6.311.153,7.583-.006,15.174.116,22.759a5.4,5.4,0,0,0,1.4,3.295c3.724,3.951,7.645,7.715,11.385,11.652a4.918,4.918,0,0,1,1.281,2.97c.133,4.806.144,9.62,0,14.425a5.264,5.264,0,0,1-1.359,3.175c-3.64,3.827-7.444,7.5-11.138,11.275a3.4,3.4,0,0,0-1.055,2.032c-.061,14.356-.046,28.712.131,43.237,1.146-1.579,3.67-1.352,4.285-3.649a2.585,2.585,0,0,1,1.24-1.271,4.339,4.339,0,0,0,2.246-3.97c.058-1.76-.05-3.532.124-5.278a3.925,3.925,0,0,0-2.2-4.4,5.032,5.032,0,0,1-2.074-5.842,5.546,5.546,0,0,1,10.574,0,5.019,5.019,0,0,1-2.066,5.843,3.8,3.8,0,0,0-2.166,4.413c.058.4-.068.829.02,1.215,1.1,4.816-1.044,8.245-4.619,11.147-1.244,1.01-2.164,2.441-3.462,3.354-2.155,1.518-2.432,3.494-1.97,5.887,2.7-1.19,3.539-5.414,7.995-4.664a65.5,65.5,0,0,1-5.238,5.185c-2.4,1.9-3.027,4.15-3,7.152.14,14.969.039,29.941.023,44.912,2.045,6.361.654,12.966,1.257,19.657a53.336,53.336,0,0,0,5.54-.082c.411-.043,1-1.107,1.017-1.712.086-4.469-.49-9.02.148-13.4,1.842-12.627.3-25.283.866-37.907.009-.2-.067-.472.035-.6,1.788-2.25.085-3.959-.766-5.9-1.62-3.692-.676-7.128,2-9.884s6.071-3.888,9.789-2.314c1.742.737,2.774.639,4.146-.761,7.263-7.409,14.663-14.684,21.98-22.04.914-.918,1.6-1.78-.4-2.642a9.423,9.423,0,0,1-.044-17.476,2.024,2.024,0,0,0,1.431-2.275c-.1-3.655.025-7.32-.165-10.969a5.259,5.259,0,0,0-1.383-3.114c-4.431-4.576-9.03-8.99-13.453-13.575a5.1,5.1,0,0,1-1.265-3.178c-.117-6.434-.078-12.87-.044-19.305a2.335,2.335,0,0,0-1.282-2.422c-2.687-1.542-3.439-3.794-2.541-6.716a5.748,5.748,0,0,1,5.117-3.591,5.815,5.815,0,0,1,5.189,4.114c.687,2.422-.412,4.833-2.884,6.3-.4.238-.825.437-1.369.721v6.341c2.236-2.17,4.086-3.929,5.895-5.728,3.172-3.156,6.369-6.29,9.437-9.544a4.845,4.845,0,0,0,1.139-2.829c.158-2.5-.037-5.014.084-7.514a4.31,4.31,0,0,0-1.662-3.9,16.185,16.185,0,0,1-1.733-1.71c-1.063-1.156-1.877-2.054-3.858-1.1-2.33,1.126-5.155-.244-6.459-2.417a6.011,6.011,0,0,1,.883-6.406,5.2,5.2,0,0,1,6.275-1.117,5.046,5.046,0,0,1,2.869,6.021,2.292,2.292,0,0,0,.95,2.762c4.043,2.757,4.816,6.543,4.844,11.268.029,4.828-1.08,8.376-4.845,11.56-4.3,3.639-8.018,7.966-12.089,11.89a4.531,4.531,0,0,0-1.5,5.005c1.439-1.426,2.763-2.738,4.086-4.051q7.574-7.508,15.155-15.009a4.246,4.246,0,0,0,1.374-3.351c-.086-7.18-.071-14.361-.011-21.541a2.492,2.492,0,0,0-1.524-2.677,5.154,5.154,0,0,1-2.81-5.539,5.406,5.406,0,0,1,9.951-2.125,5.294,5.294,0,0,1-1.813,7.491,3.053,3.053,0,0,0-1.792,3.187c.069,7.315.1,14.633-.037,21.947a5.636,5.636,0,0,1-1.452,3.515c-6.594,6.734-13.31,13.35-19.987,20-1.969,1.961-2.008,6.93-.04,8.92q5.651,5.714,11.339,11.391a10.427,10.427,0,0,0,1.229.831c-.232-3.015.927-5.905-1.983-7.95-.325-.228-.519-.645-.846-.866-4.091-2.77-5.409-6.684-4.57-11.386a6.609,6.609,0,0,1,1.44-3.33c5.263-5.41,10.676-10.673,15.963-16.06a3.986,3.986,0,0,0,.95-2.514c.1-5.553.1-11.109.06-16.663-.006-.987-.426-1.968-.478-2.96a5.429,5.429,0,0,1,3.789-5.576,5.821,5.821,0,0,1,5.843,1.855,5.137,5.137,0,0,1,.155,6.582,5.481,5.481,0,0,1-6.055,2.1c-.313-.09-.614-.223-1.253-.457v5.965c0,3.251-.065,6.5.031,9.753a3.967,3.967,0,0,1-1.32,3.189c-5.182,5.112-10.3,10.29-15.494,15.388a5.99,5.99,0,0,0-1.625,3.683c-.707,4.187,1.34,6.854,4.311,9.192a5.048,5.048,0,0,0,.572.349c.169-.111.278-.158.274-.183-.769-4.036,1.712-6.382,4.3-8.885,6.167-5.96,12.177-12.083,18.171-18.218a4.24,4.24,0,0,0,.976-2.675c.095-5.011-.029-10.027.11-15.036a5.375,5.375,0,0,1,1.33-3.146c1.956-2.192,4.178-4.142,6.188-6.288a12.267,12.267,0,0,0,1.8-2.857c2.2-4.314,7.6-6.132,12.427-4.136,3.994,1.652,6.33,6.912,4.983,11.223a9.383,9.383,0,0,1-17.5,1.4c-.094-.175-.159-.366-.254-.54-.022-.041-.115-.042-.482-.163-1.837,2.106-4.8,3.346-4.493,7.257a119.451,119.451,0,0,1,.021,13.607,5.8,5.8,0,0,1-1.446,3.554c-6.865,7.019-13.869,13.9-20.772,20.883a3.834,3.834,0,0,0-1.095,2.42c.055,9.347.252,18.693.311,28.041.009,1.425.931,1.6,1.813,2.03,6.437,3.147,7.536,11.093,2.115,15.71a29.186,29.186,0,0,1-3.933,2.381c.591,2.96-1.985,4.482-3.815,6.335-7,7.085-14.081,14.093-21.154,21.107a2.021,2.021,0,0,0-.656,2.417c2.417,7.776-2.473,13.682-10.58,12.821-1.725-.183-1.974.7-1.977,2.006q-.007,5.182-.005,10.364c0,7.249-.029,14.5.043,21.745a11.064,11.064,0,0,0,.861,2.659,6.486,6.486,0,0,1,.3,1.748c.024,4.471.055,8.943-.015,13.413-.021,1.388.4,1.876,1.833,1.9,4.932.071,4.931.122,4.932-4.83,0-2.71-.075-5.422.03-8.128.063-1.641-.6-3.392,1.014-4.88.52-.479.227-1.953.131-2.956a4.642,4.642,0,0,1,1.572-3.954q26.271-26.227,52.51-52.487a5.674,5.674,0,0,1,.742-.677c4.621-3.208,5.65-7.608,5.412-13.089-.436-10.075-.139-20.182-.106-30.276,0-1.219-.157-1.971-1.593-2.277a9.515,9.515,0,0,1-7.42-9.746c.276-3.9,3.6-7.649,8.073-8.78.261-.065.526-.109,1.06-.219a105.745,105.745,0,0,0-.074-10.667c-.422-4.166.964-7.115,4.092-9.856,4.166-3.651,7.938-7.756,11.8-11.739a4,4,0,0,0,1.064-2.408c.117-3.062,1.445-4.962,4.214-5.626a5.6,5.6,0,0,1,6.174,2.728,6.13,6.13,0,0,1-1.6,6.814c-2.064,1.575-4.736,1.418-7.05-.4a6.523,6.523,0,0,0-.83-.424c-4.858,4.95-9.8,9.925-14.647,15a4.605,4.605,0,0,0-1.135,2.807c-.124,4.061-.013,8.128-.075,12.192a2.084,2.084,0,0,0,1.559,2.4,8.9,8.9,0,0,1,6.17,7.984c.356,3.809-1.317,6.738-4.44,8.924a2.8,2.8,0,0,0-1.228,1.807c-.068,8.4-.029,16.8-.009,25.2,0,.115.1.23.226.5a3.151,3.151,0,0,0,2-3.239c-.046-5.826.063-11.653-.06-17.476-.044-2.067.414-3.737,2.122-4.9,2.864-1.958,3.172-4.707,3.451-7.979.5-5.93-.975-10.5-5.9-14.063-2.209-1.6-2.029-5.025.069-6.92,1.372-1.238,2.332-2.214,1.549-4.359-.725-1.985.923-4.7,2.789-5.569a5.472,5.472,0,0,1,7.064,7.905c-1.36,1.968-3.958,3.093-6.037,2.092-2.4-1.154-3.378.6-4.226,1.9a2.756,2.756,0,0,0,.748,3.936c4.855,3.487,6.891,8.154,5.781,14.1a1.777,1.777,0,0,0,0,.608,9.64,9.64,0,0,1-4.085,10.157,3.427,3.427,0,0,0-1.177,2.388c-.1,5.35-.048,10.7-.033,16.054a9.749,9.749,0,0,0,.314,1.443c2.954-3,5.7-5.7,8.29-8.524.441-.481.333-1.543.335-2.337q.028-15.141-.008-30.281a4.865,4.865,0,0,1,1.614-3.914c3.645-3.461,7.105-7.116,10.676-10.657a2.168,2.168,0,0,0,.71-2.622c-1.378-4.065,1.1-9.146,5.063-10.741a9.223,9.223,0,0,1,11.451,4.186,8.96,8.96,0,0,1-3.178,11.535c-3.416,2.095-6.832,1.837-11.367-1.117-3.157,3.29-6.3,6.763-9.668,9.992a7.1,7.1,0,0,0-2.342,5.8c.152,8.939.094,17.883.032,26.825-.011,1.644.442,2.16,2.168,2.272a7.091,7.091,0,0,0,6.513-2.671c1.714-2.062,3.841-3.776,5.661-5.757a2.957,2.957,0,0,0,.735-2.249,7.214,7.214,0,0,1,2.651-7.729,6.911,6.911,0,0,1,7.966-.769,1.822,1.822,0,0,0,2.567-.507c4.433-4.476,8.927-8.891,13.321-13.4a3.982,3.982,0,0,0,1.006-2.449c.106-3.723.042-7.451.052-11.176,0-.539-.13-1.389.144-1.566,2.052-1.334,1.2-2.978.775-4.711a5.107,5.107,0,0,1,2.659-5.439,5.455,5.455,0,0,1,7.359,7.478,5.386,5.386,0,0,1-5.485,2.625c-2.783-.519-3.31-.085-3.321,2.8-.013,3.387-.073,6.776.027,10.16a4.635,4.635,0,0,1-1.612,3.706q-6.89,6.73-13.65,13.59a2.451,2.451,0,0,0-.567,2.034c1.29,4.012.78,6.755-1.865,8.987-2.762,2.33-5.652,2.452-9.329.4a3.094,3.094,0,0,1-.925-.631c-2.712,2.946-5.356,5.961-8.183,8.793a4.342,4.342,0,0,1-3.114,1.309c-4.616-.677-7.869,1.074-10.817,4.574a133.4,133.4,0,0,1-9.951,9.963c-1.351,1.3-1.068,2.813-.933,4.342.022.24.447.654.657.637,2.5-.212,5.2.985,7.356-1.535a75.933,75.933,0,0,1,6.7-6.673,4.806,4.806,0,0,1,2.79-1.171c3.165-.144,6.339-.054,9.6-.054.166-2.4.674-4.523,2.806-5.833a5.233,5.233,0,0,1,6.917,1.035,5.476,5.476,0,0,1-.015,7.2,4.888,4.888,0,0,1-6.863.906c-1.854-1.582-3.85-1.108-5.854-1.411-5.2-.786-9.346.758-12.333,5.113-2.815,4.105-6.656,5.558-11.694,4.318-.06,1.04-.1,1.737-.159,2.727,2.506,0,4.851.047,7.19-.042.439-.016.9-.532,1.278-.9,1.218-1.175,2.469-2.327,3.578-3.6a5.306,5.306,0,0,1,4.606-2.028,2.712,2.712,0,0,0,1.969-1.176c1.236-1.926,3.6-3.336,5.517-3.022a5.724,5.724,0,0,1,4.766,4.575,5.551,5.551,0,0,1-2.723,5.656,5.667,5.667,0,0,1-7.493-2.221,2.859,2.859,0,0,0-4.842-.695c-1.575,1.545-3.045,3.206-4.707,4.649a3.853,3.853,0,0,1-2.619,1.035,11.167,11.167,0,0,0-11.454,4.771c-1.8,2.406-4.257,4.318-6.7,6.726,2.206.331,3.638.33,4.993-1.2a84.217,84.217,0,0,1,6.866-6.731,6.433,6.433,0,0,1,2.786-1.209,8.495,8.495,0,0,1,2.631-.027c2.5.221,4.55.114,5.649-2.9.783-2.153,3.73-2.927,5.923-2.256a5.438,5.438,0,0,1,3.858,4.929,5.562,5.562,0,0,1-3.264,5.338c-2.327.825-5.194.217-6.378-1.686-.747-1.2-1.637-1.253-2.82-1.434a10.588,10.588,0,0,0-11.012,4.6c-.312.435-.812.734-1.123,1.169a8.468,8.468,0,0,1-8.561,3.649,4.439,4.439,0,0,0-3.1,1.319c-9.147,9.078-18.208,18.242-27.3,27.373-2.215,2.224-4.48,4.4-6.7,6.617a19.111,19.111,0,0,0-1.3,1.679h5.786c5.352,0,10.705.072,16.054-.056a5.434,5.434,0,0,0,3.161-1.281c1.87-1.621,3.345-3.728,5.3-5.209,2.48-1.875,2.553-4.184,2.083-6.912-2.635.368-4.971-.073-6.536-2.51a5.707,5.707,0,0,1,.714-6.547,5.59,5.59,0,0,1,6.874-.894c2.025,1.319,3.24,4.131,2.208,6.125-1.214,2.345-.567,4.757-.894,7.116a6.6,6.6,0,0,1-1.346,3.386c-2.324,2.58-4.916,4.918-7.324,7.426a4.205,4.205,0,0,1-3.365,1.357q-11.684-.092-23.37,0a11.252,11.252,0,0,0-2.56.623l.11.693c.558.044,1.116.125,1.673.125,8.4.008,16.8.054,25.2-.053a5.023,5.023,0,0,0,3.11-1.332c4.761-4.593,9.409-9.3,14.084-13.985a2.143,2.143,0,0,0,.672-2.74,5.181,5.181,0,0,1,2.314-6.262,5.713,5.713,0,0,1,6.565.779,5.631,5.631,0,0,1,1.021,6.5c-1.348,2.316-4.035,3.552-6.382,2.559-1.388-.587-2.037-.166-2.929.746-4.832,4.937-9.688,9.85-14.625,14.68a4.431,4.431,0,0,1-2.789,1.158c-9.619.084-19.24.133-28.857,0-2.678-.038-3.846,1.821-4.973,3.452a3.611,3.611,0,0,0,.4,4.772c.334.339.243,1.156.246,1.754.019,4.335.079,8.672-.021,13.005-.038,1.639.374,2.294,2.126,2.2,2.683-.142,5.38-.037,8.287-.037v9.585c3.3,0,6.4-.11,9.484.031,3.043.14,6.072.666,9.115.745a4.819,4.819,0,0,0,3.161-1.242q9.946-9.725,19.677-19.668a4.82,4.82,0,0,0,1.215-2.962c.136-4.127.126-8.265.023-12.394a4.674,4.674,0,0,1,1.487-3.75c4.731-4.623,9.38-9.331,14.161-13.9a11.647,11.647,0,0,1,3.9-2.358c.685-.256,1.73.282,2.54.631.261.113.478,1.075.388,1.131a21.9,21.9,0,0,1-2.335,1.184,5.336,5.336,0,0,0-1.494.721q-7.327,7.242-14.579,14.56a2.665,2.665,0,0,0-.882,1.512c-.076,3.561-.041,7.124-.041,10.686l.656.45c1.658-1.82,3.256-3.7,4.99-5.447,2.284-2.3,4.323-5.345,7.117-6.505s6.41-.724,9.6-.377a11.561,11.561,0,0,0,11.295-4.736c2.469-3.13,5.641-5.7,8.407-8.607a3.944,3.944,0,0,0,1.018-2.418c.09-5.35-.01-10.7.1-16.053a4.4,4.4,0,0,1,1.162-2.77c3.4-3.394,6.92-6.665,10.418-9.96a1.71,1.71,0,0,0,.317-2.631,2.937,2.937,0,0,1-.261-3.74,2.959,2.959,0,0,0,.294-1.762c-.12-1.53.1-2.706,2.149-2.456a3.1,3.1,0,0,1,2.365-3.6c.194-.057.446-.247.565-.182,2.167,1.185,4.312.132,6.472.076.717-.02,1.462,1.025,2.194,1.583-.814.712-1.535,1.825-2.464,2.041-1.366.318-2.946-.288-4.314.024a17.258,17.258,0,0,0-3.852,1.927c.068.915.184,1.851.2,2.788a5.331,5.331,0,0,0,3.128,5.041,5.838,5.838,0,0,0,5.855-1.055c1.778-1.731,1.838-3.85,1.165-6.008-.362-1.164-1.13-2.246.277-3.169,1.122-.736,2.054-.975,2.974.531a9.634,9.634,0,0,1-1.242,11.236,9.444,9.444,0,0,1-11.464,1.811c-.293-.166-.578-.346-1.039-.624-3.419,3.442-6.886,6.862-10.245,10.384a3.744,3.744,0,0,0-.765,2.354c-.07,4.673-.034,9.348-.034,14.022,0,1.478,0,2.957,0,4.7,3.876,0,8.042.07,12.2-.068.709-.023,1.468-.853,2.068-1.447,3.561-3.522,7.125-7.042,10.574-10.669a4.775,4.775,0,0,0,1.151-2.812c.156-2.633-.1-5.293.123-7.917a6.158,6.158,0,0,1,1.482-3.5q6.168-6.461,12.635-12.636a14.4,14.4,0,0,1,4.275-2.508c2.54-6.106,6.04-8.184,12.042-7.006,3.581.7,6.313,4.893,6.166,8.93a8.616,8.616,0,0,1-8.019,8.381c-3.96.426-8.088-1.456-9.976-8.019a11.82,11.82,0,0,0-2.774,1.492q-6.486,6.283-12.794,12.75a5.937,5.937,0,0,0-1.131,2.808,7.075,7.075,0,0,0-.022,2.63c.882,5.2-.946,9.131-5.064,12.415-2.93,2.337-5.339,5.318-8.111,7.871a4.99,4.99,0,0,1-2.979,1.228c-4.466.132-8.941,0-13.409.107a9.576,9.576,0,0,0-2.826,1.021l.237.691c6.082,0,12.164.021,18.246-.037a2.563,2.563,0,0,0,1.5-.831c4.908-4.865,9.816-9.73,14.634-14.684a6.764,6.764,0,0,0,1.193-2.783,4.037,4.037,0,0,0,.015-1.817c-.878-4.681.943-8.132,4.663-10.881.894-.66,1.374-1.87,2.077-2.8a5.577,5.577,0,0,1,6.132-2.016,5.508,5.508,0,0,1,3.726,5.224,5.349,5.349,0,0,1-3.634,5.07,5.412,5.412,0,0,1-6.375-2.242c-.251-.369-.442-.78-.7-1.244-2.35,1.873-4.259,3.648-4.04,7.251.379,6.262.1,6.271-4.448,10.75-3.957,3.9-7.851,7.856-11.872,11.683a4.837,4.837,0,0,1-2.953,1.268c-6.366.113-12.735.019-19.1.1a11.407,11.407,0,0,0-2.947.859l.152.714c.493.033.986.095,1.48.1,7.858.006,15.716.047,23.573-.048a4.669,4.669,0,0,0,2.936-1.2q8.451-8.29,16.7-16.785a2.653,2.653,0,0,0,.6-2.036c-.588-3.1.983-6.066,3.705-6.692a5.491,5.491,0,1,1,2.128,10.745,4.346,4.346,0,0,1-2.711-.513c-1.24-.8-1.9-.316-2.743.537-5.435,5.485-10.929,10.912-16.343,16.417a5.006,5.006,0,0,1-3.917,1.656c-8.67-.068-17.342-.081-26.012.03a4.676,4.676,0,0,0-3.292,1.364c-2.926,3.808-6.612,5.1-11.3,4.521a41.292,41.292,0,0,0-7.915,0,5.284,5.284,0,0,0-3.135,1.29c-11.816,11.7-23.544,23.5-35.355,35.207a6.147,6.147,0,0,1-2.977,1.284c-1.54.328-3.356-.589-4.583,1.2-.188.275-1.027.132-1.566.133-3.929.01-7.858,0-11.787.014-.728,0-1.456.06-2.306.1v6.68h8.042a29.681,29.681,0,0,1,4.871.036c9.763,1.648,19.6.518,29.393.939a4.682,4.682,0,0,0,3.861-1.621c3.822-3.927,7.743-7.756,11.549-11.7a3.866,3.866,0,0,1,3.564-1.379c2.6.4,4.5-.53,6.357-2.453,7.011-7.264,14.208-14.346,21.31-21.521a4.94,4.94,0,0,1,3.874-1.662c6.772.1,13.548.009,20.322.073a2.358,2.358,0,0,0,2.385-1.384c2.428-4.381,7.067-6.231,11.682-4.443a2.042,2.042,0,0,0,2.6-.5q13-13.018,26-26.029c5.82-5.833,11.591-11.717,17.467-17.493a2.359,2.359,0,0,0,.749-2.65,9.276,9.276,0,0,1,4.934-10.817,9.418,9.418,0,0,1,11.843,3.2,9.257,9.257,0,0,1-1.127,12.012,9.356,9.356,0,0,1-12.05.922,2.148,2.148,0,0,0-.348-.194l-45.429,45.489c.112.2.427.784.753,1.359.454.8.894,2.261,1.376,2.275,1.917.061,3.946.765,5.7-1.019,7.31-7.436,14.745-14.748,22.074-22.165,1.123-1.136,2.227-1.9,3.855-1.616,1.2.211,1.788-.4,2.317-1.413a5.277,5.277,0,0,1,5.921-2.726,5.439,5.439,0,0,1,4.14,5.274,5.349,5.349,0,0,1-10.064,2.629,2.837,2.837,0,0,0-4.737-.574c-7.293,7.258-14.62,14.485-21.825,21.831a5.272,5.272,0,0,1-4.761,1.891c-2.112-.274-3.4.069-4.217,2.637-1.123,3.534-4.619,6.309-10.025,5.748-3.7-.383-6.868-3.447-8.069-8.152a12.68,12.68,0,0,0-1.5-.17c-6.3-.013-12.6-.036-18.9.027a3.359,3.359,0,0,0-2.129.834q-9.987,9.822-19.867,19.751c-.167.168-.2.474-.357.88h20.876a11.6,11.6,0,0,1,1.35-8.785,11.205,11.205,0,0,1,13.322-4.288c4.7,1.82,7.507,7.456,6.494,12.367a10.972,10.972,0,0,1-18.388,5.549,3.033,3.033,0,0,0-1.854-.765c-10.161-.047-20.323-.062-30.483.012a4.574,4.574,0,0,0-2.852,1.043c-3.037,2.83-5.929,5.814-8.86,8.756-.124.124-.116.378-.219.751a10.434,10.434,0,0,0,1.287.161q30.991.034,61.983,0a4.649,4.649,0,0,0,2.935-1.221q10.3-10.047,20.427-20.271a4.618,4.618,0,0,1,3.844-1.665c1.888.129,3.826-.2,5.681.078,3.169.475,5.262-.894,7.346-3.084,5.29-5.559,10.8-10.9,16.159-16.4a5.353,5.353,0,0,1,4.437-1.875c3.04.164,6.1.182,9.139.06a4.693,4.693,0,0,0,2.822-1.146c3.373-3.2,6.609-6.546,9.912-9.822a2.1,2.1,0,0,0,.68-2.748,5.208,5.208,0,0,1,2.294-6.64,5.051,5.051,0,0,1,6.622.913,5.352,5.352,0,0,1,.645,6.716c-1.186,1.947-3.382,2.672-6.23,2.28a3.011,3.011,0,0,0-2.219.633c-3.667,3.511-7.2,7.16-10.871,10.665a4.864,4.864,0,0,1-2.756,1.246,67.485,67.485,0,0,1-7.511.112,13.8,13.8,0,0,1-2.548-.772c-.426-.1-1.116-.178-1.321.055-1.035,1.177-1.95,2.46-2.907,3.707.815.112,1.869.607,2.4.273,2.713-1.693,5.636-1.022,8.5-1.044,4-.032,8-.1,11.988.057a5.952,5.952,0,0,1,3.178,1.311c1.415,1.111,2.52,2.614,3.918,3.75a2.971,2.971,0,0,0,2.365.541c3.313-1.061,5.938,0,7.255,3.152a5.555,5.555,0,0,1-2.633,6.705,5.377,5.377,0,0,1-7.357-2.57c-.514-1.14-.258-2.615-.421-3.929a17.663,17.663,0,0,0-.492-2.079c-.014-.057-.1-.093-.136-.147-2.679-3.792-6.215-5.07-10.906-4.713-5.86.446-11.779.066-17.67.2a5.026,5.026,0,0,0-3.114,1.28c-4.349,4.234-8.568,8.6-12.991,13.086h20.566c1.456-3.687,3.942-6.142,8.373-5.942a7.9,7.9,0,0,1,3.452,14.716c-4.14,2.247-8.459,1.191-10.814-2.869a2.957,2.957,0,0,0-3.027-1.678c-10.094.059-20.187-.007-30.281.1a5.427,5.427,0,0,0-3.32,1.387c-3.2,2.99-6.236,6.164-9.805,9.743h2.419c4.81,0,9.62-.038,14.428.032a2.283,2.283,0,0,0,2.474-1.438,5.082,5.082,0,0,1,5.488-2.912,5.4,5.4,0,0,1,2.222,9.917c-2.579,1.609-5.549,1.41-6.917-1.151-1.349-2.524-3.159-2.542-5.439-2.5-5.215.088-10.432.016-15.647.029a2.171,2.171,0,0,0-1.316.253c-1.847,1.642-3.628,3.356-5.328,4.95a4.627,4.627,0,0,0,.374.626c3.649-.6,5.827,1.623,8.043,4,2.726,2.919,5.585,5.718,8.489,8.462a4.332,4.332,0,0,0,2.613,1.134c4.4.114,8.806.1,13.207,0a3.94,3.94,0,0,0,2.406-1.045c3.7-3.574,7.3-7.243,10.948-10.873a4.9,4.9,0,0,1,3.763-1.559c8.06.091,16.122.033,24.184.055,1.076,0,1.889-.052,2.368-1.312a9.254,9.254,0,0,1,9.323-6.037,9.575,9.575,0,0,1,8.379,6.848c1.359,4.466-1.186,9.805-5.405,11.337a9.461,9.461,0,0,1-12.372-5.251,2.552,2.552,0,0,0-1.849-1.333c-7.993-.089-15.987-.063-23.98-.038a2.361,2.361,0,0,0-1.508.387c-2.856,2.79-5.652,5.644-8.857,8.871h2.633q12.4,0,24.793,0c.6,0,1.472-.17,1.772.153,2.106,2.268,5.278,2,7.728,3.4a8.117,8.117,0,0,1,3.534,8.581,7.932,7.932,0,0,1-15.221.664c-.836-2.6-.279-4.9,1.118-7.377-.956-.061-1.8-.161-2.646-.162-14.9-.009-29.807-.037-44.71.03a6.471,6.471,0,0,1-5.185-2.126c-3.341-3.541-6.815-6.96-10.332-10.329a4.549,4.549,0,0,0-2.775-1.279c-13.683-.109-27.367-.112-41.05-.136-.309,0-.619.041-1.491.1,1.487,1.552,2.779,2.681,3.807,4.014,2.206,2.863,4.943,4.209,8.576,3.57a8.945,8.945,0,0,1,1.827-.016c1.811.06,3.195-.144,4.213-2.18,1.292-2.579,5.324-2.94,7.671-1.246,2.308,1.666,2.983,5.625.967,7.652q-.717-.611-1.439-1.224c.786-2.527.47-3.757-1.124-4.762a3.092,3.092,0,0,0-4.243.418,5.171,5.171,0,0,0-.912,3.7c.215,1.413,3.2,2.209,5.977,1.55-.6,1-.82,1.934-1.322,2.121a4.55,4.55,0,0,1-5.906-2.4,2.444,2.444,0,0,0-2.806-1.609c-.8.088-1.643-.122-2.433.007a10.219,10.219,0,0,1-10.881-4.594c-.859-1.24-2.346-2.038-3.24-3.261-1.474-2.015-3.37-2.042-5.844-1.711.524.649.84,1.121,1.233,1.516,4.185,4.206,8.332,8.452,12.618,12.551a5.538,5.538,0,0,0,3.329,1.372c4.53.189,9.069.133,13.6.18,1.665.018,3.047-.089,3.947-2a4.9,4.9,0,0,1,5.868-2.424,5.4,5.4,0,0,1,4.172,5.1,5.646,5.646,0,0,1-3.571,5.355,5.292,5.292,0,0,1-6.338-2.247c-.917-1.617-2.061-1.931-3.74-1.908q-7.619.1-15.239-.09a4.555,4.555,0,0,1-2.8-1.171c-5.276-5.115-10.448-10.34-15.694-15.487a3.018,3.018,0,0,0-1.871-.866c-13.342-.05-26.684-.038-40.245-.038a7.081,7.081,0,0,0,.762,1.193c3.035,3.046,6.048,6.116,9.172,9.069a4.383,4.383,0,0,0,2.617,1.1c3.314.13,6.638,0,9.955.08a2.084,2.084,0,0,0,2.271-1.521c2.043-5.026,7.4-7.149,12.575-5.051,4.355,1.765,6.583,7.2,4.757,11.914a2.945,2.945,0,0,0,.761,3.771c7.165,6.988,14.2,14.116,21.275,21.193a12.739,12.739,0,0,0,1.323,1.257c.907.677,1.592.773,2.151-.554,1.6-3.815,4.383-6.03,8.7-6.08,4.271-.05,7.143,1.994,8.812,5.788a2.137,2.137,0,0,0,2.376,1.572c3.653-.161,7.317-.068,10.967-.272a5.058,5.058,0,0,0,3-1.252q6.774-6.536,13.314-13.309a4.618,4.618,0,0,1,3.719-1.525c6.907.045,13.813.02,20.707.02,1.188-2.547,2.769-4.411,5.807-4.3a5.589,5.589,0,0,1,5.16,4.616c.462,2.086-.942,4.623-3.2,5.774-2.111,1.077-5.165.787-6.109-1.341-1.7-3.839-4.7-2.527-7.736-2.839a5.64,5.64,0,0,0,.626,1.227c4.833,4.871,9.654,9.754,14.564,14.545a5.306,5.306,0,0,0,2.64,1.048,14.547,14.547,0,0,0,2.838.037c3.7-.036,7.707.959,9.986-3.366,1.348.969,1.47,1.491.475,2.677a6.788,6.788,0,0,1-6.294,2.7c-2.623-.225-5.286.05-7.918-.1a4.715,4.715,0,0,1-2.83-1.112c-5.463-5.346-10.843-10.778-16.211-16.22a4.147,4.147,0,0,0-3.361-1.41c-2.977.114-5.961,0-8.94.063a3.24,3.24,0,0,0-2.037.622c-4.348,4.231-8.624,8.538-12.969,12.873a7.084,7.084,0,0,0,7.669-1.249,6.947,6.947,0,0,0,.867-.847,10.742,10.742,0,0,1,11.689-4.749,6.406,6.406,0,0,1,3.154,1.384c5.271,5.115,10.39,10.388,15.667,15.5a5.447,5.447,0,0,0,3.3,1.414c5.479.185,10.966.156,16.45.182a4.088,4.088,0,0,0,1.151-.25c2.7-.812,5.035-.074,6.418,2.042a5.127,5.127,0,0,1-.29,6.559,6.255,6.255,0,0,1-6.323,1.54,5.559,5.559,0,0,1-3.226-5.954c.051-.52.195-1.03.346-1.8-.729-.051-1.432-.141-2.134-.144-4.47-.015-8.944.065-13.411-.069a4.855,4.855,0,0,1-2.981-1.243c-5.377-5.243-10.62-10.623-15.991-15.873a4.6,4.6,0,0,0-2.808-1.187c-5.785-.2-6.254.077-10.107,4.931a5.7,5.7,0,0,0,1.55.216c2.556-.418,4.274.769,6,2.543,7,7.219,14.123,14.328,21.243,21.433a3.365,3.365,0,0,0,2.065.928c3.18.1,6.365.058,9.548.022a4.051,4.051,0,0,0,1.743-.367c4.315-2.2,9.831.013,12.083,4.355a9.443,9.443,0,0,1-16.6,8.994,8.947,8.947,0,0,1-.29-8.659c-1.576-.142-3.1-.647-4.428-.329-3.657.878-5.9-1.008-8.208-3.353q-10.055-10.225-20.313-20.249a4.11,4.11,0,0,0-2.6-1.093c-9.145-.037-18.29.066-27.434.043a2.218,2.218,0,0,0-2.367,1.607c-1.827,4.117-4.857,5.966-9.2,5.795-4.036-.159-6.87-2.348-8.466-6.39a1.829,1.829,0,0,0-1.4-.987c-1.558.184-2.5-.623-3.484-1.606-7.641-7.658-15.329-15.271-22.935-22.964a2.415,2.415,0,0,0-3.122-.736,9.1,9.1,0,0,1-11.678-5.093,2.177,2.177,0,0,0-2.412-1.594c-3.589.078-7.181-.027-10.77.056a4.949,4.949,0,0,1-3.931-1.644c-4.154-4.259-8.443-8.386-12.554-12.685-2.177-2.277-4.773-1.143-7.21-1.252-1.174-.052-2.364.428-3.55.444-4.323.059-8.647.023-13.089.023v6.645h15.97c.2.9.361,1.595.511,2.253.181.084.311.2.412.183,3.918-.79,6.517,1.186,9.048,3.883,4.467,4.761,9.149,9.324,13.839,13.869a4.951,4.951,0,0,0,2.97,1.222c3.108.157,6.234-.043,9.343.113a4.95,4.95,0,0,1,2.973,1.221c5.336,5.192,10.573,10.486,15.829,15.76.877.879,1.563,1.34,3.019.693a5.36,5.36,0,1,1,4.292,9.819,5.248,5.248,0,0,1-7.156-2.937,3.838,3.838,0,0,1-.348-2.538c.66-1.789-.319-2.708-1.4-3.78-5.038-5-9.994-10.079-15.09-15.016a5.285,5.285,0,0,0-3.181-1.22c-3.107-.163-6.233.032-9.343-.118a4.631,4.631,0,0,1-2.778-1.184c-5.628-5.472-11.224-10.979-16.7-16.6-1.648-1.692-3.489-.969-5.3-1.076a.577.577,0,0,0-.445.342c-.209,2.419-2.056,1.651-3.379,1.67-4.317.062-8.635.023-13.081.023v6.876c4.169,0,8.292.2,12.385-.065,2.993-.189,5.051.987,7.028,3.006q9.823,10.027,19.823,19.877a4.186,4.186,0,0,0,2.473,1,35.11,35.11,0,0,0,5.887.008,6.19,6.19,0,0,1,5.329,2.235q13.66,13.846,27.484,27.53a4.181,4.181,0,0,0,2.53,1.29c12.667.08,25.335.053,38,.048a6.987,6.987,0,0,0,.742-.091c.61-3.248,2.049-6.06,5.135-7.656,4.9-2.538,11.871-.507,13.362,5.772.373,1.572.987,2.2,2.711,2.131,4.059-.152,8.129.017,12.191-.083a4.38,4.38,0,0,1,3.519,1.514q7.151,7.276,14.467,14.388a4.267,4.267,0,0,0,2.6,1.047,5.9,5.9,0,0,1,5.763,4.756c.425,2.333-1.373,5.2-3.8,6.059a5.508,5.508,0,0,1-6.574-2.985,4.74,4.74,0,0,1,.472-5.324c.793-.977.545-1.594-.251-2.376-4.672-4.586-9.288-9.229-13.985-13.79a3.629,3.629,0,0,0-2.23-.965q-6.5-.135-13,0a2.345,2.345,0,0,0-1.828.982c-1.25,3.482-3.579,5.733-7.208,6.335a9.216,9.216,0,0,1-10-4.5,2.66,2.66,0,0,0-1.934-1c-8.128-.068-16.258-.045-24.387-.038a8.941,8.941,0,0,0-1.07.141,3.364,3.364,0,0,0,3.553,2.142c5.555-.07,11.114.109,16.662-.087,2.463-.087,4.407.536,5.782,2.472a6.631,6.631,0,0,0,6.94,2.939,6.406,6.406,0,0,1,2.028,0c5.158.9,9.12-.9,12.118-5.132a4.754,4.754,0,0,1,4.142-1.91c2.012-.055,3.1.957,4.2,2.251a2.22,2.22,0,0,0,2.93.764c2.082-.884,3.91.1,5.291,1.572a4.766,4.766,0,0,1,1.169,5.415,5.378,5.378,0,0,1-4.642,3.614c-4.1.437-7.168-3.73-5.623-7.151,1.085-2.4-.856-2.892-1.807-3.835a2.5,2.5,0,0,0-3.649.216c-1.553,1.513-3.152,2.988-4.586,4.607a4.814,4.814,0,0,1-4.117,1.67c-3.316-.1-6.641-.117-9.956.005a4.3,4.3,0,0,1-4.074-1.7c-2.184-3.166-5.141-4-8.883-3.732-4.346.311-8.732.072-13.33.521,2.734,2.694,5.427,5.434,8.243,8.039a3.715,3.715,0,0,0,2.288.473q12.8.048,25.606,0c1.227,0,2.178.083,2.118,1.64-.055,1.4-.982,1.726-2.086,1.5-1.6-.319-3.156-.818-4.918-1.291-.487,1.562-2.027,1.341-3.565,1.332-5.948-.04-11.9-.017-17.855-.017-.574,3.55-.479,6.6,2.648,9.009a43.154,43.154,0,0,1,6.189,6.124,4.035,4.035,0,0,1,.689,3.225c-.356,1.275-1.429,2.35-2.278,3.639l-1.612-.75a6.055,6.055,0,0,1,.786-1.015c1.191-.972,1.3-1.816.1-2.98-2.774-2.706-5.349-5.621-8.164-8.281-1.353-1.278-2.13-2.6-1.838-4.426.634-3.961-.777-6.882-3.842-9.508a131.278,131.278,0,0,1-10.219-10.173c-1.33-1.42-2.806-1.467-4.424-1.274a1.433,1.433,0,0,0-.979.983c-.031,2.688-.629,5.413,2.107,7.528a50.931,50.931,0,0,1,6.338,6.39,4.442,4.442,0,0,1,1.058,2.6c.125,3.233.049,6.474.049,9.858,3.032-.129,5.311.793,6.331,3.722a5.167,5.167,0,0,1-2.4,6.383,4.968,4.968,0,0,1-6.851-1.189,5.518,5.518,0,0,1-.216-6.724,8.356,8.356,0,0,0,1.083-3.089c.174-.915-.12-1.917.05-2.833.939-5.055-.926-8.894-4.955-11.854-.269-.2-.455-.506-.726-.7a8.814,8.814,0,0,1-3.919-9.24c.144-.9.26-1.949-1.294-1.919-1.588.03-1.105,1.146-1.256,2.006-.7,3.984.688,7.053,3.9,9.448,1.89,1.411,3.329,3.1,2.887,5.786-.074.455.649,1.23,1.186,1.565,2.465,1.538,3.318,3.643,2.522,6.587a5.218,5.218,0,0,1-5.281,3.507,5.1,5.1,0,0,1-5.1-4.065,5.41,5.41,0,0,1,3.036-6.153,2.953,2.953,0,0,0,.618-4.514,25.121,25.121,0,0,0-3.242-3.262,5.843,5.843,0,0,1-2.525-6.121c.542-3.433-.69-5.963-3.358-8.215-2.888-2.436-5.4-5.317-8.318-8.25-.375,2.3-.206,3.862,1.468,5.313a82.99,82.99,0,0,1,6.8,6.855,4.59,4.59,0,0,1,1.079,2.625c.148,2.349.05,4.714.05,7.012,5.137,1.284,6.862,5.923,3.691,9.365a5.35,5.35,0,0,1-7.772,0c-2.181-2.219-2.222-5.892.214-7.695,1.432-1.06,1.453-2.251,1.666-3.749a9.649,9.649,0,0,0-4.267-10.054c-.435-.3-.73-.8-1.157-1.121-3.105-2.316-4.594-5.265-3.995-9.233a3.422,3.422,0,0,0-.971-2.478q-7.608-7.747-15.382-15.331a3.239,3.239,0,0,0-1.9-.833,25.017,25.017,0,0,0-5.073,0c-3.138.429-5.376-.8-7.381-3.1s-4.284-4.4-6.839-6.99c0,4.59-.036,8.669.046,12.747.01.494.6,1.027,1.012,1.452,1.795,1.843,3.644,3.634,5.434,5.48,1.467,1.514,2.824,3.191,5.971,2.248-.651.992-.887,1.729-1.2,1.765-1.454.163-2.947.967-4.325-.519-2.455-2.647-5.013-5.207-7.632-7.693a4.113,4.113,0,0,1-1.335-3.376q.106-6.3-.011-12.6a9.58,9.58,0,0,0-.771-2.521l-.712.17c0,3.9.306,7.824-.081,11.682-.444,4.418,1,7.615,4.272,10.533,3.543,3.157,6.591,6.865,10,10.185,1.019.993,2.036,2.273,4.112,1.43,2.284-.927,5.1.523,6.237,2.595,1.08,1.963.605,5.355-1.2,6.715-2.361,1.776-4.145,2.087-6.683.382-2.139-1.437-2.8-3.817-2.045-6.425a2.878,2.878,0,0,0-.532-2.168c-.711-.956-1.8-1.627-2.525-2.577a11.885,11.885,0,0,1-1.172-2.448,5.87,5.87,0,0,1-1.971-.8c-3.149-3.014-6.271-6.062-9.279-9.215a4.493,4.493,0,0,1-1.14-2.772c-.1-6.027,0-12.058-.1-18.086a5.343,5.343,0,0,0-1.09-2.8c-2.949-4.087-6.734-6.052-12.006-5.248-3.166.483-6.465.089-9.937.089v10.156c-2.9,0-5.584.113-8.254-.039-1.822-.1-2.333.513-2.269,2.291.13,3.653.116,7.317.007,10.972-.04,1.336-.683,2.652-.735,3.989a4.347,4.347,0,0,0,.735,2.922q8.288,8.563,16.816,16.893a4.037,4.037,0,0,0,2.516.94c3.519.1,7.056.216,10.563-.016,2.367-.156,3.359.729,3.482,3.02H4156.7c1.355,1.582,2.331,2.885,3.473,4.021,2.4,2.389,4.885,4.7,7.354,7.022a4.82,4.82,0,0,1,1.7,3.9c-.115,4.2-.1,8.4.012,12.6a4.267,4.267,0,0,0,1.08,2.619q5.777,5.983,11.77,11.757a4.866,4.866,0,0,0,2.977,1.247c5.078.125,10.161.113,15.24.025a4.848,4.848,0,0,1,3.9,1.661c3.078,3.211,6.285,6.3,9.425,9.45a2.112,2.112,0,0,0,2.574.74,9.079,9.079,0,0,1,9.429,1.819c.148.135.342.372.476.348,3.457-.615,6.737,2.028,10.281.453,2.2-.976,3.63-.356,4.545,1.843-1.682,0-3.382.391-4.776-.094a7.661,7.661,0,0,0-5.69.044,6.19,6.19,0,0,1-1.825.243,14.019,14.019,0,0,0-1.537,2.66,2.507,2.507,0,0,0,.262,2.059,2.957,2.957,0,0,1-.2,4.525c-.542.508-1.274,1.462-1.114,1.944a3.421,3.421,0,0,0,3.14,2.459c.742.058,1.772.179,2.139.669,2.317,3.1,5.257,4.179,9.1,3.81a67.152,67.152,0,0,1,10.151,0,5.872,5.872,0,0,1,3.508,1.426c6.34,6.156,12.574,12.423,18.8,18.7a2.693,2.693,0,0,0,3.02.952c4.551-1.068,7.777.5,9.172,4.446,1.517,4.285-.337,7.943-4.533,9.61a7.38,7.38,0,0,1-9.465-8.9,2.449,2.449,0,0,0-.822-2.928c-2.711-2.626-5.364-5.313-8.046-7.971-.408-.4-.849-.774-1.484-1.35v21.519a28.458,28.458,0,0,1,5.112.055,5.033,5.033,0,0,1,3.769,6.18,5.411,5.411,0,0,1-10.607-2.148c.333-1.272.9-2.359-.451-3.449-.366-.294-.231-1.277-.232-1.943-.015-6.91-.081-13.821.036-20.729a4.291,4.291,0,0,0-2.507-4.177c0,2.868-.181,5.532.051,8.16a6.83,6.83,0,0,1-2.489,6c-5.045,4.817-9.881,9.851-14.865,14.732a4.577,4.577,0,0,0-1.538,3.755c.1,2.366.014,4.741.036,7.111a12.669,12.669,0,0,0,.144,1.5c2.02.271,3.813.185,5.332.788,2.76,1.094,3.677,4.087,2.47,6.927a5.337,5.337,0,0,1-10.03-3.61,8.226,8.226,0,0,0,.179-3.789c-.275-2.063.173-4.227-.128-6.283-.615-4.205,1-7.187,4.052-9.98,4.68-4.277,9.052-8.9,13.48-13.44a4.318,4.318,0,0,0,1.2-2.572c.135-3.449.088-6.908.036-10.362a4.892,4.892,0,0,0-4.459-4.3c-4.742-.008-9.485.059-14.225-.054a4.528,4.528,0,0,1-2.789-1.128c-1.663-1.595-3.031-3.493-4.656-5.131a26.944,26.944,0,0,0-3.592-2.829c-.254-.18-.76-.055-1.141,0-1.231.177-2.458.387-3.688.584.067-.208.134-.416.2-.624l-2.1-1.638c-.051,1.1-.073,1.586-.1,2.1-6.834-2.187-9.046-8.143-5.366-15.023-3.345-3.255-6.738-6.619-10.224-9.884a3.53,3.53,0,0,0-2.2-.686c-4.335-.062-8.671,0-13.006-.044-1.989-.022-3.976-.209-6.092-.329,0,3.812-.043,7.867.045,11.919a3.181,3.181,0,0,0,.969,1.885q5.691,5.8,11.5,11.488a3.461,3.461,0,0,0,2.132.81c2.706.094,5.418.039,8.128.039,3.017,0,3.145.143,2.9,2.847-1.386-.242-2.788-.487-4.19-.73a.565.565,0,0,0-.2,0c-6.521,1.289-11.313-1.329-15.263-6.39a60.7,60.7,0,0,0-6.608-6.7,4.138,4.138,0,0,1-1.4-3.37c.056-4.4.08-8.807-.024-13.208a10.6,10.6,0,0,0-.948-2.906l-.77.207c0,4.158.326,8.349-.085,12.466a11.791,11.791,0,0,0,4.609,11.16c3.941,3.307,7.335,7.262,11.058,10.841a4.608,4.608,0,0,0,2.625,1.093,32.625,32.625,0,0,0,5.683.017,4.37,4.37,0,0,1,4.521,2.425c-.686,1.157-1.417,1.179-2.436.351a6.252,6.252,0,0,0-1.915-.773,1.238,1.238,0,0,0-.605,0c-5.768,1.1-9.942-1.217-13.6-5.617-3.125-3.759-6.854-7.019-10.357-10.458a4.535,4.535,0,0,1-1.5-3.56q.119-9.448-.01-18.9a10.89,10.89,0,0,0-.9-2.936l-.764.172v1.7c0,7.858-.031,15.716.038,23.573a3.889,3.889,0,0,0,.937,2.469q8.323,8.517,16.822,16.86a3.07,3.07,0,0,0,2.406.605,5.633,5.633,0,0,1,6.2,3.043,5.772,5.772,0,0,1-1.182,6.333,5.614,5.614,0,0,1-6.9.373,4.984,4.984,0,0,1-1.822-6.4,1.917,1.917,0,0,0-.46-2.728c-5.591-5.466-11.02-11.1-16.583-16.593a4.536,4.536,0,0,1-1.528-3.528c.042-8.738,0-17.478.037-26.216a3.814,3.814,0,0,0-1.5-3.519c-3.638-2.625-5.027-6.133-4.468-10.647a48.628,48.628,0,0,0,.009-8.524,4.633,4.633,0,0,0-1.161-2.788c-7.82-7.931-15.716-15.789-23.6-23.659a15.465,15.465,0,0,0-1.337-1.023c0,5.869-.028,11.323.043,16.776a2.922,2.922,0,0,0,.953,1.668c2.4,2.467,4.874,4.867,7.282,7.329a1.812,1.812,0,0,0,2.258.523,5.386,5.386,0,0,1,7.1,3.546,5.508,5.508,0,0,1-4,6.9c-3.71,1.108-7.229-2.435-6.343-6.671a3.346,3.346,0,0,0-1.2-3.607c-2.294-2.153-4.569-4.341-6.677-6.673a5.308,5.308,0,0,1-1.33-3.146c-.129-5.687.005-11.381-.121-17.068a6.122,6.122,0,0,0-1.289-3.15,16.955,16.955,0,0,0-3.061-3.185,4.961,4.961,0,0,1-1.922-4.217c0-.687-.723-1.354-1.013-2.072a4.7,4.7,0,0,1-.358-1.682c-.029-4.132-.015-8.265-.015-12.4v-2.4c-2.013,0-3.757.012-5.5,0-1.36-.013-1.237.942-1.238,1.831,0,4.2.043,8.4-.044,12.6a10.07,10.07,0,0,1-.836,2.406,6.25,6.25,0,0,0-.323,1.757c-.02,8.671-.045,17.342.04,26.012a4.2,4.2,0,0,0,1.15,2.592c4.187,4.331,8.517,8.523,12.668,12.887a4.789,4.789,0,0,1,1.309,3.306c-.3,2.938.955,4.875,2.953,6.819,7.176,6.985,14.205,14.119,21.33,21.159a4.557,4.557,0,0,1,1.415,3.573c-.057,6.773.009,13.548-.056,20.322a2.449,2.449,0,0,0,1.51,2.515,8.22,8.22,0,0,1,4.619,5.976,6.892,6.892,0,0,0,2.307,4.292,30.238,30.238,0,0,1,4.386,4.4c2.309,2.967,5.152,4.266,8.873,3.6,4.315-.767,7.562.749,10.308,4.193a72.828,72.828,0,0,0,7.385,7.444,5.077,5.077,0,0,1,1.665,4.128c-.071,4.741-.113,9.486.041,14.224a5.751,5.751,0,0,0,1.41,3.292c2.012,2.313,4.223,4.456,6.406,6.615a1.929,1.929,0,0,0,2.42.589,9.427,9.427,0,0,1,9.391,16.126,9.575,9.575,0,0,1-11.333.29c-3.327-2.344-4.948-6.875-3.375-10.555.891-2.085.543-3.356-1.075-4.785a78.674,78.674,0,0,1-6.573-6.5,5.717,5.717,0,0,1-1.388-3.358c-.15-4.941.021-9.891-.132-14.832a5.611,5.611,0,0,0-1.42-3.314c-2.6-2.836-5.327-5.563-8.151-8.175a7.033,7.033,0,0,0-3.169-1.346,13.966,13.966,0,0,0-3.038-.047c-6.568,0-6.567,0-11.164-4.673-1.178-1.2-2.412-2.343-3.544-3.583-.7-.773-1.026-.728-1.892-.01-1.557,1.292-3.446,2.175-5.128,3.328a2.771,2.771,0,0,0-1.167,1.573,6.808,6.808,0,0,0,2.284,6.44c7.215,6.917,14.188,14.085,21.331,21.08a4.828,4.828,0,0,1,1.253,4.229,2.181,2.181,0,0,0,1.522,2.614,5.5,5.5,0,0,1,3.29,5.341,6.077,6.077,0,0,1-4.1,4.8,5.548,5.548,0,0,1-6.212-2.7,5.461,5.461,0,0,1,1.658-7,4.108,4.108,0,0,0,.474-6.263c-7.28-7.294-14.533-14.617-21.883-21.84a4.948,4.948,0,0,1-1.62-4.473c.278-2.22-.16-3.482-2.761-4.345-3.424-1.135-5.467-4.073-5.671-7.889a8.935,8.935,0,0,1,5.209-9.031c.957-.493,1.988-.84,3.223-1.353V3031.55c0-2.3-.168-4.623.046-6.905A6.215,6.215,0,0,0,4156,3019.2c-6.158-5.98-12.186-12.093-18.27-18.15a11.152,11.152,0,0,0-1.1-.813v20.253c2.935.674,5.8.9,8.285,2,4,1.768,6.124,6.613,5.407,10.988a10.993,10.993,0,0,1-9.082,9.084,11.171,11.171,0,0,1-11.116-5.322c-2.04-3.33-1.895-9.554,1.45-12.78a3.459,3.459,0,0,0,1.062-2.819c-.047-9.958.006-19.917-.075-29.874a4.859,4.859,0,0,0-1.126-2.985c-3.1-3.4-6.348-6.664-9.543-9.976l-.521.318a13.866,13.866,0,0,0-.154,1.481c-.008,20.594-.027,41.188.049,61.781a4.975,4.975,0,0,0,1.318,3.14q10.411,10.625,21.02,21.055a4.639,4.639,0,0,1,1.307,4.207,4.883,4.883,0,0,0,1.865,4.563,66.6,66.6,0,0,1,5.965,5.979,5.589,5.589,0,0,1,1.328,3.152c.174,3.174-.047,6.371.124,9.545a5.261,5.261,0,0,0,1.309,3.127c5.387,5.588,10.906,11.049,16.318,16.613a4.058,4.058,0,0,1,1.04,2.406c.137,2.422.049,4.858.049,7.108a22.2,22.2,0,0,1,4.789.275,5.12,5.12,0,0,1,3.329,6.571c-1.223,3.267-4.051,4.58-7.273,3.378-2.621-.978-4.248-4.267-3.013-6.8.594-1.221.183-2.062.076-3.142-.208-2.08.06-4.209-.158-6.287a6,6,0,0,0-1.33-3.155c-2.209-2.522-4.61-4.875-6.937-7.294l-.565.283v6.6c0,2.845-.1,5.695.039,8.533a4.447,4.447,0,0,1-1.605,3.719c-.59.544-1.208,1.061-1.771,1.631-1.6,1.622-3.269,2.96-2.068,5.887.911,2.221-.992,4.789-3.366,5.786a5.4,5.4,0,0,1-6.021-1.683,5.472,5.472,0,0,1,5.687-8.8,5.437,5.437,0,0,0,2.26-.5c.112-.03.179-.2.287-.281,3.516-2.553,4.867-5.859,4.385-10.281a90.406,90.406,0,0,1-.06-11.573,3.4,3.4,0,0,0-1.334-3.171c-5.1-3.594-7.219-8.4-6.1-14.612a7.533,7.533,0,0,0-3.264-8.017,37.4,37.4,0,0,1-3.846-3.777v27.156a32.3,32.3,0,0,1,3.885,2.829,7.894,7.894,0,1,1-12.219,9.917,7.667,7.667,0,0,1,2.159-11.1,3.793,3.793,0,0,0,2.1-3.883c-.073-9.822.012-19.646-.1-29.467a5.738,5.738,0,0,0-1.422-3.522c-3.018-3.25-6.242-6.311-9.6-9.658-.073.823-.166,1.392-.167,1.961-.011,4.878.025,9.755-.027,14.632a2.394,2.394,0,0,0,1.422,2.543,5.358,5.358,0,0,1,2.79,6.489,5.869,5.869,0,0,1-5.191,3.822,5.572,5.572,0,0,1-5.375-4.414,5.382,5.382,0,0,1,2.023-5.354c.71-.509,1.493-.917,2.425-1.48,0-6.492.006-13.12-.018-19.747a1.691,1.691,0,0,0-.408-1.069c-1.854-1.934-3.747-3.829-5.64-5.749-.255.3-.415.406-.4.478,1.062,5.2-3.254,7.373-5.958,10.388-2.048,2.284-4.44,4.259-6.523,6.515a4.8,4.8,0,0,0-1.1,2.831c-.126,2.631-.369,5.136,2.062,7.356,5.293,4.837,10.2,10.092,15.342,15.1a6.066,6.066,0,0,1,2.013,4.8c-.1,7.247-.038,14.5-.037,21.745v2.352c5.75,2.292,8.482,6.179,7.682,10.76a9.335,9.335,0,0,1-8.528,8.071,9.236,9.236,0,0,1-10-7.008c-1.222-4.569,1.208-8.777,6.706-11.6,0-8.144.01-16.337-.025-24.531a2.226,2.226,0,0,0-.585-1.412c-4.7-4.765-9.436-9.495-14.535-14.605-.07,1.085-.143,1.706-.144,2.327-.007,7.722.025,15.445-.033,23.167a2.514,2.514,0,0,0,1.6,2.646,10.36,10.36,0,0,1,6,9.549,10.522,10.522,0,0,1-5.578,9.673c-6.691,3.987-15.755-.943-16.03-8.731-.209-5.966,2.867-10.052,8.7-11.338,1.45-.32,1.148-1.274,1.149-2.157.014-11.855.1-23.711-.056-35.563a8.263,8.263,0,0,1,2.869-6.876c3.287-2.968,6.377-6.164,9.414-9.391a5.086,5.086,0,0,0,1.32-3.113c.108-8.467.063-16.935.065-25.4,0-5.719,0-11.438,0-17.7-2.636,2.663-4.918,4.936-7.148,7.257a2.35,2.35,0,0,0-.634,1.425c-.061,2.776-.1,5.557.028,8.328.025.527.771,1.177,1.337,1.493a5.486,5.486,0,0,1-2.575,10.3,5.546,5.546,0,0,1-5.244-4.285,5.261,5.261,0,0,1,2.795-5.918,2.157,2.157,0,0,0,1.494-2.464c-.088-1.757.14-3.54-.06-5.278a6.619,6.619,0,0,1,2.53-6.341c1.841-1.539,3.3-3.543,5.159-5.049a5.488,5.488,0,0,0,2.1-6.284c-.331.28-.667.527-.958.818-4.41,4.4-8.864,8.752-13.178,13.242a5.459,5.459,0,0,0-1.421,3.312c-.151,4.94-.034,9.889-.077,14.833a2.437,2.437,0,0,0,1.456,2.571,5.519,5.519,0,0,1,3.025,5.5,6.022,6.022,0,0,1-4.095,4.581,5.533,5.533,0,0,1-6.2-2.73,5.294,5.294,0,0,1,2.223-7.281,2.628,2.628,0,0,0,1.636-2.831c-.053-5.216-.093-10.435.042-15.647a5.11,5.11,0,0,1,1.317-3.136c5.115-5.294,10.359-10.464,15.519-15.716a3.039,3.039,0,0,0,.873-1.88c.046-13.209.029-26.418.016-39.628a7.723,7.723,0,0,0-.464-1.294c-2.512,2.725-4.547,5.415-7.061,7.539-3.336,2.82-4.728,6.082-4.122,10.386.253,1.793-.089,3.667.11,5.475a2.891,2.891,0,0,0,1.372,2.04,9.394,9.394,0,0,1,5.03,12.784c-1.781,4.072-7.359,7.024-12.069,4.624-1.308-.666-2.162-.459-3.241.638-7.325,7.447-14.747,14.8-22.131,22.188-1.589,1.59-1.527,1.909.5,2.945,3.552,1.816,5.576,4.6,5.536,8.7a8.894,8.894,0,0,1-5.8,8.616,2.2,2.2,0,0,0-1.531,2.446c.149,3.722.1,7.452.294,11.171a4.406,4.406,0,0,0,1.108,2.648c4.482,4.586,9.1,9.041,13.57,13.638a4.784,4.784,0,0,1,1.254,2.967c.112,6.434.079,12.871.038,19.306a2.548,2.548,0,0,0,1.471,2.724,5.348,5.348,0,0,1,2.7,6.356,6.016,6.016,0,0,1-5.182,3.9,5.874,5.874,0,0,1-5.463-4.358,5.118,5.118,0,0,1,2.847-5.886c1.574-.7,1.821-1.65,1.726-3.091-.08-1.2-.017-2.419-.017-3.989a9.217,9.217,0,0,0-1.253.84c-4.711,4.677-9.385,9.391-14.125,14.038a4.1,4.1,0,0,0-1.465,3.546,12.073,12.073,0,0,1-.011,3.447c-1.017,5.161,1.791,8.327,5.619,11.009,4.39-2.353,8.888-.146,8.869,4.417a5.244,5.244,0,0,1-3.076,4.85,5,5,0,0,1-5.863-.718,4.863,4.863,0,0,1-1.824-5.439,1.852,1.852,0,0,0-.658-2.415c-4.5-3-5.25-7.252-5.17-12.377.066-4.195,1.1-7.2,4.26-10.009,4.734-4.214,9.076-8.874,13.491-13.435a4.664,4.664,0,0,0,1.154-2.8c.145-3.041.1-6.1.02-9.142a3.485,3.485,0,0,0-.722-2.183c-4.194-4.313-8.47-8.547-12.758-12.839a7,7,0,0,0,1.19,7.555c.286.285.535.607.822.892,4.94,4.886,4.983,4.886,4.774,11.862a4.594,4.594,0,0,1-1.15,2.828c-5.246,5.377-10.62,10.631-15.873,16a4.525,4.525,0,0,0-1.235,2.763c-.147,5.617-.129,11.238-.149,16.858a4.314,4.314,0,0,0,.226,1.178c.829,2.874,0,5.2-2.367,6.622a5.411,5.411,0,0,1-6.528-.775,5.837,5.837,0,0,1-.958-6.557c1.534-2.55,3.885-3.367,6.929-2.42a2.414,2.414,0,0,0,.636-.068c.031-.672.09-1.382.092-2.092.009-4.4-.09-8.81.069-13.208a5.487,5.487,0,0,1,1.387-3.332c5.093-5.284,10.356-10.405,15.455-15.685a5.413,5.413,0,0,0,1.44-3.284c.158-5.412-.23-6.018-4.954-9.738-.091.272-.273.528-.234.743.606,3.331-1.083,5.5-3.352,7.7-7.463,7.244-14.756,14.664-22.105,22.024a4.977,4.977,0,0,0,.169,7.218,9.675,9.675,0,0,1,2.509,10.9,9.774,9.774,0,0,1-9.646,5.639c-3.562-.235-7.133-3.321-8.222-7.1-1.478-5.138,2.152-10.507,7.866-11.624.52-.1,1.049-.157,1.572-.233-.644-4.907,2.58-7.561,5.566-10.481,6.947-6.792,13.763-13.719,20.6-20.625a2.778,2.778,0,0,0,.8-1.721c.049-9.887.035-19.775.035-29.67-5.2-1.937-8.118-5.28-7.4-10.932.54-4.247,3.383-6.5,7.341-7.921-.923-3.472,2.048-4.917,3.916-6.832,6.874-7.041,13.878-13.956,20.892-20.857a2.141,2.141,0,0,0,.539-2.672c-1.851-5.062.414-9.919,5.406-12.1a2.837,2.837,0,0,0,1.249-2.137c.127-3.721-.062-7.456.129-11.172a5.922,5.922,0,0,1,1.482-3.512c4.339-4.545,8.841-8.934,13.259-13.4.394-.4.879-1.016.836-1.488-.231-2.537.906-5.214-.781-7.626-.262-.373-.1-1.057-.1-1.6-.008-4.2-.069-8.4.02-12.6.034-1.536-.487-2.06-1.984-1.958-1.471.1-2.954.022-4.691.022v16.378l-2.374.474c0,1.929.1,3.885-.046,5.821a4.2,4.2,0,0,1-1.027,2.45q-9.531,9.712-19.21,19.276a5.14,5.14,0,0,0-1.735,4.207c.124,3.654-.04,7.317.074,10.972a4.621,4.621,0,0,1-1.58,3.721c-5.4,5.324-10.738,10.72-16.114,16.072a2.358,2.358,0,0,0-.859,2.779,5.141,5.141,0,0,1-5.791,6.442,4.3,4.3,0,0,0-4.19,1.638c-2.052,2.247-5.042,4.053-6.108,6.667-1.1,2.688-.367,6.122-.422,9.23a32.545,32.545,0,0,1-.029,3.654,8.253,8.253,0,0,0,3.336,8.289,3.1,3.1,0,0,0,3.2.8,4.956,4.956,0,0,1,5.711,1.92,5.949,5.949,0,0,1,.517,5.725,5.406,5.406,0,0,1-9.963-4.1c.442-1.228.368-1.979-.655-2.681-3.738-2.57-4.62-6.157-4.234-10.511.339-3.831-.017-7.719.13-11.575a4.971,4.971,0,0,1,1.28-2.956c2.471-2.626,5.112-5.091,7.744-7.672-1.355-2.157-1.864-4.289-.444-6.508a5.117,5.117,0,0,1,5.756-2.393,2.409,2.409,0,0,0,2.67-.685c5.331-5.353,10.709-10.66,15.989-16.062a4.052,4.052,0,0,0,.867-2.554c.09-4.062-.041-8.13.1-12.19a4.863,4.863,0,0,1,1.219-3c6.51-6.627,13.118-13.159,19.7-19.72,1.072-1.069,1.479-5.817.718-7.092a4.912,4.912,0,0,1-.787-2.269c-.076-4-.032-7.993-.029-11.99,0-.733,0-1.465,0-2.376H4096.1c0,4.367.058,8.683-.036,12.995-.028,1.32.792,2.991-1.064,3.859-.071.034-.1.263-.074.385.915,4.526-2.909,6.337-5.286,8.8-6.55,6.779-13.328,13.335-20.026,19.97a3.813,3.813,0,0,0-1.446,3.545c1.134,6.131-1.466,10.4-5.98,14.512-8.126,7.408-15.644,15.482-23.468,23.225a5.033,5.033,0,0,0-1.608,3.93q.081,17.681,0,35.361c-.005,1.537.242,2.346,2.021,2.787a9.162,9.162,0,0,1,6.959,9.639,9.3,9.3,0,0,1-7.57,8.551,1.593,1.593,0,0,0-1.541,1.89c.043,4.335.1,8.673-.043,13a5.181,5.181,0,0,1-1.285,3.159c-4.623,4.8-9.4,9.453-14.052,14.228a13.923,13.923,0,0,0-1.588,2.8c-.187.321-.49.813-.733.809a1.822,1.822,0,0,1-1.088-.6c-.982-1.007-1.948-2.035-2.839-3.121a1.659,1.659,0,0,1-.407-1.338,1.391,1.391,0,0,1,1.286-.447,26.433,26.433,0,0,1,3.095,1.532c4.366-4.489,8.751-9.165,13.339-13.631a7.308,7.308,0,0,0,2.443-6.18c-.206-3.442-.1-6.908-.02-10.361a1.816,1.816,0,0,0-1.411-2.074,8.866,8.866,0,0,1-6.342-8.04c-.361-3.8,1.3-6.734,4.434-8.92a2.99,2.99,0,0,0,1.23-2.021c.083-8.2.053-16.393.047-24.589a7.305,7.305,0,0,0-.131-.9,3.12,3.12,0,0,0-2.137,3.177c.042,5.758-.083,11.519.065,17.273.059,2.295-.5,4.053-2.369,5.409a7.088,7.088,0,0,0-3.126,7.066c.317,2.879-.682,6.125.321,8.642.989,2.481,3.764,4.25,5.751,6.334a4.775,4.775,0,0,1-.009,6.364,12.02,12.02,0,0,1-1.409,1.434,1.8,1.8,0,0,0-.635,2.406,5.185,5.185,0,0,1-2.6,6.366,5.84,5.84,0,0,1-6.508-1.107,5.606,5.606,0,0,1-.582-6.75,5.241,5.241,0,0,1,6.42-2.015c2.4,1.167,3.036-.986,3.842-2.054.522-.692.23-2.561-.378-3.421a24.467,24.467,0,0,0-4.321-4.434,5.008,5.008,0,0,1-1.841-4.409c.111-3.452-.085-6.915.1-10.36a4.883,4.883,0,0,1,1.415-3.285c3.172-2.49,4.3-5.52,3.911-9.516-.335-3.422-.064-6.9-.074-10.357,0-.721-.062-1.442-.126-2.807-2.512,2.459-4.551,4.587-6.738,6.552a6.356,6.356,0,0,0-2.162,5.286c.117,9.618,0,19.239.094,28.857a6.049,6.049,0,0,1-2.011,4.818c-3.413,3.269-6.689,6.68-10.071,9.982a2.555,2.555,0,0,0-.847,3.133c1.1,3.218-.633,7.457-3.509,9.461a9.6,9.6,0,0,1-10.475-.13,9.016,9.016,0,0,1-3.141-9.75,8.845,8.845,0,0,1,13.357-4.838c.392.263.8.495,1.409.866,2.423-2.384,4.683-5.06,7.389-7.165,4.128-3.211,5.219-7.157,4.968-12.244-.408-8.237-.11-16.51-.11-25.023-3.124-.021-6.134-.963-8.5,2.184a49.841,49.841,0,0,1-5.705,5.757,2.605,2.605,0,0,0-.852,2.854,7.387,7.387,0,0,1-4.1,8.366,7.685,7.685,0,0,1-8.815-2.08,7.433,7.433,0,0,1,.012-9.509,7.194,7.194,0,0,1,8.753-1.929,14.715,14.715,0,0,1,2.275,1.347c2.73-2.924,5.4-5.914,8.236-8.727a4.384,4.384,0,0,1,3.1-1.337c4.611.652,7.93-1.034,10.886-4.543a111.576,111.576,0,0,1,9.6-9.644,4.7,4.7,0,0,0,1.348-4.414,1.4,1.4,0,0,0-.957-.956c-2.985-.1-5.948-.533-8.111,2.6a29.464,29.464,0,0,1-5.571,5.448,6.129,6.129,0,0,1-3.3,1.39c-3.02.19-6.06.064-9.194.064-.2,3.252-1.345,5.685-4.594,6.511a5.447,5.447,0,0,1-6.124-7.355c.664-1.806,2.083-3.332,4.23-3.21a19.862,19.862,0,0,1,4.31,1.165,10.484,10.484,0,0,0,2.416.755c2.842.094,5.694.133,8.531-.021a4.886,4.886,0,0,0,2.811-1.176c2.29-2.087,4.482-4.292,6.588-6.565a4.38,4.38,0,0,1,3.879-1.637c1.542.136,3.1.029,4.62.029.928-2.3.652-2.479-1.637-2.762a8.921,8.921,0,0,0-8.962,3.656c-1.494,2-3.285,3.528-6.114,2.99-.376-.071-1.066.482-1.312.916-1.478,2.611-3.8,3.828-6.3,3.186a5.481,5.481,0,0,1-4.134-5.342,5.309,5.309,0,0,1,4.444-5.258c2.544-.555,4.7.645,5.972,3.332.731,1.539,3.141,1.657,4.624.2,1.574-1.542,3.076-3.162,4.714-4.632a3.237,3.237,0,0,1,2.2-.977c5.25.907,9.082-1.118,12.33-5.153,1.772-2.2,4.129-3.93,6.048-6.091-1.911-.7-3.349-.7-4.714.8-2.162,2.379-4.5,4.611-6.882,6.77a4.911,4.911,0,0,1-2.758,1.154c-2.288.166-4.6.054-6.914.054-.755,2.172-1.473,4.251-3.939,5.031a5.507,5.507,0,0,1-6.891-3,5.485,5.485,0,0,1,9.479-5.362,3.781,3.781,0,0,0,2.422,1.282c6.528.218,6.529.173,11.142-4.534a12.713,12.713,0,0,0,1.141-1.142,8.74,8.74,0,0,1,8.731-3.771,4.188,4.188,0,0,0,2.961-1.2c4.9-4.752,9.682-9.634,14.538-14.436,1.113-1.1,1.891-2.247,1.586-3.888-1.108-5.968.982-10.578,5.871-14.068,1.293-.923,2.418-2.083,3.62-3.134l-.362-.719c-2.656,0-5.333.209-7.964-.053-3.249-.324-5.782.522-7.718,3.212a10.271,10.271,0,0,1-2.435,2.433c-2.843,1.963-3.668,4.678-3.114,7.9a3.977,3.977,0,0,0,1.126,2.256,5.507,5.507,0,0,1-3.438,9.938,5.959,5.959,0,0,1-4.962-3.848,5.5,5.5,0,0,1,2.443-6.3,20.232,20.232,0,0,1,2.385-1.057c.028-.085.127-.223.1-.334-1.123-5.091,2.142-8.005,5.122-11.388,3.5-3.973,7.338-5.837,12.624-5.07a44.058,44.058,0,0,0,7.51.033,8.2,8.2,0,0,0,2.016-.587l-.119-.685h-4.945a66.434,66.434,0,0,1-7.513-.054c-3.86-.443-6.643.8-9.285,3.728-4.027,4.462-8.567,8.462-12.778,12.55,1.805,4.069.563,7.143-2.518,8.428a5.237,5.237,0,0,1-6.081-1.38,5.834,5.834,0,0,1-.719-6.223c1.4-2.25,3.618-3.3,6-2.566a3.089,3.089,0,0,0,3.641-1.035c4.678-4.9,9.471-9.686,14.326-14.409a4.817,4.817,0,0,1,3.018-1.176c5.959-.109,11.922.005,17.882-.11a4.873,4.873,0,0,0,2.942-1.252c3-2.792,5.853-5.736,8.758-8.627,1.2-1.2,1.562-2.4.251-3.832a2.81,2.81,0,0,1-.325-1.706c-.027-4.268-.069-8.537.006-12.8.027-1.512-.49-2.059-2-1.977-1.824.1-3.659-.036-5.486.038-1.32.053-1.819-.452-1.789-1.772.062-2.7.018-5.405.018-8.4h-6.6c-2.371,0-4.809.359-7.1-.068-5.643-1.052-11.31-.883-16.986-.961a4.632,4.632,0,0,0-3.684,1.616c-3.336,3.463-6.82,6.785-10.129,10.273a4.847,4.847,0,0,0-1.283,2.947c-.115,6.095.024,12.194-.119,18.288a5.78,5.78,0,0,1-1.475,3.487c-3.748,4-7.7,7.818-11.484,11.785a4.233,4.233,0,0,0-1.089,2.576c-.11,4.333.016,8.672-.1,13a5.006,5.006,0,0,1-1.132,2.841c-1.586,1.9-3.376,3.63-5.145,5.492-1.447-2.171-1.282-3.875.813-5.4,2.048-1.488,2.488-3.289,2.376-5.594-.128-2.632-.03-5.275-.03-8.311a10.69,10.69,0,0,0-1.447.974c-3.279,3.251-6.488,6.576-9.84,9.75a4.941,4.941,0,0,1-2.974,1.256c-4.263.138-8.536-.017-12.8.117a4.9,4.9,0,0,0-2.973,1.216c-3.987,3.791-7.841,7.722-11.762,11.583a4.021,4.021,0,0,0-1.323,3.169c.085,5.282.067,10.567,0,15.851a3.571,3.571,0,0,1-.782,2.362c-3.828,3.58-6.914,7.991-11.672,10.55-.356.192-.537.728-.775,1.119a2.293,2.293,0,0,1-3.828.568,5.176,5.176,0,0,0-7.556.42,5.24,5.24,0,0,0,.554,7.4c1.148,1.008,2.393,1.9,3.432,2.724,1.081-.848,1.873-1.841,2.886-2.184,1.944-.658,2.326-2.042,2.36-3.756.032-1.632.517-3.025,2.323-3.291,1.012-.149,2.149,2.223,1.7,3.881-.414,1.547-.074,3.951-2.989,3.574a24.826,24.826,0,0,0-.64,2.65c-1.189,1.227-2.886,1.475-5.182-.306.911,2.211-.064,2.2-1.21,2.131a9.406,9.406,0,0,1-5.422-16.473,8.977,8.977,0,0,1,10.529-1.228,10.572,10.572,0,0,1,1.686,1.395,27.314,27.314,0,0,1,2.285-3.316q3.224-3.451,6.663-6.7a4.557,4.557,0,0,0,1.6-3.7c-.1-4.4-.055-8.806-.022-13.208.012-1.6.152-3.209.244-5.007-4.028,0-8.215-.03-12.4.039a2.629,2.629,0,0,0-1.471.879c-3.788,3.734-7.582,7.466-11.28,11.29a4.1,4.1,0,0,0-.962,2.492c-.12,2.772.055,5.559-.1,8.327a4.7,4.7,0,0,1-1.186,2.784c-4.558,4.716-9.208,9.341-13.856,13.969-.458.455-1.149,1.1-1.636,1.025-1.922-.292-2.326.86-2.874,2.3a8.828,8.828,0,0,1-9.283,5.665,8.985,8.985,0,0,1-3.261-16.731c4.659-2.679,10.656-.334,12.744,4.985.979,2.493,1.5,2.623,3.447.7,4.294-4.25,8.59-8.5,12.794-12.836a4.41,4.41,0,0,0,1.062-2.658c.137-2.771-.05-5.559.108-8.327a4.762,4.762,0,0,1,1.191-2.8c3.852-4.019,7.838-7.908,11.733-11.885a4.66,4.66,0,0,1,3.737-1.525c4.333.109,8.671.069,13,.007a10.9,10.9,0,0,0,2.46-.614l-.08-.615a7.215,7.215,0,0,0-1.227-.211c-5.419-.016-10.839-.063-16.257.038a4.171,4.171,0,0,0-2.564,1.137q-7.246,7.078-14.319,14.332a5,5,0,0,0-.992,2.41,6.59,6.59,0,0,0-.016,2.428c.71,4.107-.685,7.267-3.979,9.785a13.414,13.414,0,0,0-2.621,3.162,5.286,5.286,0,0,1-6.309,2.295,5.2,5.2,0,0,1-3.769-4.932,5.422,5.422,0,0,1,9.877-3.271c.317.434.581.907.869,1.362,2.665-1.808,4.554-3.983,3.916-7.51-.743-4.11.825-7.12,3.962-9.88,4.311-3.793,8.214-8.053,12.253-12.151a4.5,4.5,0,0,1,3.548-1.5c6.3.092,12.6.065,18.9.009a11.075,11.075,0,0,0,2.585-.658l-.12-.656c-.5-.048-1-.137-1.5-.137-7.858-.009-15.716-.045-23.573.045a4.473,4.473,0,0,0-2.811,1.139c-5.382,5.249-10.644,10.621-16.006,15.891a3.64,3.64,0,0,0-1.266,3.533c.484,3.147-1.167,5.39-4.2,6.172-2.3.593-5.184-1.077-6.12-3.551a5.4,5.4,0,0,1,2.669-6.706c2.031-1.04,4.046-.671,6.323.815,6-6.143,11.987-12.327,18.057-18.432a4.054,4.054,0,0,1,2.581-1.073c8.806-.078,17.613-.1,26.418,0a4.642,4.642,0,0,0,3.884-1.594,17.023,17.023,0,0,1,2.8-2.851,7.294,7.294,0,0,1,3.542-1.483c4.26-.178,8.534-.009,12.8-.122a4.208,4.208,0,0,0,2.612-1.092q12.658-12.509,25.168-25.169a4.167,4.167,0,0,0,1.012-2.643c.089-6.1-.028-12.195.115-18.288a5.759,5.759,0,0,1,1.42-3.545c4.175-4.357,8.479-8.594,12.841-12.767a4.855,4.855,0,0,1,2.958-1.215c4.264-.132,8.535,0,12.8-.1a11.079,11.079,0,0,0,2.58-.894,6.3,6.3,0,0,1,1.75-.268c5.075-.02,10.149-.012,15.578-.012,0-2.072.079-4.069-.081-6.047-.026-.319-1.116-.779-1.721-.789-4.469-.069-8.942,0-13.411-.08a10.329,10.329,0,0,1-2.512-.8,6.217,6.217,0,0,0-1.71-.371c-8.128-.008-16.258-.023-24.386.084a4.5,4.5,0,0,0-2.78,1.192c-4.156,4.013-8.289,8.058-12.25,12.263a5.759,5.759,0,0,1-5.4,1.917,4.763,4.763,0,0,0-4.362,1.767c-7.363,7.506-14.842,14.9-22.248,22.36a4.768,4.768,0,0,1-3.739,1.514c-6.638-.078-13.277-.008-19.915-.052a2.632,2.632,0,0,0-2.825,1.591,8.44,8.44,0,0,1-6.652,4.641,5,5,0,0,0-2.653,1.228q-3.992,3.8-7.74,7.86a4.434,4.434,0,0,0-1.036,2.591c-.136,2.567.087,5.156-.109,7.716a5.8,5.8,0,0,1-1.327,3.349c-3.5,3.692-7.124,7.266-10.813,10.767a4.629,4.629,0,0,1-2.852,1.106c-4.943.11-9.89.087-14.834.03a4.3,4.3,0,0,0-3.55,1.441c-2.089,2.26-4.374,4.337-6.557,6.51a1.975,1.975,0,0,0-.545,2.468,9.356,9.356,0,0,1-5.291,12.15c-5.384,1.879-10.723-.477-12.4-5.786a8.858,8.858,0,0,1,2.42-9.686c2.747-2.5,6.075-3.681,9.7-2.006,1.751.81,2.814.655,4.1-.8,2.078-2.345,4.463-4.417,6.609-6.707a5.251,5.251,0,0,1,4.269-1.785q7.313.142,14.63-.021a4.28,4.28,0,0,0,2.6-1.1q4.477-4.228,8.726-8.7a4.147,4.147,0,0,0,1.014-2.47c.13-2.635-.083-5.291.115-7.918a5.4,5.4,0,0,1,1.376-3.135c2.556-2.622,5.3-5.059,7.543-7.16-1.61-2.842-2.861-5.062-4.126-7.274a1.94,1.94,0,0,0-.6-.76c-1.085-.6-5,.052-5.905.961-7.317,7.339-14.669,14.644-21.9,22.063a5.034,5.034,0,0,1-4.6,1.862,2.349,2.349,0,0,0-2.806,1.579,5.159,5.159,0,0,1-5.637,2.981,5.5,5.5,0,0,1-4.393-3.711,5.8,5.8,0,0,1,2.409-6.382c1.866-1.271,5.818-.668,6.974,1.225.388.635.195,1.625.288,2.689a7.01,7.01,0,0,0,6.126-1.795c6.921-6.78,13.834-13.573,20.585-20.521,2.109-2.17,4.2-3.708,7.337-3.114,1.562.3,2.134-.588,2.522-1.922a9.008,9.008,0,0,1,7.8-6.355c5.006-.481,8.509,2.375,9.457,5.345.785,2.459,2.112,3.039,4.544,2.952,5.548-.2,11.108-.022,16.662-.109a4.28,4.28,0,0,0,2.72-.946c6.626-6.5,13.165-13.089,19.717-19.665.116-.117.092-.374.166-.715h-20.673c.711,7.434-2.045,12.624-10.017,13.7-4.227.57-9.008-2.411-10.626-6.266-1.85-4.41-.882-9.715,2.569-12.368l.756,1.282c.241-.411.462-.616.468-.826.047-2.085,1.156-2.835,3.134-2.623a2.668,2.668,0,0,0,1.375-.181c3.239-1.557,5.971-.244,8.4,1.7a5.608,5.608,0,0,0,3.9,1.428c9.822-.082,19.645-.026,29.467-.071a3.635,3.635,0,0,0,2.352-.693c3.412-3.384,6.713-6.88,10.233-10.53-.695-.036-1.374-.1-2.052-.1q-20.729.018-41.458.047c-3.19,0-3.9-.56-5.136-4.513l3.945,1.28a11.218,11.218,0,0,1,2.822-.9c3.829-.092,7.662-.039,11.493-.039l.432-.656c-1.066-.9-2.158-1.77-3.191-2.706-1.123-1.017-2.575-1.958-1.075-3.937,1.765,1.741,3.656,3.562,5.5,5.433,2.069,2.1,2.354,2.215,5.824,1.612-.565-.611-1.034-1.151-1.539-1.656-4.246-4.252-8.464-8.535-12.788-12.707a4.531,4.531,0,0,0-2.8-1.137c-5.01-.11-10.026.007-15.037-.088a2.477,2.477,0,0,0-2.672,1.551,4.919,4.919,0,0,1-5.3,2.852,5.121,5.121,0,0,1-4.554-3.508,5.461,5.461,0,0,1,1.86-6.181,5.368,5.368,0,0,1,7.952,1.717,2.666,2.666,0,0,0,2.821,1.668c4.333-.092,8.7.271,13-.124,3.774-.346,6.28,1.152,8.39,3.919a35.941,35.941,0,0,0,2.772,3.615c1,1.017,2.37,1.669,3.422,2.648,2.348,2.183,4.562,4.51,6.917,6.684a3.631,3.631,0,0,0,2.216.953q25.505.064,51.01.009c6.169-2.525,12.674-.37,19.072-1.4v-6.523c-4.052,0-7.975.146-11.883-.041-3.867-.185-7.711-.854-11.579-1.038-3.988-.19-8.007.14-11.979-.172-1.224-.1-2.519-1.39-3.465-2.425a4.858,4.858,0,0,0-4.19-1.77c-2.906.145-5.827.117-8.736,0a2.266,2.266,0,0,0-2.572,1.608,8.72,8.72,0,0,1-7.8,5.752,8.919,8.919,0,0,1-9.19-4.989c-1.687-3.162-1.379-6.377.589-9.733-3.965-3.9-8-7.85-12.01-11.824-3.917-3.883-7.8-7.8-11.715-11.687-1.539-1.527-2.221-1.381-3.026.562a9.5,9.5,0,0,1-8.663,5.583,9.314,9.314,0,0,1-8.41-5.626,2.226,2.226,0,0,0-2.54-1.7c-3.858.139-7.721.109-11.579.253a3.405,3.405,0,0,0-2.059.887c-4.754,4.618-9.421,9.327-14.193,13.926a4.141,4.141,0,0,1-2.578,1.061c-6.5.088-13.006.067-19.509.033-1.234-.006-2.044.111-2.613,1.538-.853,2.14-3.783,3.231-6.017,2.632a5.452,5.452,0,0,1-4.126-5.349,5.35,5.35,0,0,1,4.449-5.271,5.181,5.181,0,0,1,5.816,2.985,2.008,2.008,0,0,0,2.292,1.452c1.415-.047,2.832-.011,4.958-.011-1.755-1.771-3.116-3.154-4.488-4.527-3.64-3.646-7.25-7.323-10.96-10.9a4.416,4.416,0,0,0-2.595-1.127c-2.566-.151-5.147,0-7.719-.079-1.5-.043-2.786.153-3.71,1.527a8.539,8.539,0,0,1-1.6,1.513c-1.437,1.243-2.24,2.342-1.32,4.583,1.338,3.258-1.913,7.222-5.391,6.583a8.136,8.136,0,0,1-4.626-3.121c-1.217-1.708-.762-3.965.674-5.645a5.263,5.263,0,0,1,5.651-1.767,2.161,2.161,0,0,0,1.871-.449c3.3-4.859,7.937-5.67,13.465-5.446,3.661.148,6.286,1.007,8.771,3.733,4.328,4.749,9.079,9.107,13.56,13.721,1.29,1.328,2.63,1.644,4.93,1.115-3.041-2.926-5.819-5.543-8.534-8.225-3.747-3.7-7.4-7.5-11.208-11.137a5.091,5.091,0,0,0-3.141-1.3c-7.179-.112-14.361-.045-21.541-.07-1.158,0-1.924.1-2.463,1.453a5.587,5.587,0,0,1-5.449,3.111,5.75,5.75,0,0,1-4.753-4.611,5.421,5.421,0,0,1,10.247-3.224c.539,1.312,1.254,1.324,2.288,1.323,7.519-.008,15.039.026,22.558-.028a4.308,4.308,0,0,1,3.369,1.395q10.189,10.274,20.471,20.457c1.369,1.364,6.384,1.777,7.719.475,4.306-4.2,8.526-8.482,12.695-12.974-2.719.03-5.678-1.322-7.776,1.7-.187.269-.515.443-.688.717-2.865,4.545-7.181,5.365-12.053,4.656a3.906,3.906,0,0,1-2.068-.919c-5.595-5.472-11.123-11.011-16.711-16.491a3.045,3.045,0,0,0-1.862-.863c-5.89-.1-11.781-.133-17.673-.135a32.87,32.87,0,0,1-4,.251,5.151,5.151,0,0,1-4.209-6.1,5.424,5.424,0,0,1,10.705,1.75c-.1.523-.254,1.037-.454,1.834.835.042,1.532.1,2.229.107,4.47.026,8.944-.06,13.407.125a5.548,5.548,0,0,1,3.312,1.49q7.7,7.471,15.18,15.173a6.241,6.241,0,0,0,3.889,1.647c4.508.778,7.107-1.723,9.5-4.849-.086-.091-.183-.262-.248-.251-3.591.618-5.978-1.106-8.36-3.634-5.444-5.778-11.181-11.282-16.8-16.893-.468-.467-.976-.895-1.529-1.4-1.669,3.513-4.124,5.813-8.05,6.334-5.2.69-9.793-3.128-10.367-8.738-.508-4.963,3.742-9.68,8.773-9.905,4.257-.191,6.945,1.864,9.221,5.3a47.973,47.973,0,0,0,6.155,6.789c5.5,5.571,11.029,11.116,16.64,16.574a4.954,4.954,0,0,0,3.119,1.307c8.941.033,17.883-.107,26.824-.131a2.537,2.537,0,0,0,2.854-1.895c1.144-3.239,4.785-5.517,8.442-5.55a9.257,9.257,0,0,1,8.612,5.608c.476,1.251,1.009,2.057,2.587,1.968a3.453,3.453,0,0,1,2.241,1.081q11.73,11.656,23.37,23.4a2.438,2.438,0,0,0,3.1.734,9.175,9.175,0,0,1,11.664,4.867,2.825,2.825,0,0,0,3.162,2.015c3.313-.149,6.64.05,9.955-.073a4.868,4.868,0,0,1,4.567,1.975c1.259,1.8,2.917,2.252,5.04,2.157,3.515-.157,7.044,0,10.565-.064,1.539-.031,3.244.574,4.511-1.016.221-.277,1.03-.108,1.567-.11q7.316-.03,14.631-.053a3.75,3.75,0,0,0,.694-.227c0-1.818.082-3.752-.079-5.667-.028-.324-1.094-.792-1.686-.8-4.538-.067-9.077,0-13.615-.074a8.842,8.842,0,0,1-2.32-.777,5.952,5.952,0,0,0-1.505-.38c-4.134-.19-6.739-2.518-6.259-6.559s-1.606-6.374-4.169-8.711c-.395-.36-.761-.751-1.138-1.131-4.551-4.592-4.551-4.591-11.14-4.592-2.98,0-5.968.115-8.938-.066a5.28,5.28,0,0,1-3.135-1.337c-9.678-9.506-19.27-19.1-28.919-28.637a3.284,3.284,0,0,0-2.021-.978c-12.668-.056-25.335-.039-38-.032a5,5,0,0,0-.745.106c-2.472,6.746-4.908,8.81-10.108,8.612-4.761-.181-7.536-2.794-9.225-8.847-4.461,0-8.987-.088-13.508.042a5.625,5.625,0,0,1-4.587-1.914c-4.667-4.806-9.446-9.5-14.246-14.174a3.525,3.525,0,0,0-2.224-.871,5.645,5.645,0,0,1-5.893-5.608,5.41,5.41,0,0,1,6.051-5.34,5.067,5.067,0,0,1,4.222,3.034,5.247,5.247,0,0,1-.428,5.539,10.19,10.19,0,0,1-.9,1.042c5.184,5.172,10.327,10.332,15.527,15.434a2.855,2.855,0,0,0,1.824.55c4.335.046,8.671-.014,13.006.05a1.843,1.843,0,0,0,2.052-1.433,8.623,8.623,0,0,1,6.983-5.956c4.183-.649,7.557.665,9.923,4.344a2.707,2.707,0,0,0,1.875,1.159c8.332.07,16.664.037,25,.02a2.693,2.693,0,0,0,.653-.207,3.5,3.5,0,0,0-3.561-2.072c-5.892.069-11.787-.022-17.68.053-1.612.02-2.956-.281-3.9-1.632-2.246-3.206-5.368-3.646-9.11-3.9-5.644-.382-9.875,1.132-13.284,5.656a4.713,4.713,0,0,1-7.171.082c-1.244-1.392-2.238-2.134-4.319-1.427-2.6.883-5.675-1.771-6.083-4.786a5.381,5.381,0,0,1,4.605-5.875c4.346-.356,7.417,3.159,5.881,7.015-.938,2.354.789,3.073,1.988,4a2.721,2.721,0,0,0,3.687-.421c1.683-1.623,3.244-3.378,4.988-4.929a4.517,4.517,0,0,1,2.6-1.151c3.925-.124,7.867-.221,11.779.041a5.722,5.722,0,0,1,3.63,2.04c2.073,2.622,4.5,3.5,7.82,3.284,4.552-.3,9.14-.074,13.966-.561-2.774-2.72-5.5-5.488-8.364-8.113-.487-.447-1.533-.387-2.321-.389q-15.242-.034-30.484,0a4.654,4.654,0,0,1-3.705-1.584c-3.5-3.668-7.129-7.225-10.794-10.734a3.029,3.029,0,0,0-2.251-.625c-5.1.761-8.348-.546-10.541-4.408a9.04,9.04,0,0,1,.988-9.869c2.692-3.062,6.118-3.762,9.926-2.707a8.141,8.141,0,0,1,5.63,7.64c-.1,2.39-.942,4.748-1.593,7.775,3.264,3.225,7.095,7.032,10.967,10.8a2.241,2.241,0,0,0,1.43.537c7.992.021,15.985,0,23.978-.019a2.423,2.423,0,0,0,.568-.228c0-1.518.062-3.127-.019-4.729-.072-1.419-3.756-4.917-5.156-4.672-4.318.758-7.34-1.1-9.774-4.4a1.217,1.217,0,0,0-.287-.286,7.1,7.1,0,0,1-3.167-7.64,3.865,3.865,0,0,0-1.3-3.591c-4.787-4.689-9.5-9.45-14.322-14.105a4.408,4.408,0,0,0-2.614-1.1c-2.566-.146-5.149.035-7.718-.084a2.155,2.155,0,0,0-2.538,1.825,6.785,6.785,0,0,1-10.687,3.62,7.056,7.056,0,0,1-2.674-6.967,6.732,6.732,0,0,1,5.224-5.248c3.475-.506,6.109.5,7.435,3.148a2.675,2.675,0,0,0,2.993,1.714c1.481-.116,3.011.172,4.463-.062,4.364-.7,7.492.956,10.369,4.223,3.7,4.2,7.839,8.008,11.845,11.929a3.808,3.808,0,0,1,1.457,3.562c-.64,3.408.922,5.738,3.248,8.084,2.378,2.4,4.741,3.9,8.257,3.451,1-.128,2.164.716,3.183,1.248.515.269.829.9,1.314,1.255a6.283,6.283,0,0,1,2.627,6.36,19.923,19.923,0,0,0-.018,2.613h4.741c.523-3.326.605-6.329-2.49-8.547a23.539,23.539,0,0,1-3.247-3.271c-1.779-1.911-3.428-3.257-6.576-2.886-4.87.576-8.433-4.564-7.164-9.341a2.944,2.944,0,0,0-.567-2.4q-12.631-12.8-25.431-25.434a3.742,3.742,0,0,0-2.621-.81,5.675,5.675,0,0,1-5.976-3.878,5.327,5.327,0,0,1,2.284-6.147,5.873,5.873,0,0,1,6.6.564,5.238,5.238,0,0,1,1.085,6.6c-.678,1.105-.448,1.62.426,2.488,8.344,8.294,16.617,16.66,24.92,25a6.487,6.487,0,0,0,.99.684c4.708-2.581,8.138-2.538,10.713.125,2.623,2.713,2.832,6.179.293,10.56,2.555,2.413,5.2,4.974,7.915,7.449,1.377,1.253,2.419,2.617,2,4.558-1.017,4.694,1.627,7.621,4.72,10.5,3.37,3.137,6.567,6.462,9.786,9.757,1.279,1.309,2.813,1.057,4.338.947a.916.916,0,0,0,.6-.666c-.135-2.656.949-5.491-1.752-7.7a59.144,59.144,0,0,1-6.321-6.306,5.207,5.207,0,0,1-1.256-2.98c-.163-3.108.062-6.237-.127-9.341a5.542,5.542,0,0,0-1.384-3.307q-13.343-13.542-26.869-26.9a4.605,4.605,0,0,1-1.573-4.093,2.551,2.551,0,0,0-1.537-3.055c-2.294-1.128-3-3.866-2.115-6.513a5.3,5.3,0,0,1,5.4-3.439,5.433,5.433,0,0,1,2.052,10.284,3.008,3.008,0,0,0-.84,5.139c5.11,5.166,10.3,10.255,15.369,15.459,2.743,2.815,5.241,5.867,7.979,8.687,1.334,1.374,3.068,2.357,4.418,3.718a4.279,4.279,0,0,1,1.074,2.636c.127,3.179.151,6.37,0,9.548a4.353,4.353,0,0,0,1.516,3.527c2.328,2.3,4.722,4.542,6.929,6.953a5.493,5.493,0,0,1,1.186,2.964,49.6,49.6,0,0,1,.052,5.352l2.449.136c0-2.52.086-4.929-.061-7.323-.037-.592-.785-1.181-1.285-1.694-1.122-1.153-2.238-2.322-3.459-3.365a4.937,4.937,0,0,1-1.77-4.07,3.326,3.326,0,0,0-1.3-2.358c-2.122-1.433-3.362-3.845-2.74-5.963a5.51,5.51,0,0,1,10.589-.333,5.353,5.353,0,0,1-2.976,6.388,2.78,2.78,0,0,0-.645,4.506c1.386,1.476,2.819,2.916,4.313,4.282a4.087,4.087,0,0,1,1.635,3.906c-.8,4.47.8,7.8,4.37,10.6,2.5,1.964,4.55,4.5,7.036,7.027.38-2.1.415-3.594-1.155-5-2.4-2.14-4.617-4.486-6.791-6.856a5.248,5.248,0,0,1-1.133-2.612,23.022,23.022,0,0,1-.049-3.65c0-1.953.432-3.788-2.475-4.565-2.388-.638-3.306-3.49-2.749-5.87a5.788,5.788,0,0,1,5.027-4.314,6.269,6.269,0,0,1,5.237,3.236,5.623,5.623,0,0,1-1.691,6.534,3.606,3.606,0,0,0-1.375,2.91c-.588,4.433.51,8.062,4.385,10.608.271.178.409.553.675.745,3.347,2.424,5.119,5.5,4.35,9.789a2.6,2.6,0,0,0,.758,1.91q7.917,8.03,15.956,15.937a3.074,3.074,0,0,0,1.964.62c4.267.055,8.539.132,12.8-.016,2.131-.075,3.816.37,5.068,2.168a8.976,8.976,0,0,0,1.509,1.275c0-3.67.024-7.057-.031-10.443a2.115,2.115,0,0,0-.7-1.2c-2.071-2.1-4.254-4.09-6.243-6.26-1.794-1.958-3.933-1.568-6.308-1.368.35,2.948-.326,5.4-3.113,6.842a5.264,5.264,0,0,1-6.259-1.339,5.653,5.653,0,0,1-.656-6.582c1.188-1.883,4.172-3.281,5.976-2.312a11.313,11.313,0,0,0,6.485.957,5.478,5.478,0,0,1,4.886,2.085c2.211,2.485,4.723,4.7,7,7.129a4.006,4.006,0,0,1,1.026,2.4c.11,3.586-.028,7.182.1,10.768a8.3,8.3,0,0,0,1.093,2.775,1.817,1.817,0,0,0,.571.548c3.6,2.86,5.951,6.177,5.125,11.183-.356,2.157,1.771,3.142,3.673,2.058a4.777,4.777,0,0,1,2.221-.6c5.01-.052,10.02-.027,15.43-.027,0-2.488.1-4.9-.034-7.293-.1-1.777.474-2.473,2.288-2.316,1.547.133,3.122-.078,4.669.052,1.756.147,2.4-.428,2.342-2.26-.125-3.925-.144-7.861.009-11.784.073-1.862.808-3.692.935-5.558.153-2.266-3.141-5.451-5.4-5.474a9.5,9.5,0,0,0-1.42.009c-3.721.53-6.816-.322-9.158-3.552a4.2,4.2,0,0,0-2.968-1.159c-4.2-.128-8.4.032-12.6-.117a5.169,5.169,0,0,1-3.163-1.3c-5.331-5.2-10.546-10.511-15.307-15.294-2.8.292-5.085.844-7.331.7-4.672-.3-7.959-5.282-7.244-9.907a8.9,8.9,0,1,1,16.8,5.254,2.429,2.429,0,0,0,.454,2.172c4.647,4.8,9.343,9.562,14.132,14.224a5.052,5.052,0,0,0,3,1.192c2.563.167,5.145.064,7.719.045.57,0,1.139-.106,1.708-.164l.425-.675c-3.377-3.206-6.693-6.479-10.16-9.583a5.313,5.313,0,0,1-1.953-4.537c.131-3.993.131-8-.021-11.987a5.18,5.18,0,0,0-1.3-3.137q-5.726-5.957-11.724-11.648a4.852,4.852,0,0,0-2.949-1.26c-5.077-.127-10.16-.1-15.24-.037a4.98,4.98,0,0,1-3.959-1.607c-3.1-3.219-6.314-6.328-9.437-9.525a2.22,2.22,0,0,0-2.8-.661,9.4,9.4,0,0,1-12.059-6.442c-.319-1.238-.843-1.539-1.912-1.475a1.562,1.562,0,0,0-.2,0c-5.518,1.049-9.226-1.5-12.894-5.448-7.522-8.089-15.561-15.7-23.347-23.545a4.606,4.606,0,0,0-3.721-1.6c-2.976.12-5.962.095-8.94,0a2.173,2.173,0,0,0-2.406,1.594c-1.543,3.634-5.535,5.361-8.782,3.953a6.855,6.855,0,0,1-3.745-9.545,6.32,6.32,0,0,1,6.13-3.826c2.679-.016,5.007,1.037,6.013,3.608.768,1.962,1.894,2.383,3.806,2.289,3.109-.154,6.234-.123,9.344.006a4.319,4.319,0,0,1,2.658,1.062c9.434,9.352,18.786,18.785,28.22,28.136a4.785,4.785,0,0,0,2.786,1.208c2.209.176,4.441.056,6.244.056l3.042-6.091c-3.364-3.3-6.948-6.8-10.518-10.316-3.344-3.3-6.741-6.543-9.958-9.959a5.444,5.444,0,0,1-1.324-3.364c-.113-7.856-.082-15.715-.035-23.573a2.056,2.056,0,0,0-1.465-2.268c-4.627-1.9-6.6-7.137-4.715-12.233,1.52-4.107,6.891-6.639,11.221-5.29a9.786,9.786,0,0,1,6.92,8.814,9.477,9.477,0,0,1-6.134,8.912,2.255,2.255,0,0,0-1.709,2.507c.08,7.247-.012,14.5.092,21.744a4.769,4.769,0,0,0,1.235,2.987c6.256,6.387,12.623,12.664,18.914,19.017a2.91,2.91,0,0,0,2.853.982,8.666,8.666,0,0,1,9.03,3.707,9.064,9.064,0,0,1,.669,9.774,1.74,1.74,0,0,0,.384,2.44c3,2.882,5.885,5.877,8.9,8.738a3.937,3.937,0,0,0,2.4,1.038c5.282.092,10.567.031,15.851.063a30.9,30.9,0,0,1,3.122.348c0-4.028.039-8.2-.046-12.376a3,3,0,0,0-1.016-1.652c-3.69-3.737-7.384-7.473-11.161-11.121a4.06,4.06,0,0,0-2.442-1c-2.772-.126-5.558.04-8.328-.105a4.75,4.75,0,0,1-2.88-1.076c-4.83-4.723-9.548-9.558-14.3-14.363-.225-.227-.619-.533-.581-.737.457-2.482-1.294-2.9-3.032-3.7a8.767,8.767,0,0,1-4.879-9.864,8.978,8.978,0,0,1,8.522-7.024,9.19,9.19,0,0,1,8.888,6.686c1.25,4.216-1.716,9.506-6.046,10.784-1.912.564-2.217,1.609-.768,3.1,2.951,3.03,6.248,5.771,8.887,9.046,3.365,4.176,7.363,5.918,12.6,5.018,2.889-.5,5.066.536,7.054,2.747,3.271,3.638,6.88,6.969,10.244,10.526a4.569,4.569,0,0,1,1.188,2.75c.123,4.468,0,8.942.1,13.411a11.491,11.491,0,0,0,.911,2.99l.675-.12c.055-.574.158-1.147.16-1.722.013-5.216.068-10.433-.043-15.647a4.522,4.522,0,0,0-1.171-2.793q-6.927-7.135-14.062-14.065a6.654,6.654,0,0,0-2.789-1.22,7.652,7.652,0,0,0-2.023-.034c-6.677,0-6.667-.011-11-4.94a7.082,7.082,0,0,0-1.845-1.5,5.5,5.5,0,0,1-3.036-6.037,5.552,5.552,0,0,1,10.733-.175,5.587,5.587,0,0,1-2.638,6.071c-.316.2-.613.428-.942.66,1.828,2.724,4,4.461,7.406,3.844,4.117-.746,7.13.832,9.887,3.965,3.7,4.21,7.832,8.055,11.885,11.945a5.347,5.347,0,0,1,1.724,4.3q-.106,9.144.009,18.29a11.177,11.177,0,0,0,.791,2.814l.67-.1c.054-.634.154-1.27.154-1.9.011-7.655.059-15.311-.053-22.964a5.063,5.063,0,0,0-1.319-3.151c-5.331-5.492-10.785-10.862-16.177-16.295a2.435,2.435,0,0,0-2.788-.859,4.817,4.817,0,0,1-5.377-1.937,5.243,5.243,0,0,1-.335-6.131c1.26.216,1.6.863,1.367,2.126a3.351,3.351,0,0,0,6.487,1.684,3.381,3.381,0,0,0-2.193-4.174,14.178,14.178,0,0,0-1.834-.358c.209-1.865,1.369-2.152,2.7-1.5,2.8,1.375,4.43,3.726,3.041,7.07a2.243,2.243,0,0,0,.682,2.917q8.366,8.213,16.5,16.662a5.05,5.05,0,0,1,1.345,3.118c.109,8.331.166,16.666,0,25-.052,2.52.536,4.509,2.527,5.94,2.709,1.947,3.672,4.439,3.4,7.767a80.105,80.105,0,0,0,0,10.154,4.914,4.914,0,0,0,1.223,2.975c4.885,5.013,9.944,9.857,14.805,14.892a5.957,5.957,0,0,0,4.931,2.052c5.138-.185,3.993.576,4.47-4.463.453-4.775-.885-8.4-4.757-11.173a17.361,17.361,0,0,1-2.16-2.143c-1.339-1.377-2.345-2.725-4.9-1.742-2.667,1.027-5.867-1.832-6.258-4.894a5.687,5.687,0,0,1,4.972-5.88,5.25,5.25,0,0,1,5.874,5.221,1.014,1.014,0,0,1-.007.4c-1.3,2.916.731,4.507,2.468,6.209a20.785,20.785,0,0,0,1.92,1.761c3.77,2.861,5.566,6.484,4.708,11.305-.744,4.179.4,7.683,4.027,10.208a3.925,3.925,0,0,1,1.458,3.576c0,1.263-.751,2.854,1.057,3.722.237.114.123,1.019.124,1.557.007,5,0,10,0,15.138h6.758q0-1.577,0-3.152c0-3.455-.034-6.91.028-10.364.025-1.4-.525-2.959.994-4.08.285-.21.155-1.029.156-1.566.026-7.452.09-14.9,0-22.354a4.751,4.751,0,0,0-1.276-2.946c-4.086-4.22-8.268-8.348-12.473-12.451a4.906,4.906,0,0,1-1.4-4.438,5.628,5.628,0,0,0-2.049-5.1q-11.224-10.909-22.161-22.109a5.433,5.433,0,0,1-1.3-3.425c-.122-6.637-.1-13.277-.027-19.915a2.847,2.847,0,0,0-1.588-2.894,8.994,8.994,0,0,1-4.7-7.331,2.48,2.48,0,0,0-.6-1.417c-2.759-2.828-5.527-5.649-8.388-8.373a6.428,6.428,0,0,0-2.318-.927c-1.141-.4-2.278-.825-3.448-1.109a2.758,2.758,0,0,0-1.871.05,12.982,12.982,0,0,1-4.466,1.059Zm43.958,36.351a7.125,7.125,0,0,0,6.979,6.76,6.78,6.78,0,0,0,6.663-6.75,7,7,0,0,0-6.739-6.932A7.369,7.369,0,0,0,4079.136,2758.892ZM3975.761,2927.4a6.734,6.734,0,1,0,.031-13.467,6.734,6.734,0,1,0-.031,13.467Zm170.471,104.506a6.738,6.738,0,0,0-6.627-6.948,7.108,7.108,0,0,0-6.88,6.8,6.746,6.746,0,0,0,6.651,6.722A6.4,6.4,0,0,0,4146.232,3031.906Zm-41.834,94.338a6.535,6.535,0,0,0,6.723-6.779,6.879,6.879,0,0,0-6.733-6.727c-3.573-.012-7.024,3.307-6.893,6.83C4097.619,3122.912,4100.235,3126.478,4104.4,3126.245Zm144.779-266.01a6.6,6.6,0,0,0-6.748,6.773,6.8,6.8,0,0,0,6.854,6.707,6.71,6.71,0,0,0,6.609-6.919A6.5,6.5,0,0,0,4249.177,2860.234Zm-325.43-75.484a6.1,6.1,0,0,0-5.823-6,6.407,6.407,0,0,0-5.878,5.853,6.273,6.273,0,0,0,5.921,5.964A6.011,6.011,0,0,0,3923.748,2784.75Zm105.3,21.819a5.81,5.81,0,1,0,5.861-5.829A6.083,6.083,0,0,0,4029.045,2806.57Zm206.091-107.257a5.961,5.961,0,0,0-5.857-5.992,6.111,6.111,0,0,0-5.733,5.907,5.8,5.8,0,0,0,11.59.084ZM3992.45,3094.375a5.795,5.795,0,0,0,11.59-.083,6.066,6.066,0,0,0-5.933-5.9A5.945,5.945,0,0,0,3992.45,3094.375Zm8.522-367.152a5.821,5.821,0,0,0,5.645,5.917,5.9,5.9,0,0,0,5.931-5.867,6.161,6.161,0,0,0-5.769-5.88A5.954,5.954,0,0,0,4000.972,2727.223Zm297.587,55.2a5.816,5.816,0,0,0-5.631-5.931,5.946,5.946,0,0,0-5.938,5.873,6.177,6.177,0,0,0,5.778,5.883A5.912,5.912,0,0,0,4298.56,2782.428ZM3916.254,3026.1a5.458,5.458,0,0,0-5.622,5.772,5.655,5.655,0,0,0,5.688,5.788,5.9,5.9,0,0,0,5.831-5.756A5.714,5.714,0,0,0,3916.254,3026.1Zm91.477-266.969a5.709,5.709,0,0,0-5.389,5.284,5.956,5.956,0,0,0,5.461,5.484,5.8,5.8,0,0,0,5.344-5.357A5.6,5.6,0,0,0,4007.731,2759.131Zm-106.259,74.329a5.523,5.523,0,0,0,5.33-5.263,5.691,5.691,0,0,0-5.374-5.487,5.538,5.538,0,0,0-5.273,5.339A5.436,5.436,0,0,0,3901.472,2833.46Zm175.082,200.467a5.558,5.558,0,0,0-5.48-5.322,5.668,5.668,0,0,0-5.323,5.329c-.033,2.557,2.706,5.342,5.323,5.414A5.766,5.766,0,0,0,4076.553,3033.927Zm-64.6-151.07a5.467,5.467,0,0,0,5.227,5.351,5.585,5.585,0,0,0,5.333-5.488,5.281,5.281,0,1,0-10.56.138Zm258.107-40.827a5.441,5.441,0,0,0-5.358,5.25,5.322,5.322,0,0,0,10.643.221A5.4,5.4,0,0,0,4270.062,2842.031Zm-23.993,93.293a5.431,5.431,0,0,0,5.344,5.394,5.513,5.513,0,0,0,5.2-5.4,5.575,5.575,0,0,0-5.206-5.411A5.471,5.471,0,0,0,4246.069,2935.324Zm-296.369,4.812a5.326,5.326,0,0,0,5.21,5.479,5.53,5.53,0,0,0,5.285-5.3,5.588,5.588,0,0,0-5.3-5.513A5.423,5.423,0,0,0,3949.7,2940.136Zm175.743,186.043a5.426,5.426,0,0,0-5.267,5.249c.018,2.883,2.567,5.568,5.27,5.55a5.685,5.685,0,0,0,5.3-5.312A5.554,5.554,0,0,0,4125.443,3126.18Zm-53.7-388.171a5.224,5.224,0,0,0-5.247-5.271,5.288,5.288,0,0,0-5.315,5.2,5.281,5.281,0,1,0,10.562.07ZM4042.2,3110.232a5.132,5.132,0,0,0-5.375,5.106,5.271,5.271,0,1,0,10.541.17A5.087,5.087,0,0,0,4042.2,3110.232Zm172.02-78.8a5.2,5.2,0,0,0,5.1,5.358,4.908,4.908,0,0,0,5.384-5.257,5.385,5.385,0,0,0-5.139-5.382A5.152,5.152,0,0,0,4214.22,3031.434Zm68.5-65.709a5.383,5.383,0,0,0-5.332-5.375,5.512,5.512,0,0,0-5.189,5.4,5.578,5.578,0,0,0,5.2,5.4A5.45,5.45,0,0,0,4282.717,2965.725Zm-91.736-232.15a4.985,4.985,0,0,0,5.16-5.231,5.166,5.166,0,0,0-5.2-5.272,5.27,5.27,0,0,0-5.308,5.406A5.086,5.086,0,0,0,4190.98,2733.574Zm-238.693,89.618a5.347,5.347,0,0,0-5.237-5.471,5.408,5.408,0,0,0,.067,10.813A5.381,5.381,0,0,0,3952.288,2823.192ZM4100.941,2652.4a5.359,5.359,0,0,0,5.276,5.429,5.409,5.409,0,0,0-.123-10.815A5.437,5.437,0,0,0,4100.941,2652.4Zm58.089,405.486a5.165,5.165,0,0,0,5.376-5.078,5.281,5.281,0,1,0-10.56-.224A5.16,5.16,0,0,0,4159.03,3057.885Zm175.554-268.34a5.308,5.308,0,0,0-5.307-5.242,5.31,5.31,0,0,0,.129,10.619A5.336,5.336,0,0,0,4334.584,2789.545ZM3895.345,3003.17a5.264,5.264,0,0,0,5.639-5.016,5.475,5.475,0,0,0-5.062-5.482,5.575,5.575,0,0,0-5.683,5.1A5.416,5.416,0,0,0,3895.345,3003.17Zm438.366-31.825a5.117,5.117,0,0,0,5.412-5.231,5.214,5.214,0,0,0-5.257-5.272,5.29,5.29,0,0,0-5.331,5.221C4328.509,2968.935,4331.018,2971.625,4333.711,2971.345Zm-203.4-173.4c.306-2.713-2.444-5.234-5.238-5.231a5.341,5.341,0,0,0-5.271,5.275,5.158,5.158,0,0,0,5.216,5.275A5.077,5.077,0,0,0,4130.313,2797.948Zm86.61,308.667a5.3,5.3,0,1,0,.015,10.6,5.3,5.3,0,0,0-.015-10.6Zm-20.729-436.022a5.36,5.36,0,0,0,5.219-5.352,5.307,5.307,0,1,0-5.219,5.352Zm157.283,221.495c2.909.31,5.265-2.465,5.311-5.146a5.315,5.315,0,0,0-5.393-5.358,5.209,5.209,0,0,0-5.18,5.338A5.125,5.125,0,0,0,4353.477,2892.087Zm-201.368-137.055a5.186,5.186,0,0,0,5.183,5.279,5.321,5.321,0,1,0-.05-10.641A5.181,5.181,0,0,0,4152.109,2755.032ZM4031.447,3065a5.258,5.258,0,1,0,5.348-5.129A5.272,5.272,0,0,0,4031.447,3065Zm-51.941-214.375a5.31,5.31,0,1,0-5.311,5.269A5.38,5.38,0,0,0,3979.506,2850.62Zm-3.174-151.266a5.28,5.28,0,0,0,5.167,5.363,5.312,5.312,0,1,0,.077-10.624A5.258,5.258,0,0,0,3976.332,2699.354Zm231.986,198.515a5.22,5.22,0,0,0-5.324,5.162,5.3,5.3,0,1,0,10.6.048A5.213,5.213,0,0,0,4208.318,2897.87Zm-105.026,87.847a5.192,5.192,0,0,0-5.233,5.247,5.382,5.382,0,0,0,5.317,5.26,5.27,5.27,0,0,0,5.29-5.448A5.071,5.071,0,0,0,4103.292,2985.717ZM3943.711,2733.93a4.742,4.742,0,0,0-4.877-4.815,4.955,4.955,0,0,0-4.848,4.742,5.087,5.087,0,0,0,4.88,4.937A4.821,4.821,0,0,0,3943.711,2733.93Zm-30.444,28.172a4.659,4.659,0,0,0-4.787-4.867,5.14,5.14,0,0,0-4.923,4.925,5.217,5.217,0,0,0,4.869,4.772A4.733,4.733,0,0,0,3913.267,2762.1Zm85.486,293.5a4.193,4.193,0,0,0-4.22-4.233,4.546,4.546,0,0,0-4.448,4.348,4.9,4.9,0,0,0,4.443,4.418A4.461,4.461,0,0,0,3998.753,3055.6Zm-37.937-274.509a4.169,4.169,0,0,0-4.164-4.453,4.309,4.309,0,0,0-4.423,4.255,4.355,4.355,0,0,0,4.329,4.4A4.245,4.245,0,0,0,3960.815,2781.094Zm313.175,292.514a4.2,4.2,0,0,0,4.19,4.258,4.559,4.559,0,0,0,4.438-4.349,4.628,4.628,0,0,0-4.426-4.349A4.239,4.239,0,0,0,4273.99,3073.608ZM4233.125,2742.1a4.392,4.392,0,0,0,4.379-4.333,4.6,4.6,0,0,0-4.538-4.262,4.157,4.157,0,0,0-4.117,4.316A3.974,3.974,0,0,0,4233.125,2742.1Zm-138.4,199.8v-11.966c-1.337.9-3.427-.907-3.659,1.313a102.991,102.991,0,0,0-.1,10.652Zm-.051-80.241v-11.422c-3.71-.3-3.757-.3-3.861,3.017-.068,2.163.1,4.333.023,6.5-.053,1.577.505,2.286,2.118,2.046C4093.475,2861.718,4094.01,2861.71,4094.672,2861.66Zm-13.75,27.151a14.312,14.312,0,0,1,.009-1.57c.211-1.74-.3-2.656-2.288-2.468-1.668.158-3.365,0-5.047.033-3.6.076-3.595.091-3.6,4.005Zm1.452-206.337a3.879,3.879,0,0,0,3.931-3.719,3.965,3.965,0,0,0-3.887-3.811,3.813,3.813,0,0,0-3.859,3.771A3.7,3.7,0,0,0,4082.374,2682.474Zm64.751,429.345a4.407,4.407,0,0,0-4.042-3.832,4.152,4.152,0,0,0-3.689,4.082,3.808,3.808,0,0,0,3.853,3.659A4.093,4.093,0,0,0,4147.125,3111.819Zm186.01-248.458a3.953,3.953,0,0,0-3.826-3.92,4.128,4.128,0,0,0-3.908,3.662,4.051,4.051,0,0,0,3.74,3.987A3.853,3.853,0,0,0,4333.135,2863.361Zm11.87,45.261a3.681,3.681,0,0,0-3.715-3.881,3.742,3.742,0,0,0-3.77,3.628,3.842,3.842,0,0,0,3.629,4.019A3.7,3.7,0,0,0,4345,2908.622Zm-240.761-46.95c.584.071,1.043.112,1.5.187,1.927.319,2.672-.446,2.511-2.418-.148-1.814,0-3.65-.043-5.476-.07-3.3-.331-3.483-3.965-2.762Zm56.958,27.155a10.439,10.439,0,0,0-.054-2.642c-.155-.527-.8-1.274-1.249-1.293-2.622-.112-5.252-.042-7.879-.021a1.481,1.481,0,0,0-1.658,1.78c.033.651.006,1.3.006,2.177Zm-56.944,42.343v10.771h3.961c0-2.608.037-5.092-.009-7.574C4108.149,2931.088,4108.009,2930.987,4104.257,2931.17Zm-34.271-55.383c3.281,0,6.493.032,9.7-.014,1.624-.023,1.154-1.329,1.23-2.26.078-.958-.032-1.758-1.317-1.749-3.212.025-6.424.009-9.615.009Zm64.433-24.706c-3.984-.368-4.007-.368-4.072,3.086-.039,2.092.057,4.188,0,6.279-.037,1.262.648,1.533,1.648,1.39.921-.13,2.394.644,2.416-1.208C4134.447,2857.474,4134.419,2854.319,4134.419,2851.081Zm-.112,80.231-.633-.667c-1.07.547-3,1.008-3.066,1.657a95.909,95.909,0,0,0-.146,9.612h3.844Zm-53.625-16.107v-3.625h-11.566v3.625Zm69.555-16.914c.173,1.463-.856,3.443,1.166,3.672a85.868,85.868,0,0,0,9.628.1v-3.768Zm.058-22.505c3.31,0,6.462,0,9.615,0,1.279,0,1.394-.847,1.283-1.792-.1-.829.518-2.135-1.033-2.168-3.273-.069-6.55-.021-9.865-.021Zm-80.24,22.462c.306,1.525-.774,3.518,1.274,3.74a88.589,88.589,0,0,0,9.439.087v-3.827Zm91.005,13.369h-11.527v3.552h11.527Zm-43.641,19.509v10.938a14.087,14.087,0,0,0,2.412-.034c.49-.093,1.286-.468,1.32-.784a27,27,0,0,0-.387-10.119Zm-.118-80.139c0,3.346-.064,6.619.092,9.88.017.36,1.288.9,1.987.915.609.014,1.751-.572,1.767-.931.139-3.264.082-6.538.082-9.864Zm142.436-150.854a3.594,3.594,0,0,0,3.375-3.388,3.749,3.749,0,0,0-3.582-3.417,3.588,3.588,0,0,0-3.2,3.55A3.394,3.394,0,0,0,4259.738,2700.132ZM4111.49,3032.194a3.644,3.644,0,0,0-3.254-3.519,3.809,3.809,0,0,0-3.534,3.5,3.63,3.63,0,0,0,3.425,3.344A3.419,3.419,0,0,0,4111.49,3032.194Zm-231.163-169.656a3.945,3.945,0,0,0,3.541-3.333,3.854,3.854,0,0,0-3.271-3.579,3.634,3.634,0,0,0-3.524,3.248A3.5,3.5,0,0,0,3880.327,2862.539Zm8.068-25.592a3.5,3.5,0,0,0-3.285-3.444,3.385,3.385,0,1,0-.069,6.766A3.4,3.4,0,0,0,3888.4,2836.947Zm39.184,185.113a3.426,3.426,0,0,0,3.362-3.309,3.684,3.684,0,0,0-3.262-3.512,3.631,3.631,0,0,0-3.479,3.493A3.424,3.424,0,0,0,3927.579,3022.06Zm340.119,64.02a3.455,3.455,0,0,0-3.319-3.376,3.654,3.654,0,0,0-3.522,3.248,3.786,3.786,0,0,0,3.475,3.548A3.67,3.67,0,0,0,4267.7,3086.08Zm-280.146-290.224a3.319,3.319,0,0,0,3.151,3.473,3.473,3.473,0,0,0,3.518-3.361,3.437,3.437,0,0,0-3.309-3.381A3.3,3.3,0,0,0,3987.552,2795.856Zm86.947-135.95a3.441,3.441,0,0,0,3.316-3.4,3.614,3.614,0,0,0-3.549-3.415,3.666,3.666,0,0,0-3.191,3.573A3.375,3.375,0,0,0,4074.5,2659.906Zm210.519,135.524a3.719,3.719,0,0,0-3.4-3.384,3.493,3.493,0,0,0-3.417,3.515,3.41,3.41,0,0,0,3.426,3.251A3.7,3.7,0,0,0,4285.019,2795.431Zm-184.7-87.559A3.818,3.818,0,0,0,4097,2704.4a3.47,3.47,0,0,0,.005,6.937A3.766,3.766,0,0,0,4100.317,2707.872Zm-87.426,313.593a3.5,3.5,0,0,0-3.3-3.415,3.64,3.64,0,0,0-3.556,3.211,3.827,3.827,0,0,0,3.444,3.593A3.719,3.719,0,0,0,4012.891,3021.465Zm-55.867-270.971a3.953,3.953,0,0,0-3.456-3.41,3.461,3.461,0,0,0,.113,6.921A3.9,3.9,0,0,0,3957.024,2750.494Zm84.24-65.76a3.376,3.376,0,1,0,3.43,3.371A3.689,3.689,0,0,0,4041.263,2684.734Zm137.837,443.9a3.5,3.5,0,0,0-3.128-3.558,3.807,3.807,0,0,0-3.512,3.473,3.681,3.681,0,0,0,3.324,3.417A3.352,3.352,0,0,0,4179.1,3128.631Zm27.856-346.6a3.153,3.153,0,0,0,3.21,3.373,3.34,3.34,0,0,0,3.4-3.27,3.511,3.511,0,0,0-3.391-3.5A3.3,3.3,0,0,0,4206.957,2782.031Zm-175.43,51.3a3.479,3.479,0,0,0-3.473,3.188,3.7,3.7,0,0,0,3.529,3.42,3.783,3.783,0,0,0,3.387-3.375A3.534,3.534,0,0,0,4031.527,2833.332Zm287.428-14.23a3.441,3.441,0,0,0-3.4,3.292,3.541,3.541,0,0,0,3.3,3.619,3.826,3.826,0,0,0,3.366-3.425A3.68,3.68,0,0,0,4318.956,2819.1ZM3922.94,2814a3.556,3.556,0,0,0,3.555-3.367,3.775,3.775,0,0,0-3.437-3.325,3.507,3.507,0,0,0-3.4,3.308A3.329,3.329,0,0,0,3922.94,2814Zm240.112-157.212a3.175,3.175,0,0,0,3.312-3.263,3.355,3.355,0,0,0-3.3-3.363,3.647,3.647,0,0,0-3.479,3.449A3.471,3.471,0,0,0,4163.052,2656.788Zm-10.86,4.431a3.375,3.375,0,1,0-6.75.079,3.421,3.421,0,0,0,3.413,3.273A3.49,3.49,0,0,0,4152.192,2661.219Zm-.951,469.617a3.175,3.175,0,0,0-3.413,3.17,3.3,3.3,0,0,0,3.2,3.438,3.559,3.559,0,0,0,3.569-3.326A3.391,3.391,0,0,0,4151.242,3130.835Zm-107.435-465.748a3.149,3.149,0,0,0-3.3,3.283,3.363,3.363,0,0,0,3.326,3.349,3.594,3.594,0,0,0,3.452-3.469A3.435,3.435,0,0,0,4043.806,2665.087Zm93.015,21.479a3.446,3.446,0,0,0,3.2,3.481,3.636,3.636,0,0,0,3.582-3.347,3.4,3.4,0,0,0-3.354-3.291A3.163,3.163,0,0,0,4136.821,2686.566Zm103.235,411.523a3.367,3.367,0,0,0,.043,6.733,3.729,3.729,0,0,0,3.477-3.3A3.6,3.6,0,0,0,4240.057,3098.089Zm-219.184-8.921a3.429,3.429,0,0,0,3.268,3.409,3.716,3.716,0,0,0,3.556-3.4,3.6,3.6,0,0,0-3.437-3.3A3.37,3.37,0,0,0,4020.873,3089.168Zm333.864-233.881a3.521,3.521,0,0,0-3.223-3.435,3.732,3.732,0,0,0-3.386,3.559,3.362,3.362,0,0,0,3.412,3.254A3.152,3.152,0,0,0,4354.736,2855.288Zm-452.379-50.921a3.487,3.487,0,0,0,3.464-3.191,3.677,3.677,0,0,0-3.5-3.425,3.38,3.38,0,0,0-3.294,3.372A3.185,3.185,0,0,0,3902.357,2804.366Zm315.88-35.538a3.358,3.358,0,0,0-3.532,3.138,3.556,3.556,0,0,0,3.368,3.549,3.794,3.794,0,0,0,3.48-3.283A3.58,3.58,0,0,0,4218.237,2768.828Zm-27.208,198.907a3.143,3.143,0,0,0,3.323-3.257,3.313,3.313,0,0,0-3.288-3.376,3.541,3.541,0,0,0-3.465,3.429A3.374,3.374,0,0,0,4191.03,2967.735Zm-221.7-86.442a3.351,3.351,0,0,0-3.308-3.343,3.426,3.426,0,0,0-3.388,3.3,3.48,3.48,0,0,0,3.448,3.44A3.324,3.324,0,0,0,3969.327,2881.293Zm208.53-69.646a3.289,3.289,0,0,0-3.229-3.407,3.51,3.51,0,0,0-3.434,3.266,3.8,3.8,0,0,0,3.4,3.578A3.549,3.549,0,0,0,4177.857,2811.647ZM3872.8,2848.158a3.284,3.284,0,0,0,3.269-3.355,3.385,3.385,0,0,0-3.358-3.322,3.531,3.531,0,0,0-3.384,3.308A3.348,3.348,0,0,0,3872.8,2848.158Zm340.066-167.848a3.458,3.458,0,0,0-3.34,3.373,3.376,3.376,0,1,0,6.747-.117A3.379,3.379,0,0,0,4212.869,2680.311Zm68.709,131.3a3.55,3.55,0,0,0,3.438-3.241,3.76,3.76,0,0,0-3.548-3.412,3.5,3.5,0,0,0-3.269,3.426A3.242,3.242,0,0,0,4281.579,2811.608Zm-372.258,56.221a3.454,3.454,0,0,0-6.9-.291,3.452,3.452,0,1,0,6.9.291Zm293.972-160.036a3.691,3.691,0,0,0,3.431-3.357,3.47,3.47,0,0,0-3.229-3.462,3.677,3.677,0,0,0-3.61,3.377A3.934,3.934,0,0,0,4203.293,2707.793Zm-202.482,92.724a3.365,3.365,0,0,0-3.45,3.187,3.515,3.515,0,0,0,3.407,3.486,3.4,3.4,0,0,0,3.344-3.339A3.311,3.311,0,0,0,4000.811,2800.517Zm242.913,204.989a3.525,3.525,0,0,0,3.431-3.248,3.782,3.782,0,0,0-3.577-3.392,3.627,3.627,0,0,0-3.291,3.439A3.349,3.349,0,0,0,4243.724,3005.506Zm-92.37-14.659a3.163,3.163,0,0,0,3.292-3.288,3.355,3.355,0,1,0-6.708.093A3.265,3.265,0,0,0,4151.354,2990.847Zm72.443-2.478a3.374,3.374,0,0,0,3.351-3.283,3.464,3.464,0,0,0-3.282-3.41,3.389,3.389,0,0,0-3.4,3.441A3.184,3.184,0,0,0,4223.8,2988.369Zm-1.366-50.807a3.2,3.2,0,0,0-3.378,3.215,3.526,3.526,0,0,0,3.271,3.6,3.565,3.565,0,0,0,3.29-3.392A3.234,3.234,0,0,0,4222.431,2937.563Zm-167.8,113.008a3.528,3.528,0,0,0,3.369,3.544,3.686,3.686,0,0,0,3.327-3.436,3.442,3.442,0,0,0-3.306-3.374A3.314,3.314,0,0,0,4054.635,3050.571Zm179.129-54.3a3.3,3.3,0,0,0,3.268-3.383,3.4,3.4,0,0,0-3.339-3.336,3.473,3.473,0,0,0-3.418,3.494A3.537,3.537,0,0,0,4233.764,2996.273Zm-46.242-182.123a3.45,3.45,0,0,0,3.233,3.437,3.577,3.577,0,0,0,3.43-3.5,3.374,3.374,0,0,0-3.389-3.281A3.218,3.218,0,0,0,4187.522,2814.15Zm-164.4-75.437a3.131,3.131,0,0,0-3.078-3.484,3.263,3.263,0,0,0-3.494,3.335,3.5,3.5,0,0,0,3.239,3.433A3.353,3.353,0,0,0,4023.124,2738.714Zm-95.512,270.416a3.26,3.26,0,0,0,3.332-3.291,3.45,3.45,0,0,0-3.327-3.377,3.506,3.506,0,0,0-3.417,3.469A3.283,3.283,0,0,0,3927.611,3009.13Zm136.925,1.071a3.134,3.134,0,0,0-2.97-3.57,3.367,3.367,0,1,0-.459,6.718A3.161,3.161,0,0,0,4064.536,3010.2Zm-61.057,21.133a3.323,3.323,0,0,0-3.307-3.315,3.471,3.471,0,0,0-3.355,3.345,3.355,3.355,0,0,0,3.48,3.339A3.114,3.114,0,0,0,4003.479,3031.334Zm56.978-382.175a3.129,3.129,0,0,0-3.394,3.121,3.229,3.229,0,0,0,3.278,3.478,3.323,3.323,0,0,0,3.4-3.261A3.237,3.237,0,0,0,4060.457,2649.159Zm288.274,172.091a3.341,3.341,0,0,0-3.257,3.375,3.354,3.354,0,0,0,6.708-.019A3.243,3.243,0,0,0,4348.731,2821.25Zm-310.792,160.925a3.5,3.5,0,0,0,3.331-3.364,3.277,3.277,0,0,0-3.2-3.438,3.437,3.437,0,0,0-3.485,3.4A3.7,3.7,0,0,0,4037.939,2982.176Zm-17.31,29.358a3.507,3.507,0,0,0-3.148-3.521,3.787,3.787,0,0,0-3.463,3.509,3.606,3.606,0,0,0,3.346,3.375A3.336,3.336,0,0,0,4020.629,3011.534Zm280.961-36.639a3.225,3.225,0,0,0-3.393,3.354,3.349,3.349,0,0,0,3.348,3.314,3.218,3.218,0,0,0,3.219-3.38A2.957,2.957,0,0,0,4301.59,2974.895Zm-229.9-167.679a3.024,3.024,0,0,0,3.251,3.246,3.223,3.223,0,0,0,3.413-3.191,3.392,3.392,0,0,0-3.454-3.42A3.273,3.273,0,0,0,4071.69,2807.216Zm231.764,70.666a3.324,3.324,0,0,0-3.186-3.418,3.492,3.492,0,0,0-3.464,3.443,3.289,3.289,0,0,0,3.394,3.2A2.949,2.949,0,0,0,4303.454,2877.882Zm-223.792,253.16a3.2,3.2,0,0,0,3.327-3.222,3.326,3.326,0,0,0-3.393-3.456,3.206,3.206,0,0,0-3.177,3.42A3.055,3.055,0,0,0,4079.662,3131.042Zm-162.907-386.3a3.125,3.125,0,0,0,3.154,3.4,3.35,3.35,0,1,0,.149-6.7A3.2,3.2,0,0,0,3916.755,2744.741Zm406.2,173.49a3.267,3.267,0,0,0-3.162-3.4,3.391,3.391,0,0,0-3.506,3.37,3.23,3.23,0,0,0,3.376,3.231A3.038,3.038,0,0,0,4322.952,2918.231Zm-138.571,181.016a3.292,3.292,0,0,0-3.392,3.2,3.505,3.505,0,0,0,3.452,3.459,3.326,3.326,0,0,0,3.19-3.422A2.961,2.961,0,0,0,4184.381,3099.247Zm-84.259-60.982a3.317,3.317,0,0,0-3.283,3.321,3.475,3.475,0,0,0,3.365,3.341,3.311,3.311,0,0,0,3.279-3.525A2.994,2.994,0,0,0,4100.122,3038.265Zm123.986-276.1a3.126,3.126,0,0,0,3.272,3.286,3.3,3.3,0,1,0-.007-6.591A3.152,3.152,0,0,0,4224.107,2762.16Zm-32.952,295.265a3.3,3.3,0,0,0,3.259,3.346,3.462,3.462,0,0,0,3.379-3.32,3.3,3.3,0,0,0-3.462-3.333A2.948,2.948,0,0,0,4191.155,3057.424ZM4060.8,3123.148a3.12,3.12,0,0,0-3.215-3.347,3.3,3.3,0,1,0-.1,6.6A3.167,3.167,0,0,0,4060.8,3123.148Zm-7.343-140.318a3.3,3.3,0,0,0-3.183-3.4,3.411,3.411,0,0,0-3.5,3.384,3.231,3.231,0,0,0,3.385,3.228A3.056,3.056,0,0,0,4053.461,2982.83Zm67.273-224.346a3.294,3.294,0,0,0-6.587.052,3.294,3.294,0,1,0,6.587-.052Zm7.833,327.559a3.245,3.245,0,0,0,3.438-3.171,3.393,3.393,0,0,0-3.448-3.434,3.265,3.265,0,0,0-3.218,3.348A2.971,2.971,0,0,0,4128.566,3086.043Zm196.88-98.394a3.016,3.016,0,0,0-3.35-3.154,3.283,3.283,0,0,0-3.279,3.369,3.365,3.365,0,0,0,3.494,3.216A3.136,3.136,0,0,0,4325.447,2987.649Zm14.938-42a3.364,3.364,0,0,0-3.282,3.335,3.507,3.507,0,0,0,3.341,3.365,3.256,3.256,0,0,0,3.291-3.519A3.059,3.059,0,0,0,4340.385,2945.645Zm-166.153-279.762a3,3,0,0,0-3.206-3.306,3.275,3.275,0,0,0-3.429,3.232,3.375,3.375,0,0,0,3.354,3.364A3.16,3.16,0,0,0,4174.232,2665.883Zm-265.916,299.463a3.368,3.368,0,0,0-3.27-3.174,3.328,3.328,0,0,0-3.322,3.357,3.483,3.483,0,0,0,3.388,3.289A3.423,3.423,0,0,0,3908.316,2965.346Zm179.995,140.173a3.266,3.266,0,0,0,3.364-3.218,3.4,3.4,0,0,0-3.29-3.4,3.259,3.259,0,0,0-3.339,3.438A2.93,2.93,0,0,0,4088.311,3105.519Zm167.436-199.346a3.275,3.275,0,0,0,3.146,3.472,3.342,3.342,0,0,0,3.358-3.312,3.256,3.256,0,0,0-3.2-3.375A3.037,3.037,0,0,0,4255.746,2906.173Zm-114.807,16.582.072-.063h-56.466v.063Zm-57.256-1.746.04.039v-55.632h-.04Zm58.936.02.054,0v-54.8h-.054Zm-29.937-16.866c3.548.167,5.157-1.15,4.86-3.654-.043-.36-.428-.679-.655-1.018-.26.32-.734.634-.743.961-.04,1.508-.752,2.153-2.232,2.3C4113.521,2902.785,4113.2,2903.54,4112.682,2904.163Zm2.389-9.331c-3.937.074-5.137,1.5-4.5,5.122.467-.526.969-.828,1.006-1.179.156-1.473.7-2.395,2.356-2.458C4114.244,2896.3,4114.528,2895.568,4115.071,2894.832Zm17.362,29.871-1.957,1.341c.552.354,1.112,1,1.653.989.754-.023,2.188.593,2.084-1C4134.185,2925.6,4133.178,2925.232,4132.433,2924.7Zm-24.238.6c-1.392,0-2.541-.045-3.673.069a7.018,7.018,0,0,0-.21,1.633C4105.8,2926.71,4107.4,2927.819,4108.2,2925.3Zm12.31,1.813.671-.6c-.42-.462-.828-1.292-1.262-1.307a4.24,4.24,0,0,0-2.3.68C4117.792,2928.115,4119.583,2926.5,4120.5,2927.115Zm-56.363-29.409a27.284,27.284,0,0,0,.046,3.444c.047.321.626.563.962.841a17.733,17.733,0,0,0,.541-2.943C4065.7,2898.735,4064.971,2898.4,4064.142,2897.706Zm40.313-52.431-.442.476c.438.376.869,1.057,1.315,1.067,1.062.024,2.516.438,2.782-1.543Zm30.123.044h-4.2c.519,2.041,2.024,1.508,3.166,1.49C4133.857,2846.8,4134.158,2845.952,4134.578,2845.319Zm10.052,52.461v4.294c2.074-.407,1.365-1.916,1.418-2.96C4146.066,2898.771,4145.307,2898.389,4144.63,2897.78Zm-78.277-9.165c-1.413-1.081.437-3.068-2.027-3.642v3.735Zm54.607-43.374h-3.4c-.217,1.41.419,1.7,1.592,1.653C4120.218,2846.849,4121.26,2847,4120.96,2845.242Zm-55.19,26.673c-.639.2-1.457.313-1.475.5a13.03,13.03,0,0,0,.12,2.934,8.709,8.709,0,0,0,1.355.009Zm78.768,13.1v4.208c.759-.626,1.53-.98,1.518-1.306C4146.019,2886.871,4146.556,2885.4,4144.539,2885.019Zm-.057-9.653c2.19.4,1.65-1.155,1.56-2.108-.049-.511-.7-.963-1.084-1.442l-.476.413Z" transform="translate(0)" fill="#fff"/>
    <path id="Path_695" data-name="Path 695" d="M3879.258,3206.53a4.439,4.439,0,0,1-.389-.93,3.2,3.2,0,0,1-.091-1.669c.109-.247.966-.282,1.463-.222a9.806,9.806,0,0,1,8.826,9.864c.014,1.212,0,2.426,0,3.869h2.058c15.576,0,31.154.039,46.73-.047a5.924,5.924,0,0,1,4.742,2.037q4.985,5.247,10.233,10.24a4.749,4.749,0,0,0,2.931,1.2c6.432.1,12.878.27,19.3-.055,3.21-.163,4.424,1.545,5.765,4.035h-3.267c1-1.236.633-2.26-.672-2.608-2.012-.536-2.713.963-3.33,2.85-2.783,0-5.658-.086-8.524.05a4.355,4.355,0,0,0-2.644,1.082c-7.082,6.988-14.084,14.055-21.124,21.086a4.6,4.6,0,0,1-3.706,1.642c-2.9-.152-6.12-.735-8.63.283-2.4.972-4.061,3.754-6.048,5.739q-7.176,7.166-14.351,14.331c-.915.914-1.808,1.776-3.293,1.513-5-.882-8.815.775-12.033,4.811-2.563,3.215-5.787,5.911-8.771,8.782-.993.955-.619,1.806-.218,2.836a5.294,5.294,0,0,1-3.357,7.286,5.471,5.471,0,0,1-6.858-4,5.286,5.286,0,0,1,6.028-6.5,2.817,2.817,0,0,0,2.984-.97c4.318-4.392,8.722-8.7,13.038-13.092a4.187,4.187,0,0,1,3.559-1.465c1.683.129,3.4-.1,5.074.058,2.192.2,2.9-1.418,4.508-3.018h-6.243c-5.959,0-11.921.055-17.878-.054a5.971,5.971,0,0,1-3.009-1.175,11.427,11.427,0,0,1-2.555-2.539c-1.3-1.72-2.591-2.437-4.883-1.488-2.149.89-4.813-.734-5.98-3.039a5.521,5.521,0,0,1,1.432-6.271,5.632,5.632,0,0,1,6.585-.58,6.017,6.017,0,0,1,2.328,6.028,3.525,3.525,0,0,0,.589,2.423c2.615,3.827,6.152,5.135,10.883,4.805,6.47-.451,13-.1,19.5-.128a2.89,2.89,0,0,0,1.835-.486c4.672-4.494,9.284-9.053,13.911-13.6l-.239-.548h-3.114c-5.417,0-10.838.08-16.252-.046a3.117,3.117,0,0,0-3.389,2.01,7.8,7.8,0,0,1-8.9,3.951,8.269,8.269,0,0,1-5.954-8.427,8.445,8.445,0,0,1,6.092-7.112,7.849,7.849,0,0,1,8.537,3.615,3.2,3.2,0,0,0,3.338,1.9c10.091-.069,20.182,0,30.272-.094a5.038,5.038,0,0,0,3.112-1.339c3.219-3.077,6.283-6.315,9.712-9.808h-4.061c-4,0-7.993.062-11.987-.032a3.1,3.1,0,0,0-3.36,1.816,5.132,5.132,0,0,1-6.422,2.317,5.728,5.728,0,0,1-3.475-6.553c.656-2.429,3.379-4.567,5.819-3.975a7.914,7.914,0,0,1,4.149,2.764,3.325,3.325,0,0,0,3.079,1.635c5.89-.042,11.781.034,17.671.008a2.455,2.455,0,0,0,1.505-.694c1.828-1.757,3.592-3.58,5.41-5.411-5.08.651-7.64-3.077-10.625-6-2.241-2.193-4.312-4.566-6.615-6.69a4.885,4.885,0,0,0-3.01-1.2q-24.483-.109-48.965,0a5.966,5.966,0,0,0-3.27,1.184c-5.312,3.934-13.326,2.315-16.012-3.7-1.017-2.276-.773-5.115-1.1-7.677l2.941.376a7.192,7.192,0,0,0,.167,1.638,24.972,24.972,0,0,1,1.025,2.38,6.73,6.73,0,1,0,12.68-4.4C3883.442,3208.952,3881.354,3207.743,3879.258,3206.53Zm16.624,54.339a3.8,3.8,0,1,0-.169-7.6,3.8,3.8,0,0,0,.169,7.6Zm-16.56,41.9a3.828,3.828,0,0,0,3.429-3.413,3.462,3.462,0,0,0-6.922.07A3.831,3.831,0,0,0,3879.322,3302.771Zm-2.41-37.7a3.377,3.377,0,0,0-3.176-3.477,3.715,3.715,0,0,0-3.459,3.506,3.8,3.8,0,0,0,3.386,3.392A3.461,3.461,0,0,0,3876.912,3265.075Zm47.974-25.823a3.166,3.166,0,0,0-3.24,3.335,3.353,3.353,0,0,0,3.412,3.266,3.234,3.234,0,0,0,3.166-3.433A3.027,3.027,0,0,0,3924.886,3239.252Z" transform="translate(-0.207 -332.768)" fill="#fff"/>
    <path id="Path_696" data-name="Path 696" d="M4229.561,2763.885c.1.327.193.653.285.974.1.467.211.939.318,1.412-.565-.069-1.338.077-1.665-.239-4.212-4.062-8.4-8.151-12.478-12.346a4.211,4.211,0,0,1-.659-2.653c-.062-4.94.035-9.883-.089-14.821a4.966,4.966,0,0,0-1.2-2.991c-2.172-2.354-4.5-4.576-6.868-6.732a2.529,2.529,0,0,0-2.18-.565c-4.206,2.186-10.116-.518-12.083-4.762a9.436,9.436,0,0,1,14.772-11.073,9.251,9.251,0,0,1,2.436,10.677,2.345,2.345,0,0,0,.561,3.3c2.467,2.28,4.751,4.755,7.179,7.08a4.623,4.623,0,0,1,1.555,3.728c-.1,4.938-.1,9.883.02,14.821a4.921,4.921,0,0,0,1.239,2.938c2.553,2.764,5.234,5.413,7.942,8.028A2.691,2.691,0,0,1,4229.561,2763.885Zm-33.343-46.778a5.29,5.29,0,1,0,10.579.092,5.145,5.145,0,0,0-5.262-5.2A5.091,5.091,0,0,0,4196.217,2717.106Z" transform="translate(-192.783 -38.444)" fill="#fff"/>
    <path id="Path_697" data-name="Path 697" d="M4926.173,3500.14a9.428,9.428,0,0,1-5.917,8.412,9.244,9.244,0,0,1-9.988-2.918,8.734,8.734,0,0,1-.461-10.376c.8-1.134.691-1.719-.325-2.681-3.374-3.193-6.584-6.561-9.916-9.8a3.513,3.513,0,0,0-2.029-.953c-1.22-.084-1.645-.8-1.423-1.706a2.323,2.323,0,0,1,1.453-1.428,3.847,3.847,0,0,1,3.812,1.294c3.229,3.35,6.65,6.518,9.8,9.938a4.489,4.489,0,0,0,4.711,1.548A8.778,8.778,0,0,1,4926.173,3500.14Zm-14.669-.089c-.278,3.629,2.864,5.78,5.6,5.96,3.024.2,5.967-2.837,5.943-5.931a6.087,6.087,0,0,0-5.813-5.853C4914.485,3494.3,4911.256,3496.564,4911.5,3500.051Z" transform="translate(-610.611 -495.935)" fill="#fff"/>
    <path id="Path_698" data-name="Path 698" d="M4626.724,3453.87q-5.908-5.755-11.785-11.481c-2.941-2.864-3.518-4.019-3.729-7.8.766.638,1.383,1.079,1.914,1.608q7.063,7.048,14.089,14.132a2.308,2.308,0,0,0,3.071.685c4.893-2.065,10.012-.046,11.82,4.846,1.611,4.359.381,8.991-4.771,11.461a8.935,8.935,0,0,1-10.158-2.29C4624.541,3462.105,4624.241,3457.831,4626.724,3453.87Zm7.078-.578a5.818,5.818,0,1,0,.18,11.633,5.817,5.817,0,0,0-.18-11.633Z" transform="translate(-441.542 -469.82)" fill="#fff"/>
    <path id="Path_699" data-name="Path 699" d="M4835.327,3530.229c1.2,1.294,2.14,2.323,3.093,3.339,2.642,2.814,5.992,2.319,7.827-1.152,1.4-2.644.209-5.291-2.843-6.363-.751-.263-2.2-.246-1.5-1.475.438-.764,2.072-1.631,2.674-1.359a11.534,11.534,0,0,1,4.009,3.122c.5.612.086,1.981.086,3.406,1.648,1.621,1.719,1.664-.008,4.529a1.813,1.813,0,0,0,.355,2.686c3.423,3.333,6.708,6.811,10.191,10.078a5.578,5.578,0,0,0,3.347,1.306c3.987.156,7.987-.007,11.978.1a2.855,2.855,0,0,0,3.035-1.655,5.054,5.054,0,0,1,5.662-2.589,5.408,5.408,0,0,1,4.308,4.1,5.416,5.416,0,0,1-10.031,3.8c-.739-1.536-1.66-1.785-3.132-1.761-4.4.072-8.8.083-13.2-.021a4.292,4.292,0,0,1-2.667-1.032c-3.788-3.663-7.465-7.44-11.174-11.185a2.2,2.2,0,0,0-2.592-.7c-4.308,1.3-9.091-1.663-9.513-5.654A11.445,11.445,0,0,1,4835.327,3530.229Zm46.851,22.635a3.3,3.3,0,0,0,3.315-3.319,3.306,3.306,0,1,0-6.608-.013A3.26,3.26,0,0,0,4882.177,3552.864Z" transform="translate(-574.505 -522.397)" fill="#fff"/>
    <path id="Path_700" data-name="Path 700" d="M4805.64,3582.949c2.11-.169,4.239-.214,6.326-.532,4.9-.747,8.494.957,11.795,4.724,4.584,5.233,9.738,9.972,14.743,14.826a4.867,4.867,0,0,0,2.974,1.222c3.991.138,7.991.107,11.984.005a2.937,2.937,0,0,0,2.018-1.079c1.536-2.13,4.125-3.237,6.351-2.5a5.555,5.555,0,0,1-.637,10.73,5.442,5.442,0,0,1-5.93-3.49,1.882,1.882,0,0,0-2.074-1.384c-4.2.083-8.4.086-12.6-.013a3.911,3.911,0,0,1-2.42-1c-6.359-6.2-12.633-12.489-18.99-18.691a4,4,0,0,0-2.4-1.03c-2.635-.131-5.282.007-7.92-.078a21.537,21.537,0,0,1-3.211-.575C4805.646,3583.707,4805.644,3583.328,4805.64,3582.949Zm54.6,25.208a3.174,3.174,0,0,0,3.327-3.248,3.349,3.349,0,0,0-3.295-3.354,3.645,3.645,0,0,0-3.5,3.417A3.493,3.493,0,0,0,4860.236,3608.157Z" transform="translate(-556.944 -557.461)" fill="#fff"/>
    <path id="Path_701" data-name="Path 701" d="M4810.9,2905.83c-.263.345-.5.952-.795.987a11.6,11.6,0,0,1-3.239.031,5.8,5.8,0,0,0-5.937,2.488c-1.577,2.073-3.4,2.648-5.749,1.362-.235-.128-.677.1-1.015.191-.443.116-.925.451-1.311.359-5.126-1.22-8.254,1.793-11.259,5.175a33.149,33.149,0,0,1-4.08,4.141,6.074,6.074,0,0,0-2.4,5.764c.2,2.691.078,5.408.013,8.113a3.261,3.261,0,0,1-.676,1.529c-.065.1-.81-.028-.858-.175a6.141,6.141,0,0,1-.24-1.673,50.781,50.781,0,0,0-.195-5.769c-.693-4.557.851-7.989,4.408-10.881,2.593-2.109,4.75-4.749,7.24-7a5.221,5.221,0,0,1,2.991-1.222c2.832-.165,5.687.063,8.516-.12a5.345,5.345,0,0,0,3.131-1.324c4.547-4.377,8.968-8.885,13.441-13.339.424-.422.914-.777,1.427-1.208.925.816,1.464,1.426.252,2.456a49.855,49.855,0,0,0-3.519,3.625,5.788,5.788,0,0,0,5.891.675c1.184-.489,2.861.145,4.3.375a16.56,16.56,0,0,1,2.322.714l-.056-.055c-3.337.127-6.673.357-10.01.35-2.895-.007-5.708-.087-7.172,2.878l4.623,1.62Z" transform="translate(-537.571 -148.518)" fill="#fff"/>
    <path id="Path_702" data-name="Path 702" d="M4715.132,3639.679c2.207,2.148,4.456,4.254,6.605,6.459,1.229,1.26,2.8,2.366,2.554,4.554-.035.306.9.894,1.466,1.064,3.706,1.107,6.874,4.814,5.985,10.3a8.635,8.635,0,0,1-8.276,6.933c-4.976.1-8.362-2.752-9.2-7.751-.682-4.076,2.018-8.134,6.317-9.492,1.613-.51,1.845-1.649.729-3.054-2.124-2.675-4.194-5.393-6.272-8.105a2.131,2.131,0,0,1-.216-.677Zm13.771,20.62a6.076,6.076,0,0,0-5.67-5.985,6.258,6.258,0,0,0-6.081,5.882,6.053,6.053,0,0,0,5.85,5.787A5.846,5.846,0,0,0,4728.9,3660.3Z" transform="translate(-502.648 -591.552)" fill="#fff"/>
    <path id="Path_703" data-name="Path 703" d="M4866.25,2900.539l.045.066a23.251,23.251,0,0,1,4.228-1.025c2.844-.164,5.707-.131,8.556-.021a4.336,4.336,0,0,0,3.546-1.493c2.461-2.559,5.143-4.921,7.45-7.609,1.376-1.6,2.931-1.669,4.675-1.553,1.485.1,2.5-.033,3.225-1.766a4.99,4.99,0,0,1,5.962-2.6,5.387,5.387,0,0,1,4.1,5.077,5.516,5.516,0,0,1-3.564,5.354,5.709,5.709,0,0,1-6.543-2.388,4.166,4.166,0,0,0-6.372-.625q-4.181,4.172-8.365,8.341a6.515,6.515,0,0,1-6.47.876,1.647,1.647,0,0,0-1.205-.253C4872.351,2902.406,4869.319,2901.1,4866.25,2900.539Zm36.419-14.08a3.356,3.356,0,0,0-.143,6.709,3.538,3.538,0,0,0,3.521-3.4A3.434,3.434,0,0,0,4902.669,2886.459Z" transform="translate(-592.919 -143.227)" fill="#fff"/>
    <path id="Path_704" data-name="Path 704" d="M4485.174,2928.21c.167-.848.281-1.712.529-2.535a1.854,1.854,0,0,1,.754-.924c4.142-2.628,4.921-6.489,4.548-11.078-.327-4.026-.068-8.1-.068-12.094-4.1-1.812-5.515-5.933-3.124-8.812a5.442,5.442,0,0,1,9.72,2.957,5.079,5.079,0,0,1-3.067,5.24,1.828,1.828,0,0,0-1.272,2.086c.015,5.343.082,10.688-.06,16.027a6.066,6.066,0,0,1-1.356,3.348c-1.778,2.22-3.787,4.255-5.7,6.364ZM4495.567,2896a3.453,3.453,0,1,0-3.315,3.449A3.691,3.691,0,0,0,4495.567,2896Z" transform="translate(-366.734 -146.982)" fill="#fff"/>
    <path id="Path_705" data-name="Path 705" d="M4904.634,2876.823c2.722-2.569,5.135-4.961,7.685-7.2a2.077,2.077,0,0,0,.562-2.75,5.185,5.185,0,0,1,2.373-6.9,5.333,5.333,0,0,1,6.716,1.353,5.625,5.625,0,0,1,.447,6.4,5.87,5.87,0,0,1-5.955,2.394,2.918,2.918,0,0,0-2.228.577c-2.08,1.884-4.093,3.854-5.981,5.929C4907.29,2877.692,4906.424,2877.8,4904.634,2876.823Zm13.186-8.777a3.227,3.227,0,0,0,3.325-3.273,3.487,3.487,0,0,0-3.329-3.365,3.71,3.71,0,0,0-3.483,3.457A3.486,3.486,0,0,0,4917.82,2868.046Z" transform="translate(-615.702 -128.364)" fill="#fff"/>
    <path id="Path_706" data-name="Path 706" d="M4141.244,3242.336,4138.97,3241a28.608,28.608,0,0,1-3.365.807c-1.136.125-2.325-.12-3.436.089a3.047,3.047,0,0,0-1.913,1.254,5.644,5.644,0,0,1-6.678,2.847,5.558,5.558,0,0,1-3.709-5.241,5.5,5.5,0,0,1,4.422-5.281,5.573,5.573,0,0,1,5.972,3.076,2.784,2.784,0,0,0,1.911,1.254c2.253.159,4.547-.116,6.779.153.978.118,1.846,1.149,2.765,1.765Zm-15.779-4.861a3.551,3.551,0,0,0-3.61,3.289,3.46,3.46,0,0,0,6.915.108A3.587,3.587,0,0,0,4125.465,3237.475Z" transform="translate(-149.908 -351.571)" fill="#fff"/>
    <path id="Path_707" data-name="Path 707" d="M4178.992,3516.841l-1.87,1.436c-.656-1.568-.942-3.293-1.922-4.406-3.243-3.677-6.481-3.1-9.341.491-1.082,1.357-1.938,2.894-2.9,4.349-1.83-4,.179-7.419,4.091-9.326a8.567,8.567,0,0,1,7.266-.093c.672.275,1.524.1,2.2.377.634.257,1.5.746,1.624,1.28a8.392,8.392,0,0,1-.16,3.011c-.034.223-.53.377-.963.659Z" transform="translate(-175.081 -513.709)" fill="#fff"/>
    <path id="Path_708" data-name="Path 708" d="M4884.464,2879.359c.132-1.118.27-2.01.335-2.907a4,4,0,0,0-2.1-4.061,2.5,2.5,0,0,0-3.455.576c-.682.911-1.333,2.433-1.017,3.345.356,1.028,1.744,1.782,2.816,2.439.476.291,1.277.049,2.019.049.073,1.554-.569,2.153-1.907,2.123-2.134-.048-4.791-2.432-5.212-4.693a5.435,5.435,0,0,1,3.214-5.7,5.366,5.366,0,0,1,6.652,1.8,5.8,5.8,0,0,1-.467,6.756C4885.268,2879.172,4885.1,2879.17,4884.464,2879.359Z" transform="translate(-598.632 -134.743)" fill="#fff"/>
    <path id="Path_709" data-name="Path 709" d="M4692.244,3655.887c.125,1.03.292,1.827.3,2.626.031,2.157,1.508,3.034,3.215,3.64,1.572.558,2.469-.569,3.4-1.56.505-.538,1.077-1.014,1.828-1.713a4.8,4.8,0,0,1-3.665,4.976c-2.675.527-5.57-.832-6.426-3.016C4690.088,3658.771,4690.54,3656.867,4692.244,3655.887Z" transform="translate(-488.608 -601.171)" fill="#fff"/>
    <path id="Path_710" data-name="Path 710" d="M4209.441,3496.237a11.343,11.343,0,0,1-.817,1.089,48.756,48.756,0,0,1-3.76,3.68c-.424.348-1.775.359-1.918.1-.34-.623-.565-1.8-.208-2.223a43.852,43.852,0,0,1,4.243-4.125,1.113,1.113,0,0,1,1.029-.17A13.143,13.143,0,0,1,4209.441,3496.237Z" transform="translate(-198.988 -505.39)" fill="#fff"/>
  </g>
</svg>
