  <svg
              xmlns="http://www.w3.org/2000/svg"
              width="311.82"
              height="56.679"
              viewBox="0 0 311.82 56.679"
            >
              <g
                id="Group_207"
                data-name="Group 207"
                transform="translate(-141.73 -498.66)"
              >
                <g id="Group_205" data-name="Group 205" opacity="0.25">
                  <g id="Group_204" data-name="Group 204">
                    <path
                      id="Path_318"
                      data-name="Path 318"
                      d="M164.664,506.015v1.8a7.355,7.355,0,0,0,7.355,7.354h.327a7.355,7.355,0,0,0,7.354-7.354v-1.8a7.354,7.354,0,0,0-7.354-7.354h-.327A7.354,7.354,0,0,0,164.664,506.015ZM156.438,532.6V506.014a7.354,7.354,0,0,0-7.353-7.354h0a7.354,7.354,0,0,0-7.355,7.354V532.6a7.354,7.354,0,0,0,7.355,7.354h0A7.354,7.354,0,0,0,156.438,532.6Zm23.262,0v-1.8a7.355,7.355,0,0,0-7.354-7.355h-.327a7.355,7.355,0,0,0-7.355,7.355v1.8a7.354,7.354,0,0,0,7.355,7.354h.327A7.354,7.354,0,0,0,179.7,532.6Zm22.934,0V506.014a7.354,7.354,0,0,0-7.355-7.354h0a7.354,7.354,0,0,0-7.353,7.354V532.6a7.354,7.354,0,0,0,7.354,7.354h0A7.354,7.354,0,0,0,202.634,532.6Z"
                      fill="#fff"
                    />
                    <path
                      id="Path_319"
                      data-name="Path 319"
                      d="M236.3,539.952,232.1,528.4H219.412l-4.194,11.548h-8.771l14.927-41.291h8.771l14.925,41.291Zm-10.569-29.144-3.323,9.314h6.7Z"
                      fill="#fff"
                    />
                    <path
                      id="Path_320"
                      data-name="Path 320"
                      d="M247.794,539.952V498.661h12.367a11.943,11.943,0,0,1,4.821.979,12.3,12.3,0,0,1,3.921,2.669,12.871,12.871,0,0,1,2.643,3.95,12.453,12.453,0,0,1-.789,11.248,12.233,12.233,0,0,1-4.713,4.468l8.117,17.977h-9.044l-7.463-16.505H256.02v16.505Zm8.226-24.786h4.141a4,4,0,0,0,2.941-1.2,3.947,3.947,0,0,0,1.2-2.891,4.1,4.1,0,0,0-4.141-4.14H256.02Z"
                      fill="#fff"
                    />
                    <path
                      id="Path_321"
                      data-name="Path 321"
                      d="M277.156,539.952V498.661h11.529a19.863,19.863,0,0,1,7.995,1.631A20.9,20.9,0,0,1,307.666,511.3a20.467,20.467,0,0,1,0,16.013,20.874,20.874,0,0,1-10.986,11,19.8,19.8,0,0,1-7.995,1.635Zm8.226-8.281H288.7a12.235,12.235,0,0,0,4.821-.953,11.935,11.935,0,0,0,3.923-2.642,12.862,12.862,0,0,0,2.64-3.95,12.327,12.327,0,0,0,0-9.643,12.346,12.346,0,0,0-6.563-6.561,11.947,11.947,0,0,0-4.821-.984h-3.323Z"
                      fill="#fff"
                    />
                    <path
                      id="Path_322"
                      data-name="Path 322"
                      d="M339.694,539.952l-5.5-23.314-5.5,23.314h-8.5l-9.751-41.291h8.5l5.5,23.368,5.5-23.368h8.5l5.5,23.368,5.5-23.368h8.5l-9.751,41.291Z"
                      fill="#fff"
                    />
                    <path
                      id="Path_323"
                      data-name="Path 323"
                      d="M387.8,539.952,383.6,528.4H370.909l-4.194,11.548h-8.771l14.927-41.291h8.771l14.925,41.291Zm-10.569-29.144-3.323,9.314h6.7Z"
                      fill="#fff"
                    />
                    <path
                      id="Path_324"
                      data-name="Path 324"
                      d="M399.293,539.952V498.661H411.66a11.943,11.943,0,0,1,4.821.979,12.3,12.3,0,0,1,3.921,2.669,12.871,12.871,0,0,1,2.643,3.95,12.449,12.449,0,0,1-.79,11.248,12.223,12.223,0,0,1-4.712,4.468l8.117,17.977h-9.044l-7.463-16.505h-1.634v16.505Zm8.226-24.786h4.141a4,4,0,0,0,2.941-1.2,3.947,3.947,0,0,0,1.2-2.891,4.1,4.1,0,0,0-4.141-4.14h-4.141Z"
                      fill="#fff"
                    />
                    <path
                      id="Path_325"
                      data-name="Path 325"
                      d="M428.655,498.661H453.55v8.277H436.881v8.228H453.55v8.281H436.881v8.224H453.55v8.281H428.655Z"
                      fill="#fff"
                    />
                  </g>
                </g>
                <g id="Group_206" data-name="Group 206" opacity="0.25">
                  <path
                    id="Path_326"
                    data-name="Path 326"
                    d="M357.943,555.259v-9.382h3.184a4.828,4.828,0,0,1,1.963.37,3.987,3.987,0,0,1,1.4,1,4.246,4.246,0,0,1,.847,1.488,5.719,5.719,0,0,1,.284,1.816,5.59,5.59,0,0,1-.318,1.937,4.221,4.221,0,0,1-.9,1.48,4.055,4.055,0,0,1-1.413.951,4.878,4.878,0,0,1-1.858.337Zm6.753-4.7a4.858,4.858,0,0,0-.238-1.552,3.5,3.5,0,0,0-.7-1.223,3.1,3.1,0,0,0-1.116-.8,3.827,3.827,0,0,0-1.52-.285h-2.259v7.745h2.259a3.754,3.754,0,0,0,1.54-.3,3.134,3.134,0,0,0,1.117-.82,3.579,3.579,0,0,0,.681-1.229A4.957,4.957,0,0,0,364.7,550.554Z"
                    fill="#fff"
                  />
                  <path
                    id="Path_327"
                    data-name="Path 327"
                    d="M373.7,554.44v.819h-6.3v-9.382h6.183v.818h-5.258v3.384H372.9v.779h-4.585v3.582Z"
                    fill="#fff"
                  />
                  <path
                    id="Path_328"
                    data-name="Path 328"
                    d="M380.725,547.634a2.851,2.851,0,0,0-1.057-.727,3.864,3.864,0,0,0-1.507-.277,2.828,2.828,0,0,0-1.81.469,1.568,1.568,0,0,0-.569,1.275,1.4,1.4,0,0,0,.153.694,1.322,1.322,0,0,0,.469.469,3.3,3.3,0,0,0,.813.344q.495.146,1.169.29a12.828,12.828,0,0,1,1.355.357,3.905,3.905,0,0,1,1.024.5,2.058,2.058,0,0,1,.647.719,2.239,2.239,0,0,1,.225,1.058,2.377,2.377,0,0,1-.251,1.123,2.231,2.231,0,0,1-.7.793,3.1,3.1,0,0,1-1.07.469,5.738,5.738,0,0,1-1.361.153,5.6,5.6,0,0,1-3.767-1.362l.463-.753a3.742,3.742,0,0,0,.6.5,4.462,4.462,0,0,0,.78.416,5.031,5.031,0,0,0,.918.277,5.187,5.187,0,0,0,1.031.1,3.226,3.226,0,0,0,1.751-.4,1.355,1.355,0,0,0,.628-1.223,1.414,1.414,0,0,0-.178-.733,1.553,1.553,0,0,0-.536-.515,3.766,3.766,0,0,0-.885-.377c-.353-.1-.762-.212-1.229-.317q-.741-.171-1.295-.357a3.456,3.456,0,0,1-.939-.463,1.809,1.809,0,0,1-.574-.666,2.163,2.163,0,0,1-.191-.959,2.623,2.623,0,0,1,.244-1.156,2.28,2.28,0,0,1,.693-.846,3.283,3.283,0,0,1,1.057-.515,4.781,4.781,0,0,1,1.349-.179,4.61,4.61,0,0,1,1.671.284,4.5,4.5,0,0,1,1.328.8Z"
                    fill="#fff"
                  />
                  <path
                    id="Path_329"
                    data-name="Path 329"
                    d="M383.263,555.259v-9.382h.925v9.382Z"
                    fill="#fff"
                  />
                  <path
                    id="Path_330"
                    data-name="Path 330"
                    d="M393.318,553.885a3.971,3.971,0,0,1-3.012,1.44,3.779,3.779,0,0,1-1.751-.409,4.627,4.627,0,0,1-1.388-1.084,5.139,5.139,0,0,1-.919-1.526,4.816,4.816,0,0,1-.33-1.752,5.052,5.052,0,0,1,.324-1.8,4.816,4.816,0,0,1,.9-1.513,4.419,4.419,0,0,1,1.375-1.043,3.865,3.865,0,0,1,1.731-.391,4.868,4.868,0,0,1,1.255.152,3.836,3.836,0,0,1,1.011.424,3.187,3.187,0,0,1,.767.647,4.047,4.047,0,0,1,.548.826l-.714.475a3.05,3.05,0,0,0-1.2-1.282,3.41,3.41,0,0,0-1.679-.409,2.992,2.992,0,0,0-1.407.33,3.39,3.39,0,0,0-1.071.88,4.045,4.045,0,0,0-.68,1.255,4.535,4.535,0,0,0-.238,1.46,4.21,4.21,0,0,0,.271,1.507,4.027,4.027,0,0,0,.746,1.248,3.637,3.637,0,0,0,1.118.852,3.087,3.087,0,0,0,1.393.317,3.315,3.315,0,0,0,1.54-.376,4.552,4.552,0,0,0,1.407-1.2v-1.559h-2.087v-.714H394.1v4.612h-.78Z"
                    fill="#fff"
                  />
                  <path
                    id="Path_331"
                    data-name="Path 331"
                    d="M396.926,547.595v7.664H396v-9.382h.713l6.212,7.81v-7.8h.925v9.369h-.807Z"
                    fill="#fff"
                  />
                  <path
                    id="Path_332"
                    data-name="Path 332"
                    d="M416.972,545.877v9.382h-.912v-4.388H410.5v4.388h-.925v-9.382h.925v4.176h5.563v-4.176Z"
                    fill="#fff"
                  />
                  <path
                    id="Path_333"
                    data-name="Path 333"
                    d="M423.1,555.325a3.972,3.972,0,0,1-1.791-.4,4.413,4.413,0,0,1-1.393-1.071,4.819,4.819,0,0,1-.9-1.526,5.019,5.019,0,0,1-.318-1.757,4.885,4.885,0,0,1,.337-1.8,4.96,4.96,0,0,1,.932-1.521,4.506,4.506,0,0,1,1.4-1.049,3.959,3.959,0,0,1,1.745-.391,3.859,3.859,0,0,1,1.79.417,4.506,4.506,0,0,1,1.389,1.09,5.063,5.063,0,0,1,.891,1.526,4.941,4.941,0,0,1,.318,1.738,4.978,4.978,0,0,1-1.263,3.31,4.443,4.443,0,0,1-1.394,1.044A3.934,3.934,0,0,1,423.1,555.325Zm-3.476-4.757a4.352,4.352,0,0,0,.252,1.473,3.963,3.963,0,0,0,.713,1.255,3.5,3.5,0,0,0,1.1.873,3.059,3.059,0,0,0,1.414.323,3.02,3.02,0,0,0,1.44-.343,3.5,3.5,0,0,0,1.1-.9,4.117,4.117,0,0,0,.693-1.255,4.3,4.3,0,0,0-.012-2.9,4.05,4.05,0,0,0-.721-1.25,3.561,3.561,0,0,0-1.1-.865,3.038,3.038,0,0,0-1.4-.323,3.075,3.075,0,0,0-1.44.336,3.43,3.43,0,0,0-1.1.892,4.146,4.146,0,0,0-.694,1.256A4.3,4.3,0,0,0,419.628,550.568Z"
                    fill="#fff"
                  />
                  <path
                    id="Path_334"
                    data-name="Path 334"
                    d="M433.055,554.492a2.937,2.937,0,0,0,1.473-.336,2.676,2.676,0,0,0,.938-.885,3.593,3.593,0,0,0,.489-1.25,7.215,7.215,0,0,0,.139-1.413v-4.731h.925v4.731a7.467,7.467,0,0,1-.212,1.8,4.318,4.318,0,0,1-.68,1.5,3.363,3.363,0,0,1-1.223,1.03,4.01,4.01,0,0,1-1.836.383,3.948,3.948,0,0,1-1.87-.4,3.4,3.4,0,0,1-1.223-1.064,4.329,4.329,0,0,1-.661-1.506,7.626,7.626,0,0,1-.2-1.744v-4.731h.912v4.731a7.061,7.061,0,0,0,.145,1.44,3.586,3.586,0,0,0,.495,1.242,2.647,2.647,0,0,0,.932.872A2.9,2.9,0,0,0,433.055,554.492Z"
                    fill="#fff"
                  />
                  <path
                    id="Path_335"
                    data-name="Path 335"
                    d="M444.709,547.634a2.843,2.843,0,0,0-1.057-.727,3.864,3.864,0,0,0-1.507-.277,2.828,2.828,0,0,0-1.81.469,1.568,1.568,0,0,0-.569,1.275,1.4,1.4,0,0,0,.153.694,1.322,1.322,0,0,0,.469.469,3.3,3.3,0,0,0,.813.344q.5.146,1.169.29a12.828,12.828,0,0,1,1.355.357,3.9,3.9,0,0,1,1.024.5,2.048,2.048,0,0,1,.647.719,2.24,2.24,0,0,1,.225,1.058,2.377,2.377,0,0,1-.251,1.123,2.222,2.222,0,0,1-.7.793,3.1,3.1,0,0,1-1.07.469,5.738,5.738,0,0,1-1.361.153,5.592,5.592,0,0,1-3.766-1.362l.462-.753a3.743,3.743,0,0,0,.6.5,4.5,4.5,0,0,0,.78.416,5.03,5.03,0,0,0,.918.277,5.19,5.19,0,0,0,1.032.1,3.224,3.224,0,0,0,1.75-.4,1.355,1.355,0,0,0,.628-1.223,1.414,1.414,0,0,0-.178-.733,1.545,1.545,0,0,0-.536-.515,3.765,3.765,0,0,0-.885-.377c-.352-.1-.762-.212-1.229-.317q-.74-.171-1.3-.357a3.456,3.456,0,0,1-.939-.463,1.819,1.819,0,0,1-.574-.666,2.163,2.163,0,0,1-.191-.959,2.623,2.623,0,0,1,.244-1.156,2.282,2.282,0,0,1,.694-.846,3.273,3.273,0,0,1,1.057-.515,4.774,4.774,0,0,1,1.348-.179,4.61,4.61,0,0,1,1.671.284,4.513,4.513,0,0,1,1.329.8Z"
                    fill="#fff"
                  />
                  <path
                    id="Path_336"
                    data-name="Path 336"
                    d="M453.55,554.44v.819h-6.3v-9.382h6.184v.818h-5.259v3.384h4.586v.779h-4.586v3.582Z"
                    fill="#fff"
                  />
                </g>
              </g>
            </svg>