<svg xmlns="http://www.w3.org/2000/svg" width="707.64" height="452.75" viewBox="0 0 293.377 191.687">
  <g id="Group_581" data-name="Group 581" transform="translate(13524.401 -6968.942)">
    <g id="Group_349" data-name="Group 349" transform="translate(-13524.401 6968.942)" opacity="0.781">
      <path id="Path_711" data-name="Path 711" d="M6978.114,3132.98c-.824,2.639-3.015,4.163-6.213,4.313-2.845.133-6.164-.836-7.272-4.256-5.111,1.036-9.085,3.594-11.31,8.462a23.532,23.532,0,0,0-1.714,12.242c.262,2.73,1.366,5.16,4.015,6.5a7,7,0,0,0,6.934.1c3.506-2.043,7.27-2.268,11.148-2.067a.668.668,0,0,1,.528.4,24.939,24.939,0,0,0-13.66,2.979c1.413,1.886,3.487,2.6,5.5,3.415l-.088.258a3.284,3.284,0,0,1-.982-.1,12.141,12.141,0,0,1-4.846-3.1,1.28,1.28,0,0,0-.819-.4,8.4,8.4,0,0,1-7.086-3.928c-.41-.648-1.5-.922-2.33-1.237-1.273-.485-2.442-1.284-3.948-1.111a1.446,1.446,0,0,1-1.486-1.167,1.95,1.95,0,0,1,.54-2.22,5.932,5.932,0,0,1,.918-.7,1.831,1.831,0,0,0,1.135-2.416c-.074-.23.259-.693.52-.911,1.068-.892,2.21-1.7,3.261-2.607a3.147,3.147,0,0,0,.959-1.382,15.651,15.651,0,0,1,5.443-8.415,16.251,16.251,0,0,1,6.4-2.91c.83-.187,1.312-.518,1.423-1.436a13.777,13.777,0,0,1,.63-2.348,1.439,1.439,0,0,1,1.516-1.11c.861-.008,2.04.183,2.494-.284.48-.493.289-1.657.358-2.531.159-2.015.257-4.035.466-6.044.083-.81-.565-.883-.958-1.168a2.757,2.757,0,0,1-.062-4.546,3.417,3.417,0,0,1,3.941-.2,2.787,2.787,0,0,1,1.546,2.713,3.152,3.152,0,0,1-1.716,2.439,1.176,1.176,0,0,0-.5.843c.136,2.572.366,5.139.492,7.71.042.859.36,1.173,1.187,1.088a2.44,2.44,0,0,1,1.162.029,2.322,2.322,0,0,1,1.16.916,17.637,17.637,0,0,1,.915,2.772,1.473,1.473,0,0,0,1.255,1.122,15.65,15.65,0,0,1,8.171,4.393,16.062,16.062,0,0,1,3.779,6.9,3.1,3.1,0,0,0,.931,1.373c1.091.961,2.275,1.814,3.369,2.771a1.3,1.3,0,0,1,.4,1.031,1.643,1.643,0,0,0,.966,2.041,5.054,5.054,0,0,1,1.024.735,1.936,1.936,0,0,1,.792,2.143,1.855,1.855,0,0,1-1.884,1.426c-2.1-.116-3.676,1.3-5.55,1.824a1.267,1.267,0,0,0-.61.592,7.077,7.077,0,0,1-5.185,3.544,3.383,3.383,0,0,0-2.06,1.111,10.054,10.054,0,0,1-4.514,2.728c-.4.126-.8.267-1.417.475l1.267,2.742c1.808.3,3.436.522,5.044.847a2.567,2.567,0,0,1,2.154,1.745c.051.162.523.3.782.267a3.4,3.4,0,0,1,3.893,2.035,1.481,1.481,0,0,0,.626.577,15.126,15.126,0,0,1,6.415,7.174,2.344,2.344,0,0,0,.29.385c.448-1.289.8-2.547,1.316-3.734a18.988,18.988,0,0,1,4.514-6.122,15.3,15.3,0,0,0,1.67-2.058c.091-.125-.081-.418-.07-.63a10.591,10.591,0,0,1,.228-2.858c.461-1.329,1.979-1.55,3.571-.707,1.939,1.027,2.157,2.621.553,4.132a4.756,4.756,0,0,1-.922.712,1.538,1.538,0,0,0-.907,1.238c-.051.36-.551.645-.815.989-.23.3-.576.622-.6.951-.256,4.256-2.431,7.42-5.622,10.014a2.094,2.094,0,0,0-.96,1.338,2.311,2.311,0,0,1-2.893,1.474c-2.206-1.125-4.72-1.608-6.651-3.319a12.478,12.478,0,0,1-2.916-3.812c-.059-.115-.123-.228-.191-.337-.008-.012-.058,0-.2.01.29,7.566.009,15.063-3.5,22.06,1.113.833,1.738,1.808,1.231,3.261-.111.32.166.776.3,1.3l1.33-1.42c.759,3,1.453,5.721,2.129,8.441.458,1.844-.128,3.612-.417,5.4s-.556,3.6-.747,5.414a2.15,2.15,0,0,0,.453,1.222c.407.624.942,1.164,1.345,1.789a3.631,3.631,0,0,1,.576,1.4c.094.659-.167,1.094-.993,1.068-1.663-.051-3.328-.014-4.992-.015a2.409,2.409,0,0,1-2.41-3.3c.779-1.584.351-2.887-.009-4.413a29.223,29.223,0,0,1-.458-11.554,6.375,6.375,0,0,0-.137-3.088.912.912,0,0,0-1.5-.58,12.527,12.527,0,0,1-11.224,1.165,10.838,10.838,0,0,1-1.91-.931c-.981-.566-1.459-.408-1.764.639-.136.466-.308.923-.438,1.39-.05.176-.1.494-.029.539.8.482.569,1.287.556,1.946-.061,3.092-.136,6.187-.338,9.272a20.038,20.038,0,0,1-.8,3,2.9,2.9,0,0,0,.032,1.255c.121.532.419,1.024.534,1.557a2.359,2.359,0,0,1-2.517,3.1c-1.6,0-3.2,0-4.8,0-1.1,0-1.583-.761-1-1.738.523-.886,1.259-1.646,1.791-2.527a2.543,2.543,0,0,0,.37-1.522c-.32-2.383-.838-4.742-1.075-7.131a14.6,14.6,0,0,1,.211-4.359c.5-2.4,1.255-4.75,1.971-7.366l1.357,1.42c.128-.847.183-1.459.322-2.052a5.565,5.565,0,0,1,.588-1.78,1.094,1.094,0,0,0,.128-1.292,33.212,33.212,0,0,1-3.206-12.869c-.164-2.143-.187-4.3-.244-6.449a5.408,5.408,0,0,1,.206-1.128l.338.035c0,.4.008.8,0,1.195a48.087,48.087,0,0,0,1.8,15.072c1.123,3.706,2.838,7.112,6.267,9.294a11.21,11.21,0,0,0,7.654,1.583c5.356-.673,8.24-4.207,10.089-8.842,2.278-5.708,2.665-11.7,2.434-17.763-.061-1.594-.151-3.191-.34-4.774a1.782,1.782,0,0,0-.816-1.119,7.318,7.318,0,0,0-6.214-.413,1.9,1.9,0,0,0-.94.959c-.764,1.63-1.573,3.241-3.193,4.168a5.3,5.3,0,0,1-7.311-2.078c-.473-.8-.786-1.7-1.218-2.526a2.023,2.023,0,0,0-.653-.7c-.432-.292-.911-.517-1.37-.771q.062-.13.124-.26l1.41.448c-.021-.439-.041-.833-.059-1.228l.239-.082a5.311,5.311,0,0,1,.339.708,14.759,14.759,0,0,0,2.167,4.841,4.808,4.808,0,0,0,7.695-.3,14.985,14.985,0,0,0,2.365-7.125,4.264,4.264,0,0,0-.674-1.876,19.538,19.538,0,0,1-.912-1.827c-.22-.678-.587-.716-1.182-.616-.874.147-1.764.2-2.646.294q-.03-.21-.059-.419c.531-.076,1.06-.167,1.593-.226a13.88,13.88,0,0,0,7.3-2.646c.4-.316.8-.636,1.341-1.062-1.539-.6-3.078-.441-3.877-1.885.476.2.945.413,1.429.59a7.365,7.365,0,0,0,10.127-5.764c.185-1.009.334-2.024.5-3.036l.328.014c-.033.76-.019,1.526-.113,2.278s-.3,1.515-.458,2.273a2.788,2.788,0,0,0,3.2-2.387c.25-1.565.583-3.118.823-4.685a1.057,1.057,0,0,0-.36-.812c-1.272-1.027-2.617-1.966-3.853-3.032a3,3,0,0,1-.654-1.435,14.231,14.231,0,0,0-10.4-10.494C6979.349,3133.348,6978.761,3133.17,6978.114,3132.98Zm7.723,72.376a3.469,3.469,0,0,0-.394.357,10.156,10.156,0,0,1-4.022,3.438c-.265.118-.465.694-.46,1.055.042,2.864.021,5.738.27,8.587a17.211,17.211,0,0,0,1.207,4.478c.359.947,1.52,1.25,2.695,1.071,1.014-.154,1.378-.791,1.512-1.725.328-2.282.675-4.562,1.062-6.834C6988.333,3212.1,6986.753,3208.854,6985.837,3205.357Zm-26.862.057c-.179.2-.3.278-.338.387-.371,1.173-.742,2.348-1.083,3.53a15.184,15.184,0,0,0-.705,6.255c.334,2.508.765,5.005,1.2,7.5a1.579,1.579,0,0,0,.6.927c.936.649,3.041.589,3.661-.985a13.786,13.786,0,0,0,.667-1.924,36.725,36.725,0,0,0,.594-11.354.927.927,0,0,0-.45-.662A9.47,9.47,0,0,1,6958.975,3205.414Zm12.393-77.089h-1.957a11.845,11.845,0,0,0-2.05.032,1.7,1.7,0,0,0-1.083.725,9.376,9.376,0,0,0-.571,1.852c-.72,2.429-.589,3.19,1.346,4.534a7.625,7.625,0,0,0,8.309.289c1.721-.894,2.385-2.363,1.953-3.831-.257-.871-.573-1.725-.827-2.6a1.216,1.216,0,0,0-1.4-1.021C6973.849,3128.373,6972.607,3128.325,6971.367,3128.325Zm19.094,46.012a3.177,3.177,0,0,1-2.785,2.432c-.672.084-.663.392-.5.942a10.186,10.186,0,0,0,5.433,6.261,21.129,21.129,0,0,0,2.312.861c-.1-1.784.9-2.348,2.255-2.653A14.661,14.661,0,0,0,6990.461,3174.336Zm9.138,9.137a13.865,13.865,0,0,0,5.868-8.408c.23-1.1.63-2.412-1-2.954-.093-.03-.154-.161-.282-.3-3.009,2.772-5.209,5.913-5.861,9.961a1.241,1.241,0,0,0,.313.83A7.984,7.984,0,0,0,6999.6,3183.474Zm-48.268-37.685c-1.24.962-2.3,1.74-3.3,2.594a1.287,1.287,0,0,0-.356,1c.27,1.9.6,3.789.936,5.679a.684.684,0,0,0,.283.463c.838.367,1.694.692,2.826,1.143C6950.555,3152.95,6950.895,3149.469,6951.332,3145.789Zm27.89,23.575c-.253,1.453-.493,2.837-.725,4.174a24.691,24.691,0,0,1,3.6-.29,23.931,23.931,0,0,1,3.457.7C6985.643,3170.339,6984.162,3169.236,6979.222,3169.364Zm-16.955,54.724c-1.2,1-2.174,1.06-4.516.25-.461,1.35-2.1,2.048-2.115,3.841,2.081,0,4.063.008,6.044-.014a1.045,1.045,0,0,0,.569-.305C6963.465,3226.8,6963.482,3225.658,6962.267,3224.088Zm19.938-.029c-.225.469-.42.841-.585,1.226a2.077,2.077,0,0,0,1.972,2.943c1.417-.147,2.863-.02,4.3-.043a5.2,5.2,0,0,0,1-.209,3.517,3.517,0,0,0-.265-1.075,21.191,21.191,0,0,0-1.595-2.183.829.829,0,0,0-.748-.17A3.806,3.806,0,0,1,6982.206,3224.06Zm-7.757-108.449a2.806,2.806,0,1,0-2.719,2.354A2.6,2.6,0,0,0,6974.449,3115.611Zm-1.585,12.2c-.2-3-.378-5.851-.612-8.7-.018-.217-.442-.4-.677-.6-.2.28-.54.547-.565.841q-.33,3.89-.541,7.79a.808.808,0,0,0,.464.636A14.673,14.673,0,0,0,6972.863,3127.812Zm32.678,40c.018,1.429.8,2.348,1.967,2.32a3.562,3.562,0,0,0,2.453-2.611c-.03-.939-1.568-2.034-2.861-2.036C7006.02,3165.48,7005.521,3166.225,7005.541,3167.81Zm-19.554,4.34c.171,1.18.31,2.308.514,3.423a1.041,1.041,0,0,0,.484.723,2.7,2.7,0,0,0,2.77-1.794,1.88,1.88,0,0,0-.78-2.06A2.622,2.622,0,0,0,6985.987,3172.149Zm11.245,10.7c-1.077.013-1.782.61-1.761,1.49a1.715,1.715,0,0,0,1.824,1.483,1.694,1.694,0,0,0,1.822-1.592C6999.084,3183.373,6998.348,3182.833,6997.232,3182.847Zm-17.308,22.527a14.872,14.872,0,0,0,2.68-.2,1.978,1.978,0,0,0,1.021-3.236c-.181-.189-.805-.291-.908-.167C6981.813,3202.852,6980.981,3203.99,6979.925,3205.374Zm-32.581-54.334a10.961,10.961,0,0,0-1.839,1.367,1.934,1.934,0,0,0-.5,1.5,1.985,1.985,0,0,0,1.205,1.032,6.425,6.425,0,0,0,1.867.04C6947.83,3153.645,6947.6,3152.421,6947.344,3151.04Zm47.4,3.914a11.568,11.568,0,0,0,1.988-.021,1.314,1.314,0,0,0,.959-2.05,21.154,21.154,0,0,0-2.3-1.956C6995.145,3152.42,6994.952,3153.621,6994.739,3154.953Zm-33.226,46.78a1.837,1.837,0,0,0-.346,2.728,2.511,2.511,0,0,0,3.185.619Zm-.976,3.261a1.294,1.294,0,0,0,.2,1.75c.415.358.807.742,1.24,1.076.747.576,1.028.482,1.3-.385a5.753,5.753,0,0,1,.162-.552c.251-.588.088-.848-.562-1.006A20.283,20.283,0,0,1,6960.538,3204.994Zm23.526.175-3.1,1.074c.209.63.419,1.261.624,1.876C6983.256,3208.043,6984.65,3206.292,6984.063,3205.169Zm21.917-35.422c-.579.587-1.159.908-1.264,1.344-.171.71.475,1.006,1.094,1.047.667.045,1.346-.223,1.3-.956C7007.078,3170.762,7006.5,3170.378,7005.98,3169.747Z" transform="translate(-6940.861 -3112.513)" fill="#fff"/>
      <path id="Path_712" data-name="Path 712" d="M7044.671,3266.115a9.054,9.054,0,0,0,6.572-1.074l.161.222c-.154.175-.273.415-.466.516a10,10,0,0,1-13.021-3.121,7.981,7.981,0,0,1,2.378-10.885,10.08,10.08,0,0,1,13.318,1.559,7.883,7.883,0,0,1-.83,11.169,2.072,2.072,0,0,1-.611.213c.045-.26.017-.47.1-.544,5.117-4.345,2.614-11.411-3.306-13.254a9.383,9.383,0,0,0-11.051,4.47,7.257,7.257,0,0,0,1.9,8.655,15.281,15.281,0,0,0,3.057,1.83,24.075,24.075,0,0,1-3.475-2.739,7.013,7.013,0,0,1,1.77-10.686,8.982,8.982,0,0,1,11.821,1.976,7.057,7.057,0,0,1-1.11,9.546,8.879,8.879,0,0,1-6.083,2.148C7045.426,3266.108,7045.048,3266.115,7044.671,3266.115Zm1.35-14.648a22.03,22.03,0,0,0-3.452.886c-3.959,1.71-6.015,6.473-2.8,10.4a8.406,8.406,0,0,0,10.8,1.515c2.314-1.581,3.631-3.7,3.223-6.595C7053.307,3254.225,7049.874,3251.518,7046.021,3251.466Z" transform="translate(-7015.116 -3223.043)" fill="#fff"/>
      <path id="Path_713" data-name="Path 713" d="M6931.7,3415.837a40.667,40.667,0,0,1,3.924,4.257,48.463,48.463,0,0,1,2.73,5.214c.2.379.64.645.795,1.033a2.9,2.9,0,0,0,2.444,1.655,2.913,2.913,0,0,1,.952.477,1.827,1.827,0,0,1,.632,2.835,5.794,5.794,0,0,1-1.5,1.6,2.129,2.129,0,0,1-3.287-1.078,22.188,22.188,0,0,1-.741-2.549c-.569-.6-1.07-1.175-1.627-1.692a8.34,8.34,0,0,0-1.233-.9,13.928,13.928,0,0,1-5.856-8.407,1.43,1.43,0,0,0-.748-.816c-1.161-.456-1.713-1.009-1.687-1.963a1.959,1.959,0,0,1,1.7-1.951,1.533,1.533,0,0,0,.762-.783,11.987,11.987,0,0,1,7.258-6.569c.308-.094.633-.132.945-.21,1.187-.3,2.442-.1,3.534-1.059a3.18,3.18,0,0,1,3.351-.22c1.179-1.906,2.026-2.5,3.4-2.329-.067.121-.1.283-.182.313-1.124.415-2.328.7-2.545,2.208-.019.127-.687.281-1.02.225-2.149-.364-2.857-.087-3.906,1.571a3.779,3.779,0,0,0-1.242-.364c-4.254.362-7.045,2.8-8.969,6.429a.814.814,0,0,0-.086.407l2.278,2.254,6.1-2.14A12.8,12.8,0,0,1,6931.7,3415.837Zm6.073,9.825a1.685,1.685,0,0,0-.043-.511,16.976,16.976,0,0,0-6.138-8.368.916.916,0,0,0-.709-.155c-1.449.569-1.651,1.091-1.082,2.6.114.3.209.612.332.911a12.821,12.821,0,0,0,5.311,6.347,1.321,1.321,0,0,0,1.009,0A8.439,8.439,0,0,0,6937.769,3425.662Zm.567,3.92c-.01,1.657,1.023,3.209,2.116,3.18a3.4,3.4,0,0,0,2.577-2.575c0-.983-1.488-1.975-3.055-2.032A1.921,1.921,0,0,0,6938.336,3429.582Zm-9.5-15.6A1.742,1.742,0,0,0,6927,3415.5a1.787,1.787,0,0,0,1.94,1.5,1.693,1.693,0,0,0,1.758-1.57A1.788,1.788,0,0,0,6928.833,3413.979Zm8.754,14.554c.93-.128,1.5-.413,1.524-1.145s-.605-.972-1.213-.965c-.592.007-1.3.22-1.243.924C6936.691,3427.766,6937.258,3428.139,6937.587,3428.533Z" transform="translate(-6926.488 -3345.615)" fill="#fff"/>
      <path id="Path_714" data-name="Path 714" d="M7068.872,3494.1c0-2.669-.016-5.338.011-8.007.006-.687-.13-1-.92-1.152a4.144,4.144,0,0,1-3.19-4.13,4.091,4.091,0,0,1,3.112-4.062c.846-.151,1.167-.509,1.072-1.359a4.105,4.105,0,0,1,.206-1.852c0,.736.024,1.473-.009,2.208a.782.782,0,0,0,.745.935,4.132,4.132,0,0,1,3.4,3.831,3.852,3.852,0,0,1-2.651,4.184c-1.6.438-1.449,1.344-1.436,2.47.027,2.311.008,4.623.008,6.934Zm0-16.993a3.641,3.641,0,0,0-3.7,3.625c-.08,1.8,1.559,3.8,3.175,3.832.169,0,.5-.375.5-.581C7068.885,3481.718,7068.871,3479.45,7068.871,3477.111Zm.416,7.445a3.712,3.712,0,0,0,3.6-3.861c-.056-1.839-1.691-3.734-3.6-3.579Z" transform="translate(-7037.698 -3402.861)" fill="#fff"/>
      <path id="Path_715" data-name="Path 715" d="M7060.584,3355.572a4.515,4.515,0,0,1-1.63-2.485c-.046-.163.274-.6.466-.63a33.762,33.762,0,0,1,5.038-.357c-1.5.944-3.325.133-5.011,1.013l1.4,2.289Z" transform="translate(-7033.017 -3305.192)" fill="#fff"/>
      <path id="Path_716" data-name="Path 716" d="M7135.717,3501.444c-.19-.3-.439-.514-.419-.695.2-1.773.427-3.544.7-5.309.029-.189.38-.434.607-.465a7.793,7.793,0,0,1,1.546.01c-1.754.311-1.739.313-1.982,2.135-.112.835-.332,1.657-.438,2.493A16.27,16.27,0,0,0,7135.717,3501.444Z" transform="translate(-7094.417 -3420.069)" fill="#fff"/>
      <path id="Path_717" data-name="Path 717" d="M7025.221,3495.174c1.925-.247,1.975-.256,2.322,1.565.248,1.3.359,2.63.488,3.951a.77.77,0,0,1-.419.65,13.179,13.179,0,0,0-.011-1.56c-.123-1.028-.362-2.043-.453-3.073-.126-1.416-.092-1.424-1.547-1.5C7025.474,3495.2,7025.347,3495.185,7025.221,3495.174Z" transform="translate(-7005.892 -3420.164)" fill="#fff"/>
      <path id="Path_718" data-name="Path 718" d="M7133.708,3336.181a6.61,6.61,0,0,1-7.005-2.456C7128.835,3335.357,7131.037,3336.446,7133.708,3336.181Z" transform="translate(-7087.506 -3290.417)" fill="#fff"/>
      <path id="Path_719" data-name="Path 719" d="M7134.17,3246.028a10.555,10.555,0,0,0-6.731,2.422C7128.215,3246.845,7131.89,3245.256,7134.17,3246.028Z" transform="translate(-7088.097 -3219.728)" fill="#fff"/>
      <path id="Path_720" data-name="Path 720" d="M7008.695,3337.211a6.329,6.329,0,0,1-6.313,1.791A10.22,10.22,0,0,0,7008.695,3337.211Z" transform="translate(-6987.524 -3293.22)" fill="#fff"/>
      <path id="Path_721" data-name="Path 721" d="M7011.979,3248.02a25.311,25.311,0,0,0-3.069-1.691,23.627,23.627,0,0,0-3.242-.8C7006.967,3244.853,7010.644,3246.151,7011.979,3248.02Z" transform="translate(-6990.166 -3219.341)" fill="#fff"/>
      <path id="Path_722" data-name="Path 722" d="M7006.187,3435.29l-1.524-.293c.005-.082.011-.164.017-.246a4.176,4.176,0,0,0,1.147-.125,4.793,4.793,0,0,0,1-.836c-.058,1.164-.111,2.222-.164,3.28l-.309.044a7.475,7.475,0,0,1-.165-.828C7006.165,3435.969,7006.187,3435.647,7006.187,3435.29Z" transform="translate(-6989.358 -3370.892)" fill="#fff"/>
      <path id="Path_723" data-name="Path 723" d="M7045.17,3401.119c.063-1.344-.7-1.867-1.768-2.14l2.482-.354c-.137.694-.295,1.5-.453,2.3Z" transform="translate(-7020.514 -3342.611)" fill="#fff"/>
      <path id="Path_724" data-name="Path 724" d="M7059.453,3382.134l-1.146,1.947-.237-.064c.114-.669.228-1.338.367-2.158Z" transform="translate(-7032.31 -3329.126)" fill="#fff"/>
      <path id="Path_725" data-name="Path 725" d="M7097.115,3358.317a2.465,2.465,0,0,1-1.816,2.521C7095.967,3359.912,7096.541,3359.115,7097.115,3358.317Z" transform="translate(-7062.25 -3310.195)" fill="#fff"/>
      <path id="Path_726" data-name="Path 726" d="M7025.993,3419.81h-2.869c0-.1.007-.206.01-.309A3.659,3.659,0,0,1,7025.993,3419.81Z" transform="translate(-7004.205 -3359.285)" fill="#fff"/>
      <path id="Path_727" data-name="Path 727" d="M6994.137,3442.8l-1.625,1.328-.4-.426,1.528-1.432Z" transform="translate(-6979.261 -3377.71)" fill="#fff"/>
      <path id="Path_728" data-name="Path 728" d="M7075.209,3384.824h1.826l.013.247h-1.8C7075.235,3384.988,7075.222,3384.906,7075.209,3384.824Z" transform="translate(-7046.093 -3331.511)" fill="#fff"/>
      <path id="Path_729" data-name="Path 729" d="M7102.5,3347.913l1.742.28c-.642.561-.794.552-1.791-.023Q7102.479,3348.042,7102.5,3347.913Z" transform="translate(-7068.004 -3301.827)" fill="#fff"/>
      <path id="Path_730" data-name="Path 730" d="M7060.338,3273.529a5.79,5.79,0,0,1-5.959-5.753,5.913,5.913,0,0,1,6.02-5.707,5.977,5.977,0,0,1,6.044,5.844A5.882,5.882,0,0,1,7060.338,3273.529Zm-5.554-6.036a13,13,0,0,1,1.894-.4,1.055,1.055,0,0,1,.864.43,5.121,5.121,0,0,1,.333,1.708.952.952,0,0,1-.453.707,15.153,15.153,0,0,1-1.693.667,5.53,5.53,0,0,0,6.4,2.3,5.281,5.281,0,0,0,3.73-6.35,5.6,5.6,0,0,0-5.713-4.028A5.534,5.534,0,0,0,7054.785,3267.493Zm.542,2.753c2.386-.633,2.566-.971,1.573-2.87l-2.292.709Z" transform="translate(-7029.341 -3232.79)" fill="#fff"/>
    </g>
    <g id="Group_351" data-name="Group 351" transform="translate(-13454.5 7004.32)">
      <g id="Group_350" data-name="Group 350" transform="translate(0 0)">
        <path id="Path_731" data-name="Path 731" d="M-2906.091,4061.526c-.735-.232-2.225.9-2.416,1.635.523-.269.989-.52,1.464-.751,1.253-.609,1.346-.529,1.8.771a19.265,19.265,0,0,1,.5,8.607,110.456,110.456,0,0,1-4.689,20.936c-.312.99-.686,1.237-1.564,1.255a.6.6,0,0,1,.065.648h.151a1.579,1.579,0,0,0,1.819-1.364c.288-1.11.585-2.218.919-3.313a99.007,99.007,0,0,0,4-19.509,19.977,19.977,0,0,0-.676-7.535A2.388,2.388,0,0,0-2906.091,4061.526Z" transform="translate(2990.25 -3939.667)" fill="#fff"/>
        <path id="Path_732" data-name="Path 732" d="M-3965.551,2682.24a2.044,2.044,0,0,1-.1-2.413,2.3,2.3,0,0,0,.111-1.386c-.49-4.891-1.016-9.778-1.5-14.669-.091-.925-.677-1.169-1.4-1.509a7.576,7.576,0,0,1-2.9-1.843,12.589,12.589,0,0,1-2.167-10.341c.333-1.741.975-2.277,2.451-2.366a3.2,3.2,0,0,1,3.26,2.061c.537,1.488,1.445,1.974,3.184,1.664v-1.85l-.165-.01-.454,1.228c-1.526.367-1.836-.725-2.316-1.677-.835-1.656-2.381-2.289-4.415-1.881-1.083.216-1.982,1.521-2.221,3.051a16.353,16.353,0,0,0,.733,7.5c.665,2.126,1.812,4.122,3.926,4.716,1.886.53,1.914,1.7,2.106,3.053.044.314.069.631.1.947.319,3.035.646,6.07.954,9.106a12.7,12.7,0,0,1,.232,3.641,19.02,19.02,0,0,1-1.747,3.855l-.462-1.076a12.178,12.178,0,0,1-4.454,5.153c-4.217,2.909-9.032,4.537-13.794,6.255-3.032,1.095-6.1,2.1-9.153,3.129a4.554,4.554,0,0,0-3.3,3.06c-.372,1.37-.593,2.782-.852,4.181-.25,1.345-.113,2.871-1.3,3.833a4.146,4.146,0,0,0-1.355,4.692,1.927,1.927,0,0,1-1.1,2.446,3.6,3.6,0,0,0-2.012,2.979c-.286,1.81-.442,3.732-2.261,4.857a11.955,11.955,0,0,0-1.451,1.016c-2.442,2.073-5.1,3.959-6.312,7.126-.035.091-.267.106-.45.172-.078-.187-.129-.33-.194-.467-1.681-3.53-1.209-3.426-4.688-3.176a2.58,2.58,0,0,1-2.757-1.449,38.177,38.177,0,0,1-1.8-4.344c-.5-1.529-.683-3.174-2.362-4.017-1.563-.784-3.269-1.392-4.22-3.041-.05-.087-.229-.09-.305-.173a18.41,18.41,0,0,1-1.751-1.972c-.969-1.421-1.579-3.2-2.806-4.308a44.5,44.5,0,0,1-6.4-7.67c-.508-.724-.816-.516-1.246.017-.454.563-.952,1.089-1.64,1.866.031-1.681-.353-3.022.593-4.3.286-.384.125-1.165.04-1.746a27.71,27.71,0,0,1-.655-3.8q0-.519,0-1.037a5.732,5.732,0,0,1-.567-1.291,22.186,22.186,0,0,1-.733-3.759l-.031-.22c-.7-1.657-1.374-3.34-2.227-4.93-1.168-2.179-2.1-4.325-1.478-6.857.15-.61-.192-.829-.765-.916a3.011,3.011,0,0,0-3.359,1.772c-.206-.855-.334-1.434-.485-2.007a27.087,27.087,0,0,0-3.844-8.985,1.534,1.534,0,0,0-1.964-.622,2.432,2.432,0,0,0-1.157,1.425,4.21,4.21,0,0,0,.05,2.108c.624,2.4,1.356,4.78,2.017,7.175.371,1.344.681,2.706,1.019,4.059l-.385.134a2.112,2.112,0,0,1-.342-.4,23.607,23.607,0,0,0-5.786-7.62c-1.5-1.3-2.947-2.652-5.056-2.806-1.558-.114-2.451,1.04-1.789,2.451a13.084,13.084,0,0,0,1.859,2.682c.67.81,1.5,1.49,2.2,2.276a22.167,22.167,0,0,0,2.2,2.6c1.914,1.558,2,4.081,3.356,5.941a9.963,9.963,0,0,1-2.571-2.487,24.545,24.545,0,0,0-7.05-6.968c-.867-.6-1.68-.881-2.538-.091a1.736,1.736,0,0,0-.037,2.641c1.558,1.82,3.19,3.577,4.81,5.344a15.894,15.894,0,0,1,3.112,4.708,13.406,13.406,0,0,1-1.706-.666c-1.93-1.128-3.86-2.261-5.745-3.461-.745-.474-1.595-.81-2.117-.11a2.558,2.558,0,0,0,0,2.073,7.144,7.144,0,0,0,3.3,3.382,15.381,15.381,0,0,1,6.381,7.061,18.948,18.948,0,0,0,6.149,8.095,16.5,16.5,0,0,1,1.5,1.339l-3.855,4.741.316.458,7.9-1.8a29.2,29.2,0,0,1-9.914,4.951,3.727,3.727,0,0,0,.284.487q8.856,9.7,17.7,19.413a2.521,2.521,0,0,1,.411.649.621.621,0,0,1,.832.566q0,.163.007.325c.058.026.115.054.171.084v-.124l.23.257a2.329,2.329,0,0,1,.72.686,1.907,1.907,0,0,1,.159.3c1.088,1.222,2.1,2.362,3.13,3.486,4.575,4.99,9.134,10,13.761,14.939a9.975,9.975,0,0,0,5.768,3.267,17.832,17.832,0,0,0,11.607-1.977c3.12-1.729,6-3.9,8.979-5.875l-.332-.516c-.833.562-1.7,1.076-2.491,1.694-3.688,2.894-7.506,5.5-12.331,6.1-2.58.318-5.2.606-7.547-.752a18.464,18.464,0,0,1-4.252-3.328c-5.778-6.238-11.454-12.571-17.144-18.889a1.712,1.712,0,0,1-.332-1.065q0-.159,0-.318c-.109-.118-.215-.239-.318-.363a.5.5,0,0,1-.171-.211c-.077-.1-.152-.2-.225-.3v1l-17.52-19.209a32.215,32.215,0,0,0,3.705-1.533c2.344-1.318,4.587-2.814,6.912-4.168,1.422-.828,2.928-1.511,4.381-2.288.817-.437,1.6-.932,2.522-1.469v.482c.042-.063.086-.125.135-.186a3.486,3.486,0,0,1,.612-.562,1.267,1.267,0,0,1,.283-.634c.654-.68,1.381-1.289,2.121-1.963.083.1.247.314.419.52,1.781,2.132,3.579,4.249,5.338,6.4a18.866,18.866,0,0,1,2.579,3.45,13.647,13.647,0,0,0,6.115,6.2c1.4.745,2.706,1.482,3.089,3.284a25.945,25.945,0,0,0,1.535,4.591c.89,2.114,2.083,2.812,4.228,2.661,2.644-.186,2.325-.174,3.289,1.9.537,1.158,1.3,2.249.963,3.689a14.961,14.961,0,0,0-.515,3.761,50.053,50.053,0,0,0,.611,5.889,1.448,1.448,0,0,0,.932,1.017,1.433,1.433,0,0,0,1.081-.86,10.144,10.144,0,0,0,.519-3.365,35.685,35.685,0,0,0-.931-4.885c-.237-1.062-.912-2.153-.768-3.14a6.478,6.478,0,0,1,1.616-3.213,31.156,31.156,0,0,1,5.143-4.772,7.273,7.273,0,0,0,3.5-5.663c.1-1.119.351-2.316,1.61-2.832,1.532-.628,1.8-1.816,1.557-3.285a4.715,4.715,0,0,1-.086-1.655,3.319,3.319,0,0,1,.755-1.763,5.53,5.53,0,0,0,1.832-3.845c.1-1.064.321-2.116.451-3.178.365-2.968,2.346-4.228,4.964-5.117q8.143-2.767,16.166-5.884a21.013,21.013,0,0,0,8.426-5.662c.26-.3.545-.576.818-.864l.222.235c-4.229,6.316-10.513,10.272-16.874,14.155l1.693,2.684c-1.234.375-2.344.75-3.475,1.043-1.113.289-2.067.623-2.245,2.01-.125.971-.516,1.9-.726,2.868a29.312,29.312,0,0,0-.212,11.47c.634,3.527,1.683,6.984,2.64,10.446a25.14,25.14,0,0,0,1.373,3.216l.331-.133a3.891,3.891,0,0,0-.089-.552c-1.1-3.54-2.375-7.035-3.253-10.627a32.047,32.047,0,0,1,.231-15.886,2.689,2.689,0,0,1,2.385-2.364,26.408,26.408,0,0,0,3.931-1.183l-1.792-2.834c5.927-3.534,11.494-7.331,15.872-12.645a9.95,9.95,0,0,1-1.645,5.5c-4.223,6.07-8.381,12.19-11.417,18.983a18.547,18.547,0,0,0-1.928,10.12q.455,3.476.975,6.943a3.828,3.828,0,0,0,.4.921,27.283,27.283,0,0,0-.561-5.707c-1.092-5.1.2-9.764,2.631-14.15,2.4-4.332,4.994-8.563,7.588-12.786,1.22-1.986,2.643-3.848,4.123-5.982a12.392,12.392,0,0,0,1.6,6.331,14.507,14.507,0,0,1,5.024-9.876A8.644,8.644,0,0,1-3965.551,2682.24Zm-82.842,21.426c-.836.53-1.7,1.022-2.546,1.532l-.136-.2,3.888-4.574C-4046.671,2702.328-4046.781,2702.642-4048.394,2703.667Zm-.857-1.624a18.8,18.8,0,0,1-3.673,3.656,24.432,24.432,0,0,1-5.444,2.105c-1.376.44-2.819.673-4.231,1l-.225-.33,3.66-4.084c-.764-.653-1.509-1.4-2.356-1.994a16.39,16.39,0,0,1-5.416-7.039,18.141,18.141,0,0,0-7.3-8.257,11.77,11.77,0,0,1-2.708-2.841c-.243-.309-.059-.954-.07-1.445a4.615,4.615,0,0,1,1.525.294c1.142.682,2.169,1.56,3.321,2.223a27.543,27.543,0,0,0,3.514,1.633,3.069,3.069,0,0,0,1.223-.064,2.891,2.891,0,0,0-.2-1.1c-1.035-1.521-2.057-3.063-3.227-4.479-1.355-1.639-2.933-3.1-4.254-4.76a2.278,2.278,0,0,1-.271-2.094c.529-.745,1.37-.258,2.073.223a25.233,25.233,0,0,1,6.978,7.057,5.6,5.6,0,0,0,3.7,2.722,6.987,6.987,0,0,0-.327-1.4,31.687,31.687,0,0,0-2.029-3.848,35.571,35.571,0,0,0-2.958-3.619c-1.061-1.2-2.239-2.295-3.273-3.514a9.391,9.391,0,0,1-1.471-2.374,1.439,1.439,0,0,1,.366-1.327,1.916,1.916,0,0,1,1.491-.193c2.118.616,3.56,2.216,5.145,3.632a23.649,23.649,0,0,1,4.354,5.972,8.475,8.475,0,0,0,1.476,1.495,5.9,5.9,0,0,0,.283-2.1c-.56-2.258-1.323-4.464-1.941-6.708-.377-1.37-.664-2.767-.919-4.166a3.58,3.58,0,0,1,.078-1.53c.307-1.137,1.2-1.436,1.832-.5a24.185,24.185,0,0,1,2.688,4.953,53.927,53.927,0,0,1,1.822,6.728,5.721,5.721,0,0,1-.092,2.112,10.667,10.667,0,0,0,.462,5.506,5.387,5.387,0,0,0,.474.814l.5-.106c-.153-2.061-.217-4.134-.483-6.181-.262-2.014.3-3.635,1.782-4.218.569-.225,1.514-.465,1.325.582-.556,3.078.964,5.5,2.253,8.014a24.917,24.917,0,0,1,2.828,12.232,6.517,6.517,0,0,0,.009,1.426C-4046.475,2698.6-4047.754,2700.38-4049.251,2702.043Zm33.919,41.437c-1.136-1.787-1.383-7.1-.408-9.737C-4014.025,2737.821-4013.51,2742.612-4015.332,2743.479Zm48.141-49.389a19.637,19.637,0,0,1,.641-12.075l3.449,4.634A15.348,15.348,0,0,0-3967.19,2694.091Z" transform="translate(4077.664 -2621.384)" fill="#fff"/>
        <path id="Path_733" data-name="Path 733" d="M-2382.92,2361.468c-9.856-3.1-18.62-8.187-27.1-13.822l.2-.412c1,.531,1.972,1.137,3.012,1.581,3.314,1.415,6.609,2.9,10,4.117,5.283,1.9,10.637,3.607,15.957,5.406,1.124.38,2.233.809,3.669,1.332l-3.684,1.234.044.441a5.488,5.488,0,0,0,1.732.053c3.571-1.083,4.992.9,5.735,3.293,1.108,3.568.809,7.309.981,10.986.01.2-.137.417-.457.608-.024-.4-.043-.805-.073-1.207-.226-3-.345-6.017-.725-9-.218-1.711-.778-3.461-2.622-4.2a5.232,5.232,0,0,0-2.042-.139,9.834,9.834,0,0,1-2.631.161,1.907,1.907,0,0,0-1.977.559,40.577,40.577,0,0,0-8.2,10.457,38.063,38.063,0,0,0-2.214,4.692,9.614,9.614,0,0,0-.357,6.084c.795,3.115,0,5.878-1.339,8.693a30.449,30.449,0,0,0-2.117,6.5,12.329,12.329,0,0,0,1.342,8.288,3.9,3.9,0,0,0,1.459,1.4A35.953,35.953,0,0,1-2383.54,2418c.587.814,1.38,1.919.413,2.908-1.009,1.032-1.97-.057-2.708-.564a32.106,32.106,0,0,1-9.458-10.883c-.414-.723-.738-.93-1.554-.741-1.937.448-2.972.049-3.784-1.7a6.881,6.881,0,0,0-4.029-3.365c-3.619-1.541-7.208-3.153-10.816-4.719-1.58-.686-3.177-1.331-4.968-2.079a24.529,24.529,0,0,1-1.9,10.219,50.36,50.36,0,0,1-4.554,9.221l-5.357-3.725c.767-.382,1.41-.636,1.982-1,.871-.554.833-1.158.035-1.772-1.623-1.247-3.216-2.531-4.824-3.8,0,.635.047,1.413-.012,2.184-.075.972-.249,1.936-.357,2.906-.236,2.11-.508,4.218-.668,6.334-.114,1.5-.016,3.019-.134,4.52-.029.365-.486.773-.847,1.007a2.229,2.229,0,0,1-1.049.119c-2.975.1-3.263-.165-3.322-3.065-.048-2.381-.089-4.762-.153-7.143a3.081,3.081,0,0,0-.2-1.4c-1.021-1.757-.76-3.671-.816-5.552-.044-1.468-.067-2.937-.164-4.4-.058-.879.043-1.5,1.145-1.428a2.538,2.538,0,0,0,.834-.253q-.009-.15-.018-.3c-.687-.033-1.375-.047-2.06-.106a13.533,13.533,0,0,1-2.47-.3,2.193,2.193,0,0,1-1.276-2.99c.112-.29.221-.785.074-.937-1.262-1.311-1.136-2.679-.309-4.126a4.3,4.3,0,0,0,.245-.633c-2.436-1.93-2.432-2.066.128-6.029l-1.318-1.217.16-.379c1.175,1.189,2.225.93,3.379.066a5.113,5.113,0,0,1,4.432-.689,5.911,5.911,0,0,0,1.408-.02,9.4,9.4,0,0,1,1.884.014c.26.049.438.528.653.812a2.828,2.828,0,0,1-.8.566,1.359,1.359,0,0,1-.925-.123c-1.448-.8-2.807-.258-4.2.166a22.977,22.977,0,0,1-2.875.643c-1.3.218-3.253,2.583-3.158,3.892a1.679,1.679,0,0,0,2.427,1.3,6.686,6.686,0,0,1,1.972-.748c1.469-.273,2.959-.435,4.443-.627a1.589,1.589,0,0,1,.823.029,6.327,6.327,0,0,1,.991.706,3.964,3.964,0,0,1-1.009.587,2.752,2.752,0,0,1-1.3-.014,5.581,5.581,0,0,0-4.083.715,11.633,11.633,0,0,1-1.955.54c-.211.062-.522.172-.572.329a8.788,8.788,0,0,0-.68,2.671c.022,1.175.809,1.356,1.9,1.068,2.125-.564,4.306-.921,6.47-1.329a1.25,1.25,0,0,1,.911.175,3.35,3.35,0,0,1,.593.923c-.279.16-.554.444-.839.455a4.827,4.827,0,0,1-2-.161c-1.369-.58-2.412.078-3.559.6-.655.3-1.231,1.05-2.138.567-.106-.057-.585.251-.59.4-.02.564-.106,1.288.195,1.659a2.92,2.92,0,0,0,1.635.753c1.581.316,3.178.546,4.774.778a2.888,2.888,0,0,0,1.052-.076c1.384-.327,2.763-.675,4.14-1.032,2.31-.6,3.112-2.468,3.745-4.477.224-.712.41-1.442.7-2.126a9.551,9.551,0,0,0,.848-5.084c-.059-.465.406-.992.613-1.5.14-.341.458-.8.343-1.026a20.394,20.394,0,0,0-6.088-7.678l-.362.964c-1.87-.3-3.725-.967-5.484-.771-1.736.194-3.374,1.264-5.091,1.88a7.439,7.439,0,0,1,4.863-2.344c1.772-.018,3.547.279,5.34.308-1.47-1.3-3.292-1.156-4.979-.921a35.312,35.312,0,0,0-5.023,1.446c-.054-.486-.137-1.061-.179-1.638-.131-1.82-.161-3.653-.4-5.459-.173-1.327.494-1.77,1.57-1.978,1.586-.306,3.175-.594,4.934-.921-.309-.139-.509-.317-.677-.291-1.635.25-3.278.472-4.889.835-.79.177-1.345.069-1.662-.652a15.1,15.1,0,0,1-.824-2.327c-.476-1.866-.341-2.027,1.6-2.37,3.471-.613,6.942-1.187,10.463-.3.306-.868.235-1.255-.739-1.475a24.508,24.508,0,0,0-8.5-.347c-1.088.135-2.155.447-3.374.709a5.922,5.922,0,0,1,1.776-5.087c2.371-2.445,6.239-2.941,11.041-1.458-.633-1.1-1.136-2.1-1.76-3.017-.608-.9-1.339-1.709-2.091-2.651.785-.21,1.519-.433,2.266-.6,3.5-.785,7.027-1.456,10.493-2.365a39.424,39.424,0,0,0,6.418-2.325c.8-.367,1.284-1.416,1.912-2.154l-.233-.2c-1.842.712-3.647,1.551-5.536,2.1a69.562,69.562,0,0,1-7.682,1.827c-1.964.339-5.031-1.961-5.623-3.947-.069-.233-.065-.629.075-.746a.861.861,0,0,1,.765-.013c3.837,1.948,7.906,1.883,12.024,1.429a3.707,3.707,0,0,1,.709-.069c2.719.24,4.187-1.351,5.314-3.534a74.208,74.208,0,0,0,5.672-15.046c.2-.761.312-1.549.445-2.328a1.373,1.373,0,0,0-.076-.445l-.417-.375c-.276.444-.562.881-.824,1.333-.334.577-.609,1.628-.979,1.66a10.186,10.186,0,0,1-3.2-.424,6.186,6.186,0,0,1-1.495-.9c1.028,5.429-.621,10.212-2.951,14.839-.69,1.37-1.537,2.659-2.274,4.007a1.509,1.509,0,0,1-1.628.868,28.5,28.5,0,0,1-18.635-8.079,39.921,39.921,0,0,1-3.929-4.672,12.216,12.216,0,0,1-1.077-2.792c1.632.413,2.87.713,4.1,1.041.988.264,1.958.606,2.957.812.237.049.636-.249.826-.493,1.181-1.51,1.148-5.075-.137-6.489a4.447,4.447,0,0,0-1.807-1.047c-1.675-.585-3.373-1.11-5.082-1.588-1.729-.483-1.956-.872-1.348-2.721,5.364,1.1,10.723,2.249,16.1,3.293a40.542,40.542,0,0,0,6.681.877,7.534,7.534,0,0,0,3.684-1.1c2.235-1.274,4.145-.755,6.057.579a18.922,18.922,0,0,0,2.157,1.4c1.016.519,1.537.15,1.619-.986a35.072,35.072,0,0,1,.406-4.352,5.829,5.829,0,0,1,1.209-2.406c1.906-2.347,2.073-4.967,1.416-7.746-.245-1.035-.594-2.046-.895-3.068-.238-.809-.661-1.606.131-2.4.108-.108-.108-.717-.327-.948a13.119,13.119,0,0,0-6.054-3.29c-1.426-.42-2.885-.747-4.274-1.263a21.812,21.812,0,0,1-4.032-2.058c.2-.011.439-.095.607-.023,1.229.526,2.441,1.091,3.666,1.627a7.186,7.186,0,0,0,1.65.628c3.5.566,6.72,1.706,9.243,4.332,2.321-2.321,1.668-5.882-1.48-7.5a59.8,59.8,0,0,0-5.591-2.241,2.38,2.38,0,0,1-1.125-.681,3.389,3.389,0,0,1,.848.01,20,20,0,0,1,7.221,3.131,4.953,4.953,0,0,1,1.333,6.59,2.542,2.542,0,0,0-.059,2.758,7,7,0,0,1,.475,1.686c1.984-.961,2.589-7.955.961-10.787-2.066-3.594-5.823-4.509-9.3-5.878,4.306.794,8.415,2.1,10.206,6.523s.1,8.446-2.14,12.583c-.326-1.8-.592-3.264-.858-4.732l-.619.043a5.321,5.321,0,0,0-.042,1.227c.413,2.087,1.015,4.148,1.269,6.251a6.743,6.743,0,0,1-1.615,5.3c-1.8,2.117-1.77,4.622-1.513,7.269l1.377-.6.334.207a66.58,66.58,0,0,1-7.371,20.911l1.713-1.342c-.173.673-.272,1.112-.4,1.542a3.885,3.885,0,0,0-.262,1.384l1.375-1.206a16.059,16.059,0,0,0,1.759,1.958c2.086,1.708,2.65,3.995,2.727,6.525.1,3.213.266,6.425-.617,9.578-.288,1.028-.685,1.718-1.948,1.806a18.488,18.488,0,0,0-4.523,1.027l6.45,3.515-15.606,15.74c2.307,1.2,2.135,3.71,2.664,5.894a71.367,71.367,0,0,0,1.655,7.036c.886,2.511.544,4.926.133,7.378-.453,2.7-1.143,5.338-3.094,7.429a7.259,7.259,0,0,1-.685.644c-1.342,1.108-2.691,2.209-4.2,3.448l3.992,2.759c3.245-6.134,6.5-12.079,5.835-19.476,1.288.486,2.436.858,3.534,1.344,3.738,1.655,7.456,3.356,11.188,5.027a33.022,33.022,0,0,1,3.97,1.767,6.322,6.322,0,0,1,2.079,2.274c1.127,2.051,2.7,2.561,4.147,1.391-.44-1.322-.988-2.6-1.289-3.937-1.026-4.555.423-8.7,2.422-12.669a10.577,10.577,0,0,0,.927-7.139c-.852-4.141.327-7.825,2.46-11.306,2.451-4,5.031-7.9,8.688-10.942C-2382.988,2361.805-2382.99,2361.7-2382.92,2361.468Zm-36.832.089.044-.335a5.043,5.043,0,0,1,.846-.322c1.357-.26,2.717-.507,4.081-.73,2.175-.356,2.441-.327,2.6-2.55.257-3.5.135-7.033.13-10.552a2.761,2.761,0,0,0-.378-1.576c-1.033-1.359-2.181-2.63-3.406-4.077a37.674,37.674,0,0,0-2.9,3.218c-1.142,1.6-2.019,3.382-3.165,4.975-2.516,3.5-5.369,6.723-9.263,8.707a1.985,1.985,0,0,0-1.265,2.583,6.555,6.555,0,0,1-.982,5.123,6.6,6.6,0,0,0-.972,4.164c.054,1.546.068,3.1.053,4.642a1.634,1.634,0,0,0,.845,1.526,18.806,18.806,0,0,1,6.035,7.709,1.18,1.18,0,0,1-.413,1.635,1.82,1.82,0,0,0-.489,1.157,19.448,19.448,0,0,1-.2,3.042c-.508,1.861-1.2,3.676-1.887,5.484a4.794,4.794,0,0,1-3.323,3.375c-1.538.385-3.042.906-4.639,1.39l2.483,2.255.28-.894c3.18,2.141,5.86,4.525,6.826,8.7,1.092-.986,2.255-1.635,2.808-2.625a23.206,23.206,0,0,0,2.193-5.434,14.965,14.965,0,0,0,0-8.545,63.858,63.858,0,0,1-1.652-7.277c-.382-1.942-.533-3.949-2.5-5.122-.131-.078-.1-.8.092-.992,3.514-3.461,7.083-6.866,10.6-10.327,1.475-1.452,2.849-3.008,4.371-4.624Zm-28.445-35.083a9.776,9.776,0,0,0,.75,1.8c5.4,7.567,12.7,11.779,22.023,12.3a1.778,1.778,0,0,0,1.37-.785c1.416-2.721,2.88-5.433,4.031-8.269a14.961,14.961,0,0,0,1.09-8.6c-.23-1.168-.606-2.307-.916-3.46a2.9,2.9,0,0,1,.932.642,28.484,28.484,0,0,0,3.48,2.325c1.155.583,1.863-.034,1.9-1.41-1.746-.3-1.782-.252-3.649-1.625-1.982-1.458-3.874-1.771-6.077-.354a7.806,7.806,0,0,1-5.96.9c-2.359-.49-4.725-.95-7.085-1.434-4.208-.862-8.414-1.733-13.074-2.693.38.632.527,1.237.854,1.359,1.545.578,3.134,1.043,4.718,1.512,1.8.531,3.554,1.169,3.891,3.3a10.209,10.209,0,0,1,.022,3.752c-.525,2.311-1.156,2.586-3.451,2.013C-2444.863,2327.375-2446.365,2326.959-2448.2,2326.474Zm1.383,33.319c2.722-.121,5.426-.325,8.13-.324a21.348,21.348,0,0,1,3.856.615c1.07.2.727,1.086.7,1.732-.008.2-.5.556-.755.538a33.568,33.568,0,0,0-9.336.3c-2.661.546-2.718.4-1.907,3.017.023.076.041.154.069.228.431,1.126.916,1.195,2.093,1.01a52.252,52.252,0,0,1,5.985-.514,5.093,5.093,0,0,1,1.708.59q-.016.162-.033.324c-.689.128-1.377.266-2.068.383-1.829.31-3.664.588-5.486.937-.316.061-.83.407-.827.615.037,2.355.156,4.708.261,7.253,3.188-1.52,6.2-2.168,9.5-.955.037-.518.091-.935.093-1.352.016-3.271-.789-6.667,1.5-9.583.067-.084.055-.229.086-.344a10.631,10.631,0,0,0-.932-8.038,4.285,4.285,0,0,0-2.6-1.972,10.8,10.8,0,0,0-7.07.792A5.33,5.33,0,0,0-2446.814,2359.793Zm10.01,62.524a19.813,19.813,0,0,1,.01-1.992c.373-3.514-.347-7.158,1.239-10.534a1.875,1.875,0,0,0,.026-.824c-.065-1.346-.1-2.7-.23-4.038a2.832,2.832,0,0,0-.489-1.417,30.064,30.064,0,0,0-2.277-2.551,4.466,4.466,0,0,0-3.411-.233.8.8,0,0,0-.268.6c.328,3.276-.537,6.674.987,9.834a2.4,2.4,0,0,1,.115.935q.12,4.044.224,8.088c.055,2.125.463,2.508,2.606,2.366C-2437.842,2422.529-2437.418,2422.42-2436.8,2422.317Zm-.455-73.446a1.488,1.488,0,0,0,.064.419c1.452,2.593,2.932,5.171,4.361,7.777.649,1.183.795,1.247,1.978.464a31.939,31.939,0,0,0,8.834-8.718c.995-1.457,1.885-2.984,2.823-4.48l-.249-.208A87.785,87.785,0,0,1-2437.26,2348.871Zm57.857,10.627c-7.2-3.111-14.8-5.076-22.275-7.43a3.458,3.458,0,0,0,.935.714c4.757,2.313,9.482,4.7,14.3,6.883C-2384.187,2360.69-2381.749,2361.758-2379.4,2359.5Zm-15.235,49.823c2.576,4.354,5.506,8.389,9.947,11.052a4.13,4.13,0,0,0,1.3.268C-2383.182,2417.993-2390.248,2410.9-2394.637,2409.322Zm-41.05-68.308c.564,1.755,2.731,3.535,4.441,3.344,2.021-.226,4.014-.724,6.01-1.147.694-.147,1.361-.423,2.04-.64C-2427.412,2342.146-2431.695,2342.9-2435.687,2341.014Zm.474,61.7c-.25,2.125,3.007,5.907,5.414,6.377C-2430.2,2406.942-2433.031,2403.562-2435.214,2402.715Zm-6.1-19.833q-.044-.213-.088-.426l-2.446.7c.039.137.077.274.115.412Z" transform="translate(2560.378 -2284.246)" fill="#fff"/>
        <path id="Path_734" data-name="Path 734" d="M-1927.883,3670.577a12.491,12.491,0,0,1,.145,1.341c.012,3.889-.037,7.778.032,11.666.025,1.415.387,2.821.478,4.239.395,6.129.275,12.288-1.555,18.151-1.076,3.448-.906,6.958-1.663,10.383-.844,3.817-2.528,7.077-5.944,9.158a7.573,7.573,0,0,1-3.323,1.077,36.59,36.59,0,0,1-5.447-.234c-.706-.061-1.026.043-1.074.806-.082,1.29-.243,2.574-.4,4.112h54.306q0,.17,0,.339h-54.924c.163-1.569.3-3.091.489-4.607.08-.645-.124-.894-.774-1.045-3.078-.714-6.2-1.311-9.2-2.289-5.135-1.677-10.188-3.6-15.27-5.441a1.662,1.662,0,0,1-.8-.687,201.877,201.877,0,0,0,19.928,6.5c-5.091-2.426-9.052-6.165-12.659-10.325l.281-.322c.521.522,1.053,1.035,1.563,1.569a36.143,36.143,0,0,0,9.813,7.824,11.9,11.9,0,0,0,6.972,1.452c.675-.089,1.091-.023.971.842a.914.914,0,0,0,.531.72c2.676.194,5.448.83,7.983-.355a10.457,10.457,0,0,0,5.829-7.228c.744-3.1.958-6.327,1.466-9.489.135-.838.558-1.627.736-2.462.486-2.281,1.052-4.559,1.326-6.868.307-2.595.4-5.222.449-7.838.03-1.536-.27-3.076-.31-4.616-.138-5.388-.229-10.778-.331-16.168,0-.066.072-.134.11-.2Zm-18.717,54.837q0-.215,0-.429h-2.387q0,.11,0,.22Z" transform="translate(2115.798 -3575.306)" fill="#fff"/>
        <path id="Path_735" data-name="Path 735" d="M-2553,2293.375a39.26,39.26,0,0,1-1.408-4.024c-.821-3.449-1.052-6.921.61-10.215a10.829,10.829,0,0,1,7.474-5.716c3.525-.808,6.741-2.354,10.139-3.431a36.6,36.6,0,0,1,11.568-1.808c.144,0,.286.065.476.3a3.4,3.4,0,0,1-.784.215,40,40,0,0,0-16.9,4.177c-1.375.684-3.082.667-4.583,1.142a10.753,10.753,0,0,0-6.63,4.981,10.482,10.482,0,0,0-1.2,3.786,17.067,17.067,0,0,0,.722,7.749c.128.349.292.686.347.812,1.016-2.627,1.929-5.38,3.139-7.995a9.745,9.745,0,0,1,5.178-4.787,29.577,29.577,0,0,0,4.078-2.518,30.032,30.032,0,0,1,14.01-5.043c2.613-.224,5.261-.039,7.893-.039q-.011.313-.021.625a13.741,13.741,0,0,1-3.2-.232c-1.925-.595-3.8-.069-5.6.216a28.986,28.986,0,0,0-9.629,3.14c-1.2.667-2.369,1.4-3.557,2.089-1.82,1.06-3.718,2-5.449,3.193-2.763,1.9-4.181,4.756-5.055,7.89-.494,1.77-.829,3.584-1.236,5.379Z" transform="translate(2658.481 -2268.178)" fill="#fff"/>
        <path id="Path_736" data-name="Path 736" d="M-2711.4,3880.532l7.671,12.7.447-.208a89.282,89.282,0,0,1-5.427-16.841l.378-.125c.336,1.086.712,2.161,1,3.259a67.732,67.732,0,0,0,4.265,12.656c.223.455.1,1.071.276,1.56.284.778.688,1.513,1.183,2.565a2.541,2.541,0,0,0-.511.267c-2.114,1.535-1.831,4-2.236,6.133-.8,4.2-1.385,8.44-2.026,12.669-.267,1.761-.446,3.536-.672,5.3-.053.413-.132.823-.2,1.235l-.394.015c-.2-1.422-.46-2.838-.582-4.267-.443-5.176-.328-10.307,1.639-15.218a16.33,16.33,0,0,1,1.789-3.439c.971-1.355,1.016-2.886,1.2-4.4.035-.3-.232-.656-.413-.954q-3.647-5.994-7.3-11.982a3.709,3.709,0,0,1-.268-.866Zm3.976,37.549q1.465-9.161,2.93-18.322l-.3-.047C-2707.879,3905.493-2708.39,3911.673-2707.426,3918.082Z" transform="translate(2804.39 -3766.829)" fill="#fff"/>
        <path id="Path_737" data-name="Path 737" d="M-2116.406,4082.576l9.693,13.723-.221.188a30.443,30.443,0,0,1-3.035-3.941c-.92-1.451-2.137-2.711-3.133-4.118s-1.866-2.878-2.687-4.157l-6.922,12.981,3.308,1.6-.208.412c-1.238-.533-2.493-1.032-3.69-1.644-.134-.068-.068-.848.12-1.172.867-1.5,1.859-2.92,2.717-4.421A31.949,31.949,0,0,0-2116.406,4082.576Z" transform="translate(2256.136 -3959.316)" fill="#fff"/>
        <path id="Path_738" data-name="Path 738" d="M-2386.354,2380.242c-5.441,1.032-9.147,3.582-8.592,9.861l-.3-.015c-.126-.163-.356-.323-.363-.491-.139-3.458,1.338-7.435,5.434-8.765.86-.279,1.707-.6,2.572-.86a6.348,6.348,0,0,1,1.069-.137Z" transform="translate(2509.886 -2372.25)" fill="#fff"/>
        <path id="Path_739" data-name="Path 739" d="M-2391.4,2554.523c1.309,2.5,1.319,2.888.4,3.39C-2391.138,2556.791-2391.271,2555.657-2391.4,2554.523Z" transform="translate(2505.958 -2535.07)" fill="#fff"/>
        <path id="Path_740" data-name="Path 740" d="M-2232.316,2368.075l-3.122.158-.013-.185,3.144-.39Q-2232.312,2367.867-2232.316,2368.075Z" transform="translate(2360.602 -2360.901)" fill="#fff"/>
      </g>
    </g>
  </g>
</svg>
