<svg xmlns="http://www.w3.org/2000/svg" width="575" height="363.554" viewBox="0 0 575 363.554">
  <g id="Group_340" data-name="Group 340" transform="translate(-1539.882 -508.308)">
    <g id="Group_329" data-name="Group 329" transform="translate(1539.882 508.308)">
      <rect id="Rectangle_719" data-name="Rectangle 719" width="574.999" height="1.482" transform="translate(0 60.345)" fill="#afbbce" opacity="0.6"/>
      <rect id="Rectangle_720" data-name="Rectangle 720" width="574.999" height="1.482" transform="translate(0 120.691)" fill="#afbbce" opacity="0.6"/>
      <rect id="Rectangle_721" data-name="Rectangle 721" width="574.999" height="1.482" fill="#afbbce" opacity="0.6"/>
      <rect id="Rectangle_722" data-name="Rectangle 722" width="574.999" height="1.482" transform="translate(0 181.036)" fill="#afbbce" opacity="0.6"/>
      <rect id="Rectangle_723" data-name="Rectangle 723" width="574.999" height="1.482" transform="translate(0 241.381)" fill="#afbbce" opacity="0.6"/>
      <rect id="Rectangle_724" data-name="Rectangle 724" width="574.999" height="1.482" transform="translate(0 301.727)" fill="#afbbce" opacity="0.6"/>
      <rect id="Rectangle_725" data-name="Rectangle 725" width="574.999" height="1.482" transform="translate(0 362.072)" fill="#afbbce" opacity="0.6"/>
    </g>
    <path id="Path_432" data-name="Path 432" d="M1659.057,864.463l-2.739-1.132,128.55-311.117,1.505,2.6,145.518,251.805,168.2-98.175,1.494,2.561-170.772,99.676-145.5-251.779Z" transform="translate(-52.666 -19.859)" fill="#c6ffe0"/>
    <path id="Path_433" data-name="Path 433" d="M1659.008,802.994l-2.177-2.012L1785,662.273l147.572,77.568,167.486-155.535,2.018,2.173L1933.054,743.443l-.928-.489-146.487-77Z" transform="translate(-52.897 -34.375)" fill="#134e2e"/>
    <path id="Path_434" data-name="Path 434" d="M2100.009,932.757l-167.6-179.234-147.475,51.756-128.062-132.2,2.128-2.063,126.742,130.833,147.512-51.768.66.706,168.256,179.942Z" transform="translate(-52.918 -73.597)" fill="#2db46a"/>
    <path id="Path_435" data-name="Path 435" d="M1892.728,554.908a7.412,7.412,0,1,1-7.412-7.412A7.412,7.412,0,0,1,1892.728,554.908Z" transform="translate(-152.892 -17.725)" fill="#e3e8f3"/>
    <path id="Path_436" data-name="Path 436" d="M1884.091,559.871a8.894,8.894,0,1,1,8.894-8.894A8.9,8.9,0,0,1,1884.091,559.871Zm0-14.824a5.929,5.929,0,1,0,5.93,5.929A5.936,5.936,0,0,0,1884.091,545.047Z" transform="translate(-151.667 -15.277)" fill="#363f4d"/>
    <circle id="Ellipse_484" data-name="Ellipse 484" cx="7.412" cy="7.412" r="7.412" transform="translate(1870.5 796.75) rotate(-80.783)" fill="#e3e8f3"/>
    <path id="Path_437" data-name="Path 437" d="M2151.725,1022.615a8.894,8.894,0,1,1,8.894-8.894A8.9,8.9,0,0,1,2151.725,1022.615Zm0-14.824a5.93,5.93,0,1,0,5.93,5.93A5.936,5.936,0,0,0,2151.725,1007.791Z" transform="translate(-272.721 -224.582)" fill="#363f4d"/>
    <circle id="Ellipse_485" data-name="Ellipse 485" cx="7.412" cy="7.412" r="7.412" transform="translate(1597.61 838.108)" fill="#e3e8f3"/>
    <path id="Path_438" data-name="Path 438" d="M1651.473,1122.853a8.894,8.894,0,1,1,8.9-8.894A8.9,8.9,0,0,1,1651.473,1122.853Zm0-14.824a5.93,5.93,0,1,0,5.93,5.93A5.935,5.935,0,0,0,1651.473,1108.03Z" transform="translate(-46.451 -269.921)" fill="#363f4d"/>
    <path id="Path_439" data-name="Path 439" d="M2469.243,836.4a7.412,7.412,0,1,1-7.412-7.412A7.412,7.412,0,0,1,2469.243,836.4Z" transform="translate(-413.657 -145.048)" fill="#e3e8f3"/>
    <path id="Path_440" data-name="Path 440" d="M2460.607,841.362a8.894,8.894,0,1,1,8.895-8.894A8.9,8.9,0,0,1,2460.607,841.362Zm0-14.824a5.93,5.93,0,1,0,5.93,5.93A5.936,5.936,0,0,0,2460.607,826.538Z" transform="translate(-412.433 -142.599)" fill="#363f4d"/>
    <circle id="Ellipse_486" data-name="Ellipse 486" cx="7.412" cy="7.412" r="7.412" transform="translate(1871.591 671.093)" fill="#e3e8f3"/>
    <path id="Path_441" data-name="Path 441" d="M2151.725,820.613a8.894,8.894,0,1,1,8.894-8.894A8.9,8.9,0,0,1,2151.725,820.613Zm0-14.824a5.93,5.93,0,1,0,5.93,5.93A5.936,5.936,0,0,0,2151.725,805.79Z" transform="translate(-272.721 -133.214)" fill="#80a2d7"/>
    <circle id="Ellipse_487" data-name="Ellipse 487" cx="7.412" cy="7.412" r="7.412" transform="matrix(0.924, -0.383, 0.383, 0.924, 1722.74, 724.29)" fill="#e3e8f3"/>
    <path id="Path_442" data-name="Path 442" d="M1884.091,911.535a8.894,8.894,0,1,1,8.894-8.895A8.9,8.9,0,0,1,1884.091,911.535Zm0-14.824a5.93,5.93,0,1,0,5.93,5.929A5.936,5.936,0,0,0,1884.091,896.711Z" transform="translate(-151.667 -174.339)" fill="#80a2d7"/>
    <circle id="Ellipse_488" data-name="Ellipse 488" cx="7.412" cy="7.412" r="7.412" transform="translate(1598.609 591.042)" fill="#e3e8f3"/>
    <path id="Path_443" data-name="Path 443" d="M1653.3,674.452a8.894,8.894,0,1,1,8.895-8.894A8.9,8.9,0,0,1,1653.3,674.452Zm0-14.824a5.93,5.93,0,1,0,5.929,5.93A5.936,5.936,0,0,0,1653.3,659.628Z" transform="translate(-47.276 -67.103)" fill="#80a2d7"/>
    <path id="Path_444" data-name="Path 444" d="M2469.243,1140.947a7.412,7.412,0,1,1-7.412-7.412A7.411,7.411,0,0,1,2469.243,1140.947Z" transform="translate(-413.657 -282.799)" fill="#e3e8f3"/>
    <path id="Path_445" data-name="Path 445" d="M2460.607,1148.617a8.894,8.894,0,1,1,8.895-8.894A8.9,8.9,0,0,1,2460.607,1148.617Zm0-14.824a5.93,5.93,0,1,0,5.93,5.93A5.936,5.936,0,0,0,2460.607,1133.792Z" transform="translate(-412.433 -281.574)" fill="#80a2d7"/>
    <path id="Path_446" data-name="Path 446" d="M2469.243,580.169a7.412,7.412,0,1,1-7.412-7.412A7.411,7.411,0,0,1,2469.243,580.169Z" transform="translate(-413.657 -29.151)" fill="#e3e8f3"/>
    <path id="Path_447" data-name="Path 447" d="M2460.607,587.839a8.894,8.894,0,1,1,8.895-8.894A8.9,8.9,0,0,1,2460.607,587.839Zm0-14.824a5.93,5.93,0,1,0,5.93,5.93A5.936,5.936,0,0,0,2460.607,573.015Z" transform="translate(-412.433 -27.927)" fill="#4c5a74"/>
    <circle id="Ellipse_489" data-name="Ellipse 489" cx="7.412" cy="7.412" r="7.412" transform="translate(1871.591 699.891)" fill="#e3e8f3"/>
    <path id="Path_448" data-name="Path 448" d="M2151.725,873.195a8.894,8.894,0,1,1,8.894-8.894A8.9,8.9,0,0,1,2151.725,873.195Zm0-14.824a5.93,5.93,0,1,0,5.93,5.93A5.936,5.936,0,0,0,2151.725,858.371Z" transform="translate(-272.721 -156.997)" fill="#4c5a74"/>
    <circle id="Ellipse_490" data-name="Ellipse 490" cx="7.412" cy="7.412" r="7.412" transform="translate(1725.012 622.328)" fill="#e3e8f3"/>
    <path id="Path_449" data-name="Path 449" d="M1884.091,731.574a8.894,8.894,0,1,1,8.894-8.894A8.9,8.9,0,0,1,1884.091,731.574Zm0-14.824a5.93,5.93,0,1,0,5.93,5.929A5.936,5.936,0,0,0,1884.091,716.75Z" transform="translate(-151.667 -92.94)" fill="#4c5a74"/>
    <circle id="Ellipse_491" data-name="Ellipse 491" cx="7.412" cy="7.412" r="7.412" transform="translate(1597.61 760.2)" fill="#e3e8f3"/>
    <path id="Path_450" data-name="Path 450" d="M1651.473,983.311a8.894,8.894,0,1,1,8.9-8.894A8.9,8.9,0,0,1,1651.473,983.311Zm0-14.824a5.93,5.93,0,1,0,5.93,5.93A5.936,5.936,0,0,0,1651.473,968.487Z" transform="translate(-46.451 -206.804)" fill="#4c5a74"/>
    <path id="Path_451" data-name="Path 451" d="M1598.818,1124.7v-2.651h-5.194v-2.118l5.941-7.648h1.636v7.63h1.566v2.135H1601.2v2.651Zm-2.811-4.786h3.078v-4.02Z" transform="translate(-24.308 -273.186)" fill="#363f4d"/>
    <g id="Group_330" data-name="Group 330" transform="translate(1564.976 760.912)">
      <path id="Path_452" data-name="Path 452" d="M1593.277,982.048V984.2h-7.222v-2.152h2.526v-5.39a1.943,1.943,0,0,1-.5.436,6.315,6.315,0,0,1-.747.418,5.194,5.194,0,0,1-.854.32,2.988,2.988,0,0,1-.781.124v-2.224a2.011,2.011,0,0,0,.781-.2,6.76,6.76,0,0,0,.908-.489,8.312,8.312,0,0,0,.783-.56,1.521,1.521,0,0,0,.409-.435h2.438v8Z" transform="translate(-1585.7 -971.571)" fill="#4c5a74"/>
      <path id="Path_453" data-name="Path 453" d="M1610.889,978.423a3.453,3.453,0,0,1-.365,1.6,3.8,3.8,0,0,1-1,1.227,4.538,4.538,0,0,1-1.468.792,5.645,5.645,0,0,1-1.779.277,5.251,5.251,0,0,1-1.769-.294,4.537,4.537,0,0,1-1.451-.828,3.989,3.989,0,0,1-.987-1.262,3.529,3.529,0,0,1-.365-1.6,2.676,2.676,0,0,1,.178-.987,3.423,3.423,0,0,1,.463-.826,3.73,3.73,0,0,1,.64-.659,4.036,4.036,0,0,1,.713-.462,2.945,2.945,0,0,1-1.14-.961,2.346,2.346,0,0,1-.462-1.405,2.9,2.9,0,0,1,.382-1.5,3.579,3.579,0,0,1,1-1.094,4.725,4.725,0,0,1,1.352-.676,4.917,4.917,0,0,1,1.468-.23,5.165,5.165,0,0,1,1.477.222,4.5,4.5,0,0,1,1.361.667,3.593,3.593,0,0,1,1,1.094,2.9,2.9,0,0,1,.382,1.5,2.4,2.4,0,0,1-.471,1.423,2.832,2.832,0,0,1-1.147.961,4.529,4.529,0,0,1,.738.488,3.445,3.445,0,0,1,1.084,1.521A2.936,2.936,0,0,1,1610.889,978.423Zm-2.419-.143a1.7,1.7,0,0,0-.187-.8,1.839,1.839,0,0,0-.489-.595,2.141,2.141,0,0,0-.693-.365,2.612,2.612,0,0,0-.8-.125,2.5,2.5,0,0,0-.819.134,2.164,2.164,0,0,0-.693.382,1.874,1.874,0,0,0-.48.6,1.663,1.663,0,0,0-.177.773,1.611,1.611,0,0,0,.187.774,1.963,1.963,0,0,0,.489.6,2.19,2.19,0,0,0,.7.383,2.554,2.554,0,0,0,.809.133,2.293,2.293,0,0,0,.809-.143,2.348,2.348,0,0,0,.684-.391,1.882,1.882,0,0,0,.481-.6A1.628,1.628,0,0,0,1608.471,978.28Zm-3.949-5.177a1.268,1.268,0,0,0,.16.65,1.468,1.468,0,0,0,.417.462,1.956,1.956,0,0,0,.57.285,2.088,2.088,0,0,0,.631.1,2.182,2.182,0,0,0,.64-.1,1.792,1.792,0,0,0,.578-.294,1.573,1.573,0,0,0,.418-.471,1.273,1.273,0,0,0,.161-.65,1.236,1.236,0,0,0-.534-1.049,2.076,2.076,0,0,0-1.262-.391,2.017,2.017,0,0,0-1.255.4A1.27,1.27,0,0,0,1604.521,973.1Z" transform="translate(-1592.941 -969.529)" fill="#4c5a74"/>
    </g>
    <g id="Group_331" data-name="Group 331" transform="translate(1743.056 606.612)">
      <path id="Path_454" data-name="Path 454" d="M1916.043,701.06v-2.651h-5.194v-2.118l5.941-7.648h1.636v7.631h1.566v2.135h-1.566v2.651Zm-2.811-4.786h3.078v-4.021Z" transform="translate(-1910.849 -688.18)" fill="#4c5a74"/>
      <path id="Path_455" data-name="Path 455" d="M1939.3,693.205a6.52,6.52,0,0,1-.346,2.162,5.349,5.349,0,0,1-.961,1.707,4.335,4.335,0,0,1-1.459,1.121,4.387,4.387,0,0,1-3.665,0,4.319,4.319,0,0,1-1.458-1.121,5.339,5.339,0,0,1-.961-1.707,6.893,6.893,0,0,1,0-4.323,5.319,5.319,0,0,1,.961-1.708,4.424,4.424,0,0,1,1.458-1.129,4.3,4.3,0,0,1,3.665,0,4.44,4.44,0,0,1,1.459,1.129,5.329,5.329,0,0,1,.961,1.708A6.5,6.5,0,0,1,1939.3,693.205Zm-2.4,0a5.045,5.045,0,0,0-.159-1.308,3.288,3.288,0,0,0-.455-1.022,2.14,2.14,0,0,0-.694-.659,1.734,1.734,0,0,0-.88-.232,1.829,1.829,0,0,0-.908.232,2.123,2.123,0,0,0-.7.659,3.293,3.293,0,0,0-.453,1.022,5.023,5.023,0,0,0-.161,1.308,4.917,4.917,0,0,0,.161,1.3,3.319,3.319,0,0,0,.453,1.014,2.121,2.121,0,0,0,.7.658,1.822,1.822,0,0,0,.908.231,1.728,1.728,0,0,0,.88-.231,2.138,2.138,0,0,0,.694-.658,3.314,3.314,0,0,0,.455-1.014A4.939,4.939,0,0,0,1936.9,693.205Z" transform="translate(-1919.56 -687.797)" fill="#4c5a74"/>
    </g>
    <g id="Group_332" data-name="Group 332" transform="translate(1881.805 722.994)">
      <path id="Path_456" data-name="Path 456" d="M2164.185,914.984a7.755,7.755,0,0,1,.124-1.449,3.832,3.832,0,0,1,.444-1.2,4.342,4.342,0,0,1,.854-1.032,7.455,7.455,0,0,1,1.369-.942q.712-.391,1.272-.685t.943-.543a2.24,2.24,0,0,0,.578-.507.955.955,0,0,0,.2-.6,1.19,1.19,0,0,0-.427-.915,1.773,1.773,0,0,0-1.227-.384,2.548,2.548,0,0,0-.783.116,3.047,3.047,0,0,0-.668.312,3.937,3.937,0,0,0-.568.436,4.6,4.6,0,0,0-.47.508l-1.531-1.762a3.981,3.981,0,0,1,.657-.543,6.384,6.384,0,0,1,1.006-.552,7.481,7.481,0,0,1,1.28-.427,6.469,6.469,0,0,1,1.5-.168,5.457,5.457,0,0,1,1.619.221,3.559,3.559,0,0,1,1.2.623,2.684,2.684,0,0,1,.748.961,2.9,2.9,0,0,1,.258,1.219,2.523,2.523,0,0,1-.232,1.1,3.294,3.294,0,0,1-.588.854,4.49,4.49,0,0,1-.773.65c-.28.184-.549.346-.809.49-.215.119-.442.249-.685.391s-.483.3-.721.472a4.964,4.964,0,0,0-.648.56,2.377,2.377,0,0,0-.454.64h5.105v2.153Z" transform="translate(-2164.185 -902.264)" fill="#4c5a74"/>
      <path id="Path_457" data-name="Path 457" d="M2192.1,908.8a4.2,4.2,0,0,1-.356,1.725,4.374,4.374,0,0,1-2.428,2.33,4.859,4.859,0,0,1-1.824.339,4.623,4.623,0,0,1-1.93-.391,4,4,0,0,1-1.468-1.139,5.385,5.385,0,0,1-.934-1.823,8.372,8.372,0,0,1-.329-2.447,12.087,12.087,0,0,1,.347-3.05,6.844,6.844,0,0,1,.978-2.224,4.214,4.214,0,0,1,1.539-1.361,4.4,4.4,0,0,1,2.028-.463,4.809,4.809,0,0,1,2.207.515,4.749,4.749,0,0,1,1.708,1.477l-1.371,1.5a3,3,0,0,0-2.578-1.424,2.242,2.242,0,0,0-1.895.944,4.552,4.552,0,0,0-.738,2.668,2.544,2.544,0,0,1,1.049-1.013,3.323,3.323,0,0,1,1.6-.375,4.657,4.657,0,0,1,1.734.321,4.126,4.126,0,0,1,2.323,2.232A4.13,4.13,0,0,1,2192.1,908.8Zm-4.608,2.382a2.182,2.182,0,0,0,.9-.186,2.386,2.386,0,0,0,.738-.515,2.525,2.525,0,0,0,.507-.765,2.3,2.3,0,0,0,.187-.916,2.176,2.176,0,0,0-.187-.9,2.561,2.561,0,0,0-.5-.738,2.2,2.2,0,0,0-.739-.5,2.4,2.4,0,0,0-1.814,0,2.2,2.2,0,0,0-.738.5,2.518,2.518,0,0,0-.5.738,2.176,2.176,0,0,0-.187.9,2.3,2.3,0,0,0,.187.916,2.4,2.4,0,0,0,.507.755,2.556,2.556,0,0,0,.738.515A2.092,2.092,0,0,0,2187.487,911.181Z" transform="translate(-2172.617 -900.295)" fill="#4c5a74"/>
    </g>
    <g id="Group_333" data-name="Group 333" transform="translate(2011.269 540.771)">
      <path id="Path_458" data-name="Path 458" d="M2405.212,572.227a4.582,4.582,0,0,1,1.655.294,3.95,3.95,0,0,1,1.324.827,3.721,3.721,0,0,1,.872,1.281,4.508,4.508,0,0,1-.043,3.4,4.049,4.049,0,0,1-.979,1.343,4.492,4.492,0,0,1-1.477.871,5.357,5.357,0,0,1-1.85.312,5.158,5.158,0,0,1-2.481-.588,4.047,4.047,0,0,1-1.663-1.6l1.369-1.423a3.891,3.891,0,0,0,1.254,1.1,3.127,3.127,0,0,0,1.54.41,2.206,2.206,0,0,0,1.575-.577,2.07,2.07,0,0,0-1.432-3.6,2.318,2.318,0,0,0-1.094.267,2.123,2.123,0,0,0-.809.728h-2.082a3.684,3.684,0,0,1,.071-.4q.072-.347.178-.891c.071-.36.147-.765.231-1.209s.171-.9.266-1.361q.322-1.637.712-3.664h6.226v2.17h-4.5l-.5,2.827a1.52,1.52,0,0,1,.623-.373A3.128,3.128,0,0,1,2405.212,572.227Z" transform="translate(-2400.569 -567.656)" fill="#4c5a74"/>
      <path id="Path_459" data-name="Path 459" d="M2424.888,573.63a2.85,2.85,0,0,1,1.8,1.058,3.286,3.286,0,0,1,.685,2.108,3.428,3.428,0,0,1-.328,1.512,3.246,3.246,0,0,1-.934,1.147,4.444,4.444,0,0,1-1.459.729,6.548,6.548,0,0,1-1.9.258,6.2,6.2,0,0,1-2.41-.436,4.3,4.3,0,0,1-1.716-1.271l1.351-1.691a3.244,3.244,0,0,0,1.094.908,3.524,3.524,0,0,0,1.593.32,2.762,2.762,0,0,0,1.663-.427,1.529,1.529,0,0,0,.577-1.316,1.676,1.676,0,0,0-.657-1.423,3.3,3.3,0,0,0-1.994-.5h-.5v-1.779h.552a2.619,2.619,0,0,0,1.691-.489,1.544,1.544,0,0,0,.6-1.254,1.253,1.253,0,0,0-.49-1.086,2.146,2.146,0,0,0-1.288-.354,2.886,2.886,0,0,0-1.468.374,2.92,2.92,0,0,0-1.058,1.049l-1.5-1.673a2.866,2.866,0,0,1,.713-.737,4.957,4.957,0,0,1,1-.57,6.352,6.352,0,0,1,1.219-.374,6.851,6.851,0,0,1,1.352-.133,5.566,5.566,0,0,1,1.655.231,4.043,4.043,0,0,1,1.28.64,2.88,2.88,0,0,1,.828.987,2.813,2.813,0,0,1,.293,1.29,3.187,3.187,0,0,1-.16,1.015,2.9,2.9,0,0,1-.463.871,2.824,2.824,0,0,1-.72.658A2.5,2.5,0,0,1,2424.888,573.63Z" transform="translate(-2408.737 -567.582)" fill="#4c5a74"/>
    </g>
    <g id="Group_334" data-name="Group 334" transform="translate(1623.724 590.182)">
      <path id="Path_460" data-name="Path 460" d="M1698.16,674.895v-2.651h-5.194v-2.118l5.942-7.648h1.635v7.63h1.566v2.135h-1.566v2.651Zm-2.811-4.786h3.078v-4.02Z" transform="translate(-1692.966 -659.915)" fill="#80a2d7"/>
      <path id="Path_461" data-name="Path 461" d="M1721.4,666.3a4.2,4.2,0,0,1-.356,1.726,4.387,4.387,0,0,1-2.429,2.329,4.854,4.854,0,0,1-1.823.338,4.615,4.615,0,0,1-1.929-.391,3.976,3.976,0,0,1-1.468-1.139,5.314,5.314,0,0,1-.934-1.823,8.338,8.338,0,0,1-.33-2.447,12.072,12.072,0,0,1,.347-3.05,6.858,6.858,0,0,1,.979-2.224,4.2,4.2,0,0,1,1.539-1.36,4.4,4.4,0,0,1,2.028-.464,4.8,4.8,0,0,1,2.2.516,4.744,4.744,0,0,1,1.709,1.476l-1.37,1.5a3.009,3.009,0,0,0-2.579-1.425,2.244,2.244,0,0,0-1.9.944,4.569,4.569,0,0,0-.738,2.668,2.55,2.55,0,0,1,1.05-1.014,3.33,3.33,0,0,1,1.6-.375,4.653,4.653,0,0,1,1.734.321,4.126,4.126,0,0,1,2.322,2.232A4.1,4.1,0,0,1,1721.4,666.3Zm-4.608,2.383a2.165,2.165,0,0,0,.9-.187,2.35,2.35,0,0,0,.738-.515,2.509,2.509,0,0,0,.508-.765,2.309,2.309,0,0,0,.187-.916,2.187,2.187,0,0,0-.187-.9,2.582,2.582,0,0,0-.5-.738,2.231,2.231,0,0,0-.739-.5,2.4,2.4,0,0,0-1.816,0,2.235,2.235,0,0,0-.738.5,2.567,2.567,0,0,0-.5.738,2.178,2.178,0,0,0-.187.9,2.3,2.3,0,0,0,.187.916,2.418,2.418,0,0,0,.506.756,2.6,2.6,0,0,0,.738.515A2.091,2.091,0,0,0,1716.788,668.686Z" transform="translate(-1701.633 -657.799)" fill="#80a2d7"/>
    </g>
    <g id="Group_335" data-name="Group 335" transform="translate(1698.414 731.912)">
      <path id="Path_462" data-name="Path 462" d="M1829.34,926.912a7.65,7.65,0,0,1,.124-1.449,3.787,3.787,0,0,1,.445-1.2,4.3,4.3,0,0,1,.854-1.032,7.373,7.373,0,0,1,1.369-.943q.71-.39,1.271-.685t.944-.543a2.259,2.259,0,0,0,.578-.507.964.964,0,0,0,.2-.6,1.188,1.188,0,0,0-.428-.915,1.77,1.77,0,0,0-1.227-.383,2.524,2.524,0,0,0-.782.116,2.983,2.983,0,0,0-.667.312,3.84,3.84,0,0,0-.569.435,4.714,4.714,0,0,0-.472.508l-1.53-1.762a4,4,0,0,1,.658-.543,6.426,6.426,0,0,1,1.005-.551,7.458,7.458,0,0,1,1.281-.427,6.49,6.49,0,0,1,1.5-.168,5.425,5.425,0,0,1,1.619.221,3.554,3.554,0,0,1,1.2.623,2.693,2.693,0,0,1,.747.961,2.886,2.886,0,0,1,.257,1.22,2.5,2.5,0,0,1-.232,1.1,3.272,3.272,0,0,1-.586.854,4.436,4.436,0,0,1-.775.65c-.278.184-.549.346-.809.49-.213.118-.442.249-.685.391a8.3,8.3,0,0,0-.719.472,4.89,4.89,0,0,0-.65.56,2.37,2.37,0,0,0-.453.64h5.1v2.152Z" transform="translate(-1829.34 -916.578)" fill="#80a2d7"/>
      <path id="Path_463" data-name="Path 463" d="M1853.691,922.787a2.851,2.851,0,0,1,1.805,1.058,3.29,3.29,0,0,1,.685,2.108,3.425,3.425,0,0,1-.328,1.513,3.261,3.261,0,0,1-.934,1.146,4.459,4.459,0,0,1-1.459.73,6.567,6.567,0,0,1-1.9.257,6.19,6.19,0,0,1-2.41-.436,4.294,4.294,0,0,1-1.716-1.271l1.35-1.691a3.253,3.253,0,0,0,1.095.907,3.521,3.521,0,0,0,1.592.32,2.762,2.762,0,0,0,1.664-.427,1.526,1.526,0,0,0,.578-1.316,1.676,1.676,0,0,0-.657-1.423,3.293,3.293,0,0,0-1.994-.5h-.5v-1.779h.552a2.617,2.617,0,0,0,1.691-.489,1.543,1.543,0,0,0,.6-1.254,1.252,1.252,0,0,0-.49-1.086,2.148,2.148,0,0,0-1.289-.355,2.888,2.888,0,0,0-1.468.374,2.928,2.928,0,0,0-1.058,1.049l-1.5-1.673a2.876,2.876,0,0,1,.712-.737,5,5,0,0,1,1.005-.571,6.32,6.32,0,0,1,1.219-.374,6.843,6.843,0,0,1,1.352-.133,5.548,5.548,0,0,1,1.655.232,4.034,4.034,0,0,1,1.28.64,2.884,2.884,0,0,1,.828.987,2.814,2.814,0,0,1,.293,1.29,3.184,3.184,0,0,1-.16,1.015,2.925,2.925,0,0,1-.463.871,2.832,2.832,0,0,1-.72.657A2.508,2.508,0,0,1,1853.691,922.787Z" transform="translate(-1837.522 -916.651)" fill="#80a2d7"/>
    </g>
    <g id="Group_336" data-name="Group 336" transform="translate(1870.172 649.068)">
      <path id="Path_464" data-name="Path 464" d="M2149.207,771.365a2.853,2.853,0,0,1,1.8,1.059,3.287,3.287,0,0,1,.685,2.108,3.418,3.418,0,0,1-.328,1.512,3.25,3.25,0,0,1-.933,1.147,4.456,4.456,0,0,1-1.459.729,6.547,6.547,0,0,1-1.9.257,6.2,6.2,0,0,1-2.41-.435,4.311,4.311,0,0,1-1.715-1.271l1.351-1.691a3.248,3.248,0,0,0,1.095.907,3.514,3.514,0,0,0,1.592.32,2.761,2.761,0,0,0,1.663-.427,1.527,1.527,0,0,0,.578-1.316,1.676,1.676,0,0,0-.657-1.423,3.3,3.3,0,0,0-1.993-.5h-.5v-1.779h.552a2.615,2.615,0,0,0,1.691-.49,1.54,1.54,0,0,0,.6-1.254,1.252,1.252,0,0,0-.489-1.086,2.15,2.15,0,0,0-1.289-.355,2.89,2.89,0,0,0-1.468.374,2.929,2.929,0,0,0-1.058,1.049l-1.5-1.674a2.869,2.869,0,0,1,.712-.737,4.978,4.978,0,0,1,1-.57,6.35,6.35,0,0,1,1.219-.374,6.849,6.849,0,0,1,1.352-.133,5.568,5.568,0,0,1,1.655.232,4.05,4.05,0,0,1,1.28.64,2.878,2.878,0,0,1,.828.987,2.826,2.826,0,0,1,.293,1.29,3.2,3.2,0,0,1-.16,1.015,2.924,2.924,0,0,1-.463.871,2.821,2.821,0,0,1-.72.657A2.5,2.5,0,0,1,2149.207,771.365Z" transform="translate(-2142.946 -765.317)" fill="#80a2d7"/>
      <path id="Path_465" data-name="Path 465" d="M2169.134,773.485v2.152h-7.222v-2.152h2.525V768.1a1.934,1.934,0,0,1-.5.435,6.354,6.354,0,0,1-.747.419,5.221,5.221,0,0,1-.854.319,2.969,2.969,0,0,1-.781.125v-2.224a2.008,2.008,0,0,0,.781-.2,6.7,6.7,0,0,0,.908-.489,8.485,8.485,0,0,0,.783-.56,1.507,1.507,0,0,0,.408-.436h2.438v8Z" transform="translate(-2151.364 -765.391)" fill="#80a2d7"/>
    </g>
    <path id="Path_466" data-name="Path 466" d="M2486.783,1115.476a7.61,7.61,0,0,1,.124-1.449,3.787,3.787,0,0,1,.444-1.2,4.309,4.309,0,0,1,.854-1.032,7.382,7.382,0,0,1,1.369-.942q.711-.391,1.271-.685t.944-.543a2.261,2.261,0,0,0,.577-.507.962.962,0,0,0,.2-.6,1.187,1.187,0,0,0-.427-.915,1.775,1.775,0,0,0-1.229-.383,2.524,2.524,0,0,0-.781.115,3,3,0,0,0-.667.312,3.82,3.82,0,0,0-.569.435,4.7,4.7,0,0,0-.472.508l-1.53-1.762a3.955,3.955,0,0,1,.658-.543,6.407,6.407,0,0,1,1.005-.551,7.443,7.443,0,0,1,1.281-.427,6.488,6.488,0,0,1,1.5-.168,5.432,5.432,0,0,1,1.619.221,3.577,3.577,0,0,1,1.2.622,2.684,2.684,0,0,1,.746.962,2.867,2.867,0,0,1,.258,1.219,2.5,2.5,0,0,1-.232,1.1,3.272,3.272,0,0,1-.587.854,4.445,4.445,0,0,1-.774.65c-.279.184-.549.346-.81.49q-.32.178-.685.391a8.275,8.275,0,0,0-.72.472,4.938,4.938,0,0,0-.65.56,2.361,2.361,0,0,0-.453.64h5.1v2.152Z" transform="translate(-428.296 -269.956)" fill="#80a2d7"/>
    <g id="Group_337" data-name="Group 337" transform="translate(1692.404 531.752)">
      <path id="Path_467" data-name="Path 467" d="M1823.008,555.987a4.588,4.588,0,0,1,1.655.294,3.971,3.971,0,0,1,1.327.826,3.749,3.749,0,0,1,.871,1.282,4.278,4.278,0,0,1,.311,1.655,4.152,4.152,0,0,1-.356,1.743,4.027,4.027,0,0,1-.979,1.344,4.465,4.465,0,0,1-1.476.871,5.37,5.37,0,0,1-1.85.312,5.154,5.154,0,0,1-2.482-.588,4.043,4.043,0,0,1-1.663-1.6l1.37-1.423a3.906,3.906,0,0,0,1.255,1.1,3.119,3.119,0,0,0,1.538.41,2.2,2.2,0,0,0,1.573-.578,2.069,2.069,0,0,0-1.431-3.6,2.314,2.314,0,0,0-1.095.268,2.121,2.121,0,0,0-.809.728h-2.082a3.978,3.978,0,0,1,.072-.4l.178-.891c.071-.36.147-.765.23-1.209s.172-.9.268-1.361q.32-1.637.711-3.664h6.226v2.17h-4.5l-.5,2.827a1.523,1.523,0,0,1,.623-.373A3.132,3.132,0,0,1,1823.008,555.987Z" transform="translate(-1818.365 -551.291)" fill="#363f4d"/>
      <path id="Path_468" data-name="Path 468" d="M1842.429,553.284h-5.746v-2.17h9.5l-6.278,12.631h-2.687Z" transform="translate(-1826.65 -551.114)" fill="#363f4d"/>
    </g>
    <g id="Group_338" data-name="Group 338" transform="translate(1839.628 784.823)">
      <path id="Path_469" data-name="Path 469" d="M2094.754,1021.355v2.153h-7.222v-2.153h2.526v-5.39a1.958,1.958,0,0,1-.5.435,6.285,6.285,0,0,1-.747.419,5.237,5.237,0,0,1-.854.32,2.982,2.982,0,0,1-.781.124v-2.224a2.018,2.018,0,0,0,.781-.2,6.806,6.806,0,0,0,.908-.49,8.286,8.286,0,0,0,.782-.56,1.521,1.521,0,0,0,.409-.435h2.438v8Z" transform="translate(-2087.177 -1013.261)" fill="#363f4d"/>
      <path id="Path_470" data-name="Path 470" d="M2108.962,1019.235a2.857,2.857,0,0,1,1.807,1.058,3.292,3.292,0,0,1,.685,2.108,3.412,3.412,0,0,1-.33,1.513,3.218,3.218,0,0,1-.934,1.146,4.417,4.417,0,0,1-1.458.729,6.546,6.546,0,0,1-1.9.258,6.2,6.2,0,0,1-2.411-.436,4.307,4.307,0,0,1-1.716-1.271l1.352-1.691a3.241,3.241,0,0,0,1.095.908,3.513,3.513,0,0,0,1.591.32,2.759,2.759,0,0,0,1.663-.427,1.524,1.524,0,0,0,.58-1.316,1.677,1.677,0,0,0-.659-1.423,3.291,3.291,0,0,0-1.992-.5h-.5v-1.779h.551a2.613,2.613,0,0,0,1.69-.49,1.543,1.543,0,0,0,.6-1.253,1.254,1.254,0,0,0-.489-1.086,2.146,2.146,0,0,0-1.29-.355,2.892,2.892,0,0,0-1.468.373,2.946,2.946,0,0,0-1.058,1.049l-1.495-1.674a2.9,2.9,0,0,1,.712-.737,4.963,4.963,0,0,1,1.005-.57,6.323,6.323,0,0,1,1.219-.373,6.828,6.828,0,0,1,1.351-.134,5.563,5.563,0,0,1,1.654.232,4.057,4.057,0,0,1,1.281.64,2.865,2.865,0,0,1,.827.987,2.813,2.813,0,0,1,.294,1.289,3.184,3.184,0,0,1-.161,1.015,2.909,2.909,0,0,1-.462.871,2.827,2.827,0,0,1-.721.657A2.487,2.487,0,0,1,2108.962,1019.235Z" transform="translate(-2094.199 -1013.186)" fill="#363f4d"/>
    </g>
    <g id="Group_339" data-name="Group 339" transform="translate(2014.551 666.403)">
      <path id="Path_471" data-name="Path 471" d="M2412.823,803.7a2.85,2.85,0,0,1,1.805,1.058,3.29,3.29,0,0,1,.685,2.108,3.423,3.423,0,0,1-.329,1.513,3.237,3.237,0,0,1-.935,1.146,4.445,4.445,0,0,1-1.459.73,6.563,6.563,0,0,1-1.9.257,6.194,6.194,0,0,1-2.411-.436,4.3,4.3,0,0,1-1.715-1.271l1.35-1.691a3.256,3.256,0,0,0,1.094.908,3.527,3.527,0,0,0,1.593.32,2.764,2.764,0,0,0,1.664-.427,1.528,1.528,0,0,0,.577-1.316,1.677,1.677,0,0,0-.657-1.423,3.3,3.3,0,0,0-1.993-.5h-.5V802.9h.552a2.616,2.616,0,0,0,1.69-.489,1.541,1.541,0,0,0,.6-1.254,1.254,1.254,0,0,0-.49-1.086,2.153,2.153,0,0,0-1.288-.354,2.889,2.889,0,0,0-1.468.373,2.931,2.931,0,0,0-1.059,1.049l-1.495-1.673a2.886,2.886,0,0,1,.712-.737,4.95,4.95,0,0,1,1-.57,6.333,6.333,0,0,1,1.218-.373,6.8,6.8,0,0,1,1.353-.133,5.547,5.547,0,0,1,1.654.232,4.029,4.029,0,0,1,1.28.64,2.882,2.882,0,0,1,.828.987,2.818,2.818,0,0,1,.293,1.29,3.184,3.184,0,0,1-.16,1.015,2.923,2.923,0,0,1-.464.871,2.829,2.829,0,0,1-.719.657A2.5,2.5,0,0,1,2412.823,803.7Z" transform="translate(-2406.562 -797.275)" fill="#363f4d"/>
      <path id="Path_472" data-name="Path 472" d="M2434.562,802.375a6.5,6.5,0,0,1-.346,2.161,5.314,5.314,0,0,1-.96,1.707,4.329,4.329,0,0,1-1.46,1.121,4.181,4.181,0,0,1-1.823.4,4.225,4.225,0,0,1-1.842-.4,4.313,4.313,0,0,1-1.458-1.121,5.342,5.342,0,0,1-.961-1.707,6.887,6.887,0,0,1,0-4.322,5.341,5.341,0,0,1,.961-1.709,4.421,4.421,0,0,1,1.458-1.129,4.154,4.154,0,0,1,1.842-.41,4.112,4.112,0,0,1,1.823.41,4.438,4.438,0,0,1,1.46,1.129,5.313,5.313,0,0,1,.96,1.709A6.487,6.487,0,0,1,2434.562,802.375Zm-2.4,0a5.005,5.005,0,0,0-.16-1.309,3.267,3.267,0,0,0-.455-1.022,2.134,2.134,0,0,0-.693-.658,1.739,1.739,0,0,0-.881-.232,1.826,1.826,0,0,0-.907.232,2.121,2.121,0,0,0-.7.658,3.294,3.294,0,0,0-.453,1.022,5.015,5.015,0,0,0-.161,1.309,4.911,4.911,0,0,0,.161,1.3,3.311,3.311,0,0,0,.453,1.013,2.122,2.122,0,0,0,.7.659,1.824,1.824,0,0,0,.907.23,1.737,1.737,0,0,0,.881-.23,2.135,2.135,0,0,0,.693-.659,3.284,3.284,0,0,0,.455-1.013A4.9,4.9,0,0,0,2432.161,802.375Z" transform="translate(-2415.066 -796.967)" fill="#363f4d"/>
    </g>
  </g>
</svg>
