<svg xmlns="http://www.w3.org/2000/svg"
            width="110.043"
            height="113.718"
            viewBox="0 0 135.043 153.718"
          >
            <g
              id="Group_167"
              data-name="Group 167"
              transform="translate(-600 -558.514)"
            >
              <path
                id="Path_272"
                data-name="Path 272"
                d="M650.855,574.822v3.984a16.306,16.306,0,0,0,16.306,16.306h.725a16.306,16.306,0,0,0,16.306-16.306v-3.984a16.306,16.306,0,0,0-16.306-16.306h-.725A16.306,16.306,0,0,0,650.855,574.822Zm-18.239,58.944V574.82a16.307,16.307,0,0,0-16.3-16.306h0A16.307,16.307,0,0,0,600,574.82v58.945a16.306,16.306,0,0,0,16.308,16.306h0A16.306,16.306,0,0,0,632.616,633.766Zm51.577,0v-3.984a16.306,16.306,0,0,0-16.306-16.306h-.725a16.306,16.306,0,0,0-16.306,16.306v3.984a16.306,16.306,0,0,0,16.306,16.306h.725A16.306,16.306,0,0,0,684.193,633.764Zm50.852,0V574.82a16.307,16.307,0,0,0-16.308-16.306h0a16.307,16.307,0,0,0-16.3,16.306v58.945a16.306,16.306,0,0,0,16.3,16.306h0A16.306,16.306,0,0,0,735.045,633.766Z"
                transform="translate(-0.002)"
                fill="#3ca855"
              />
              <g
                id="Group_169"
                data-name="Group 169"
                transform="translate(600 671.402)"
              >
                <g
                  id="Group_167-2"
                  data-name="Group 167"
                  transform="translate(0 0)"
                >
                  <path
                    id="Path_273"
                    data-name="Path 273"
                    d="M600,1060.077h3.948V1068h7.219v-7.923h3.948V1079.9h-3.948v-7.923h-7.219v7.923H600Z"
                    transform="translate(-600 -1060.077)"
                    fill="#fff"
                  />
                  <path
                    id="Path_274"
                    data-name="Path 274"
                    d="M687.3,1079.9l-2.013-5.544h-6.093l-2.016,5.544h-4.21l7.166-19.822h4.209l7.166,19.822Zm-5.074-13.99-1.6,4.471h3.218Z"
                    transform="translate(-656.545 -1060.077)"
                    fill="#fff"
                  />
                  <path
                    id="Path_275"
                    data-name="Path 275"
                    d="M761.16,1079.9v-19.822H767.1a5.74,5.74,0,0,1,2.316.47,5.9,5.9,0,0,1,1.883,1.281,6.243,6.243,0,0,1,1.268,1.9,5.98,5.98,0,0,1-.381,5.4,5.856,5.856,0,0,1-2.262,2.145l3.9,8.63h-4.339l-3.584-7.923h-.785v7.923Zm3.948-11.9H767.1a1.923,1.923,0,0,0,1.413-.575,1.893,1.893,0,0,0,.575-1.387,1.966,1.966,0,0,0-1.988-1.988h-1.988Z"
                    transform="translate(-724.887 -1060.077)"
                    fill="#fff"
                  />
                  <path
                    id="Path_276"
                    data-name="Path 276"
                    d="M823.784,1079.9v-19.822h5.535a9.533,9.533,0,0,1,3.837.783,10.036,10.036,0,0,1,5.274,5.284,9.824,9.824,0,0,1,0,7.687,10.022,10.022,0,0,1-5.274,5.282,9.5,9.5,0,0,1-3.837.785Zm3.948-3.975h1.6a5.873,5.873,0,0,0,2.316-.458,5.743,5.743,0,0,0,1.881-1.268,6.162,6.162,0,0,0,1.268-1.9,5.929,5.929,0,0,0,0-4.629,5.937,5.937,0,0,0-3.15-3.15,5.743,5.743,0,0,0-2.316-.472h-1.6Z"
                    transform="translate(-773.416 -1060.077)"
                    fill="#fff"
                  />
                  <path
                    id="Path_277"
                    data-name="Path 277"
                    d="M908.82,1079.9l-2.641-11.192-2.643,11.192h-4.078l-4.682-19.822h4.08l2.641,11.218,2.641-11.218h4.08l2.641,11.218,2.641-11.218h4.08L912.9,1079.9Z"
                    transform="translate(-828.43 -1060.077)"
                    fill="#fff"
                  />
                  <path
                    id="Path_278"
                    data-name="Path 278"
                    d="M1010.423,1079.9l-2.013-5.544h-6.093l-2.015,5.544h-4.209l7.165-19.822h4.209l7.166,19.822Zm-5.073-13.99-1.6,4.471h3.218Z"
                    transform="translate(-906.943 -1060.077)"
                    fill="#fff"
                  />
                  <path
                    id="Path_279"
                    data-name="Path 279"
                    d="M1084.274,1079.9v-19.822h5.935a5.74,5.74,0,0,1,2.316.47,5.9,5.9,0,0,1,1.883,1.281,6.24,6.24,0,0,1,1.269,1.9,5.98,5.98,0,0,1-.381,5.4,5.857,5.857,0,0,1-2.262,2.145l3.9,8.63h-4.339l-3.584-7.923h-.785v7.923Zm3.948-11.9h1.988a1.923,1.923,0,0,0,1.413-.575,1.893,1.893,0,0,0,.575-1.387,1.966,1.966,0,0,0-1.988-1.988h-1.988Z"
                    transform="translate(-975.277 -1060.077)"
                    fill="#fff"
                  />
                  <path
                    id="Path_280"
                    data-name="Path 280"
                    d="M1146.9,1060.077h11.952v3.974h-8V1068h8v3.975h-8v3.948h8v3.975H1146.9Z"
                    transform="translate(-1023.806 -1060.077)"
                    fill="#fff"
                  />
                </g>
                <g
                  id="Group_168"
                  data-name="Group 168"
                  transform="translate(0 27.372)"
                >
                  <path
                    id="Path_281"
                    data-name="Path 281"
                    d="M600,1195.36v-13.252h4.5a6.813,6.813,0,0,1,2.772.523,5.625,5.625,0,0,1,1.978,1.417,5.984,5.984,0,0,1,1.2,2.1,8.068,8.068,0,0,1,.4,2.566,7.894,7.894,0,0,1-.448,2.736,5.937,5.937,0,0,1-1.279,2.09,5.717,5.717,0,0,1-2,1.344,6.892,6.892,0,0,1-2.623.475Zm9.538-6.646a6.847,6.847,0,0,0-.336-2.192,4.947,4.947,0,0,0-.981-1.727,4.378,4.378,0,0,0-1.577-1.128,5.4,5.4,0,0,0-2.146-.4h-3.192V1194.2H604.5a5.306,5.306,0,0,0,2.175-.419,4.44,4.44,0,0,0,1.577-1.158,5.057,5.057,0,0,0,.962-1.736A6.97,6.97,0,0,0,609.538,1188.714Z"
                    transform="translate(-600 -1182.014)"
                    fill="#fff"
                  />
                  <path
                    id="Path_282"
                    data-name="Path 282"
                    d="M668.2,1194.2v1.157h-8.9v-13.252h8.734v1.156H660.6v4.779h6.477v1.1H660.6v5.058Z"
                    transform="translate(-645.951 -1182.014)"
                    fill="#fff"
                  />
                  <path
                    id="Path_283"
                    data-name="Path 283"
                    d="M712.637,1184.266a4.024,4.024,0,0,0-1.493-1.027,5.459,5.459,0,0,0-2.128-.392,3.992,3.992,0,0,0-2.556.662,2.214,2.214,0,0,0-.8,1.8,1.973,1.973,0,0,0,.216.98,1.866,1.866,0,0,0,.662.662,4.632,4.632,0,0,0,1.148.486q.7.2,1.651.41a17.758,17.758,0,0,1,1.914.5,5.473,5.473,0,0,1,1.446.7,2.9,2.9,0,0,1,.914,1.016,3.168,3.168,0,0,1,.317,1.493,3.367,3.367,0,0,1-.354,1.587,3.154,3.154,0,0,1-.991,1.12,4.387,4.387,0,0,1-1.511.662,8.111,8.111,0,0,1-1.923.216,7.9,7.9,0,0,1-5.32-1.923l.653-1.063a5.234,5.234,0,0,0,.849.709,6.24,6.24,0,0,0,1.1.588,7.158,7.158,0,0,0,1.3.392,7.364,7.364,0,0,0,1.457.14,4.558,4.558,0,0,0,2.473-.57,1.914,1.914,0,0,0,.887-1.727,1.994,1.994,0,0,0-.252-1.036,2.194,2.194,0,0,0-.756-.728,5.357,5.357,0,0,0-1.25-.532q-.747-.223-1.736-.448-1.046-.241-1.829-.5a4.859,4.859,0,0,1-1.326-.653,2.558,2.558,0,0,1-.811-.942,3.049,3.049,0,0,1-.271-1.354,3.719,3.719,0,0,1,.345-1.633,3.221,3.221,0,0,1,.98-1.2,4.649,4.649,0,0,1,1.493-.728,6.726,6.726,0,0,1,1.9-.252,6.513,6.513,0,0,1,2.361.4,6.355,6.355,0,0,1,1.876,1.13Z"
                    transform="translate(-680.458 -1181.69)"
                    fill="#fff"
                  />
                  <path
                    id="Path_284"
                    data-name="Path 284"
                    d="M758.9,1195.36v-13.252h1.306v13.252Z"
                    transform="translate(-723.135 -1182.014)"
                    fill="#fff"
                  />
                  <path
                    id="Path_285"
                    data-name="Path 285"
                    d="M786.014,1193.095a5.607,5.607,0,0,1-4.255,2.034,5.339,5.339,0,0,1-2.473-.577,6.538,6.538,0,0,1-1.961-1.531,7.259,7.259,0,0,1-1.3-2.156,6.785,6.785,0,0,1-.466-2.474,7.136,7.136,0,0,1,.457-2.538,6.8,6.8,0,0,1,1.279-2.137,6.254,6.254,0,0,1,1.941-1.473,5.455,5.455,0,0,1,2.446-.552,6.871,6.871,0,0,1,1.773.214,5.444,5.444,0,0,1,1.428.6,4.547,4.547,0,0,1,1.083.915,5.725,5.725,0,0,1,.775,1.167l-1.009.671a4.288,4.288,0,0,0-1.7-1.811,4.815,4.815,0,0,0-2.371-.579,4.215,4.215,0,0,0-1.987.466,4.8,4.8,0,0,0-1.513,1.243,5.706,5.706,0,0,0-.962,1.773,6.437,6.437,0,0,0-.336,2.063,5.951,5.951,0,0,0,.383,2.128,5.669,5.669,0,0,0,1.054,1.763,5.111,5.111,0,0,0,1.578,1.2,4.365,4.365,0,0,0,1.968.448,4.69,4.69,0,0,0,2.175-.532,6.433,6.433,0,0,0,1.987-1.689v-2.2h-2.948v-1.009h4.05v6.515h-1.1Z"
                    transform="translate(-736.048 -1181.69)"
                    fill="#fff"
                  />
                  <path
                    id="Path_286"
                    data-name="Path 286"
                    d="M840.147,1184.534v10.826h-1.306v-13.252h1.007l8.774,11.031v-11.013h1.307v13.234h-1.139Z"
                    transform="translate(-785.085 -1182.014)"
                    fill="#fff"
                  />
                  <path
                    id="Path_287"
                    data-name="Path 287"
                    d="M934.458,1182.108v13.252H933.17v-6.2h-7.858v6.2h-1.306v-13.252h1.306v5.9h7.858v-5.9Z"
                    transform="translate(-851.081 -1182.014)"
                    fill="#fff"
                  />
                  <path
                    id="Path_288"
                    data-name="Path 288"
                    d="M987.528,1195.129a5.612,5.612,0,0,1-2.529-.568,6.273,6.273,0,0,1-1.969-1.513,6.85,6.85,0,0,1-1.27-2.156,7.094,7.094,0,0,1-.448-2.482,6.913,6.913,0,0,1,.475-2.538,7,7,0,0,1,1.317-2.148,6.332,6.332,0,0,1,1.978-1.483,5.58,5.58,0,0,1,2.464-.552,5.464,5.464,0,0,1,2.529.588,6.355,6.355,0,0,1,1.961,1.54,7.143,7.143,0,0,1,1.259,2.156,6.981,6.981,0,0,1,.448,2.455,7.03,7.03,0,0,1-1.783,4.676,6.3,6.3,0,0,1-1.969,1.475A5.576,5.576,0,0,1,987.528,1195.129Zm-4.91-6.719a6.161,6.161,0,0,0,.355,2.081,5.638,5.638,0,0,0,1.007,1.773,4.948,4.948,0,0,0,1.549,1.232,4.321,4.321,0,0,0,2,.457,4.266,4.266,0,0,0,2.034-.485,4.945,4.945,0,0,0,1.549-1.27,5.828,5.828,0,0,0,.98-1.773,6.08,6.08,0,0,0-.018-4.1,5.705,5.705,0,0,0-1.018-1.765,5,5,0,0,0-1.548-1.221,4.55,4.55,0,0,0-4.013.018,4.83,4.83,0,0,0-1.549,1.259,5.833,5.833,0,0,0-.98,1.774A6.058,6.058,0,0,0,982.618,1188.41Z"
                    transform="translate(-895.489 -1181.69)"
                    fill="#fff"
                  />
                  <path
                    id="Path_289"
                    data-name="Path 289"
                    d="M1052.225,1194.277a4.139,4.139,0,0,0,2.081-.475,3.769,3.769,0,0,0,1.325-1.25,5.081,5.081,0,0,0,.691-1.765,10.253,10.253,0,0,0,.2-2v-6.682h1.306v6.682a10.554,10.554,0,0,1-.3,2.547,6.084,6.084,0,0,1-.96,2.119,4.756,4.756,0,0,1-1.727,1.455,5.669,5.669,0,0,1-2.595.541,5.582,5.582,0,0,1-2.641-.568,4.834,4.834,0,0,1-1.727-1.5,6.116,6.116,0,0,1-.933-2.127,10.757,10.757,0,0,1-.279-2.464v-6.682h1.288v6.682a9.978,9.978,0,0,0,.205,2.034,5.087,5.087,0,0,0,.7,1.754,3.724,3.724,0,0,0,1.316,1.232A4.1,4.1,0,0,0,1052.225,1194.277Z"
                    transform="translate(-946.132 -1182.014)"
                    fill="#fff"
                  />
                  <path
                    id="Path_290"
                    data-name="Path 290"
                    d="M1114.182,1184.266a4.024,4.024,0,0,0-1.493-1.027,5.459,5.459,0,0,0-2.128-.392,3.993,3.993,0,0,0-2.557.662,2.215,2.215,0,0,0-.8,1.8,1.975,1.975,0,0,0,.216.98,1.867,1.867,0,0,0,.662.662,4.626,4.626,0,0,0,1.148.486q.7.2,1.651.41a17.748,17.748,0,0,1,1.914.5,5.469,5.469,0,0,1,1.446.7,2.9,2.9,0,0,1,.914,1.016,3.169,3.169,0,0,1,.318,1.493,3.367,3.367,0,0,1-.354,1.587,3.154,3.154,0,0,1-.99,1.12,4.387,4.387,0,0,1-1.511.662,8.112,8.112,0,0,1-1.923.216,7.9,7.9,0,0,1-5.32-1.923l.653-1.063a5.226,5.226,0,0,0,.849.709,6.239,6.239,0,0,0,1.1.588,7.158,7.158,0,0,0,1.3.392,7.362,7.362,0,0,0,1.457.14,4.558,4.558,0,0,0,2.473-.57,1.914,1.914,0,0,0,.887-1.727,1.992,1.992,0,0,0-.252-1.036,2.192,2.192,0,0,0-.756-.728,5.351,5.351,0,0,0-1.25-.532q-.747-.223-1.736-.448-1.046-.241-1.829-.5a4.857,4.857,0,0,1-1.326-.653,2.561,2.561,0,0,1-.811-.942,3.05,3.05,0,0,1-.27-1.354,3.715,3.715,0,0,1,.345-1.633,3.222,3.222,0,0,1,.98-1.2,4.652,4.652,0,0,1,1.493-.728,6.73,6.73,0,0,1,1.905-.252,6.51,6.51,0,0,1,2.36.4,6.359,6.359,0,0,1,1.876,1.13Z"
                    transform="translate(-991.627 -1181.69)"
                    fill="#fff"
                  />
                  <path
                    id="Path_291"
                    data-name="Path 291"
                    d="M1169.347,1194.2v1.157h-8.9v-13.252h8.734v1.156h-7.428v4.779h6.477v1.1h-6.477v5.058Z"
                    transform="translate(-1034.304 -1182.014)"
                    fill="#fff"
                  />
                </g>
              </g>
            </g>
          </svg>