<svg xmlns="http://www.w3.org/2000/svg" width="130.422" height="189.681" viewBox="0 0 130.422 189.681">
  <g id="jumping-2194230-0" transform="translate(-190.838 -57.163)">
    <path id="Path_1555" data-name="Path 1555" d="M344.6,199.572s-6.818-6.345-9.421-4.55c0,0-3.409,7.7-4.978,8.3-.649,1.889-1.585,3.688-2.887,3.627a3.988,3.988,0,0,0,.041,1.922c.28,1.15-2.382,6.185-4.156,5.692s-4.308-4.99-3.569-7.524a4.819,4.819,0,0,0,.111-.522c-.094-.185-3.22-6.1-3.536-9.191-.324-3.138-1.68-1.778-1.68-1.778s1.8,1.586-1.006,2.834-9.779,2.23-7-.366c0,0-.407-1.216-1.766-.107,0,0-.982,1.293,1.384,5.692,0,0,3.663,18.847,3.01,23.566,0,0-1.031,12,.131,13.139.555.546,7.693,2.579,14.752,2.374a49.688,49.688,0,0,0,13.237-2.123l-.423-16.522a25.2,25.2,0,0,1,1.9-10.268ZM321.772,235.2a8.92,8.92,0,0,1-3.9-1.877,9.184,9.184,0,0,1-2.555-3.5,9.886,9.886,0,0,1-.788-4.176,14.91,14.91,0,0,0,1.367,3.906,10.217,10.217,0,0,0,2.5,3.142,8.143,8.143,0,0,0,1.667,1.113c.292.172.608.292.912.435.32.107.632.25.961.337a19.157,19.157,0,0,0,4.091.719A11.345,11.345,0,0,1,321.772,235.2Z" transform="translate(-64.206 -77.659)" fill="#fff"/>
    <path id="Path_1556" data-name="Path 1556" d="M347.629,188.572l-.021.008c.14-2.579-1.17-8.144-1.17-8.144s-6.986.341-7.935.094c0,0-2.082-.041-1.881,6.243,0,0-2.185-2.09-1.688.534.09.476.185.891.283,1.248-4.169-2.669.858-13.693.879-12.731a1.289,1.289,0,0,0,.386.785c.862.969,2.206-.091,3.409-.509.242-.086.476-.16.707-.226a6.172,6.172,0,0,1,7.844,5.758A22.9,22.9,0,0,1,347.629,188.572Z" transform="translate(-80.588 -66.897)" fill="#fff"/>
    <path id="Path_1557" data-name="Path 1557" d="M343.631,215.4a5.715,5.715,0,0,1-1.693-1.409,4.675,4.675,0,0,1-.6-.943,2.839,2.839,0,0,1-.26-1.078,5.191,5.191,0,0,0,.443.983,7.9,7.9,0,0,0,.618.872,18.835,18.835,0,0,0,1.487,1.576Z" transform="translate(-84.833 -87.407)" fill="#fff"/>
    <path id="Path_1558" data-name="Path 1558" d="M351.606,221.708a1.9,1.9,0,0,0,.563.108c.189.019.377.044.568.069s.381.063.572.111a2.728,2.728,0,0,1,.577.2,2.568,2.568,0,0,1-1.21.093,2.369,2.369,0,0,1-.592-.167.8.8,0,0,1-.478-.415Z" transform="translate(-90.775 -92.907)" fill="#fff"/>
    <path id="Path_1559" data-name="Path 1559" d="M349.012,194.526a4.591,4.591,0,0,1-.044.568c-.031.192-.077.37-.117.556l-.253,1.1a22.053,22.053,0,0,1-.63,2.179,10.284,10.284,0,0,1-.956,2.085,3.6,3.6,0,0,1-.774.9,1.787,1.787,0,0,1-1.174.425l.212-.15a3.779,3.779,0,0,0-.023,1.4c.02.118.042.236.07.353a1.669,1.669,0,0,1,.036.222,1.611,1.611,0,0,1,0,.22,3.793,3.793,0,0,1-.165.787,10.765,10.765,0,0,1-1.384,2.745,7.633,7.633,0,0,1-.986,1.192,2.836,2.836,0,0,1-1.374.819,1.109,1.109,0,0,1-.438,0,1.929,1.929,0,0,1-.394-.145,3.013,3.013,0,0,1-.65-.454,6.209,6.209,0,0,1-1.008-1.162,10.835,10.835,0,0,1-1.366-2.712,8.124,8.124,0,0,1-.354-1.48,4.373,4.373,0,0,1,.015-1.528,28.087,28.087,0,0,0,.464-2.972q.176-1.5.327-3l.192.182a1.089,1.089,0,0,1-.529-.03,1.164,1.164,0,0,1-.447-.281,2.635,2.635,0,0,1-.522-.817,9.671,9.671,0,0,1-.534-1.765,6.58,6.58,0,0,1-.185-.913,2.248,2.248,0,0,1,0-.5.771.771,0,0,1,.292-.562.74.74,0,0,1,.646-.056,2.188,2.188,0,0,1,.462.219,4.944,4.944,0,0,1,.76.581l-.429.192c-.009-.583-.03-1.166,0-1.752a13.581,13.581,0,0,1,.164-1.757,6.428,6.428,0,0,1,.505-1.73c.068-.139.148-.275.227-.41a2.809,2.809,0,0,1,.3-.379,1.706,1.706,0,0,1,.394-.319,1.263,1.263,0,0,1,.242-.116.965.965,0,0,1,.308-.061h.014l.05.008.205.033.237.018c.156.015.323.014.485.022q.49.013.984.011l1.979-.024c1.321-.019,2.644-.055,3.965-.1h.006a.21.21,0,0,1,.134.044.207.207,0,0,1,.075.119c.3,1.349.529,2.706.728,4.071q.152,1.022.23,2.055a13.827,13.827,0,0,1,.034,2.068.04.04,0,0,1,0,.01.031.031,0,0,1-.007.008l-.009,0h-.01a.026.026,0,0,1-.018-.009.026.026,0,0,1-.007-.018,13.773,13.773,0,0,0-.151-2.048c-.091-.679-.207-1.354-.33-2.029-.244-1.348-.552-2.688-.868-4.018l.215.162q-1.985.117-3.971.2c-.663.029-1.326.037-1.991.043q-.5,0-1-.006c-.169-.007-.334-.006-.507-.021l-.258-.019-.285-.046.064.009a.72.72,0,0,0-.26.1,1.152,1.152,0,0,0-.274.227,2.252,2.252,0,0,0-.235.3c-.065.114-.132.228-.19.348a6.509,6.509,0,0,0-.461,1.585,12.974,12.974,0,0,0-.18,1.687c-.036.568-.023,1.14-.022,1.712v.005a.256.256,0,0,1-.042.14.255.255,0,0,1-.257.111.255.255,0,0,1-.131-.065,4.5,4.5,0,0,0-.668-.525,1.722,1.722,0,0,0-.35-.175c-.113-.037-.207-.034-.226-.012s-.076.107-.091.226a1.871,1.871,0,0,0-.006.4,6.289,6.289,0,0,0,.15.862,9.347,9.347,0,0,0,.46,1.708c.206.528.559,1.059,1.089.952a.167.167,0,0,1,.076,0,.163.163,0,0,1,.066.037.158.158,0,0,1,.042.063.164.164,0,0,1,.008.075v0q-.2,1.5-.418,2.99c-.157.994-.293,1.994-.526,2.977a5.54,5.54,0,0,0,.333,2.914,9.623,9.623,0,0,0,1.4,2.625,5.927,5.927,0,0,0,1,1.073,2.715,2.715,0,0,0,.6.385,1.6,1.6,0,0,0,.314.1.75.75,0,0,0,.31-.01,2.49,2.49,0,0,0,1.144-.76,8.6,8.6,0,0,0,.911-1.148,11.421,11.421,0,0,0,1.309-2.632,3.371,3.371,0,0,0,.156-.683,1.175,1.175,0,0,0,.006-.157,1.081,1.081,0,0,0-.023-.149c-.029-.128-.051-.258-.071-.387a4.146,4.146,0,0,1,.059-1.593.2.2,0,0,1,.2-.15h.01a1.374,1.374,0,0,0,.9-.323,3.558,3.558,0,0,0,.708-.79,9.921,9.921,0,0,0,.993-1.978c.269-.7.5-1.41.721-2.128l.314-1.083c.048-.18.107-.364.151-.541a4.551,4.551,0,0,0,.084-.553.026.026,0,0,1,.009-.017.027.027,0,0,1,.019-.007.026.026,0,0,1,.018.009.027.027,0,0,1,.007.019Z" transform="translate(-81.965 -72.841)" fill="#fff"/>
    <path id="Path_1560" data-name="Path 1560" d="M361.93,195.493c-.244-.122-.471-.241-.7-.344a2.632,2.632,0,0,0-.672-.221,1.174,1.174,0,0,0-.641.064,2.506,2.506,0,0,0-.619.414,1.2,1.2,0,0,1,.461-.692,1.17,1.17,0,0,1,.866-.191,1.749,1.749,0,0,1,.771.353,1.876,1.876,0,0,1,.531.617Z" transform="translate(-95.119 -77.548)" fill="#fff"/>
    <path id="Path_1561" data-name="Path 1561" d="M346.829,194.647a3.213,3.213,0,0,0-1.68-.345,2.291,2.291,0,0,0-.794.238c-.135.052-.251.145-.386.212s-.247.172-.389.251a3.023,3.023,0,0,1,.256-.4,2.17,2.17,0,0,1,.35-.333,1.831,1.831,0,0,1,.918-.374,1.871,1.871,0,0,1,.979.157,1.832,1.832,0,0,1,.746.6Z" transform="translate(-86.243 -77.196)" fill="#fff"/>
    <path id="Path_1562" data-name="Path 1562" d="M356.984,205.411a1.137,1.137,0,0,1-.766.9,1.274,1.274,0,0,1-.618.06,1.14,1.14,0,0,1-.553-.233c.2-.041.382-.054.552-.087a2.752,2.752,0,0,0,.479-.125,2.382,2.382,0,0,0,.447-.208,5.393,5.393,0,0,0,.458-.307Z" transform="translate(-92.718 -83.706)" fill="#fff"/>
    <path id="Path_1563" data-name="Path 1563" d="M360.494,200.2a.616.616,0,1,0-.422-.188.615.615,0,0,0,.422.188Z" transform="translate(-95.457 -80.067)" fill="#fff"/>
    <path id="Path_1564" data-name="Path 1564" d="M348.046,200.048a.617.617,0,1,0-.422-.188.617.617,0,0,0,.422.188Z" transform="translate(-88.429 -79.982)" fill="#fff"/>
    <path id="Path_1565" data-name="Path 1565" d="M352.952,210.414a.978.978,0,0,0,.033.715,1.388,1.388,0,0,0,.411.532,1.349,1.349,0,0,0,.6.287.922.922,0,0,0,.7-.14.774.774,0,0,1-.709.461,1.268,1.268,0,0,1-.849-.289,1.287,1.287,0,0,1-.46-.767.8.8,0,0,1,.275-.8Z" transform="translate(-91.368 -86.53)" fill="#fff"/>
    <path id="Path_1566" data-name="Path 1566" d="M296.135,163.3l-2.363-4.652-2.39-4.635c-.8-1.541-1.62-3.074-2.479-4.582-.424-.756-.854-1.509-1.311-2.241-.229-.366-.464-.727-.714-1.074a4.321,4.321,0,0,0-.806-.911l-.007,0a.21.21,0,0,1-.056-.06.207.207,0,0,1-.029-.077.216.216,0,0,1,0-.082.211.211,0,0,1,.034-.074.216.216,0,0,1,.066-.06.751.751,0,0,0,.25-.314,1.332,1.332,0,0,0,.1-.459,2.978,2.978,0,0,0-.159-1,6.688,6.688,0,0,0-.42-.973c-.16-.319-.353-.621-.54-.927l0-.008a.122.122,0,0,1-.017-.044l-.318-1.879-.077-.471-.038-.236-.017-.118a.51.51,0,0,0-.027-.091.917.917,0,0,0-.593-.561c-.26-.045-.5.223-.513.5-.007.3,0,.629,0,.942s.007.634.025.949a.542.542,0,0,1-.014.272.55.55,0,0,1-.144.231.739.739,0,0,1-.5.152,1.892,1.892,0,0,1-.932-.328c-.138-.087-.267-.2-.387-.285s-.259-.171-.394-.249a15.647,15.647,0,0,0-1.707-.815l-.88-.354a5.779,5.779,0,0,0-.872-.3.684.684,0,0,0-.7.222,1.09,1.09,0,0,0,.032.8.155.155,0,0,1,0,.088.152.152,0,0,1-.046.075.157.157,0,0,1-.079.039.154.154,0,0,1-.088-.01h0l-.762-.323a1.924,1.924,0,0,0-.729-.217.9.9,0,0,0-.631.191c-.129.119-.107.339-.009.567a.2.2,0,0,1,.013.107.2.2,0,0,1-.045.1.193.193,0,0,1-.091.058.2.2,0,0,1-.108,0l-.007,0a7.626,7.626,0,0,0-.872-.183,2.292,2.292,0,0,0-.823-.007.713.713,0,0,0-.467.457.62.62,0,0,0,.277.569.239.239,0,0,1,.037.315l0,.005a.811.811,0,0,0-.152.3.821.821,0,0,0-.02.333c.041.141.283.248.553.279a4.028,4.028,0,0,1,.474.067,3.9,3.9,0,0,1,.468.143,7.088,7.088,0,0,1,.861.4,15.725,15.725,0,0,1,1.573.988c.5.356.991.725,1.47,1.122l-.029-.022c.842.536,1.684,1.078,2.534,1.6.424.259.853.522,1.279.753l.156.079.233.1a.552.552,0,0,1,.113.142l.054.093.091.176c.114.232.217.461.32.692.81,1.844,1.516,3.719,2.208,5.6s1.342,3.78,1.923,5.7c.29.96.571,1.924.8,2.9a14.31,14.31,0,0,1,.469,2.973.03.03,0,0,1,0,.01.028.028,0,0,1-.006.008.024.024,0,0,1-.009.006l-.01,0a.028.028,0,0,1-.018-.008.029.029,0,0,1-.009-.019,14.213,14.213,0,0,0-.6-2.925q-.421-1.438-.9-2.858c-.647-1.891-1.344-3.766-2.062-5.632s-1.476-3.72-2.273-5.544c-.1-.226-.2-.453-.313-.67l-.082-.158-.04-.069c0-.013-.045-.056,0-.008.023.014,0,.009.084.044a.245.245,0,0,0,.075.01h-.019a.483.483,0,0,1-.15-.036c-.046-.016-.07-.03-.106-.045l-.179-.09c-.456-.244-.882-.5-1.313-.764-.857-.525-1.707-1.055-2.549-1.6l-.027-.02,0,0a19.662,19.662,0,0,0-2.929-2.079,6.591,6.591,0,0,0-.792-.376,3.34,3.34,0,0,0-.4-.129,3.651,3.651,0,0,0-.429-.064,1.668,1.668,0,0,1-.512-.149.829.829,0,0,1-.431-.456.948.948,0,0,1,.007-.6,1.727,1.727,0,0,1,.239-.479l.034.32a1.522,1.522,0,0,1-.337-.431.887.887,0,0,1-.067-.605,1.046,1.046,0,0,1,.308-.492,1.142,1.142,0,0,1,.488-.275,2.62,2.62,0,0,1,1,.018,7.918,7.918,0,0,1,.919.216l-.237.263a1.3,1.3,0,0,1-.1-.477.688.688,0,0,1,.054-.274.7.7,0,0,1,.157-.231,1.238,1.238,0,0,1,.913-.279,2.251,2.251,0,0,1,.844.264l.755.341-.213.191a1.349,1.349,0,0,1,.017-1.048.731.731,0,0,1,.471-.326,1.3,1.3,0,0,1,.529-.011,5.854,5.854,0,0,1,.919.337l.876.379c.58.264,1.159.532,1.715.852.139.082.276.167.408.263s.247.2.377.283a1.724,1.724,0,0,0,.839.308.575.575,0,0,0,.39-.107.376.376,0,0,0,.1-.17.384.384,0,0,0,0-.2l-.031-.954c-.006-.322-.019-.626-.014-.962a.817.817,0,0,1,.208-.484.6.6,0,0,1,.508-.192.831.831,0,0,1,.465.252,1.33,1.33,0,0,1,.291.423.719.719,0,0,1,.04.137l.018.117.04.233.087.467.376,1.866-.021-.052c.2.306.408.61.584.935a6.894,6.894,0,0,1,.472,1.01,3.31,3.31,0,0,1,.21,1.129,1.324,1.324,0,0,1-.538,1.122l.011-.358a4.137,4.137,0,0,1,.948,1c.261.357.5.723.74,1.092.469.739.914,1.491,1.342,2.25.845,1.526,1.646,3.072,2.432,4.626s1.533,3.126,2.279,4.7,1.461,3.159,2.154,4.755a.027.027,0,0,1-.013.035.029.029,0,0,1-.02,0,.026.026,0,0,1-.015-.013Z" transform="translate(-45.836 -45.399)" fill="#fff"/>
    <path id="Path_1567" data-name="Path 1567" d="M296.263,159.289a3.338,3.338,0,0,1-1.617.813.23.23,0,0,1-.088,0,.222.222,0,0,1-.081-.035.225.225,0,0,1-.095-.145.224.224,0,0,1,0-.088.23.23,0,0,1,.034-.081.225.225,0,0,1,.063-.062.237.237,0,0,1,.082-.033.241.241,0,0,1,.059,0A3.113,3.113,0,0,0,296.263,159.289Z" transform="translate(-58.462 -57.664)" fill="#fff"/>
    <path id="Path_1568" data-name="Path 1568" d="M297.725,147.048c.142.433.245.856.39,1.262a4.417,4.417,0,0,0,.243.593,2.4,2.4,0,0,0,.365.539,1.228,1.228,0,0,1-.54-.429,2.238,2.238,0,0,1-.318-.616,2.94,2.94,0,0,1-.14-1.349Z" transform="translate(-60.338 -50.752)" fill="#fff"/>
    <path id="Path_1569" data-name="Path 1569" d="M286.591,143.409l-3.416-1.33a.133.133,0,0,1-.075-.172.133.133,0,0,1,.07-.073.134.134,0,0,1,.1,0l.009,0Z" transform="translate(-52.089 -47.802)" fill="#fff"/>
    <path id="Path_1570" data-name="Path 1570" d="M282,144.674l-4.031-1.515a.137.137,0,0,1-.044-.027.145.145,0,0,1-.03-.042.133.133,0,0,1,0-.1.146.146,0,0,1,.027-.044.134.134,0,0,1,.093-.042.139.139,0,0,1,.051.009l.007,0Z" transform="translate(-49.146 -48.411)" fill="#fff"/>
    <path id="Path_1571" data-name="Path 1571" d="M277.482,146.827q-1.058-.357-2.135-.646c-.359-.093-.72-.18-1.082-.248a3.665,3.665,0,0,0-1.063-.08l-.015,0a.128.128,0,0,1-.051,0,.125.125,0,0,1-.047-.023.134.134,0,0,1-.034-.039.134.134,0,0,1-.013-.1.131.131,0,0,1,.11-.1h.009a3.772,3.772,0,0,1,1.147.147c.365.091.722.2,1.077.316Q276.448,146.406,277.482,146.827Z" transform="translate(-46.412 -49.929)" fill="#fff"/>
    <path id="Path_1572" data-name="Path 1572" d="M382.744,154.875l1.517-5.639.747-2.821c.119-.471.239-.943.343-1.413a13.677,13.677,0,0,0,.216-1.425c.217-1.929.4-3.869.6-5.806q.149-1.454.327-2.907.09-.726.2-1.454c.047-.243.087-.485.14-.729l.091-.368a3.794,3.794,0,0,1,.149-.4.15.15,0,0,1,.072-.078l.031-.015a8.031,8.031,0,0,0,1.235-.786,9.649,9.649,0,0,0,1.109-.981,10.3,10.3,0,0,0,1.735-2.392l0-.006a.173.173,0,0,1,.034-.046l2.517-2.483a.635.635,0,0,0,.144-.322,1.343,1.343,0,0,0,.01-.4.423.423,0,0,0-.142-.286.442.442,0,0,0-.315-.066.642.642,0,0,0-.324.157l-.313.306c-.214.207-.431.411-.653.61a6.666,6.666,0,0,1-1.459,1.064.829.829,0,0,1-.246.065.3.3,0,0,1-.286-.125.641.641,0,0,1-.02-.518,2.962,2.962,0,0,1,.446-.8,11.982,11.982,0,0,1,1.187-1.338,3.775,3.775,0,0,0,1.017-1.389c.1-.264.067-.563-.192-.663a.774.774,0,0,0-.762.112,5.918,5.918,0,0,0-1.306,1.153c-.194.22-.383.445-.563.678s-.34.477-.556.7a2.271,2.271,0,0,1-.352.3,1.388,1.388,0,0,1-.2.122.327.327,0,0,1-.307.023.208.208,0,0,1-.074-.081.521.521,0,0,1-.024-.084.55.55,0,0,1,0-.136,1.263,1.263,0,0,1,.052-.234,3.859,3.859,0,0,1,.159-.428,5.233,5.233,0,0,1,.434-.8l.5-.732a10.528,10.528,0,0,0,.864-1.522,2.083,2.083,0,0,0,.209-.789.387.387,0,0,0-.133-.286.306.306,0,0,0-.279-.085,1.31,1.31,0,0,0-.637.431,4.084,4.084,0,0,0-.5.688,8.688,8.688,0,0,0-.407.773c-.135.271-.283.532-.437.789a11.485,11.485,0,0,1-1.033,1.484c-.051.059-.1.117-.164.175a1.2,1.2,0,0,1-.1.086.327.327,0,0,1-.074.053.632.632,0,0,1-.065.03.317.317,0,0,1-.118.007.277.277,0,0,1-.175-.107.389.389,0,0,1-.055-.1.818.818,0,0,1-.037-.151,2.049,2.049,0,0,1-.018-.248,7.807,7.807,0,0,1,.052-.913,16.6,16.6,0,0,1,.373-1.76,3.457,3.457,0,0,0,.087-.825,2.151,2.151,0,0,0-.135-.773c-.045-.1-.117-.177-.128-.168s0,0-.016,0a.08.08,0,0,1-.038.014.774.774,0,0,0-.118.091,3.017,3.017,0,0,0-.459.666,7,7,0,0,0-.633,1.588c-.074.278-.135.559-.186.845s-.084.565-.164.9a7.548,7.548,0,0,1-.675,1.713,1.684,1.684,0,0,1-.74.744.754.754,0,0,1-.331.052,1.11,1.11,0,0,1-.17-.022l-.146-.063a1.333,1.333,0,0,1-.432-.341,12.57,12.57,0,0,1-.844-1.586.742.742,0,0,0-.541-.334,1.336,1.336,0,0,0-.366,0l-.188.033c-.047.02-.108.034-.145.054-.079.052-.061.038-.068.094a.774.774,0,0,0,.115.293c.133.229.314.464.486.714a3.842,3.842,0,0,1,.251.4,1.945,1.945,0,0,1,.183.478c.072.312.108.608.148.906l.206,1.762c.04.289.082.578.141.855a3.382,3.382,0,0,0,.106.4.88.88,0,0,0,.128.265l.061.1a.222.222,0,0,1,.034.091.231.231,0,0,1-.007.1c-.552,1.852-1.136,3.694-1.7,5.541l-1.712,5.538-1.712,5.538-1.753,5.526a.029.029,0,0,1-.013.016.027.027,0,0,1-.036-.011.029.029,0,0,1,0-.02l1.571-5.58L378.6,140.6l1.613-5.568c.542-1.855,1.066-3.715,1.622-5.565l.088.284a.92.92,0,0,1-.2-.263,1.261,1.261,0,0,1-.1-.242,3.91,3.91,0,0,1-.125-.46c-.065-.3-.109-.6-.151-.9l-.212-1.765c-.039-.288-.078-.581-.14-.845a2.028,2.028,0,0,0-.355-.7c-.163-.237-.347-.471-.513-.753a1.251,1.251,0,0,1-.188-.533.422.422,0,0,1,.014-.186.427.427,0,0,1,.076-.186.7.7,0,0,1,.267-.243,1.989,1.989,0,0,1,.269-.1l.249-.046a1.9,1.9,0,0,1,.519-.006,1.315,1.315,0,0,1,.923.563c.383.574.475,1.174.8,1.545a.817.817,0,0,0,.254.21.449.449,0,0,1,.055.029c.018,0,.034,0,.05,0,.031.016.066-.011.1-.013a1.233,1.233,0,0,0,.475-.509,7.09,7.09,0,0,0,.633-1.579c.062-.243.1-.56.16-.849s.122-.593.2-.886a7.505,7.505,0,0,1,.693-1.7,3.394,3.394,0,0,1,.559-.782,1.153,1.153,0,0,1,.238-.171,1.584,1.584,0,0,1,.172-.056.7.7,0,0,1,.2.006.722.722,0,0,1,.463.448,2.588,2.588,0,0,1,.17.964,3.82,3.82,0,0,1-.113.935,16.686,16.686,0,0,0-.394,1.706,7.527,7.527,0,0,0-.064.858,1.712,1.712,0,0,0,.01.195.469.469,0,0,0,.013.065c0,.013,0,0-.005,0a.159.159,0,0,0-.087-.049.111.111,0,0,0-.063.005.034.034,0,0,0-.016,0l.015-.012a.774.774,0,0,0,.071-.061c.048-.045.1-.094.142-.147a11.2,11.2,0,0,0,1.017-1.411c.154-.248.3-.5.436-.757s.272-.536.434-.791a4.44,4.44,0,0,1,.556-.733,1.589,1.589,0,0,1,.83-.515.616.616,0,0,1,.288.022.623.623,0,0,1,.247.15.706.706,0,0,1,.16.223.676.676,0,0,1,.061.276,2.31,2.31,0,0,1-.248.913,10.754,10.754,0,0,1-.915,1.548,8.9,8.9,0,0,0-.946,1.476,3.774,3.774,0,0,0-.158.4,1.092,1.092,0,0,0-.048.2.277.277,0,0,0,0,.107.244.244,0,0,0,.115-.032,1.2,1.2,0,0,0,.177-.1,2.064,2.064,0,0,0,.324-.273c.2-.2.358-.457.548-.686s.377-.461.576-.684a6.1,6.1,0,0,1,1.356-1.179,1.438,1.438,0,0,1,.435-.178.764.764,0,0,1,.483.066.548.548,0,0,1,.319.381.921.921,0,0,1-.046.479,3.923,3.923,0,0,1-1.044,1.463,11.789,11.789,0,0,0-1.156,1.326,2.775,2.775,0,0,0-.411.746.477.477,0,0,0,0,.344c.022.058.161.038.284-.017a6.207,6.207,0,0,0,1.376-1.051c.215-.2.425-.407.631-.617l.315-.322a.917.917,0,0,1,.461-.232.723.723,0,0,1,.533.108.714.714,0,0,1,.268.475,1.64,1.64,0,0,1,0,.488.965.965,0,0,1-.2.482l-2.484,2.561.037-.051a10.506,10.506,0,0,1-.787,1.331,9.672,9.672,0,0,1-.985,1.192,10.094,10.094,0,0,1-1.152,1.034,8.412,8.412,0,0,1-1.314.846l.1-.094c-.03.1-.072.178-.1.29l-.081.341c-.049.231-.087.471-.131.706-.077.477-.15.955-.214,1.436q-.191,1.443-.351,2.893c-.223,1.933-.4,3.87-.658,5.806a14.078,14.078,0,0,1-.253,1.455c-.116.478-.246.947-.375,1.418l-.807,2.809c-.559,1.866-1.135,3.725-1.714,5.584a.028.028,0,0,1-.013.016.029.029,0,0,1-.02,0,.028.028,0,0,1-.016-.013.027.027,0,0,1,0-.02Z" transform="translate(-104.221 -34.536)" fill="#fff"/>
    <path id="Path_1573" data-name="Path 1573" d="M403.716,135.716a13.386,13.386,0,0,0-1.119-1.147,3.49,3.49,0,0,0-.631-.452,2.218,2.218,0,0,0-.747-.248,1.412,1.412,0,0,1,.832.06,2.359,2.359,0,0,1,.72.44,3.427,3.427,0,0,1,.946,1.347Z" transform="translate(-118.788 -43.29)" fill="#fff"/>
    <path id="Path_1574" data-name="Path 1574" d="M398.483,135.623a4.071,4.071,0,0,1,0,1.29,3.84,3.84,0,0,1-.149.632,1.49,1.49,0,0,1-.318.574,4.659,4.659,0,0,0,.117-.623l.088-.623a8.747,8.747,0,0,1,.259-1.251Z" transform="translate(-116.981 -44.301)" fill="#fff"/>
    <path id="Path_1575" data-name="Path 1575" d="M391.948,144.218a3.113,3.113,0,0,1-.936-.033,1.62,1.62,0,0,1-.912-.483l-.01-.011a.271.271,0,0,1-.07-.194.27.27,0,0,1,.026-.1.277.277,0,0,1,.063-.084.273.273,0,0,1,.091-.054.256.256,0,0,1,.1-.015.267.267,0,0,1,.1.026.272.272,0,0,1,.084.063.281.281,0,0,1,.047.072,1.219,1.219,0,0,0,.562.533,2.971,2.971,0,0,0,.849.283Z" transform="translate(-112.465 -48.602)" fill="#fff"/>
    <path id="Path_1576" data-name="Path 1576" d="M313.042,300.169c.009,2.542.01,5.084-.022,7.625s-.044,5.082-.1,7.623l-.151,7.622q-.092,3.811-.256,7.619l-.1-.214a20,20,0,0,0,3.551,2.193,15.492,15.492,0,0,0,3.966,1.335,10.247,10.247,0,0,0,4.16-.058,9.055,9.055,0,0,0,3.708-1.839.131.131,0,0,1,.05-.027.133.133,0,0,1,.057,0h.007a36.935,36.935,0,0,0,4.522.256,33.38,33.38,0,0,0,4.5-.313,18.026,18.026,0,0,0,4.319-1.125,8.266,8.266,0,0,0,3.5-2.532l-.074.263-.832-7.149-.79-7.154-.8-7.154c-.272-2.384-.539-4.769-.833-7.151a.038.038,0,0,1,.007-.027.038.038,0,0,1,.024-.014.04.04,0,0,1,.027.006.037.037,0,0,1,.015.023c.461,2.358.847,4.729,1.209,7.1s.694,4.752,1.017,7.132.617,4.762.906,7.145.536,4.772.778,7.16v.006a.362.362,0,0,1-.074.257,8.957,8.957,0,0,1-3.825,2.711,18.028,18.028,0,0,1-4.5,1.074,30.63,30.63,0,0,1-4.587.175,38.635,38.635,0,0,1-4.56-.4l.115-.031a9.614,9.614,0,0,1-3.841,1.839,11.251,11.251,0,0,1-4.254.07,17.338,17.338,0,0,1-4.08-1.239,20.177,20.177,0,0,1-3.723-2.118.242.242,0,0,1-.1-.2v-.017q.031-3.812.124-7.623l.228-7.62c.069-2.54.178-5.079.277-7.619s.222-5.078.357-7.617a.037.037,0,0,1,.012-.025.035.035,0,0,1,.026-.01.036.036,0,0,1,.026.011.038.038,0,0,1,.01.026Z" transform="translate(-68.402 -137.082)" fill="#fff"/>
    <path id="Path_1577" data-name="Path 1577" d="M355.472,314.077c.589-.2,1.167-.411,1.743-.621s1.144-.438,1.695-.7a12.039,12.039,0,0,0,1.6-.858,6.319,6.319,0,0,0,1.391-1.179,4.273,4.273,0,0,1-1.224,1.414,8.006,8.006,0,0,1-1.618.959,11.534,11.534,0,0,1-1.76.636A10.482,10.482,0,0,1,355.472,314.077Z" transform="translate(-92.958 -143.167)" fill="#fff"/>
    <path id="Path_1578" data-name="Path 1578" d="M348.518,342.063c.118-2.094.325-4.18.563-6.264s.545-4.158.881-6.229c.361-2.066.752-4.129,1.266-6.166a35.432,35.432,0,0,1,1.958-5.977l-.507,1.487-.431,1.509c-.269,1.01-.532,2.022-.743,3.046-.227,1.02-.431,2.046-.637,3.072-.185,1.03-.379,2.057-.541,3.091-.365,2.061-.667,4.132-.963,6.2q-.228,1.554-.43,3.112Z" transform="translate(-89.031 -146.954)" fill="#fff"/>
    <path id="Path_1579" data-name="Path 1579" d="M356.918,346.141l.294-5.527c.091-1.842.192-3.682.239-5.524q.114-2.762.083-5.524c-.01-.92-.039-1.84-.116-2.756a10.01,10.01,0,0,0-.5-2.7,9.3,9.3,0,0,1,.68,2.684c.114.919.175,1.843.22,2.767.082,1.849.049,3.7,0,5.544-.078,1.846-.174,3.691-.326,5.53S357.165,344.311,356.918,346.141Z" transform="translate(-93.774 -150.725)" fill="#fff"/>
    <path id="Path_1580" data-name="Path 1580" d="M312.969,329.922a34.442,34.442,0,0,1,3.582-.249.277.277,0,0,1,.2.076.272.272,0,0,1,.062.088.281.281,0,0,1,.024.1h0v.012c.012.606.026,1.212,0,1.818s-.076,1.212-.115,1.819a25.277,25.277,0,0,0,0,3.636c.031.606.081,1.212.107,1.818s.037,1.212.052,1.818c.042,1.212.036,2.424,0,3.637v.027a.3.3,0,0,1-.265.288,8.267,8.267,0,0,1-1.078.063,6.581,6.581,0,0,1-1.074-.087,3.622,3.622,0,0,1-1.043-.323,1.374,1.374,0,0,1-.729-.8.033.033,0,0,1,0-.013.031.031,0,0,1,0-.012.037.037,0,0,1,.02-.016.033.033,0,0,1,.021,0,.032.032,0,0,1,.016.014,1.288,1.288,0,0,0,.778.564,3.569,3.569,0,0,0,.977.151,9.833,9.833,0,0,0,1.007-.038c.333-.034.676-.076.994-.139l-.266.316c-.04-1.212-.046-2.424,0-3.637.015-.606.027-1.212.052-1.818s.076-1.212.108-1.818a25.272,25.272,0,0,0,0-3.636c-.039-.606-.089-1.212-.115-1.818s-.013-1.213,0-1.819l.283.283a34.442,34.442,0,0,1-3.582-.249.032.032,0,0,1-.021-.011.034.034,0,0,1-.008-.022.034.034,0,0,1,.029-.033Z" transform="translate(-68.796 -153.868)" fill="#fff"/>
    <path id="Path_1581" data-name="Path 1581" d="M313.231,336.31a8.244,8.244,0,0,1,1.846.12,8.155,8.155,0,0,1,1.785.484,8.168,8.168,0,0,1-1.846-.12,8.258,8.258,0,0,1-1.785-.484Z" transform="translate(-69.107 -157.61)" fill="#fff"/>
    <path id="Path_1582" data-name="Path 1582" d="M287.331,372.228c-.435.477-.846.973-1.238,1.481a14.567,14.567,0,0,1-1.209,1.53c-.231.235-.476.452-.728.662s-.533.391-.8.573l-1.609,1.07a45.143,45.143,0,0,0-5.995,4.777c-.927.878-1.809,1.8-2.657,2.758s-1.63,1.954-2.424,2.984a35.212,35.212,0,0,1-2.574,2.924c-.9.938-1.928,1.724-2.89,2.589.385-.521.82-1.006,1.242-1.493s.862-.96,1.288-1.436c.859-.95,1.658-1.95,2.425-2.974a38.258,38.258,0,0,1,5.093-5.88,33.59,33.59,0,0,1,2.984-2.511,37.254,37.254,0,0,1,3.225-2.18c.551-.339,1.116-.657,1.669-.982.276-.162.549-.328.805-.5a9.5,9.5,0,0,0,.745-.59,14.4,14.4,0,0,0,1.286-1.421,16.972,16.972,0,0,1,1.362-1.38Z" transform="translate(-41.991 -177.896)" fill="#fff"/>
    <path id="Path_1583" data-name="Path 1583" d="M273.234,403.434c.627-.628,1.273-1.237,1.927-1.837s1.305-1.2,1.979-1.783c1.345-1.16,2.71-2.3,4.114-3.392a47.708,47.708,0,0,1,4.4-3.048,19.356,19.356,0,0,1,2.4-1.249c.208-.093.431-.163.647-.242s.408-.138.61-.216c.4-.157.8-.327,1.189-.52a35.631,35.631,0,0,0,8.5-6.146,27.39,27.39,0,0,0,3.438-3.993,11.973,11.973,0,0,0,2.126-4.793,11.534,11.534,0,0,1-1.857,4.97,25.7,25.7,0,0,1-3.339,4.183,34.332,34.332,0,0,1-4.005,3.558,28.15,28.15,0,0,1-4.546,2.871c-.4.2-.82.384-1.243.552-.21.083-.436.156-.642.232s-.4.138-.6.228a18.631,18.631,0,0,0-2.32,1.184c-1.506.9-2.967,1.889-4.394,2.929-1.439,1.024-2.847,2.1-4.237,3.2S274.612,402.315,273.234,403.434Z" transform="translate(-46.524 -180.147)" fill="#fff"/>
    <path id="Path_1584" data-name="Path 1584" d="M316.281,388.662c-.364.6-.745,1.166-1.049,1.761a4.083,4.083,0,0,0-.365.913,1.755,1.755,0,0,0,.01.982,1.317,1.317,0,0,1-.294-1.027,2.788,2.788,0,0,1,.321-1.037,4.545,4.545,0,0,1,1.378-1.593Z" transform="translate(-69.863 -187.175)" fill="#fff"/>
    <path id="Path_1585" data-name="Path 1585" d="M254.332,427.184a1.812,1.812,0,0,0-1.216-.394,3.545,3.545,0,0,1-3.684-2.361,4.017,4.017,0,0,1,.366-3.142c.53-.973,1.092-2.423.333-3.269-1.224-1.347-3.745,1.2-3.745,1.2a5.934,5.934,0,0,1-3.159,1.088,3.773,3.773,0,0,0-3.17,1.232c-1.055,1.179-1.614,3.031.809,5.549,0,0,1.832,1.647,2.818,7.77s3.45,13.668,7.733,11.438a1.389,1.389,0,0,0,.554-1.06,1.192,1.192,0,0,0-.7-.9,1.594,1.594,0,0,0-.567-.152,3.125,3.125,0,0,0-.612.025,3.28,3.28,0,0,1-1.314-.218,4.462,4.462,0,0,1-1.992-1.721,9.339,9.339,0,0,1-1.076-2.37l-.008-.016v-.013c-.324-1.523-.669-3.047-1.064-4.55-.2-.751-.407-1.5-.645-2.238a8.485,8.485,0,0,0-.9-2.074,10.238,10.238,0,0,1-.986-2.193c-.255-.748-.468-1.508-.649-2.276a16.613,16.613,0,0,1-.37-2.337,5.359,5.359,0,0,1,.205-2.337,5.8,5.8,0,0,0,0,2.317,22.9,22.9,0,0,0,.509,2.271c.213.748.456,1.483.739,2.2a11.557,11.557,0,0,0,1.006,2.049c.094.14.222.349.324.522s.185.365.263.55c.16.37.3.744.423,1.121.25.752.468,1.507.674,2.267.39,1.523.739,3.047,1.027,4.6a9.774,9.774,0,0,0,.945,2.246,4.012,4.012,0,0,0,1.721,1.639,2.883,2.883,0,0,0,1.162.25,3.281,3.281,0,0,1,.657.02,1.794,1.794,0,0,1,.637.23,1.352,1.352,0,0,1,.719,1.08,1.416,1.416,0,0,1-.677,1.064s1.643-.033,1.639-4.07c0-2.382.049-5.988.09-8.538-.374-.16-.714-.345-1.051-.526l-.994-.538a8.368,8.368,0,0,0-.986-.448,1.689,1.689,0,0,0-1.072-.082,1.247,1.247,0,0,1,1.166-.39,3.257,3.257,0,0,1,1.179.374,4.766,4.766,0,0,1,.981.694,3.709,3.709,0,0,1,.776.916c.033-1.77.057-3.035.057-3.035-.312-.275-.571-.55-.858-.793a6.737,6.737,0,0,0-.879-.657,7.349,7.349,0,0,0-2.066-.879,2.4,2.4,0,0,1,1.228-.091,3.091,3.091,0,0,1,1.167.448,3.16,3.16,0,0,1,.907.854,2.917,2.917,0,0,1,.5,1.117S255.926,428.519,254.332,427.184ZM246.1,428.3a1.816,1.816,0,0,1-1.676-2.362c.476-1.7.226-2.8.953-2.965s1.479.891,1.675,2.361-.225,2.8-.953,2.966Zm4.062,6.5a2.965,2.965,0,0,1,1.219.337,3.872,3.872,0,0,1,1,.735,3.232,3.232,0,0,1,.711.994c-.707-.415-1.327-.846-1.992-1.179a6.418,6.418,0,0,0-1.014-.414,5.08,5.08,0,0,0-1.134-.148,1.984,1.984,0,0,1,1.208-.324Z" transform="translate(-27.282 -203.528)" fill="#fff"/>
    <path id="Path_1586" data-name="Path 1586" d="M334.784,374.243c-.361.535-.7,1.086-1.01,1.645a14.484,14.484,0,0,1-.974,1.689c-.195.266-.406.516-.624.761s-.471.464-.71.683l-1.437,1.292a45.167,45.167,0,0,0-5.239,5.595c-.79,1-1.528,2.047-2.23,3.115s-1.33,2.171-1.965,3.3a35.267,35.267,0,0,1-2.123,3.266c-.759,1.059-1.657,1.986-2.484,2.981.305-.571.665-1.114,1.012-1.657s.713-1.074,1.066-1.607c.712-1.064,1.358-2.17,1.968-3.294a38.266,38.266,0,0,1,4.187-6.557,33.576,33.576,0,0,1,2.588-2.917,37.2,37.2,0,0,1,2.875-2.625c.5-.416,1.009-.812,1.509-1.214.25-.2.5-.4.724-.613a9.459,9.459,0,0,0,.651-.691,14.394,14.394,0,0,0,1.067-1.592,17.071,17.071,0,0,1,1.148-1.563Z" transform="translate(-70.664 -179.034)" fill="#fff"/>
    <path id="Path_1587" data-name="Path 1587" d="M326.464,401.635a91.484,91.484,0,0,1,7.383-8.572,40.333,40.333,0,0,1,4.234-3.8c.383-.287.774-.566,1.184-.824s.872-.487,1.253-.692a16.258,16.258,0,0,0,2.27-1.565,33.4,33.4,0,0,0,4.011-3.88,34.394,34.394,0,0,0,3.352-4.476,20.9,20.9,0,0,0,2.331-5.065,9.671,9.671,0,0,0,.136-5.526,9.486,9.486,0,0,1,.162,5.6,19.844,19.844,0,0,1-2.2,5.244,32.917,32.917,0,0,1-7.342,8.655,17.006,17.006,0,0,1-2.367,1.647c-.448.241-.822.428-1.216.677s-.767.505-1.139.781a47.782,47.782,0,0,0-4.221,3.677q-2.03,1.945-3.973,3.994T326.464,401.635Z" transform="translate(-76.579 -175.076)" fill="#fff"/>
    <path id="Path_1588" data-name="Path 1588" d="M362.3,390.146c-.273.649-.568,1.261-.783,1.894a4.084,4.084,0,0,0-.228.956,1.754,1.754,0,0,0,.152.97,1.319,1.319,0,0,1-.44-.974,2.791,2.791,0,0,1,.167-1.072,4.537,4.537,0,0,1,1.132-1.775Z" transform="translate(-96.081 -188.013)" fill="#fff"/>
    <path id="Path_1589" data-name="Path 1589" d="M308.11,450.715c-.218-1.475-.485-3.429-.735-5.306-.76-.312-1.437-.649-2.139-.879a6.486,6.486,0,0,0-1.064-.263,4.9,4.9,0,0,0-1.146.017,2.022,2.022,0,0,1,1.146-.5,3.157,3.157,0,0,1,1.257.156,3.8,3.8,0,0,1,1.1.583,3.275,3.275,0,0,1,.85.883c-.148-1.117-.291-2.21-.411-3.154a10.809,10.809,0,0,1-1.117-.37l-1.06-.386a8.731,8.731,0,0,0-1.043-.3,1.689,1.689,0,0,0-1.076.074,1.271,1.271,0,0,1,1.1-.554,3.264,3.264,0,0,1,1.22.2,4.725,4.725,0,0,1,1.076.542,3.906,3.906,0,0,1,.9.793c-.23-1.754-.386-3.011-.386-3.011-.345-.226-.645-.464-.965-.661a7.309,7.309,0,0,0-.961-.526,7.468,7.468,0,0,0-2.172-.567,2.329,2.329,0,0,1,1.2-.267,3.193,3.193,0,0,1,2.243.99,2.908,2.908,0,0,1,.657,1.031s2.386-2.505.616-3.594a1.8,1.8,0,0,0-1.261-.214,3.551,3.551,0,0,1-3.988-1.8,4.021,4.021,0,0,1-.09-3.163c.382-1.039.727-2.559-.148-3.281-1.4-1.158-3.532,1.729-3.532,1.729a5.935,5.935,0,0,1-2.97,1.536,3.777,3.777,0,0,0-2.957,1.676c-.871,1.322-1.154,3.232,1.606,5.376,0,0,2.049,1.364,3.914,7.278s5.4,13.023,9.31,10.194a1.374,1.374,0,0,0,.394-1.125,1.186,1.186,0,0,0-.822-.785,1.554,1.554,0,0,0-.583-.07,3.124,3.124,0,0,0-.6.115,3.321,3.321,0,0,1-1.335-.025,4.468,4.468,0,0,1-2.218-1.413,9.333,9.333,0,0,1-1.409-2.193l-.008-.013,0-.012c-.542-1.458-1.1-2.916-1.713-4.349-.3-.714-.62-1.425-.961-2.119a8.657,8.657,0,0,0-1.2-1.922,10.256,10.256,0,0,1-1.294-2.025q-.538-1.055-.969-2.16a16.128,16.128,0,0,1-.707-2.255,5.4,5.4,0,0,1-.135-2.345,5.81,5.81,0,0,0,.333,2.291,23.233,23.233,0,0,0,.838,2.173c.316.706.665,1.4,1.051,2.074a11.576,11.576,0,0,0,1.29,1.877c.115.127.271.316.4.472.111.168.234.337.341.509.209.341.4.69.579,1.043.357.707.682,1.425.994,2.148.608,1.45,1.175,2.912,1.684,4.4a9.829,9.829,0,0,0,1.257,2.086,4.052,4.052,0,0,0,1.943,1.372,2.952,2.952,0,0,0,1.187.078,3.169,3.169,0,0,1,.653-.074,1.812,1.812,0,0,1,.661.131,1.347,1.347,0,0,1,.866.969,1.393,1.393,0,0,1-.513,1.146S308.7,454.707,308.11,450.715Zm-8.9-12.769a1.818,1.818,0,0,1-2-2.095c.226-1.758-.181-2.8.513-3.072s1.593.665,2,2.091S299.9,437.675,299.21,437.946Z" transform="translate(-56.918 -208.774)" fill="#fff"/>
    <path id="Path_1590" data-name="Path 1590" d="M252.312,172.708a52.085,52.085,0,0,0,1.006,5.793,32.83,32.83,0,0,0,1.786,5.537,19.005,19.005,0,0,0,1.31,2.575,15.856,15.856,0,0,0,1.684,2.335,13.95,13.95,0,0,0,2.122,1.953,14.414,14.414,0,0,0,2.548,1.435,10.9,10.9,0,0,1-2.768-1.1,12.141,12.141,0,0,1-2.371-1.854,16.235,16.235,0,0,1-3.28-5.022,25.393,25.393,0,0,1-1.657-5.735,26.573,26.573,0,0,1-.381-5.92Z" transform="translate(-34.693 -65.24)" fill="#fff"/>
    <path id="Path_1591" data-name="Path 1591" d="M247.084,202.981a42.917,42.917,0,0,0,2.216,5.2c.434.83.88,1.651,1.382,2.436a20.92,20.92,0,0,0,1.612,2.271,15.913,15.913,0,0,0,4.087,3.69,13.124,13.124,0,0,0,2.516,1.158,14.743,14.743,0,0,0,2.751.594,10.883,10.883,0,0,1-2.856-.2,11.446,11.446,0,0,1-2.725-.988,13.564,13.564,0,0,1-2.4-1.64,16.891,16.891,0,0,1-2.01-2.094,21.656,21.656,0,0,1-2.932-4.949,23.151,23.151,0,0,1-1.639-5.468Z" transform="translate(-31.758 -82.334)" fill="#fff"/>
    <path id="Path_1592" data-name="Path 1592" d="M205.993,391.748a52.14,52.14,0,0,0-1.459,5.7,32.794,32.794,0,0,0-.643,5.782,18.971,18.971,0,0,0,.138,2.886,15.838,15.838,0,0,0,.578,2.82,13.9,13.9,0,0,0,1.134,2.653,14.383,14.383,0,0,0,1.735,2.354A10.908,10.908,0,0,1,205.4,411.8a12.162,12.162,0,0,1-1.4-2.664,16.234,16.234,0,0,1-.93-5.926,25.408,25.408,0,0,1,.842-5.911,26.584,26.584,0,0,1,2.082-5.554Z" transform="translate(-6.902 -188.918)" fill="#fff"/>
    <path id="Path_1593" data-name="Path 1593" d="M191.592,417.194a42.9,42.9,0,0,0-.111,5.648c.055.935.125,1.867.261,2.789a20.9,20.9,0,0,0,.538,2.732,15.9,15.9,0,0,0,2.213,5.042,13.132,13.132,0,0,0,1.819,2.088,14.758,14.758,0,0,0,2.266,1.67,10.876,10.876,0,0,1-2.521-1.359,11.444,11.444,0,0,1-2.079-2.019,13.547,13.547,0,0,1-1.519-2.482,16.817,16.817,0,0,1-.973-2.735,21.65,21.65,0,0,1-.643-5.716,23.135,23.135,0,0,1,.749-5.658Z" transform="translate(0 -203.285)" fill="#fff"/>
    <path id="Path_1594" data-name="Path 1594" d="M418.942,274.36a26.533,26.533,0,0,1-.415,5.917A25.389,25.389,0,0,1,416.835,286a16.228,16.228,0,0,1-3.309,5,12.162,12.162,0,0,1-2.381,1.84,10.886,10.886,0,0,1-2.775,1.081,14.361,14.361,0,0,0,2.556-1.42,13.926,13.926,0,0,0,2.134-1.941,15.863,15.863,0,0,0,1.7-2.325,19.037,19.037,0,0,0,1.326-2.568,32.843,32.843,0,0,0,1.818-5.526,52.14,52.14,0,0,0,1.04-5.786Z" transform="translate(-122.826 -122.636)" fill="#fff"/>
    <path id="Path_1595" data-name="Path 1595" d="M418.735,304.663a23.131,23.131,0,0,1-1.671,5.458,21.652,21.652,0,0,1-2.961,4.932,16.868,16.868,0,0,1-2.022,2.083,13.594,13.594,0,0,1-2.413,1.626,11.447,11.447,0,0,1-2.73.972,10.891,10.891,0,0,1-2.858.188,14.77,14.77,0,0,0,2.755-.578,13.109,13.109,0,0,0,2.523-1.143,15.9,15.9,0,0,0,4.109-3.666,20.846,20.846,0,0,0,1.625-2.261c.507-.782.958-1.6,1.4-2.428a42.823,42.823,0,0,0,2.247-5.183Z" transform="translate(-120.404 -139.747)" fill="#fff"/>
    <path id="Path_1596" data-name="Path 1596" d="M248.534,92.221a.655.655,0,0,0-.043-.262.661.661,0,0,0-.142-.224l-2.493-2.344c-.191-.161-.434-.082-.559.173a.752.752,0,0,0,.1.8l1.974,1.859L245.4,94.081a.727.727,0,0,0,0,.97l1.974,1.859L245.4,98.769a.727.727,0,0,0,0,.97l2.493,2.344c.191.179.448.106.574-.161a.735.735,0,0,0-.114-.81l-1.974-1.859,1.974-1.859a.729.729,0,0,0,0-.97l-1.974-1.859,1.974-1.859a.662.662,0,0,0,.142-.224.655.655,0,0,0,.043-.262Z" transform="translate(-30.7 -18.15)" fill="#fff"/>
    <path id="Path_1597" data-name="Path 1597" d="M218.721,319.746a.732.732,0,0,0,.149.471l1.586,1.805-1.586,1.805a.848.848,0,0,0-.084.779c.1.253.3.329.454.164l2-2.277a.82.82,0,0,0,0-.943l-1.586-1.805,1.586-1.805a.82.82,0,0,0,0-.943l-1.586-1.805,1.586-1.805a.843.843,0,0,0,.084-.778c-.1-.253-.3-.329-.454-.164l-2,2.277a.82.82,0,0,0,0,.943l1.586,1.805-1.586,1.805a.717.717,0,0,0-.149.471Z" transform="translate(-15.743 -144.091)" fill="#fff"/>
    <path id="Path_1598" data-name="Path 1598" d="M197.023,163.078a.73.73,0,0,0,.149.471l1.586,1.805-1.586,1.805a.843.843,0,0,0-.084.778c.1.253.3.329.454.164l2-2.277a.82.82,0,0,0,0-.943l-1.586-1.805,1.586-1.805a.82.82,0,0,0,0-.943l-1.586-1.805,1.586-1.805a.846.846,0,0,0,.083-.779c-.1-.253-.3-.329-.453-.164l-2,2.277a.818.818,0,0,0,0,.943l1.586,1.805-1.586,1.805a.716.716,0,0,0-.149.471Z" transform="translate(-3.492 -55.632)" fill="#fff"/>
    <path id="Path_1599" data-name="Path 1599" d="M458.953,369.039a.687.687,0,0,0,.177.485l1.883,1.859-1.883,1.859a.772.772,0,0,0-.1.8c.118.26.356.339.539.169l2.379-2.344a.754.754,0,0,0,0-.97l-1.883-1.859,1.883-1.859a.754.754,0,0,0,0-.97l-1.883-1.859,1.883-1.859a.775.775,0,0,0,.1-.8c-.118-.26-.356-.339-.539-.168l-2.379,2.344a.754.754,0,0,0,0,.97l1.883,1.859-1.883,1.859a.674.674,0,0,0-.177.485Z" transform="translate(-151.386 -171.8)" fill="#fff"/>
    <path id="Path_1600" data-name="Path 1600" d="M470.454,210.517l-1.48,1.337a2.073,2.073,0,0,0,0,2.852l.426.389a.692.692,0,0,1,0,.947l-.426.389a2.073,2.073,0,0,0,0,2.852l.426.389a.692.692,0,0,1,0,.947l-.426.389a2.073,2.073,0,0,0,0,2.852l.426.389a.692.692,0,0,1,0,.947l-1.483,1.341a.7.7,0,0,0-.106.783.36.36,0,0,0,.243.235.36.36,0,0,0,.331-.071l1.479-1.337a2.072,2.072,0,0,0,0-2.852l-.426-.389a.63.63,0,0,1-.184-.474.617.617,0,0,1,.188-.474l.426-.389a2.081,2.081,0,0,0,0-2.852l-.426-.389a.692.692,0,0,1,0-.947l.426-.389a2.081,2.081,0,0,0,0-2.852l-.426-.389a.692.692,0,0,1,0-.947l1.48-1.341a.7.7,0,0,0,.119-.791.366.366,0,0,0-.094-.152.361.361,0,0,0-.335-.089.357.357,0,0,0-.158.085Z" transform="translate(-156.347 -86.535)" fill="#fff"/>
    <path id="Path_1601" data-name="Path 1601" d="M429.566,73.661,428,72.287a.695.695,0,0,1,0-.971l.449-.4a2.08,2.08,0,0,0,0-2.921L428,67.6a.695.695,0,0,1,0-.971l.449-.4a2.08,2.08,0,0,0,0-2.921l-.449-.4a.695.695,0,0,1,0-.971l.449-.4a2.08,2.08,0,0,0,0-2.921l-1.559-1.369a.384.384,0,0,0-.605.169.705.705,0,0,0,.111.8l1.563,1.374a.694.694,0,0,1,0,.971l-.449.4a2.081,2.081,0,0,0,0,2.921l.449.4a.693.693,0,0,1,0,.971l-.449.4a2.081,2.081,0,0,0,0,2.921l.449.4a.694.694,0,0,1,0,.971l-.449.4a2.081,2.081,0,0,0,0,2.921l1.56,1.369a.385.385,0,0,0,.616-.161.7.7,0,0,0-.122-.81Z" transform="translate(-132.899)" fill="#fff"/>
    <path id="Path_1602" data-name="Path 1602" d="M360.564,73.076a2.346,2.346,0,1,1-2.341-2.188,2.27,2.27,0,0,1,2.341,2.188Z" transform="translate(-93.187 -7.749)" fill="#fff"/>
    <path id="Path_1603" data-name="Path 1603" d="M423.082,412.315a2.354,2.354,0,1,1-2.348-2.195,2.277,2.277,0,0,1,2.348,2.195Z" transform="translate(-128.478 -199.291)" fill="#fff"/>
    <path id="Path_1604" data-name="Path 1604" d="M485.512,157.007a1.885,1.885,0,1,1-1.881-1.758,1.823,1.823,0,0,1,1.881,1.758Z" transform="translate(-164.256 -55.382)" fill="#fff"/>
    <path id="Path_1605" data-name="Path 1605" d="M289.6,337.128a1.885,1.885,0,1,1-1.881-1.758,1.823,1.823,0,0,1,1.881,1.758Z" transform="translate(-53.639 -157.084)" fill="#fff"/>
    <path id="Path_1606" data-name="Path 1606" d="M339.539,152.18a1.233,1.233,0,0,0,0-2.464A1.233,1.233,0,0,0,339.539,152.18Z" transform="translate(-83.29 -52.258)" fill="#fff"/>
    <path id="Path_1607" data-name="Path 1607" d="M237.611,249.452a1.233,1.233,0,0,0,0-2.464A1.233,1.233,0,0,0,237.611,249.452Z" transform="translate(-25.738 -107.181)" fill="#fff"/>
    <path id="Path_1608" data-name="Path 1608" d="M457.41,321.82a1.233,1.233,0,0,0,0-2.464A1.233,1.233,0,0,0,457.41,321.82Z" transform="translate(-149.844 -148.043)" fill="#fff"/>
    <path id="Path_1609" data-name="Path 1609" d="M412.766,229.766a1.233,1.233,0,0,0,0-2.464A1.233,1.233,0,0,0,412.766,229.766Z" transform="translate(-124.636 -96.066)" fill="#fff"/>
  </g>
</svg>
