<svg className="md:max-w-full relative md:left-56 left-12 bottom-8 " xmlns="http://www.w3.org/2000/svg" width="707.64" height="452.75" viewBox="0 0 450.244 450.562">
  <g id="Group_349" data-name="Group 349" transform="translate(-6926.489 -3112.514)" opacity="0.781">
    <path id="Path_711" data-name="Path 711" d="M7040.933,3171.069c-2.358,7.552-8.625,11.912-17.777,12.339-8.138.38-17.635-2.392-20.805-12.178-14.623,2.963-25.993,10.283-32.359,24.21-5.1,11.156-6.053,23.048-4.9,35.025.75,7.811,3.91,14.761,11.486,18.582,6.528,3.292,13.451,4,19.838.278,10.031-5.846,20.8-6.488,31.893-5.915a1.909,1.909,0,0,1,1.511,1.143c-6.713.412-13.592.051-20.09,1.454-6.42,1.386-12.457,4.556-18.989,7.07,4.041,5.4,9.978,7.445,15.732,9.769l-.252.737a9.371,9.371,0,0,1-2.811-.3c-5.075-2.226-10.187-4.408-13.864-8.87a3.666,3.666,0,0,0-2.345-1.144c-8.524-.588-15.471-3.635-20.273-11.238-1.171-1.855-4.3-2.637-6.666-3.538-3.644-1.387-6.989-3.673-11.294-3.18a4.136,4.136,0,0,1-4.253-3.336c-.644-2.376-.554-4.628,1.543-6.351a17,17,0,0,1,2.629-2c2.838-1.515,4.362-3.454,3.246-6.912-.213-.657.741-1.983,1.487-2.606,3.056-2.552,6.325-4.853,9.332-7.458a9.012,9.012,0,0,0,2.743-3.955c2.815-9.593,7.483-17.9,15.574-24.076a46.5,46.5,0,0,1,18.315-8.324c2.375-.534,3.754-1.481,4.071-4.107a39.393,39.393,0,0,1,1.8-6.718,4.118,4.118,0,0,1,4.336-3.177c2.462-.022,5.835.523,7.135-.812,1.374-1.411.826-4.741,1.024-7.24.456-5.764.737-11.545,1.333-17.293.24-2.317-1.618-2.525-2.74-3.344-4.572-3.338-4.739-9.7-.178-13.005a9.774,9.774,0,0,1,11.276-.576,7.969,7.969,0,0,1,4.423,7.761c-.219,3.287-2.306,5.278-4.909,6.979a3.359,3.359,0,0,0-1.441,2.414c.389,7.357,1.047,14.7,1.406,22.059.12,2.459,1.03,3.357,3.4,3.114a7,7,0,0,1,3.323.083,6.648,6.648,0,0,1,3.32,2.621,50.421,50.421,0,0,1,2.618,7.93,4.213,4.213,0,0,0,3.59,3.211c8.967,1.983,16.965,5.867,23.379,12.569a45.956,45.956,0,0,1,10.811,19.741,8.866,8.866,0,0,0,2.663,3.928c3.12,2.749,6.509,5.191,9.641,7.927a3.737,3.737,0,0,1,1.156,2.951c-.585,2.786.277,4.579,2.764,5.838a14.423,14.423,0,0,1,2.93,2.1c1.835,1.619,3.119,3.574,2.266,6.132-.838,2.517-2.7,4.228-5.388,4.08-6.021-.333-10.517,3.709-15.879,5.218a3.617,3.617,0,0,0-1.747,1.695,20.249,20.249,0,0,1-14.834,10.141,9.682,9.682,0,0,0-5.893,3.179,28.753,28.753,0,0,1-12.914,7.8c-1.147.362-2.282.763-4.056,1.358l3.625,7.846c5.172.851,9.831,1.494,14.431,2.422,2.807.566,5.179,1.912,6.162,4.993.147.462,1.5.845,2.237.764,5.05-.55,8.926.932,11.137,5.822a4.242,4.242,0,0,0,1.791,1.65A43.278,43.278,0,0,1,7096,3308.885a6.673,6.673,0,0,0,.829,1.1c1.282-3.688,2.292-7.287,3.764-10.684,2.949-6.8,7.579-12.414,12.916-17.514a43.628,43.628,0,0,0,4.777-5.889c.262-.356-.229-1.2-.2-1.8.139-2.742-.218-5.676.65-8.177,1.318-3.8,5.664-4.435,10.218-2.023,5.547,2.938,6.17,7.5,1.581,11.822a13.56,13.56,0,0,1-2.637,2.036,4.4,4.4,0,0,0-2.6,3.542c-.147,1.03-1.575,1.846-2.333,2.83-.659.854-1.647,1.779-1.7,2.72-.732,12.178-6.956,21.229-16.085,28.649-1.292,1.05-2.4,1.89-2.747,3.827-.549,3.064-5.411,5.68-8.275,4.219-6.31-3.219-13.5-4.6-19.03-9.5a35.75,35.75,0,0,1-8.342-10.905c-.166-.33-.351-.652-.545-.966-.021-.035-.166,0-.568.028.83,21.646.027,43.1-10.017,63.114,3.185,2.384,4.973,5.173,3.522,9.329-.32.916.474,2.22.849,3.724l3.8-4.062c2.17,8.6,4.156,16.366,6.092,24.149,1.312,5.277-.367,10.334-1.194,15.462-.83,5.146-1.591,10.308-2.137,15.488a6.154,6.154,0,0,0,1.3,3.5c1.163,1.785,2.695,3.33,3.848,5.119a10.4,10.4,0,0,1,1.647,3.992c.27,1.885-.476,3.13-2.839,3.057-4.757-.147-9.521-.042-14.282-.044-5.139,0-9.129-4.9-6.894-9.445s1-8.258-.026-12.625a83.58,83.58,0,0,1-1.312-33.058,18.233,18.233,0,0,0-.394-8.836c-.678-2.223-2.327-2.9-4.3-1.656-10.164,6.41-20.922,7.112-32.111,3.332a31.007,31.007,0,0,1-5.464-2.662c-2.808-1.62-4.175-1.167-5.047,1.826-.389,1.335-.879,2.64-1.253,3.978-.141.5-.295,1.414-.083,1.542,2.291,1.38,1.629,3.682,1.592,5.567-.173,8.847-.388,17.7-.967,26.528-.19,2.9-1.618,5.7-2.283,8.589a8.3,8.3,0,0,0,.091,3.59c.348,1.521,1.2,2.93,1.527,4.453,1.143,5.311-1.8,8.878-7.2,8.877-4.574,0-9.148.014-13.723,0-3.157-.012-4.528-2.177-2.876-4.973,1.5-2.535,3.6-4.709,5.123-7.231a7.268,7.268,0,0,0,1.058-4.356c-.914-6.817-2.4-13.567-3.074-20.4a41.844,41.844,0,0,1,.6-12.472c1.431-6.872,3.592-13.59,5.639-21.075l3.884,4.065c.368-2.425.524-4.176.92-5.872a15.942,15.942,0,0,1,1.684-5.094c.883-1.349,1.11-2.252.368-3.7-5.929-11.547-8.2-24.045-9.172-36.817-.469-6.133-.538-12.3-.7-18.45a15.622,15.622,0,0,1,.589-3.229l.967.1c0,1.139.021,2.279,0,3.417-.311,14.616.895,29.1,5.144,43.121,3.212,10.6,8.121,20.349,17.929,26.593,6.7,4.263,14.081,5.512,21.9,4.529,15.326-1.926,23.575-12.038,28.866-25.3,6.517-16.331,7.623-33.476,6.964-50.819-.173-4.562-.432-9.132-.973-13.66a5.093,5.093,0,0,0-2.335-3.2c-5.68-3.314-11.739-3.163-17.779-1.182a5.423,5.423,0,0,0-2.688,2.744c-2.187,4.664-4.5,9.273-9.138,11.926-7.452,4.263-16.428,1.665-20.915-5.944-1.353-2.3-2.25-4.856-3.485-7.228a5.8,5.8,0,0,0-1.869-2c-1.237-.838-2.606-1.48-3.92-2.205l.354-.745,4.033,1.282c-.061-1.257-.114-2.384-.168-3.511l.683-.235a15.169,15.169,0,0,1,.97,2.027c1.516,4.863,2.974,9.657,6.2,13.852,5.332,6.933,16.564,6.936,22.016-.85,4.273-6.1,5.958-13.158,6.766-20.384.19-1.7-1.145-3.617-1.928-5.368-.795-1.779-2.016-3.4-2.61-5.229-.629-1.94-1.678-2.048-3.381-1.762-2.5.42-5.045.574-7.57.841l-.17-1.2c1.519-.217,3.033-.477,4.557-.645,7.575-.836,14.75-2.76,20.883-7.568,1.153-.9,2.3-1.819,3.838-3.041-4.4-1.706-8.807-1.263-11.094-5.391,1.361.565,2.7,1.182,4.087,1.687,13.439,4.9,26.4-2.473,28.973-16.49.529-2.885.957-5.79,1.431-8.686l.936.039c-.095,2.174-.053,4.365-.324,6.516-.275,2.187-.859,4.334-1.31,6.5,4.809.475,8.445-2.332,9.165-6.828.717-4.479,1.67-8.921,2.354-13.4a3.024,3.024,0,0,0-1.03-2.322c-3.638-2.938-7.488-5.624-11.024-8.675-1.038-.9-1.462-2.657-1.869-4.1-4.362-15.525-14.187-25.6-29.741-30.023C7044.464,3172.121,7042.782,3171.612,7040.933,3171.069Zm22.094,207.072a9.932,9.932,0,0,0-1.125,1.02c-3.074,4.17-6.668,7.673-11.509,9.835-.757.338-1.331,1.986-1.316,3.019.12,8.194.06,16.416.773,24.566.381,4.349,1.888,8.686,3.452,12.813,1.027,2.707,4.346,3.574,7.709,3.063,2.9-.441,3.945-2.263,4.328-4.935.938-6.53,1.932-13.052,3.038-19.555C7070.166,3397.436,7065.649,3388.147,7063.027,3378.141Zm-76.852.163c-.512.57-.871.8-.969,1.106-1.06,3.358-2.122,6.717-3.1,10.1-1.691,5.846-2.832,11.807-2.018,17.9.958,7.177,2.19,14.321,3.434,21.456a4.513,4.513,0,0,0,1.708,2.652c2.677,1.857,8.7,1.686,10.475-2.818a39.231,39.231,0,0,0,1.908-5.505c2.465-10.721,2.609-21.583,1.7-32.484a2.648,2.648,0,0,0-1.286-1.894C6992.957,3386.72,6989.378,3382.959,6986.175,3378.3Zm35.455-220.555h-5.6a33.82,33.82,0,0,0-5.863.094,4.869,4.869,0,0,0-3.1,2.073c-.871,1.587-1.107,3.519-1.635,5.3-2.059,6.948-1.686,9.126,3.852,12.971,7.555,5.244,15.783,4.978,23.771.828,4.925-2.559,6.826-6.761,5.586-10.961-.736-2.493-1.64-4.937-2.366-7.432-.6-2.062-1.7-3.041-4.01-2.92C7028.73,3157.886,7025.176,3157.749,7021.629,3157.749Zm54.629,131.641c-1.314,4.124-3.92,6.45-7.969,6.958-1.923.24-1.9,1.122-1.424,2.695,2.5,8.323,7.995,14.033,15.543,17.913a60.6,60.6,0,0,0,6.614,2.464c-.28-5.1,2.568-6.717,6.45-7.589A41.941,41.941,0,0,0,7076.258,3289.39Zm26.143,26.142c8.442-5.648,14.813-14.576,16.79-24.054.658-3.151,1.8-6.9-2.874-8.45-.267-.088-.44-.459-.806-.864-8.61,7.932-14.9,16.917-16.769,28.5a3.541,3.541,0,0,0,.9,2.376A22.8,22.8,0,0,0,7102.4,3315.532Zm-138.094-107.817c-3.548,2.755-6.583,4.979-9.435,7.422a3.678,3.678,0,0,0-1.019,2.852c.771,5.433,1.731,10.84,2.676,16.247a1.959,1.959,0,0,0,.811,1.327c2.4,1.049,4.847,1.979,8.084,3.269C6962.087,3228.2,6963.057,3218.245,6964.307,3207.715Zm79.793,67.45c-.722,4.157-1.41,8.116-2.074,11.942,3.677-.334,7.022-1.032,10.311-.828,3.335.207,6.616,1.3,9.89,2C7062.472,3277.954,7058.235,3274.8,7044.1,3275.165Zm-48.506,156.566c-3.443,2.869-6.219,3.031-12.919.717-1.32,3.862-6.017,5.858-6.051,10.988,5.954,0,11.623.024,17.291-.039a2.993,2.993,0,0,0,1.629-.873C6999.021,3439.5,6999.069,3436.222,6995.594,3431.732Zm57.045-.083c-.643,1.342-1.2,2.406-1.674,3.507-1.882,4.4,1.65,8.835,5.642,8.421,4.056-.421,8.191-.055,12.29-.123a14.907,14.907,0,0,0,2.852-.6,10.071,10.071,0,0,0-.757-3.074,60.416,60.416,0,0,0-4.564-6.245,2.368,2.368,0,0,0-2.138-.488C7060.189,3434.671,7056.334,3434.587,7052.639,3431.649Zm-22.193-310.273c.054-3.907-3.578-7.274-7.934-7.355-4.077-.076-7.941,3.294-7.965,6.948-.025,3.884,3.679,7.144,8.12,7.143C7026.856,3128.111,7030.394,3125.048,7030.445,3121.375Zm-4.535,34.907c-.576-8.584-1.082-16.739-1.751-24.88-.051-.622-1.263-1.148-1.935-1.719-.561.8-1.544,1.564-1.617,2.406-.629,7.42-1.132,14.851-1.548,22.286a2.319,2.319,0,0,0,1.329,1.819A41.745,41.745,0,0,0,7025.91,3156.282Zm93.49,114.434c.052,4.09,2.28,6.718,5.627,6.638,2.586-.062,7.1-4.87,7.018-7.471-.087-2.688-4.487-5.818-8.187-5.826C7120.771,3264.051,7119.343,3266.183,7119.4,3270.716Zm-55.942,12.416c.489,3.376.887,6.6,1.469,9.8a2.976,2.976,0,0,0,1.384,2.066c2.679.887,7.437-2.321,7.927-5.132.421-2.419-.171-4.593-2.233-5.894C7069.456,3282.361,7066.671,3281.188,7063.458,3283.133Zm32.173,30.606c-3.08.036-5.1,1.744-5.039,4.262.056,2.329,2.428,4.258,5.219,4.245,2.948-.014,5.31-2.08,5.212-4.557C7100.927,3315.242,7098.822,3313.7,7095.631,3313.738Zm-49.519,64.451c2.938-.184,5.412.037,7.669-.56a5.659,5.659,0,0,0,2.92-9.26c-.517-.542-2.3-.831-2.6-.478C7051.516,3370.973,7049.134,3374.228,7046.113,3378.19ZM6952.9,3222.737c-1.965,1.409-3.913,2.393-5.262,3.911-.957,1.077-1.77,3.06-1.424,4.3s2.067,2.48,3.448,2.952c1.478.5,3.264.114,5.341.114C6954.291,3230.19,6953.637,3226.691,6952.9,3222.737Zm135.6,11.2a32.989,32.989,0,0,0,5.687-.059c2.946-.542,4.525-3.843,2.743-5.865-1.75-1.982-4.046-3.482-6.588-5.6C7089.657,3226.688,7089.107,3230.122,7088.5,3233.934Zm-95.061,133.838c-2.679,2.354-3.049,5.383-.989,7.8,2.377,2.795,6.693,3.57,9.11,1.771Zm-2.792,9.33c-.8,1.686-1.268,3.409.584,5.008,1.185,1.023,2.309,2.123,3.546,3.077,2.136,1.649,2.943,1.38,3.711-1.1a16.019,16.019,0,0,1,.463-1.579c.721-1.685.251-2.428-1.606-2.88A58.037,58.037,0,0,1,6990.646,3377.1Zm67.307.5-8.875,3.071c.6,1.8,1.2,3.608,1.785,5.37C7055.643,3385.825,7059.632,3380.815,7057.953,3377.6Zm62.7-101.343c-1.655,1.68-3.316,2.6-3.617,3.844-.49,2.033,1.359,2.878,3.13,3,1.908.128,3.851-.638,3.709-2.735C7123.8,3279.163,7122.146,3278.065,7120.658,3276.26Z" transform="translate(-7.86)" fill="#fff"/>
    <path id="Path_712" data-name="Path 712" d="M7059.521,3296.2c6.689,1.711,12.862,0,18.8-3.074l.46.635c-.439.5-.781,1.188-1.332,1.478-13.39,7.036-29.688,2.809-37.254-8.929-6.607-10.252-3.632-23.865,6.8-31.141a28.841,28.841,0,0,1,38.1,4.459c8.111,9.228,7.333,23.2-2.376,31.953a5.873,5.873,0,0,1-1.748.611c.129-.744.047-1.346.3-1.558,14.64-12.431,7.479-32.646-9.457-37.92-12.123-3.774-26.023,1.625-31.617,12.789a20.759,20.759,0,0,0,5.447,24.763,43.694,43.694,0,0,0,8.746,5.236c-3.345-2.584-7.187-4.727-9.94-7.835-8.355-9.438-5.941-23.653,5.06-30.572,10.8-6.792,25.9-4.8,33.821,5.653a20.185,20.185,0,0,1-3.176,27.31,25.4,25.4,0,0,1-17.4,6.147C7061.682,3296.177,7060.6,3296.2,7059.521,3296.2Zm3.861-41.909c-3.3.82-6.795,1.205-9.877,2.536-11.324,4.892-17.208,18.519-8,29.769,7.128,8.709,21.465,10.771,30.894,4.333,6.623-4.523,10.389-10.584,9.221-18.868C7084.228,3262.18,7074.408,3254.436,7063.383,3254.287Z" transform="translate(-48.475 -60.455)" fill="#fff"/>
    <path id="Path_713" data-name="Path 713" d="M6941.384,3440.917c3.933,4.18,8.161,7.776,11.226,12.18,3.18,4.57,5.194,9.945,7.812,14.918.571,1.085,1.83,1.845,2.275,2.954,1.3,3.232,4.007,4.078,6.995,4.736a8.317,8.317,0,0,1,2.722,1.363c3.247,2.2,3.939,4.847,1.809,8.111a16.526,16.526,0,0,1-4.3,4.585c-3.529,2.415-7.715,1.021-9.4-3.083a64.029,64.029,0,0,1-2.123-7.294c-1.628-1.711-3.062-3.361-4.654-4.842a23.862,23.862,0,0,0-3.527-2.563c-8.961-5.675-13.9-14.109-16.758-24.052a4.078,4.078,0,0,0-2.14-2.335c-3.323-1.3-4.9-2.886-4.827-5.615.085-3.153,1.889-4.78,4.862-5.582a4.388,4.388,0,0,0,2.18-2.24c4.52-8.939,10.905-15.779,20.762-18.8.881-.269,1.811-.377,2.707-.6,3.395-.848,6.985-.3,10.11-3.03,2.573-2.248,6.29-2,9.588-.63,3.372-5.453,5.8-7.146,9.718-6.665-.192.348-.287.81-.52.9-3.214,1.186-6.661,2.008-7.279,6.316-.053.365-1.965.805-2.918.644-6.15-1.042-8.176-.25-11.175,4.5-1.253-.388-2.44-1.135-3.555-1.041-12.17,1.035-20.156,8.017-25.661,18.393a2.376,2.376,0,0,0-.245,1.166c2.185,2.161,4.012,3.969,6.518,6.449l17.462-6.123C6953.86,3437.985,6947.667,3439.771,6941.384,3440.917Zm17.376,28.11a4.759,4.759,0,0,0-.123-1.462c-3.654-9.59-8.91-18.023-17.56-23.943a2.618,2.618,0,0,0-2.027-.442c-4.146,1.627-4.724,3.12-3.1,7.434.326.865.6,1.752.948,2.605a36.68,36.68,0,0,0,15.2,18.158,3.772,3.772,0,0,0,2.885.008A24.093,24.093,0,0,0,6958.76,3469.027Zm1.624,11.214c-.026,4.74,2.929,9.182,6.054,9.1,2.931-.079,7.373-4.515,7.375-7.366,0-2.814-4.259-5.65-8.738-5.814C6963.2,3476.09,6960.393,3478.533,6960.384,3480.242ZM6933.2,3435.6c-2.845.045-5.245,2.042-5.239,4.361.006,2.337,2.654,4.382,5.551,4.287,2.823-.093,5.115-2.138,5.03-4.49C6938.459,3437.545,6935.907,3435.558,6933.2,3435.6Zm25.043,41.64c2.662-.365,4.282-1.182,4.363-3.276.08-2.061-1.732-2.781-3.471-2.76-1.692.02-3.726.631-3.556,2.644C6955.677,3475.045,6957.3,3476.114,6958.24,3477.24Z" transform="translate(0 -127.497)" fill="#fff"/>
    <path id="Path_714" data-name="Path 714" d="M7076.5,3532.369c0-7.635-.044-15.272.031-22.907.02-1.965-.371-2.868-2.63-3.3a11.855,11.855,0,0,1-9.128-11.815c.165-5.667,3.743-10.7,8.9-11.624,2.419-.432,3.337-1.456,3.067-3.886a11.785,11.785,0,0,1,.589-5.3c0,2.106.071,4.215-.023,6.317a2.238,2.238,0,0,0,2.132,2.674c6.153,1.023,9.317,6.219,9.724,10.96.442,5.155-2.22,10.5-7.583,11.97-4.575,1.253-4.146,3.844-4.108,7.067.077,6.612.023,13.226.023,19.839Zm0-48.616c-5.244-.511-10.3,4.244-10.574,10.372-.229,5.149,4.46,10.86,9.083,10.962.485.011,1.418-1.074,1.427-1.662C7076.54,3496.935,7076.5,3490.444,7076.5,3483.752Zm1.188,21.3c5.944.173,10.457-5.461,10.287-11.047-.159-5.262-4.84-10.683-10.287-10.24Z" transform="translate(-60.827 -158.809)" fill="#fff"/>
    <path id="Path_715" data-name="Path 715" d="M7063.626,3362.039a12.928,12.928,0,0,1-4.664-7.109c-.131-.467.788-1.73,1.333-1.8a96.589,96.589,0,0,1,14.417-1.021c-4.3,2.7-9.516.382-14.338,2.9q2,3.276,3.994,6.548Z" transform="translate(-58.266 -105.388)" fill="#fff"/>
    <path id="Path_716" data-name="Path 716" d="M7136.5,3513.549c-.544-.865-1.257-1.469-1.2-1.987.57-5.074,1.221-10.142,2-15.188.083-.541,1.086-1.24,1.737-1.33a22.3,22.3,0,0,1,4.422.029c-5.02.891-4.976.9-5.672,6.108-.319,2.391-.948,4.741-1.252,7.134A46.391,46.391,0,0,0,7136.5,3513.549Z" transform="translate(-91.849 -168.221)" fill="#fff"/>
    <path id="Path_717" data-name="Path 717" d="M7025.221,3495.391c5.507-.707,5.648-.734,6.643,4.479.709,3.723,1.028,7.525,1.4,11.3a2.2,2.2,0,0,1-1.2,1.861,37.769,37.769,0,0,0-.031-4.463c-.353-2.94-1.037-5.845-1.3-8.791-.36-4.051-.262-4.076-4.425-4.3C7025.944,3495.464,7025.583,3495.422,7025.221,3495.391Z" transform="translate(-43.43 -168.272)" fill="#fff"/>
    <path id="Path_718" data-name="Path 718" d="M7146.745,3340.75c-7.4,2.61-17.1-2.007-20.042-7.025C7132.8,3338.394,7139.1,3341.509,7146.745,3340.75Z" transform="translate(-88.07 -97.306)" fill="#fff"/>
    <path id="Path_719" data-name="Path 719" d="M7146.7,3246.4c-7.7-.082-13.62,2.69-19.259,6.929C7129.66,3248.74,7140.171,3244.194,7146.7,3246.4Z" transform="translate(-88.393 -58.642)" fill="#fff"/>
    <path id="Path_720" data-name="Path 720" d="M7020.442,3337.211c-5.076,4.86-11.012,6.976-18.061,5.124C7009.063,3342.982,7014.842,3340.547,7020.442,3337.211Z" transform="translate(-33.384 -98.839)" fill="#fff"/>
    <path id="Path_721" data-name="Path 721" d="M7023.725,3252.994c-3.076-1.735-5.779-3.671-8.78-4.837-3.055-1.187-6.4-1.614-9.277-2.291C7009.385,3243.932,7019.906,3247.647,7023.725,3252.994Z" transform="translate(-34.829 -58.431)" fill="#fff"/>
    <path id="Path_722" data-name="Path 722" d="M7009.022,3438.08l-4.359-.837.047-.7a11.946,11.946,0,0,0,3.282-.359c.905-.36,1.588-1.281,2.871-2.391-.165,3.329-.316,6.356-.467,9.384l-.884.127a21.418,21.418,0,0,1-.471-2.369C7008.96,3440.024,7009.022,3439.1,7009.022,3438.08Z" transform="translate(-34.387 -141.323)" fill="#fff"/>
    <path id="Path_723" data-name="Path 723" d="M7048.461,3405.759c.183-3.844-2.012-5.341-5.059-6.123l7.1-1.011-1.3,6.592Z" transform="translate(-51.427 -125.854)" fill="#fff"/>
    <path id="Path_724" data-name="Path 724" d="M7062.025,3382.647l-3.277,5.57-.677-.184c.325-1.915.651-3.828,1.05-6.176Z" transform="translate(-57.88 -118.479)" fill="#fff"/>
    <path id="Path_725" data-name="Path 725" d="M7100.5,3358.317a7.054,7.054,0,0,1-5.2,7.214Z" transform="translate(-74.256 -108.124)" fill="#fff"/>
    <path id="Path_726" data-name="Path 726" d="M7031.332,3420.649h-8.208q.015-.442.028-.883C7025.905,3419.348,7028.661,3418.817,7031.332,3420.649Z" transform="translate(-42.508 -134.974)" fill="#fff"/>
    <path id="Path_727" data-name="Path 727" d="M6997.913,3443.781l-4.649,3.8-1.156-1.218,4.373-4.1Z" transform="translate(-28.864 -145.052)" fill="#fff"/>
    <path id="Path_728" data-name="Path 728" d="M7075.209,3384.824h5.225l.037.706h-5.151C7075.282,3385.294,7075.246,3385.059,7075.209,3384.824Z" transform="translate(-65.419 -119.783)" fill="#fff"/>
    <path id="Path_729" data-name="Path 729" d="M7102.593,3347.913l4.983.8c-1.836,1.605-2.271,1.58-5.122-.065Q7102.524,3348.281,7102.593,3347.913Z" transform="translate(-77.403 -103.547)" fill="#fff"/>
    <path id="Path_730" data-name="Path 730" d="M7071.428,3294.855c-9.616-.04-17.089-7.255-17.049-16.459.039-8.962,7.813-16.332,17.221-16.327,9.487.005,17.364,7.622,17.293,16.72C7088.822,3287.716,7081.02,3294.894,7071.428,3294.855Zm-15.889-17.267a37.044,37.044,0,0,1,5.419-1.132,3.02,3.02,0,0,1,2.473,1.231,14.626,14.626,0,0,1,.953,4.887,2.724,2.724,0,0,1-1.295,2.022,43.158,43.158,0,0,1-4.843,1.909c3.023,5.872,11.565,8.829,18.312,6.573,7.443-2.488,12.707-9.3,10.67-18.168-1.3-5.669-7.428-11.812-16.344-11.525C7062.417,3263.655,7055.977,3270.448,7055.539,3277.588Zm1.549,7.877c6.827-1.811,7.343-2.779,4.5-8.211l-6.558,2.029Z" transform="translate(-56.256 -65.786)" fill="#fff"/>
  </g>
</svg> 
<svg className="md:max-w-full max-w-full ml-24 relative md:left-64  -left-8 top-4" xmlns="http://www.w3.org/2000/svg" width="639.367" height="447.203" viewBox="0 0 639.367 447.203">
  <g id="Group_351" data-name="Group 351" transform="translate(-849 -3906.488)">
    <g id="Group_350" data-name="Group 350" transform="translate(849 3906.488)">
      <path id="Path_731" data-name="Path 731" d="M-2896.966,4061.583c-2.1-.665-6.365,2.581-6.91,4.676,1.5-.769,2.829-1.486,4.188-2.147,3.584-1.744,3.852-1.515,5.148,2.206,2.819,8.089,2.344,16.433,1.435,24.625-2.269,20.432-7.248,40.3-13.414,59.9-.892,2.834-1.963,3.538-4.475,3.591a1.72,1.72,0,0,1,.185,1.854h.431c3.181.014,4.5-1.171,5.205-3.9.822-3.174,1.672-6.344,2.628-9.479a283.282,283.282,0,0,0,11.448-55.817,57.143,57.143,0,0,0-1.934-21.559A6.834,6.834,0,0,0-2896.966,4061.583Z" transform="translate(3137.749 -3712.943)" fill="#fff"/>
      <path id="Path_732" data-name="Path 732" d="M-3756.907,2747.585c-1.237-2.284-2.043-4.374-.277-6.9.659-.943.45-2.643.318-3.965-1.4-13.992-2.906-27.975-4.28-41.97-.26-2.646-1.937-3.343-4.018-4.315-2.968-1.386-6.43-2.813-8.289-5.274-6.615-8.759-8.241-18.9-6.2-29.588.951-4.979,2.79-6.515,7.012-6.769a9.166,9.166,0,0,1,9.326,5.9c1.537,4.258,4.133,5.648,9.109,4.76v-5.292l-.473-.03-1.3,3.513c-4.366,1.051-5.254-2.074-6.627-4.8-2.387-4.738-6.812-6.547-12.63-5.382-3.1.62-5.672,4.353-6.354,8.728-1.146,7.35-.093,14.438,2.1,21.449,1.9,6.083,5.183,11.792,11.233,13.492,5.4,1.517,5.476,4.85,6.025,8.735.127.9.2,1.806.291,2.709.913,8.684,1.848,17.366,2.728,26.054.352,3.479,1.331,7.123.665,10.416-.728,3.595-3.031,6.871-5,11.029l-1.32-3.08a34.849,34.849,0,0,1-12.742,14.743c-12.064,8.323-25.842,12.978-39.465,17.9-8.676,3.132-17.45,5.994-26.188,8.952-4.471,1.514-8.159,3.988-9.454,8.754-1.065,3.919-1.7,7.96-2.439,11.962-.716,3.849-.324,8.215-3.714,10.965-4.534,3.678-5.226,8.244-3.878,13.426.856,3.292-.314,5.6-3.147,7-3.624,1.784-5.141,4.643-5.755,8.524-.819,5.178-1.264,10.678-6.469,13.9a34,34,0,0,0-4.151,2.907c-6.985,5.931-14.589,11.326-18.059,20.388-.1.26-.765.3-1.288.492-.222-.537-.37-.945-.556-1.335-4.811-10.1-3.459-9.8-13.411-9.086-3.5.252-6.371-.934-7.889-4.146a109.254,109.254,0,0,1-5.153-12.429c-1.44-4.374-1.954-9.081-6.758-11.49-4.473-2.243-9.353-3.984-12.073-8.7-.144-.249-.656-.259-.873-.495a52.789,52.789,0,0,1-5.009-5.643c-2.772-4.065-4.517-9.146-8.028-12.324-7.193-6.509-12.827-14.129-18.315-21.943-1.455-2.072-2.335-1.477-3.565.047-1.3,1.609-2.725,3.115-4.691,5.339.087-4.809-1.01-8.649,1.7-12.291.817-1.1.357-3.333.116-4.995-.529-3.645-1.87-7.255-1.875-10.881q0-1.483,0-2.967a16.41,16.41,0,0,1-1.622-3.694,63.529,63.529,0,0,1-2.1-10.754c-.029-.21-.06-.42-.089-.63-1.993-4.741-3.931-9.557-6.37-14.106-3.342-6.233-6.009-12.372-4.23-19.618.429-1.746-.548-2.371-2.19-2.618-4.188-.629-7.352.909-9.609,5.071-.59-2.448-.957-4.1-1.389-5.742-2.4-9.108-5.473-17.914-11-25.706a4.39,4.39,0,0,0-5.619-1.78,6.96,6.96,0,0,0-3.311,4.078,12.049,12.049,0,0,0,.142,6.033c1.785,6.878,3.881,13.675,5.77,20.528,1.061,3.846,1.948,7.74,2.914,11.613l-1.1.381a5.987,5.987,0,0,1-.978-1.146,67.545,67.545,0,0,0-16.553-21.8c-4.29-3.718-8.431-7.588-14.465-8.029-4.457-.325-7.011,2.975-5.119,7.012a37.434,37.434,0,0,0,5.318,7.672c1.918,2.316,4.277,4.263,6.287,6.511,2.166,2.424,3.812,5.427,6.284,7.44,5.475,4.457,5.712,11.675,9.6,17-2.822-2.09-5.56-4.3-7.355-7.116-5.239-8.213-12.244-14.491-20.171-19.936-2.481-1.7-4.807-2.52-7.261-.26-2.636,2.428-2.117,5.208-.106,7.555,4.459,5.207,9.128,10.235,13.762,15.29a45.458,45.458,0,0,1,8.9,13.469,38.422,38.422,0,0,1-4.88-1.906c-5.522-3.229-11.043-6.468-16.438-9.9-2.132-1.356-4.563-2.319-6.058-.316-.968,1.3-.7,4.157,0,5.93,1.75,4.439,5.429,7.305,9.456,9.677a44.006,44.006,0,0,1,18.255,20.2c4.092,9.027,9.253,17.3,17.591,23.159a47.092,47.092,0,0,1,4.305,3.832l-11.03,13.564.9,1.31,22.592-5.153c-8.406,6.823-18.115,10.942-28.364,14.165a10.735,10.735,0,0,0,.813,1.392q25.338,27.749,50.628,55.542a7.162,7.162,0,0,1,1.177,1.857,1.778,1.778,0,0,1,2.382,1.618q.011.465.02.93.248.114.49.24v-.355l.658.736a6.678,6.678,0,0,1,2.06,1.963,5.374,5.374,0,0,1,.453.854c3.112,3.494,6.008,6.757,8.955,9.972,13.09,14.278,26.132,28.6,39.37,42.742,4.451,4.754,9.834,8.307,16.5,9.347a51.016,51.016,0,0,0,33.208-5.654c8.927-4.946,17.154-11.157,25.69-16.809l-.951-1.475c-2.382,1.607-4.873,3.077-7.128,4.847-10.552,8.277-21.474,15.737-35.278,17.441-7.381.911-14.891,1.735-21.591-2.153a52.784,52.784,0,0,1-12.165-9.521c-16.53-17.849-32.77-35.965-49.051-54.043a4.9,4.9,0,0,1-.948-3.046q0-.455,0-.911c-.313-.337-.614-.684-.909-1.036a1.442,1.442,0,0,1-.49-.6q-.33-.42-.642-.854v2.85l-50.126-54.958c3.638-1.475,7.334-2.548,10.6-4.385,6.707-3.771,13.123-8.053,19.776-11.925,4.069-2.369,8.377-4.323,12.534-6.545,2.339-1.25,4.589-2.666,7.215-4.2v1.381c.12-.181.246-.358.386-.531a9.912,9.912,0,0,1,1.752-1.608,3.618,3.618,0,0,1,.809-1.813c1.87-1.946,3.951-3.689,6.068-5.618.237.293.708.9,1.2,1.486,5.095,6.1,10.24,12.156,15.271,18.306,2.6,3.185,5.613,6.24,7.377,9.87a39.045,39.045,0,0,0,17.495,17.73c4,2.131,7.74,4.24,8.838,9.395a74.141,74.141,0,0,0,4.391,13.133c2.545,6.05,5.959,8.046,12.1,7.614,7.563-.532,6.653-.5,9.41,5.448,1.536,3.313,3.72,6.436,2.755,10.556a42.77,42.77,0,0,0-1.474,10.76,143.155,143.155,0,0,0,1.748,16.847c.169,1.145,1.681,2.842,2.666,2.908a4.1,4.1,0,0,0,3.093-2.46c.854-3.128,1.735-6.463,1.484-9.628-.373-4.7-1.629-9.342-2.663-13.975-.678-3.039-2.611-6.161-2.2-8.985a18.526,18.526,0,0,1,4.622-9.192c4.509-4.935,9.25-9.9,14.715-13.655,5.991-4.121,9.349-9.029,10-16.2.29-3.2,1-6.625,4.606-8.1,4.382-1.8,5.148-5.2,4.454-9.4a13.5,13.5,0,0,1-.246-4.736c.363-1.78.911-3.932,2.161-5.044a15.821,15.821,0,0,0,5.242-11c.289-3.044.917-6.054,1.292-9.093,1.045-8.491,6.711-12.094,14.2-14.639q23.3-7.918,46.25-16.834c9.129-3.57,17.53-8.627,24.105-16.2.743-.856,1.559-1.649,2.341-2.472l.636.674c-12.1,18.071-30.078,29.387-48.276,40.5l4.844,7.679c-3.531,1.072-6.707,2.146-9.943,2.986-3.182.826-5.913,1.781-6.423,5.75-.357,2.778-1.475,5.449-2.076,8.206a83.867,83.867,0,0,0-.607,32.816c1.813,10.091,4.814,19.98,7.554,29.886.881,3.186,2.595,6.142,3.928,9.2l.948-.379a11.084,11.084,0,0,0-.255-1.58c-3.133-10.128-6.795-20.126-9.307-30.405a91.688,91.688,0,0,1,.661-45.451c.947-3.63,2.542-6.147,6.825-6.763,3.754-.539,7.353-2.166,11.248-3.384l-5.128-8.107c16.959-10.111,32.886-20.973,45.41-36.177-.277,5.786-1.347,10.907-4.706,15.735-12.083,17.366-23.978,34.877-32.665,54.311-4.133,9.245-6.857,18.706-5.515,28.954q1.3,9.944,2.791,19.863a10.941,10.941,0,0,0,1.151,2.635,78.046,78.046,0,0,0-1.6-16.327c-3.124-14.59.567-27.935,7.528-40.484,6.875-12.395,14.287-24.5,21.709-36.581,3.492-5.683,7.56-11.011,11.795-17.116.339,6.865,1.193,12.8,4.583,18.113,1.333-11.166,5.485-20.736,14.373-28.255C-3751.731,2756.562-3754.422,2752.174-3756.907,2747.585Zm-237.014,61.3c-2.391,1.519-4.853,2.926-7.284,4.383l-.39-.575,11.124-13.086C-3988.991,2805.056-3989.306,2805.955-3993.921,2808.885Zm-2.452-4.644c-3.318,3.686-6.413,7.929-10.51,10.46-4.66,2.879-10.263,4.325-15.574,6.023-3.937,1.259-8.064,1.927-12.106,2.859l-.644-.943,10.471-11.684c-2.187-1.869-4.316-4-6.742-5.7-7.279-5.117-12.024-12.3-15.494-20.137a51.9,51.9,0,0,0-20.9-23.624c-3.09-1.923-5.427-5.19-7.747-8.129-.7-.882-.168-2.73-.2-4.135,1.469.257,3.166.13,4.362.844,3.268,1.951,6.205,4.464,9.5,6.36a78.77,78.77,0,0,0,10.052,4.673c.984.394,2.323-.1,3.5-.184-.17-1.066-.015-2.354-.565-3.162-2.962-4.352-5.885-8.763-9.232-12.813-3.877-4.689-8.392-8.858-12.171-13.617-1.125-1.417-1.663-4.743-.776-5.992,1.514-2.132,3.92-.739,5.932.637a72.186,72.186,0,0,1,19.963,20.191c2.317,3.541,5.259,6.683,10.591,7.788a20.053,20.053,0,0,0-.934-4.02,90.758,90.758,0,0,0-5.806-11.009,101.65,101.65,0,0,0-8.463-10.352c-3.035-3.429-6.4-6.566-9.365-10.054a26.876,26.876,0,0,1-4.208-6.792,4.119,4.119,0,0,1,1.046-3.8,5.48,5.48,0,0,1,4.265-.552c6.061,1.761,10.184,6.339,14.721,10.391,5.42,4.84,8.854,10.975,12.457,17.085.987,1.674,2.792,2.864,4.222,4.276.309-2.013,1.263-4.186.811-6.01-1.6-6.458-3.785-12.771-5.553-19.192-1.079-3.919-1.9-7.917-2.63-11.918a10.25,10.25,0,0,1,.223-4.377c.879-3.254,3.438-4.106,5.24-1.432a69.175,69.175,0,0,1,7.691,14.17c2.316,6.2,3.712,12.771,5.211,19.249a16.377,16.377,0,0,1-.264,6.042,30.518,30.518,0,0,0,1.321,15.755,15.437,15.437,0,0,0,1.355,2.328l1.416-.3c-.437-5.9-.621-11.827-1.381-17.682-.748-5.763.863-10.4,5.1-12.069,1.63-.642,4.333-1.331,3.791,1.664-1.592,8.806,2.757,15.731,6.447,22.928a71.281,71.281,0,0,1,8.09,35,18.625,18.625,0,0,0,.025,4.081C-3988.432,2794.4-3992.09,2799.485-3996.372,2804.241Zm97.043,118.551c-3.251-5.113-3.957-20.3-1.169-27.858C-3895.593,2906.6-3894.117,2920.311-3899.329,2922.792Zm137.732-141.3a56.173,56.173,0,0,1,1.834-34.545l9.867,13.258C-3755.725,2765.829-3759.479,2773.135-3761.6,2781.489Z" transform="translate(4077.664 -2573.475)" fill="#fff"/>
      <path id="Path_733" data-name="Path 733" d="M-2258.475,2503c-28.2-8.866-53.272-23.425-77.526-39.545l.586-1.177c2.866,1.52,5.642,3.252,8.616,4.521,9.484,4.047,18.909,8.289,28.6,11.779,15.114,5.443,30.432,10.319,45.652,15.468,3.217,1.088,6.387,2.314,10.5,3.812l-10.541,3.531.126,1.261c1.66.075,3.458.606,4.957.152,10.216-3.1,14.283,2.58,16.409,9.422,3.171,10.209,2.313,20.91,2.808,31.432.028.586-.392,1.193-1.308,1.739-.068-1.151-.122-2.3-.208-3.454-.647-8.589-.989-17.217-2.075-25.75-.623-4.9-2.227-9.9-7.5-12.028-1.726-.7-3.889-.46-5.844-.4-2.529.08-5.225,1.073-7.527.461-2.563-.682-4.028.166-5.658,1.6-9.68,8.51-17.065,18.848-23.446,29.917a108.9,108.9,0,0,0-6.334,13.424,27.509,27.509,0,0,0-1.022,17.406c2.275,8.913,0,16.818-3.83,24.871a87.118,87.118,0,0,0-6.058,18.6c-1.821,8.244.095,16.251,3.839,23.711a11.158,11.158,0,0,0,4.175,4.008c11.831,7.238,22.662,15.629,30.84,26.974,1.678,2.328,3.948,5.491,1.183,8.319-2.887,2.954-5.638-.163-7.748-1.615-11.661-8.025-20.105-18.992-27.06-31.138-1.185-2.07-2.111-2.66-4.446-2.12-5.541,1.281-8.5.139-10.826-4.875-2.407-5.192-6.669-7.56-11.526-9.628-10.354-4.41-20.621-9.021-30.944-13.5-4.52-1.962-9.09-3.808-14.212-5.948.561,10.584-1.918,20.011-5.424,29.237a144.1,144.1,0,0,1-13.031,26.383l-15.327-10.657c2.195-1.092,4.033-1.821,5.67-2.864,2.49-1.585,2.385-3.314.1-5.07-4.642-3.568-9.2-7.242-13.8-10.878,0,1.817.135,4.044-.034,6.248-.214,2.781-.712,5.54-1.022,8.315-.675,6.037-1.453,12.068-1.912,18.122-.326,4.3-.044,8.638-.383,12.931-.083,1.042-1.391,2.213-2.423,2.881-.758.491-1.982.306-3,.341-8.511.295-9.336-.472-9.505-8.77-.139-6.812-.256-13.625-.438-20.436-.036-1.348.067-2.916-.56-3.995-2.921-5.025-2.174-10.5-2.335-15.884-.126-4.2-.191-8.4-.469-12.594-.166-2.515.123-4.288,3.277-4.085a7.27,7.27,0,0,0,2.387-.722q-.026-.43-.052-.86c-1.965-.1-3.935-.135-5.894-.3a38.654,38.654,0,0,1-7.068-.857c-3.511-.983-5.017-5-3.649-8.555.319-.829.633-2.244.213-2.681-3.611-3.752-3.25-7.665-.884-11.806a12.319,12.319,0,0,0,.7-1.812c-6.97-5.523-6.958-5.91.367-17.248l-3.771-3.481.457-1.085c3.36,3.4,6.367,2.659,9.668.188,3.757-2.813,8.146-3.038,12.682-1.971a16.883,16.883,0,0,0,4.027-.057,26.883,26.883,0,0,1,5.39.041c.743.141,1.253,1.51,1.869,2.322a8.114,8.114,0,0,1-2.286,1.618,3.888,3.888,0,0,1-2.647-.35c-4.143-2.286-8.03-.739-12.025.474a65.8,65.8,0,0,1-8.227,1.839c-3.714.623-9.306,7.389-9.036,11.136a4.8,4.8,0,0,0,6.946,3.728,19.118,19.118,0,0,1,5.643-2.14c4.2-.781,8.466-1.246,12.711-1.795a4.548,4.548,0,0,1,2.354.084,18.084,18.084,0,0,1,2.836,2.019,11.328,11.328,0,0,1-2.887,1.681,7.874,7.874,0,0,1-3.715-.04c-4.251-1.127-7.949.172-11.683,2.046-1.695.85-3.734,1-5.594,1.544-.6.177-1.494.492-1.637.941-.8,2.515-1.993,5.1-1.945,7.641.064,3.362,2.314,3.88,5.425,3.055,6.08-1.613,12.319-2.635,18.512-3.8a3.576,3.576,0,0,1,2.605.5,9.6,9.6,0,0,1,1.7,2.639c-.8.458-1.584,1.27-2.4,1.3-1.916.077-4.046.253-5.73-.46-3.917-1.659-6.9.223-10.182,1.719-1.873.854-3.522,3-6.117,1.623-.3-.162-1.673.72-1.688,1.147-.055,1.615-.3,3.685.557,4.746.977,1.206,3,1.818,4.678,2.153,4.521.9,9.093,1.563,13.659,2.225a8.272,8.272,0,0,0,3.01-.217c3.959-.935,7.906-1.932,11.844-2.954,6.608-1.716,8.9-7.061,10.714-12.809.641-2.038,1.173-4.127,2.01-6.083a27.323,27.323,0,0,0,2.428-14.545c-.17-1.329,1.16-2.837,1.753-4.283.4-.976,1.31-2.284.982-2.935-4.232-8.41-9.4-16.116-17.418-21.968l-1.035,2.757c-5.351-.855-10.659-2.768-15.689-2.2-4.966.556-9.652,3.616-14.566,5.381,3.958-3.589,8.375-6.649,13.913-6.706,5.07-.052,10.148.8,15.278.883-4.208-3.714-9.421-3.309-14.245-2.636-4.78.666-9.377,2.642-14.37,4.137-.155-1.391-.394-3.035-.512-4.688-.375-5.208-.46-10.451-1.135-15.619-.5-3.8,1.413-5.063,4.493-5.658,4.538-.876,9.085-1.7,14.116-2.635-.885-.4-1.456-.907-1.938-.833-4.677.715-9.378,1.351-13.988,2.388-2.259.508-3.849.2-4.754-1.865a43.3,43.3,0,0,1-2.356-6.658c-1.362-5.34-.975-5.8,4.58-6.781,9.931-1.755,19.862-3.4,29.935-.856.877-2.484.673-3.589-2.115-4.219a70.107,70.107,0,0,0-24.329-.991c-3.113.387-6.164,1.28-9.652,2.03a16.942,16.942,0,0,1,5.08-14.553c6.785-6.995,17.849-8.413,31.588-4.17-1.81-3.139-3.251-6-5.036-8.631-1.74-2.563-3.832-4.888-5.981-7.585,2.246-.6,4.346-1.239,6.481-1.718,10.011-2.245,20.1-4.166,30.021-6.766a112.763,112.763,0,0,0,18.364-6.652c2.285-1.05,3.674-4.051,5.471-6.163l-.666-.564c-5.271,2.036-10.435,4.436-15.838,6.018a198.969,198.969,0,0,1-21.978,5.227c-5.62.97-14.4-5.611-16.089-11.292-.2-.666-.186-1.8.215-2.133a2.463,2.463,0,0,1,2.19-.038c10.977,5.575,22.619,5.386,34.4,4.088a10.6,10.6,0,0,1,2.03-.2c7.778.685,11.979-3.866,15.2-10.11a212.368,212.368,0,0,0,16.227-43.045c.581-2.179.893-4.433,1.272-6.661a3.936,3.936,0,0,0-.219-1.273l-1.193-1.072c-.789,1.27-1.608,2.522-2.357,3.815-.957,1.65-1.741,4.658-2.8,4.75-3,.259-6.146-.485-9.142-1.213-1.425-.347-2.641-1.556-4.276-2.578,2.94,15.534-1.775,29.216-8.444,42.455-1.974,3.919-4.4,7.61-6.507,11.465a4.319,4.319,0,0,1-4.657,2.484c-20.493-1.467-38.565-8.583-53.317-23.115a114.177,114.177,0,0,1-11.241-13.367c-1.44-1.937-1.842-4.645-3.082-7.987,4.67,1.181,8.21,2.04,11.729,2.979,2.827.755,5.6,1.734,8.461,2.322.677.139,1.819-.713,2.364-1.409,3.378-4.322,3.285-14.519-.393-18.565a12.726,12.726,0,0,0-5.171-3c-4.791-1.674-9.65-3.177-14.539-4.542-4.946-1.382-5.6-2.494-3.857-7.784,15.346,3.158,30.68,6.434,46.07,9.422a115.917,115.917,0,0,0,19.112,2.51c3.51.086,7.407-1.355,10.54-3.142,6.395-3.646,11.858-2.161,17.33,1.657a54.1,54.1,0,0,0,6.171,4.014c2.907,1.484,4.4.43,4.631-2.82a100.367,100.367,0,0,1,1.16-12.451,16.669,16.669,0,0,1,3.461-6.885c5.453-6.715,5.929-14.212,4.049-22.162-.7-2.962-1.7-5.853-2.56-8.777-.681-2.313-1.891-4.594.375-6.858.309-.309-.308-2.052-.937-2.711-4.749-4.979-10.875-7.512-17.32-9.413-4.079-1.2-8.254-2.137-12.229-3.615a62.345,62.345,0,0,1-11.535-5.886c.584-.032,1.256-.271,1.737-.065,3.516,1.5,6.983,3.122,10.488,4.654a20.58,20.58,0,0,0,4.722,1.8c10.015,1.618,19.226,4.881,26.442,12.392,6.64-6.64,4.773-16.828-4.234-21.452-5.088-2.612-10.642-4.32-15.994-6.413a6.817,6.817,0,0,1-3.219-1.948,9.692,9.692,0,0,1,2.426.027c7.328,1.963,14.573,4.282,20.659,8.957,6.063,4.657,7.525,11.9,3.815,18.855-1.512,2.835-1.764,5.115-.17,7.892.809,1.411.932,3.215,1.36,4.823,5.676-2.751,7.407-22.761,2.751-30.862-5.911-10.284-16.659-12.9-26.617-16.817,12.32,2.271,24.077,6.013,29.2,18.662s.285,24.163-6.124,36c-.932-5.14-1.693-9.339-2.455-13.537l-1.77.124a15.176,15.176,0,0,0-.119,3.511c1.181,5.971,2.9,11.867,3.631,17.886a19.3,19.3,0,0,1-4.62,15.154c-5.144,6.057-5.065,13.223-4.329,20.8l3.94-1.719.955.593c-3.4,21.092-10.886,40.773-21.087,59.828l4.9-3.839c-.5,1.926-.778,3.181-1.146,4.411a11.121,11.121,0,0,0-.75,3.959l3.935-3.449c1.539,1.743,3.041,3.971,5.033,5.6,5.968,4.886,7.583,11.429,7.8,18.667.278,9.193.761,18.382-1.765,27.4-.823,2.939-1.959,4.916-5.573,5.168a52.922,52.922,0,0,0-12.94,2.938l18.455,10.057-44.649,45.032c6.6,3.441,6.11,10.614,7.621,16.863,1.621,6.705,2.455,13.668,4.735,20.13,2.535,7.183,1.557,14.094.381,21.11-1.3,7.731-3.27,15.272-8.853,21.256a20.7,20.7,0,0,1-1.959,1.842c-3.84,3.17-7.7,6.32-12.023,9.865l11.42,7.893c9.284-17.549,18.606-34.558,16.7-55.721,3.684,1.39,6.969,2.456,10.109,3.846,10.7,4.735,21.332,9.6,32.008,14.383,3.789,1.7,7.868,2.9,11.358,5.057a18.081,18.081,0,0,1,5.949,6.5c3.223,5.867,7.73,7.326,11.865,3.979-1.259-3.781-2.827-7.443-3.688-11.265-2.937-13.033,1.21-24.891,6.93-36.247a30.259,30.259,0,0,0,2.654-20.424c-2.438-11.849.936-22.388,7.038-32.349,7.011-11.444,14.392-22.6,24.854-31.3C-2258.669,2503.965-2258.674,2503.667-2258.475,2503Zm-105.377.254q.064-.479.127-.959a14.425,14.425,0,0,1,2.42-.922c3.883-.743,7.774-1.45,11.675-2.09,6.223-1.02,6.984-.937,7.452-7.295.736-10.02.384-20.122.373-30.19a7.9,7.9,0,0,0-1.083-4.509c-2.955-3.888-6.24-7.525-9.744-11.665-3.034,3.314-6.017,6.011-8.3,9.205-3.268,4.566-5.775,9.677-9.053,14.234-7.2,10.007-15.359,19.234-26.5,24.909-3.751,1.91-4.359,3.989-3.619,7.389a18.757,18.757,0,0,1-2.811,14.658c-2.537,3.812-2.931,7.67-2.782,11.914.155,4.424.195,8.855.151,13.281a4.673,4.673,0,0,0,2.417,4.366c8.017,5.531,13.117,13.441,17.265,22.055.916,1.9.562,3.3-1.181,4.678a5.206,5.206,0,0,0-1.4,3.312c-.3,2.9.189,5.96-.56,8.7-1.454,5.325-3.436,10.517-5.4,15.689-1.728,4.553-4.277,8.348-9.506,9.655-4.4,1.1-8.7,2.592-13.274,3.978l7.1,6.45.8-2.556c9.1,6.124,16.766,12.945,19.529,24.887,3.123-2.82,6.451-4.677,8.033-7.509a66.346,66.346,0,0,0,6.276-15.547c2.084-8.034,2.677-16.16.008-24.447-2.174-6.749-3.354-13.835-4.728-20.82-1.093-5.557-1.525-11.3-7.166-14.653-.375-.222-.283-2.3.262-2.839,10.055-9.9,20.267-19.643,30.321-29.545,4.22-4.156,8.151-8.6,12.505-13.23Zm-81.382-100.372c.9,2.216,1.241,3.885,2.145,5.153,15.448,21.648,36.326,33.7,63.009,35.2a5.089,5.089,0,0,0,3.921-2.247c4.049-7.784,8.239-15.545,11.531-23.658,3.162-7.792,4.8-16.087,3.118-24.6-.659-3.342-1.735-6.6-2.621-9.9,1.24.354,1.841,1.253,2.666,1.836,3.264,2.306,6.417,4.869,9.957,6.653,3.305,1.667,5.33-.1,5.43-4.033-5-.862-5.1-.72-10.44-4.65-5.67-4.172-11.084-5.067-17.388-1.012-5.1,3.28-11.035,3.812-17.052,2.562-6.75-1.4-13.518-2.719-20.271-4.1-12.039-2.467-24.072-4.957-37.4-7.7,1.087,1.807,1.507,3.538,2.444,3.888,4.42,1.654,8.965,2.985,13.5,4.326,5.137,1.52,10.169,3.345,11.133,9.451a29.186,29.186,0,0,1,.064,10.735c-1.5,6.61-3.308,7.4-9.873,5.76C-2435.7,2405.461-2439.992,2404.27-2445.234,2402.882Zm3.958,95.327c7.786-.345,15.523-.93,23.261-.926,3.679,0,7.368,1.069,11.032,1.759,3.062.577,2.081,3.107,2.009,4.957-.021.565-1.444,1.591-2.161,1.538-8.938-.658-17.775-.973-26.711.861-7.613,1.563-7.775,1.151-5.458,8.633.067.217.117.44.2.651,1.233,3.222,2.621,3.419,5.989,2.891A149.762,149.762,0,0,1-2416,2517.1c1.6-.064,3.257,1.092,4.888,1.688q-.048.463-.1.927c-1.972.367-3.939.76-5.917,1.1-5.233.886-10.483,1.683-15.695,2.681-.9.173-2.375,1.165-2.366,1.76.1,6.737.447,13.47.748,20.752,9.121-4.348,17.727-6.2,27.168-2.732.106-1.481.26-2.674.266-3.868.047-9.356-2.258-19.076,4.3-27.416.19-.242.156-.655.246-.983a30.41,30.41,0,0,0-2.666-23,12.256,12.256,0,0,0-7.431-5.642c-6.8-1.316-13.751-1.01-20.229,2.265C-2438.078,2487.311-2441.786,2493.427-2441.276,2498.208Zm28.637,178.883a56.638,56.638,0,0,1,.027-5.7c1.067-10.055-.993-20.479,3.544-30.138a5.346,5.346,0,0,0,.074-2.356c-.187-3.853-.3-7.714-.658-11.552a8.106,8.106,0,0,0-1.4-4.053,86.61,86.61,0,0,0-6.514-7.3c-1.381-1.418-8.241-1.838-9.759-.667a2.277,2.277,0,0,0-.765,1.727c.938,9.374-1.537,19.093,2.823,28.136a6.855,6.855,0,0,1,.331,2.676q.344,11.57.642,23.14c.157,6.078,1.326,7.174,7.456,6.771C-2415.608,2677.7-2414.394,2677.386-2412.639,2677.091Zm-1.3-210.13a4.254,4.254,0,0,0,.182,1.2c4.156,7.419,8.39,14.794,12.476,22.251,1.855,3.385,2.274,3.567,5.659,1.329a91.383,91.383,0,0,0,25.275-24.943c2.845-4.168,5.394-8.538,8.078-12.816l-.712-.6C-2379.354,2460.155-2396.572,2463.756-2413.941,2466.961Zm165.53,30.405c-20.592-8.9-42.337-14.523-63.728-21.256a9.882,9.882,0,0,0,2.676,2.041c13.609,6.618,27.128,13.439,40.9,19.693C-2262.1,2500.776-2255.124,2503.831-2248.411,2497.366ZM-2292,2639.911c7.369,12.458,15.752,24,28.458,31.62,1.007.6,2.427.521,3.705.767C-2259.224,2664.721-2279.439,2644.419-2292,2639.911Zm-117.447-195.431c1.615,5.022,7.813,10.115,12.706,9.568,5.783-.646,11.484-2.071,17.195-3.281,1.986-.421,3.894-1.21,5.837-1.83C-2385.765,2447.721-2398.02,2449.887-2409.443,2444.48Zm1.356,176.53c-.716,6.08,8.6,16.9,15.489,18.246C-2393.739,2633.1-2401.843,2623.433-2408.087,2621.01Zm-17.44-56.743-.252-1.22-7,1.994.33,1.177Z" transform="translate(2766.186 -2282.066)" fill="#fff"/>
      <path id="Path_734" data-name="Path 734" d="M-1844.28,3670.577a35.585,35.585,0,0,1,.414,3.837c.035,11.125-.1,22.253.092,33.375.072,4.049,1.106,8.072,1.367,12.128,1.128,17.534.786,35.155-4.45,51.931-3.078,9.863-2.592,19.908-4.757,29.7-2.413,10.92-7.233,20.247-17.005,26.2a21.663,21.663,0,0,1-9.506,3.08,104.686,104.686,0,0,1-15.583-.668c-2.02-.174-2.936.122-3.074,2.306-.233,3.69-.7,7.365-1.133,11.765h155.371q0,.486-.007.971h-157.139c.467-4.49.86-8.844,1.4-13.18.229-1.846-.354-2.558-2.215-2.99-8.806-2.043-17.74-3.749-26.309-6.549-14.691-4.8-29.148-10.313-43.688-15.568a4.76,4.76,0,0,1-2.3-1.966c18.86,6.73,37.529,13.845,57.016,18.6-14.567-6.941-25.9-17.636-36.218-29.539l.805-.92c1.492,1.494,3.012,2.961,4.47,4.488,8.343,8.737,17.126,16.924,28.075,22.384,6.277,3.13,12.824,5.1,19.948,4.154,1.932-.255,3.121-.067,2.779,2.41a2.613,2.613,0,0,0,1.52,2.06c7.656.555,15.586,2.374,22.839-1.015a29.918,29.918,0,0,0,16.677-20.681c2.13-8.872,2.741-18.1,4.194-27.148.385-2.4,1.6-4.655,2.106-7.045,1.392-6.527,3.011-13.042,3.793-19.651.879-7.424,1.142-14.941,1.284-22.425.084-4.4-.773-8.8-.886-13.208-.4-15.417-.654-30.837-.948-46.256,0-.189.206-.383.316-.574Zm-53.548,156.889q.006-.614.013-1.228h-6.828q0,.315,0,.63Z" transform="translate(2381.91 -3398.004)" fill="#fff"/>
      <path id="Path_735" data-name="Path 735" d="M-2549.206,2340.266c-1.367-3.832-3.094-7.577-4.03-11.511-2.348-9.869-3.011-19.8,1.745-29.227,4.453-8.825,12.22-14.253,21.382-16.353,10.085-2.312,19.285-6.736,29.008-9.817a104.688,104.688,0,0,1,33.1-5.172c.41.006.819.186,1.362.866a9.709,9.709,0,0,1-2.242.615,114.431,114.431,0,0,0-48.344,11.952c-3.935,1.957-8.817,1.909-13.111,3.266-7.939,2.509-14.9,6.713-18.969,14.251a29.99,29.99,0,0,0-3.428,10.831c-.783,7.454-.57,14.967,2.067,22.17.366,1,.837,1.962.993,2.324,2.907-7.516,5.517-15.392,8.98-22.874,2.964-6.406,8.2-10.771,14.816-13.7,4.142-1.83,7.839-4.7,11.666-7.2,12.219-8.005,25.525-13.183,40.083-14.429,7.476-.639,15.052-.112,22.582-.112q-.03.894-.06,1.789c-3.061-.179-6.3.218-9.145-.662-5.508-1.7-10.872-.2-16.022.617a82.95,82.95,0,0,0-27.547,8.983c-3.438,1.909-6.777,4-10.176,5.977-5.206,3.033-10.638,5.735-15.592,9.135-7.9,5.425-11.962,13.607-14.463,22.574-1.413,5.064-2.373,10.255-3.537,15.388Z" transform="translate(2850.981 -2268.178)" fill="#fff"/>
      <path id="Path_736" data-name="Path 736" d="M-2711.06,3888.857l21.948,36.336,1.278-.595c-7.183-15.453-11.554-31.757-15.527-48.181l1.082-.357c.962,3.107,2.036,6.184,2.867,9.325,3.266,12.341,6.549,24.664,12.2,36.208.638,1.3.278,3.064.79,4.464.813,2.226,1.97,4.327,3.384,7.338a7.22,7.22,0,0,0-1.462.762c-6.048,4.392-5.238,11.441-6.4,17.546-2.28,12.017-3.962,24.148-5.8,36.246-.764,5.04-1.277,10.117-1.924,15.175-.151,1.183-.377,2.356-.569,3.533l-1.127.043c-.566-4.068-1.315-8.121-1.665-12.207-1.268-14.808-.94-29.49,4.69-43.54a46.677,46.677,0,0,1,5.12-9.839c2.779-3.878,2.906-8.256,3.419-12.6.1-.855-.662-1.877-1.18-2.729q-10.434-17.148-20.891-34.281a10.564,10.564,0,0,1-.768-2.479Zm11.376,107.429q4.192-26.209,8.384-52.418l-.862-.133C-2700.979,3960.271-2702.441,3977.951-2699.684,3996.286Z" transform="translate(2977.099 -3563.549)" fill="#fff"/>
      <path id="Path_737" data-name="Path 737" d="M-2103.442,4082.576l27.731,39.262-.633.536a87.076,87.076,0,0,1-8.682-11.274c-2.631-4.153-6.114-7.755-8.964-11.783-2.832-4-5.339-8.233-7.688-11.894l-19.8,37.14,9.463,4.583-.6,1.178c-3.541-1.523-7.131-2.952-10.556-4.7-.383-.2-.2-2.425.344-3.354,2.481-4.28,5.319-8.355,7.773-12.65C-2110.251,4101.212-2105.542,4092.743-2103.442,4082.576Z" transform="translate(2503.212 -3729.927)" fill="#fff"/>
      <path id="Path_738" data-name="Path 738" d="M-2369.115,2381c-15.566,2.953-26.169,10.249-24.583,28.211l-.854-.042c-.361-.468-1.02-.923-1.039-1.4-.4-9.893,3.829-21.272,15.547-25.077,2.46-.8,4.883-1.713,7.358-2.46a18.01,18.01,0,0,1,3.059-.393Z" transform="translate(2722.542 -2358.134)" fill="#fff"/>
      <path id="Path_739" data-name="Path 739" d="M-2391.4,2554.523c3.746,7.157,3.774,8.262,1.133,9.7C-2390.645,2561.012-2391.024,2557.767-2391.4,2554.523Z" transform="translate(2719.147 -2498.869)" fill="#fff"/>
      <path id="Path_740" data-name="Path 740" d="M-2226.48,2368.851l-8.934.453-.038-.53,8.993-1.115Q-2226.469,2368.254-2226.48,2368.851Z" transform="translate(2593.507 -2348.324)" fill="#fff"/>
    </g>
  </g>
</svg>