<svg xmlns="http://www.w3.org/2000/svg" width="199.244" height="332.562" viewBox="0 0 199.244 332.562">
  <g id="Group_349" data-name="Group 349" transform="translate(-6926.489 -3112.514)" opacity="0.781">
    <path id="Path_711" data-name="Path 711" d="M7040.933,3171.069c-2.358,7.552-8.625,11.912-17.777,12.339-8.138.38-17.635-2.392-20.805-12.178-14.623,2.963-25.993,10.283-32.359,24.21-5.1,11.156-6.053,23.048-4.9,35.025.75,7.811,3.91,14.761,11.486,18.582,6.528,3.292,13.451,4,19.838.278,10.031-5.846,20.8-6.488,31.893-5.915a1.909,1.909,0,0,1,1.511,1.143c-6.713.412-13.592.051-20.09,1.454-6.42,1.386-12.457,4.556-18.989,7.07,4.041,5.4,9.978,7.445,15.732,9.769l-.252.737a9.371,9.371,0,0,1-2.811-.3c-5.075-2.226-10.187-4.408-13.864-8.87a3.666,3.666,0,0,0-2.345-1.144c-8.524-.588-15.471-3.635-20.273-11.238-1.171-1.855-4.3-2.637-6.666-3.538-3.644-1.387-6.989-3.673-11.294-3.18a4.136,4.136,0,0,1-4.253-3.336c-.644-2.376-.554-4.628,1.543-6.351a17,17,0,0,1,2.629-2c2.838-1.515,4.362-3.454,3.246-6.912-.213-.657.741-1.983,1.487-2.606,3.056-2.552,6.325-4.853,9.332-7.458a9.012,9.012,0,0,0,2.743-3.955c2.815-9.593,7.483-17.9,15.574-24.076a46.5,46.5,0,0,1,18.315-8.324c2.375-.534,3.754-1.481,4.071-4.107a39.393,39.393,0,0,1,1.8-6.718,4.118,4.118,0,0,1,4.336-3.177c2.462-.022,5.835.523,7.135-.812,1.374-1.411.826-4.741,1.024-7.24.456-5.764.737-11.545,1.333-17.293.24-2.317-1.618-2.525-2.74-3.344-4.572-3.338-4.739-9.7-.178-13.005a9.774,9.774,0,0,1,11.276-.576,7.969,7.969,0,0,1,4.423,7.761c-.219,3.287-2.306,5.278-4.909,6.979a3.359,3.359,0,0,0-1.441,2.414c.389,7.357,1.047,14.7,1.406,22.059.12,2.459,1.03,3.357,3.4,3.114a7,7,0,0,1,3.323.083,6.648,6.648,0,0,1,3.32,2.621,50.421,50.421,0,0,1,2.618,7.93,4.213,4.213,0,0,0,3.59,3.211c8.967,1.983,16.965,5.867,23.379,12.569a45.956,45.956,0,0,1,10.811,19.741,8.866,8.866,0,0,0,2.663,3.928c3.12,2.749,6.509,5.191,9.641,7.927a3.737,3.737,0,0,1,1.156,2.951c-.585,2.786.277,4.579,2.764,5.838a14.423,14.423,0,0,1,2.93,2.1c1.835,1.619,3.119,3.574,2.266,6.132-.838,2.517-2.7,4.228-5.388,4.08-6.021-.333-10.517,3.709-15.879,5.218a3.617,3.617,0,0,0-1.747,1.695,20.249,20.249,0,0,1-14.834,10.141,9.682,9.682,0,0,0-5.893,3.179,28.753,28.753,0,0,1-12.914,7.8c-1.147.362-2.282.763-4.056,1.358l3.625,7.846c5.172.851,9.831,1.494,14.431,2.422,2.807.566,5.179,1.912,6.162,4.993.147.462,1.5.845,2.237.764,5.05-.55,8.926.932,11.137,5.822a4.242,4.242,0,0,0,1.791,1.65A43.278,43.278,0,0,1,7096,3308.885a6.673,6.673,0,0,0,.829,1.1c1.282-3.688,2.292-7.287,3.764-10.684,2.949-6.8,7.579-12.414,12.916-17.514a43.628,43.628,0,0,0,4.777-5.889c.262-.356-.229-1.2-.2-1.8.139-2.742-.218-5.676.65-8.177,1.318-3.8,5.664-4.435,10.218-2.023,5.547,2.938,6.17,7.5,1.581,11.822a13.56,13.56,0,0,1-2.637,2.036,4.4,4.4,0,0,0-2.6,3.542c-.147,1.03-1.575,1.846-2.333,2.83-.659.854-1.647,1.779-1.7,2.72-.732,12.178-6.956,21.229-16.085,28.649-1.292,1.05-2.4,1.89-2.747,3.827-.549,3.064-5.411,5.68-8.275,4.219-6.31-3.219-13.5-4.6-19.03-9.5a35.75,35.75,0,0,1-8.342-10.905c-.166-.33-.351-.652-.545-.966-.021-.035-.166,0-.568.028.83,21.646.027,43.1-10.017,63.114,3.185,2.384,4.973,5.173,3.522,9.329-.32.916.474,2.22.849,3.724l3.8-4.062c2.17,8.6,4.156,16.366,6.092,24.149,1.312,5.277-.367,10.334-1.194,15.462-.83,5.146-1.591,10.308-2.137,15.488a6.154,6.154,0,0,0,1.3,3.5c1.163,1.785,2.695,3.33,3.848,5.119a10.4,10.4,0,0,1,1.647,3.992c.27,1.885-.476,3.13-2.839,3.057-4.757-.147-9.521-.042-14.282-.044-5.139,0-9.129-4.9-6.894-9.445s1-8.258-.026-12.625a83.58,83.58,0,0,1-1.312-33.058,18.233,18.233,0,0,0-.394-8.836c-.678-2.223-2.327-2.9-4.3-1.656-10.164,6.41-20.922,7.112-32.111,3.332a31.007,31.007,0,0,1-5.464-2.662c-2.808-1.62-4.175-1.167-5.047,1.826-.389,1.335-.879,2.64-1.253,3.978-.141.5-.295,1.414-.083,1.542,2.291,1.38,1.629,3.682,1.592,5.567-.173,8.847-.388,17.7-.967,26.528-.19,2.9-1.618,5.7-2.283,8.589a8.3,8.3,0,0,0,.091,3.59c.348,1.521,1.2,2.93,1.527,4.453,1.143,5.311-1.8,8.878-7.2,8.877-4.574,0-9.148.014-13.723,0-3.157-.012-4.528-2.177-2.876-4.973,1.5-2.535,3.6-4.709,5.123-7.231a7.268,7.268,0,0,0,1.058-4.356c-.914-6.817-2.4-13.567-3.074-20.4a41.844,41.844,0,0,1,.6-12.472c1.431-6.872,3.592-13.59,5.639-21.075l3.884,4.065c.368-2.425.524-4.176.92-5.872a15.942,15.942,0,0,1,1.684-5.094c.883-1.349,1.11-2.252.368-3.7-5.929-11.547-8.2-24.045-9.172-36.817-.469-6.133-.538-12.3-.7-18.45a15.622,15.622,0,0,1,.589-3.229l.967.1c0,1.139.021,2.279,0,3.417-.311,14.616.895,29.1,5.144,43.121,3.212,10.6,8.121,20.349,17.929,26.593,6.7,4.263,14.081,5.512,21.9,4.529,15.326-1.926,23.575-12.038,28.866-25.3,6.517-16.331,7.623-33.476,6.964-50.819-.173-4.562-.432-9.132-.973-13.66a5.093,5.093,0,0,0-2.335-3.2c-5.68-3.314-11.739-3.163-17.779-1.182a5.423,5.423,0,0,0-2.688,2.744c-2.187,4.664-4.5,9.273-9.138,11.926-7.452,4.263-16.428,1.665-20.915-5.944-1.353-2.3-2.25-4.856-3.485-7.228a5.8,5.8,0,0,0-1.869-2c-1.237-.838-2.606-1.48-3.92-2.205l.354-.745,4.033,1.282c-.061-1.257-.114-2.384-.168-3.511l.683-.235a15.169,15.169,0,0,1,.97,2.027c1.516,4.863,2.974,9.657,6.2,13.852,5.332,6.933,16.564,6.936,22.016-.85,4.273-6.1,5.958-13.158,6.766-20.384.19-1.7-1.145-3.617-1.928-5.368-.795-1.779-2.016-3.4-2.61-5.229-.629-1.94-1.678-2.048-3.381-1.762-2.5.42-5.045.574-7.57.841l-.17-1.2c1.519-.217,3.033-.477,4.557-.645,7.575-.836,14.75-2.76,20.883-7.568,1.153-.9,2.3-1.819,3.838-3.041-4.4-1.706-8.807-1.263-11.094-5.391,1.361.565,2.7,1.182,4.087,1.687,13.439,4.9,26.4-2.473,28.973-16.49.529-2.885.957-5.79,1.431-8.686l.936.039c-.095,2.174-.053,4.365-.324,6.516-.275,2.187-.859,4.334-1.31,6.5,4.809.475,8.445-2.332,9.165-6.828.717-4.479,1.67-8.921,2.354-13.4a3.024,3.024,0,0,0-1.03-2.322c-3.638-2.938-7.488-5.624-11.024-8.675-1.038-.9-1.462-2.657-1.869-4.1-4.362-15.525-14.187-25.6-29.741-30.023C7044.464,3172.121,7042.782,3171.612,7040.933,3171.069Zm22.094,207.072a9.932,9.932,0,0,0-1.125,1.02c-3.074,4.17-6.668,7.673-11.509,9.835-.757.338-1.331,1.986-1.316,3.019.12,8.194.06,16.416.773,24.566.381,4.349,1.888,8.686,3.452,12.813,1.027,2.707,4.346,3.574,7.709,3.063,2.9-.441,3.945-2.263,4.328-4.935.938-6.53,1.932-13.052,3.038-19.555C7070.166,3397.436,7065.649,3388.147,7063.027,3378.141Zm-76.852.163c-.512.57-.871.8-.969,1.106-1.06,3.358-2.122,6.717-3.1,10.1-1.691,5.846-2.832,11.807-2.018,17.9.958,7.177,2.19,14.321,3.434,21.456a4.513,4.513,0,0,0,1.708,2.652c2.677,1.857,8.7,1.686,10.475-2.818a39.231,39.231,0,0,0,1.908-5.505c2.465-10.721,2.609-21.583,1.7-32.484a2.648,2.648,0,0,0-1.286-1.894C6992.957,3386.72,6989.378,3382.959,6986.175,3378.3Zm35.455-220.555h-5.6a33.82,33.82,0,0,0-5.863.094,4.869,4.869,0,0,0-3.1,2.073c-.871,1.587-1.107,3.519-1.635,5.3-2.059,6.948-1.686,9.126,3.852,12.971,7.555,5.244,15.783,4.978,23.771.828,4.925-2.559,6.826-6.761,5.586-10.961-.736-2.493-1.64-4.937-2.366-7.432-.6-2.062-1.7-3.041-4.01-2.92C7028.73,3157.886,7025.176,3157.749,7021.629,3157.749Zm54.629,131.641c-1.314,4.124-3.92,6.45-7.969,6.958-1.923.24-1.9,1.122-1.424,2.695,2.5,8.323,7.995,14.033,15.543,17.913a60.6,60.6,0,0,0,6.614,2.464c-.28-5.1,2.568-6.717,6.45-7.589A41.941,41.941,0,0,0,7076.258,3289.39Zm26.143,26.142c8.442-5.648,14.813-14.576,16.79-24.054.658-3.151,1.8-6.9-2.874-8.45-.267-.088-.44-.459-.806-.864-8.61,7.932-14.9,16.917-16.769,28.5a3.541,3.541,0,0,0,.9,2.376A22.8,22.8,0,0,0,7102.4,3315.532Zm-138.094-107.817c-3.548,2.755-6.583,4.979-9.435,7.422a3.678,3.678,0,0,0-1.019,2.852c.771,5.433,1.731,10.84,2.676,16.247a1.959,1.959,0,0,0,.811,1.327c2.4,1.049,4.847,1.979,8.084,3.269C6962.087,3228.2,6963.057,3218.245,6964.307,3207.715Zm79.793,67.45c-.722,4.157-1.41,8.116-2.074,11.942,3.677-.334,7.022-1.032,10.311-.828,3.335.207,6.616,1.3,9.89,2C7062.472,3277.954,7058.235,3274.8,7044.1,3275.165Zm-48.506,156.566c-3.443,2.869-6.219,3.031-12.919.717-1.32,3.862-6.017,5.858-6.051,10.988,5.954,0,11.623.024,17.291-.039a2.993,2.993,0,0,0,1.629-.873C6999.021,3439.5,6999.069,3436.222,6995.594,3431.732Zm57.045-.083c-.643,1.342-1.2,2.406-1.674,3.507-1.882,4.4,1.65,8.835,5.642,8.421,4.056-.421,8.191-.055,12.29-.123a14.907,14.907,0,0,0,2.852-.6,10.071,10.071,0,0,0-.757-3.074,60.416,60.416,0,0,0-4.564-6.245,2.368,2.368,0,0,0-2.138-.488C7060.189,3434.671,7056.334,3434.587,7052.639,3431.649Zm-22.193-310.273c.054-3.907-3.578-7.274-7.934-7.355-4.077-.076-7.941,3.294-7.965,6.948-.025,3.884,3.679,7.144,8.12,7.143C7026.856,3128.111,7030.394,3125.048,7030.445,3121.375Zm-4.535,34.907c-.576-8.584-1.082-16.739-1.751-24.88-.051-.622-1.263-1.148-1.935-1.719-.561.8-1.544,1.564-1.617,2.406-.629,7.42-1.132,14.851-1.548,22.286a2.319,2.319,0,0,0,1.329,1.819A41.745,41.745,0,0,0,7025.91,3156.282Zm93.49,114.434c.052,4.09,2.28,6.718,5.627,6.638,2.586-.062,7.1-4.87,7.018-7.471-.087-2.688-4.487-5.818-8.187-5.826C7120.771,3264.051,7119.343,3266.183,7119.4,3270.716Zm-55.942,12.416c.489,3.376.887,6.6,1.469,9.8a2.976,2.976,0,0,0,1.384,2.066c2.679.887,7.437-2.321,7.927-5.132.421-2.419-.171-4.593-2.233-5.894C7069.456,3282.361,7066.671,3281.188,7063.458,3283.133Zm32.173,30.606c-3.08.036-5.1,1.744-5.039,4.262.056,2.329,2.428,4.258,5.219,4.245,2.948-.014,5.31-2.08,5.212-4.557C7100.927,3315.242,7098.822,3313.7,7095.631,3313.738Zm-49.519,64.451c2.938-.184,5.412.037,7.669-.56a5.659,5.659,0,0,0,2.92-9.26c-.517-.542-2.3-.831-2.6-.478C7051.516,3370.973,7049.134,3374.228,7046.113,3378.19ZM6952.9,3222.737c-1.965,1.409-3.913,2.393-5.262,3.911-.957,1.077-1.77,3.06-1.424,4.3s2.067,2.48,3.448,2.952c1.478.5,3.264.114,5.341.114C6954.291,3230.19,6953.637,3226.691,6952.9,3222.737Zm135.6,11.2a32.989,32.989,0,0,0,5.687-.059c2.946-.542,4.525-3.843,2.743-5.865-1.75-1.982-4.046-3.482-6.588-5.6C7089.657,3226.688,7089.107,3230.122,7088.5,3233.934Zm-95.061,133.838c-2.679,2.354-3.049,5.383-.989,7.8,2.377,2.795,6.693,3.57,9.11,1.771Zm-2.792,9.33c-.8,1.686-1.268,3.409.584,5.008,1.185,1.023,2.309,2.123,3.546,3.077,2.136,1.649,2.943,1.38,3.711-1.1a16.019,16.019,0,0,1,.463-1.579c.721-1.685.251-2.428-1.606-2.88A58.037,58.037,0,0,1,6990.646,3377.1Zm67.307.5-8.875,3.071c.6,1.8,1.2,3.608,1.785,5.37C7055.643,3385.825,7059.632,3380.815,7057.953,3377.6Zm62.7-101.343c-1.655,1.68-3.316,2.6-3.617,3.844-.49,2.033,1.359,2.878,3.13,3,1.908.128,3.851-.638,3.709-2.735C7123.8,3279.163,7122.146,3278.065,7120.658,3276.26Z" transform="translate(-7.86)" fill="#fff"/>
    <path id="Path_712" data-name="Path 712" d="M7059.521,3296.2c6.689,1.711,12.862,0,18.8-3.074l.46.635c-.439.5-.781,1.188-1.332,1.478-13.39,7.036-29.688,2.809-37.254-8.929-6.607-10.252-3.632-23.865,6.8-31.141a28.841,28.841,0,0,1,38.1,4.459c8.111,9.228,7.333,23.2-2.376,31.953a5.873,5.873,0,0,1-1.748.611c.129-.744.047-1.346.3-1.558,14.64-12.431,7.479-32.646-9.457-37.92-12.123-3.774-26.023,1.625-31.617,12.789a20.759,20.759,0,0,0,5.447,24.763,43.694,43.694,0,0,0,8.746,5.236c-3.345-2.584-7.187-4.727-9.94-7.835-8.355-9.438-5.941-23.653,5.06-30.572,10.8-6.792,25.9-4.8,33.821,5.653a20.185,20.185,0,0,1-3.176,27.31,25.4,25.4,0,0,1-17.4,6.147C7061.682,3296.177,7060.6,3296.2,7059.521,3296.2Zm3.861-41.909c-3.3.82-6.795,1.205-9.877,2.536-11.324,4.892-17.208,18.519-8,29.769,7.128,8.709,21.465,10.771,30.894,4.333,6.623-4.523,10.389-10.584,9.221-18.868C7084.228,3262.18,7074.408,3254.436,7063.383,3254.287Z" transform="translate(-48.475 -60.455)" fill="#fff"/>
    <path id="Path_713" data-name="Path 713" d="M6941.384,3440.917c3.933,4.18,8.161,7.776,11.226,12.18,3.18,4.57,5.194,9.945,7.812,14.918.571,1.085,1.83,1.845,2.275,2.954,1.3,3.232,4.007,4.078,6.995,4.736a8.317,8.317,0,0,1,2.722,1.363c3.247,2.2,3.939,4.847,1.809,8.111a16.526,16.526,0,0,1-4.3,4.585c-3.529,2.415-7.715,1.021-9.4-3.083a64.029,64.029,0,0,1-2.123-7.294c-1.628-1.711-3.062-3.361-4.654-4.842a23.862,23.862,0,0,0-3.527-2.563c-8.961-5.675-13.9-14.109-16.758-24.052a4.078,4.078,0,0,0-2.14-2.335c-3.323-1.3-4.9-2.886-4.827-5.615.085-3.153,1.889-4.78,4.862-5.582a4.388,4.388,0,0,0,2.18-2.24c4.52-8.939,10.905-15.779,20.762-18.8.881-.269,1.811-.377,2.707-.6,3.395-.848,6.985-.3,10.11-3.03,2.573-2.248,6.29-2,9.588-.63,3.372-5.453,5.8-7.146,9.718-6.665-.192.348-.287.81-.52.9-3.214,1.186-6.661,2.008-7.279,6.316-.053.365-1.965.805-2.918.644-6.15-1.042-8.176-.25-11.175,4.5-1.253-.388-2.44-1.135-3.555-1.041-12.17,1.035-20.156,8.017-25.661,18.393a2.376,2.376,0,0,0-.245,1.166c2.185,2.161,4.012,3.969,6.518,6.449l17.462-6.123C6953.86,3437.985,6947.667,3439.771,6941.384,3440.917Zm17.376,28.11a4.759,4.759,0,0,0-.123-1.462c-3.654-9.59-8.91-18.023-17.56-23.943a2.618,2.618,0,0,0-2.027-.442c-4.146,1.627-4.724,3.12-3.1,7.434.326.865.6,1.752.948,2.605a36.68,36.68,0,0,0,15.2,18.158,3.772,3.772,0,0,0,2.885.008A24.093,24.093,0,0,0,6958.76,3469.027Zm1.624,11.214c-.026,4.74,2.929,9.182,6.054,9.1,2.931-.079,7.373-4.515,7.375-7.366,0-2.814-4.259-5.65-8.738-5.814C6963.2,3476.09,6960.393,3478.533,6960.384,3480.242ZM6933.2,3435.6c-2.845.045-5.245,2.042-5.239,4.361.006,2.337,2.654,4.382,5.551,4.287,2.823-.093,5.115-2.138,5.03-4.49C6938.459,3437.545,6935.907,3435.558,6933.2,3435.6Zm25.043,41.64c2.662-.365,4.282-1.182,4.363-3.276.08-2.061-1.732-2.781-3.471-2.76-1.692.02-3.726.631-3.556,2.644C6955.677,3475.045,6957.3,3476.114,6958.24,3477.24Z" transform="translate(0 -127.497)" fill="#fff"/>
    <path id="Path_714" data-name="Path 714" d="M7076.5,3532.369c0-7.635-.044-15.272.031-22.907.02-1.965-.371-2.868-2.63-3.3a11.855,11.855,0,0,1-9.128-11.815c.165-5.667,3.743-10.7,8.9-11.624,2.419-.432,3.337-1.456,3.067-3.886a11.785,11.785,0,0,1,.589-5.3c0,2.106.071,4.215-.023,6.317a2.238,2.238,0,0,0,2.132,2.674c6.153,1.023,9.317,6.219,9.724,10.96.442,5.155-2.22,10.5-7.583,11.97-4.575,1.253-4.146,3.844-4.108,7.067.077,6.612.023,13.226.023,19.839Zm0-48.616c-5.244-.511-10.3,4.244-10.574,10.372-.229,5.149,4.46,10.86,9.083,10.962.485.011,1.418-1.074,1.427-1.662C7076.54,3496.935,7076.5,3490.444,7076.5,3483.752Zm1.188,21.3c5.944.173,10.457-5.461,10.287-11.047-.159-5.262-4.84-10.683-10.287-10.24Z" transform="translate(-60.827 -158.809)" fill="#fff"/>
    <path id="Path_715" data-name="Path 715" d="M7063.626,3362.039a12.928,12.928,0,0,1-4.664-7.109c-.131-.467.788-1.73,1.333-1.8a96.589,96.589,0,0,1,14.417-1.021c-4.3,2.7-9.516.382-14.338,2.9q2,3.276,3.994,6.548Z" transform="translate(-58.266 -105.388)" fill="#fff"/>
    <path id="Path_716" data-name="Path 716" d="M7136.5,3513.549c-.544-.865-1.257-1.469-1.2-1.987.57-5.074,1.221-10.142,2-15.188.083-.541,1.086-1.24,1.737-1.33a22.3,22.3,0,0,1,4.422.029c-5.02.891-4.976.9-5.672,6.108-.319,2.391-.948,4.741-1.252,7.134A46.391,46.391,0,0,0,7136.5,3513.549Z" transform="translate(-91.849 -168.221)" fill="#fff"/>
    <path id="Path_717" data-name="Path 717" d="M7025.221,3495.391c5.507-.707,5.648-.734,6.643,4.479.709,3.723,1.028,7.525,1.4,11.3a2.2,2.2,0,0,1-1.2,1.861,37.769,37.769,0,0,0-.031-4.463c-.353-2.94-1.037-5.845-1.3-8.791-.36-4.051-.262-4.076-4.425-4.3C7025.944,3495.464,7025.583,3495.422,7025.221,3495.391Z" transform="translate(-43.43 -168.272)" fill="#fff"/>
    <path id="Path_718" data-name="Path 718" d="M7146.745,3340.75c-7.4,2.61-17.1-2.007-20.042-7.025C7132.8,3338.394,7139.1,3341.509,7146.745,3340.75Z" transform="translate(-88.07 -97.306)" fill="#fff"/>
    <path id="Path_719" data-name="Path 719" d="M7146.7,3246.4c-7.7-.082-13.62,2.69-19.259,6.929C7129.66,3248.74,7140.171,3244.194,7146.7,3246.4Z" transform="translate(-88.393 -58.642)" fill="#fff"/>
    <path id="Path_720" data-name="Path 720" d="M7020.442,3337.211c-5.076,4.86-11.012,6.976-18.061,5.124C7009.063,3342.982,7014.842,3340.547,7020.442,3337.211Z" transform="translate(-33.384 -98.839)" fill="#fff"/>
    <path id="Path_721" data-name="Path 721" d="M7023.725,3252.994c-3.076-1.735-5.779-3.671-8.78-4.837-3.055-1.187-6.4-1.614-9.277-2.291C7009.385,3243.932,7019.906,3247.647,7023.725,3252.994Z" transform="translate(-34.829 -58.431)" fill="#fff"/>
    <path id="Path_722" data-name="Path 722" d="M7009.022,3438.08l-4.359-.837.047-.7a11.946,11.946,0,0,0,3.282-.359c.905-.36,1.588-1.281,2.871-2.391-.165,3.329-.316,6.356-.467,9.384l-.884.127a21.418,21.418,0,0,1-.471-2.369C7008.96,3440.024,7009.022,3439.1,7009.022,3438.08Z" transform="translate(-34.387 -141.323)" fill="#fff"/>
    <path id="Path_723" data-name="Path 723" d="M7048.461,3405.759c.183-3.844-2.012-5.341-5.059-6.123l7.1-1.011-1.3,6.592Z" transform="translate(-51.427 -125.854)" fill="#fff"/>
    <path id="Path_724" data-name="Path 724" d="M7062.025,3382.647l-3.277,5.57-.677-.184c.325-1.915.651-3.828,1.05-6.176Z" transform="translate(-57.88 -118.479)" fill="#fff"/>
    <path id="Path_725" data-name="Path 725" d="M7100.5,3358.317a7.054,7.054,0,0,1-5.2,7.214Z" transform="translate(-74.256 -108.124)" fill="#fff"/>
    <path id="Path_726" data-name="Path 726" d="M7031.332,3420.649h-8.208q.015-.442.028-.883C7025.905,3419.348,7028.661,3418.817,7031.332,3420.649Z" transform="translate(-42.508 -134.974)" fill="#fff"/>
    <path id="Path_727" data-name="Path 727" d="M6997.913,3443.781l-4.649,3.8-1.156-1.218,4.373-4.1Z" transform="translate(-28.864 -145.052)" fill="#fff"/>
    <path id="Path_728" data-name="Path 728" d="M7075.209,3384.824h5.225l.037.706h-5.151C7075.282,3385.294,7075.246,3385.059,7075.209,3384.824Z" transform="translate(-65.419 -119.783)" fill="#fff"/>
    <path id="Path_729" data-name="Path 729" d="M7102.593,3347.913l4.983.8c-1.836,1.605-2.271,1.58-5.122-.065Q7102.524,3348.281,7102.593,3347.913Z" transform="translate(-77.403 -103.547)" fill="#fff"/>
    <path id="Path_730" data-name="Path 730" d="M7071.428,3294.855c-9.616-.04-17.089-7.255-17.049-16.459.039-8.962,7.813-16.332,17.221-16.327,9.487.005,17.364,7.622,17.293,16.72C7088.822,3287.716,7081.02,3294.894,7071.428,3294.855Zm-15.889-17.267a37.044,37.044,0,0,1,5.419-1.132,3.02,3.02,0,0,1,2.473,1.231,14.626,14.626,0,0,1,.953,4.887,2.724,2.724,0,0,1-1.295,2.022,43.158,43.158,0,0,1-4.843,1.909c3.023,5.872,11.565,8.829,18.312,6.573,7.443-2.488,12.707-9.3,10.67-18.168-1.3-5.669-7.428-11.812-16.344-11.525C7062.417,3263.655,7055.977,3270.448,7055.539,3277.588Zm1.549,7.877c6.827-1.811,7.343-2.779,4.5-8.211l-6.558,2.029Z" transform="translate(-56.256 -65.786)" fill="#fff"/>
  </g>
</svg>
