 <svg
              xmlns="http://www.w3.org/2000/svg"
              width="44"
              height="44"
              viewBox="0 0 44 44"
            >
              <g
                id="Group_573"
                data-name="Group 573"
                transform="translate(-989 -194)"
              >
                <path
                  id="Rectangle_746"
                  data-name="Rectangle 746"
                  d="M0,0H40a4,4,0,0,1,4,4V44a0,0,0,0,1,0,0H0a0,0,0,0,1,0,0V0A0,0,0,0,1,0,0Z"
                  transform="translate(989 194)"
                  fill="rgba(255,255,255,0.05)"
                />
                <g id="close_black_24dp" transform="translate(999 203)">
                  <path
                    id="Path_1552"
                    data-name="Path 1552"
                    d="M0,0H24V24H0Z"
                    fill="none"
                  />
                  <path
                    id="Path_1553"
                    data-name="Path 1553"
                    d="M19,6.41,17.59,5,12,10.59,6.41,5,5,6.41,10.59,12,5,17.59,6.41,19,12,13.41,17.59,19,19,17.59,13.41,12Z"
                    fill="rgba(255,255,255,0.4)"
                  />
                </g>
              </g>
            </svg>